G04 DipTrace 3.2.0.1*
G04 BottomSilk.gbr*
%MOIN*%
G04 #@! TF.FileFunction,Legend,Bot*
G04 #@! TF.Part,Single*
%ADD10C,0.009843*%
%ADD13C,0.001969*%
%ADD14C,0.002625*%
%FSLAX26Y26*%
G04*
G70*
G90*
G75*
G01*
G04 BotSilk*
%LPD*%
X608953Y-365149D2*
D10*
X482858D1*
X608953Y-357636D2*
X482858D1*
X608953D2*
X608899Y-404972D1*
X482858Y-357636D2*
X482912Y-404972D1*
X596385Y504474D2*
X621181Y504452D1*
X621769Y504252D2*
X621726Y479471D1*
X488558Y-96479D2*
G02X352349Y-336455I-420190J79854D01*
G01*
X-476660Y105988D2*
G02X485043Y99403I480162J-104094D01*
G01*
X-492918Y-97812D2*
G03X-356269Y-340373I494413J118761D01*
G01*
X525728Y-227795D2*
D13*
X540492D1*
X554272D2*
X560177D1*
X525728Y-228780D2*
X540492D1*
X552534D2*
X562066D1*
X525728Y-229764D2*
X540492D1*
X551100D2*
X563581D1*
X525728Y-230748D2*
X540492D1*
X550026D2*
X564722D1*
X536555Y-231732D2*
X540492D1*
X549173D2*
X555453D1*
X558996D2*
X565559D1*
X536555Y-232717D2*
X540492D1*
X548455D2*
X553931D1*
X560521D2*
X566179D1*
X536555Y-233701D2*
X540492D1*
X547931D2*
X552768D1*
X561706D2*
X566615D1*
X536551Y-234685D2*
X540492D1*
X547609D2*
X551953D1*
X562575D2*
X566898D1*
X536514Y-235669D2*
X540492D1*
X547382D2*
X551319D1*
X563213D2*
X567144D1*
X536362Y-236654D2*
X540492D1*
X563653D2*
X567433D1*
X529665Y-237638D2*
X534587D1*
X536025D2*
X540492D1*
X563904D2*
X567707D1*
X528264Y-238622D2*
X540492D1*
X564027D2*
X567886D1*
X527127Y-239606D2*
X540492D1*
X564080D2*
X567980D1*
X526274Y-240591D2*
X540492D1*
X564102D2*
X568023D1*
X525643Y-241575D2*
X530687D1*
X534406D2*
X540492D1*
X564110D2*
X568041D1*
X525204Y-242559D2*
X529833D1*
X536029D2*
X540492D1*
X564113D2*
X568047D1*
X524954Y-243543D2*
X529123D1*
X537539D2*
X540492D1*
X564114D2*
X568050D1*
X524831Y-244528D2*
X528555D1*
X564114D2*
X568047D1*
X524778Y-245512D2*
X528142D1*
X564110D2*
X568013D1*
X524757Y-246496D2*
X527905D1*
X564076D2*
X567887D1*
X524748Y-247480D2*
X527821D1*
X563946D2*
X567652D1*
X524746Y-248465D2*
X527898D1*
X563672D2*
X567395D1*
X524748Y-249449D2*
X528151D1*
X547382D2*
X551319D1*
X563252D2*
X567189D1*
X524783Y-250433D2*
X528571D1*
X537539D2*
X540492D1*
X547571D2*
X551902D1*
X562631D2*
X566969D1*
X524912Y-251417D2*
X529111D1*
X536892D2*
X540336D1*
X547946D2*
X552677D1*
X561808D2*
X566653D1*
X525186Y-252402D2*
X530414D1*
X535180D2*
X540054D1*
X548479D2*
X554523D1*
X559943D2*
X566219D1*
X525606Y-253386D2*
X532309D1*
X532667D2*
X539631D1*
X549106D2*
X557118D1*
X557337D2*
X565634D1*
X526215Y-254370D2*
X539022D1*
X549932D2*
X564813D1*
X527109Y-255354D2*
X538127D1*
X551112D2*
X563643D1*
X528305Y-256339D2*
X536931D1*
X552619D2*
X562039D1*
X529665Y-257323D2*
X535571D1*
X554272D2*
X560177D1*
X436946Y435522D2*
X438915D1*
X454663D2*
X456631D1*
X435057Y434538D2*
X440804D1*
X454265D2*
X457238D1*
X433542Y433554D2*
X442315D1*
X454335D2*
X457764D1*
X432401Y432570D2*
X443425D1*
X454591D2*
X458166D1*
X431564Y431585D2*
X444171D1*
X454941D2*
X458437D1*
X430945Y430601D2*
X435134D1*
X440694D2*
X444680D1*
X455260D2*
X458679D1*
X430512Y429617D2*
X434432D1*
X441304D2*
X445096D1*
X455464D2*
X458966D1*
X430264Y428633D2*
X433866D1*
X441759D2*
X445425D1*
X455569D2*
X459240D1*
X430143Y427648D2*
X433454D1*
X442154D2*
X445631D1*
X455616D2*
X459419D1*
X430090Y426664D2*
X433213D1*
X442476D2*
X445768D1*
X455636D2*
X459513D1*
X430069Y425680D2*
X433094D1*
X442679D2*
X445939D1*
X455643D2*
X459552D1*
X430061Y424696D2*
X433046D1*
X442815D2*
X446197D1*
X455642D2*
X459535D1*
X430058Y423711D2*
X433060D1*
X442986D2*
X446491D1*
X455604D2*
X459416D1*
X430061Y422727D2*
X433181D1*
X443244D2*
X446810D1*
X455512D2*
X459179D1*
X430095Y421743D2*
X433453D1*
X443538D2*
X447195D1*
X455057D2*
X458893D1*
X430224Y420759D2*
X433868D1*
X443842D2*
X448103D1*
X453479D2*
X458592D1*
X430498Y419774D2*
X434436D1*
X444208D2*
X450200D1*
X450939D2*
X458227D1*
X430904Y418790D2*
X435162D1*
X444670D2*
X457761D1*
X431428Y417806D2*
X435962D1*
X445296D2*
X457098D1*
X432025Y416822D2*
X433993D1*
X446197D2*
X456045D1*
X447396Y415837D2*
X454510D1*
X448757Y414853D2*
X452694D1*
X430056Y410916D2*
X432025D1*
X430109Y409932D2*
X436298D1*
X430237Y408948D2*
X440528D1*
X430989Y407963D2*
X444648D1*
X433213Y406979D2*
X448632D1*
X436294Y405995D2*
X452333D1*
X439985Y405010D2*
X455396D1*
X444014Y404026D2*
X457836D1*
X448290Y403042D2*
X458889D1*
X452694Y402058D2*
X459204D1*
X449670Y401073D2*
X459357D1*
X446333Y400089D2*
X457844D1*
X442815Y399105D2*
X455642D1*
X439325Y398121D2*
X452782D1*
X436096Y397136D2*
X449504D1*
X433481Y396152D2*
X446053D1*
X431459Y395168D2*
X442512D1*
X430681Y394184D2*
X438915D1*
X430340Y393199D2*
X441906D1*
X432631Y392215D2*
X445151D1*
X435395Y391231D2*
X448551D1*
X438602Y390247D2*
X451955D1*
X442121Y389262D2*
X455013D1*
X445730Y388278D2*
X457586D1*
X449254Y387294D2*
X458779D1*
X452694Y386310D2*
X459175D1*
X448720Y385325D2*
X459411D1*
X444664Y384341D2*
X458054D1*
X440576Y383357D2*
X455882D1*
X436791Y382373D2*
X452908D1*
X433809Y381388D2*
X449392D1*
X431545Y380404D2*
X445521D1*
X430637Y379420D2*
X441416D1*
X430302Y378436D2*
X437215D1*
X430056Y377451D2*
X433009D1*
X430056Y371546D2*
X459584D1*
X430056Y370562D2*
X459584D1*
X430056Y369577D2*
X459584D1*
X430056Y368593D2*
X459584D1*
X430056Y367609D2*
X433009D1*
X455647D2*
X459584D1*
X430056Y366625D2*
X433009D1*
X455647D2*
X459584D1*
X430056Y365640D2*
X433009D1*
X455647D2*
X459584D1*
X430056Y364656D2*
X433009D1*
X455647D2*
X459584D1*
X430056Y363672D2*
X433009D1*
X455647D2*
X459584D1*
X430056Y362688D2*
X433013D1*
X455647D2*
X459580D1*
X430056Y361703D2*
X433048D1*
X455643D2*
X459546D1*
X430060Y360719D2*
X433177D1*
X455605D2*
X459420D1*
X430095Y359735D2*
X433451D1*
X455441D2*
X459181D1*
X430224Y358751D2*
X433867D1*
X455041D2*
X458894D1*
X430494Y357766D2*
X434439D1*
X454389D2*
X458593D1*
X430880Y356782D2*
X435181D1*
X453566D2*
X458227D1*
X431360Y355798D2*
X436040D1*
X452653D2*
X457765D1*
X432001Y354814D2*
X457135D1*
X432925Y353829D2*
X456184D1*
X434244Y352845D2*
X454768D1*
X435969Y351861D2*
X452871D1*
X437930Y350877D2*
X450726D1*
X-95896Y-353668D2*
X-91959D1*
X89143D2*
X93080D1*
X-95896Y-354653D2*
X-91959D1*
X89143D2*
X93080D1*
X-95896Y-355637D2*
X-91959D1*
X89143D2*
X93080D1*
X-95896Y-356621D2*
X-91959D1*
X89143D2*
X93080D1*
X-254361Y-357605D2*
X-238613D1*
X-232707D2*
X-216959D1*
X-206133D2*
X-202196D1*
X-181526D2*
X-174636D1*
X-156920D2*
X-142156D1*
X-128377D2*
X-122471D1*
X-95896D2*
X-91959D1*
X-67353D2*
X-61448D1*
X-47668D2*
X-32904D1*
X-21093D2*
X-17156D1*
X3513D2*
X10403D1*
X28119D2*
X42883D1*
X56663D2*
X62568D1*
X89143D2*
X93080D1*
X117686D2*
X123592D1*
X141308D2*
X147214D1*
X162962D2*
X166899D1*
X187568D2*
X194458D1*
X212175D2*
X226938D1*
X240718D2*
X246623D1*
X-254357Y-358590D2*
X-238613D1*
X-232704D2*
X-216959D1*
X-205759D2*
X-201822D1*
X-182809D2*
X-173235D1*
X-158355D2*
X-142156D1*
X-130114D2*
X-120582D1*
X-95896D2*
X-91959D1*
X-68788D2*
X-60013D1*
X-47668D2*
X-32904D1*
X-20719D2*
X-16782D1*
X2230D2*
X11804D1*
X26685D2*
X42883D1*
X54925D2*
X64457D1*
X89143D2*
X93080D1*
X116252D2*
X125027D1*
X139874D2*
X148615D1*
X163336D2*
X167273D1*
X186286D2*
X195859D1*
X210740D2*
X226938D1*
X238980D2*
X248512D1*
X-254322Y-359574D2*
X-238613D1*
X-232669D2*
X-216959D1*
X-205336D2*
X-201399D1*
X-183797D2*
X-172098D1*
X-159583D2*
X-142156D1*
X-131548D2*
X-119067D1*
X-95896D2*
X-91959D1*
X-70016D2*
X-58784D1*
X-47668D2*
X-32904D1*
X-20296D2*
X-16359D1*
X1242D2*
X12941D1*
X25456D2*
X42883D1*
X53491D2*
X65972D1*
X89143D2*
X93080D1*
X115023D2*
X126255D1*
X138645D2*
X149752D1*
X163759D2*
X167696D1*
X185297D2*
X196996D1*
X209511D2*
X226938D1*
X237547D2*
X250027D1*
X-254197Y-360558D2*
X-238613D1*
X-232543D2*
X-216959D1*
X-204879D2*
X-200942D1*
X-184540D2*
X-171246D1*
X-160550D2*
X-142156D1*
X-132622D2*
X-117926D1*
X-95896D2*
X-91959D1*
X-70980D2*
X-57821D1*
X-47668D2*
X-32904D1*
X-19839D2*
X-15902D1*
X499D2*
X13794D1*
X24489D2*
X42883D1*
X52417D2*
X67113D1*
X89143D2*
X93080D1*
X114060D2*
X127219D1*
X137682D2*
X150605D1*
X164216D2*
X168153D1*
X184554D2*
X197849D1*
X208544D2*
X226938D1*
X236472D2*
X251169D1*
X-253957Y-361542D2*
X-250272D1*
X-241566D2*
X-238613D1*
X-232304D2*
X-228618D1*
X-219912D2*
X-216959D1*
X-204400D2*
X-200467D1*
X-185142D2*
X-179323D1*
X-175967D2*
X-170614D1*
X-161233D2*
X-155586D1*
X-146093D2*
X-142156D1*
X-133475D2*
X-127195D1*
X-123653D2*
X-117089D1*
X-95896D2*
X-91959D1*
X-71736D2*
X-66134D1*
X-62667D2*
X-57065D1*
X-36841D2*
X-32904D1*
X-19361D2*
X-15428D1*
X-102D2*
X5716D1*
X9073D2*
X14425D1*
X23806D2*
X29453D1*
X38946D2*
X42883D1*
X51564D2*
X57844D1*
X61387D2*
X67950D1*
X89143D2*
X93080D1*
X113304D2*
X118905D1*
X122373D2*
X127975D1*
X136926D2*
X142642D1*
X146230D2*
X151236D1*
X164694D2*
X168627D1*
X183953D2*
X189772D1*
X193128D2*
X198481D1*
X207861D2*
X213508D1*
X223001D2*
X226938D1*
X235619D2*
X241899D1*
X245442D2*
X252005D1*
X-253670Y-362527D2*
X-250024D1*
X-241566D2*
X-238613D1*
X-232017D2*
X-228370D1*
X-219912D2*
X-216959D1*
X-203915D2*
X-200013D1*
X-185640D2*
X-180718D1*
X-174656D2*
X-170172D1*
X-161717D2*
X-156864D1*
X-146093D2*
X-142156D1*
X-134193D2*
X-128718D1*
X-122127D2*
X-116470D1*
X-95896D2*
X-91959D1*
X-72013D2*
X-67529D1*
X-61271D2*
X-56750D1*
X-36841D2*
X-32904D1*
X-18876D2*
X-14973D1*
X-601D2*
X4321D1*
X10384D2*
X14867D1*
X23323D2*
X28176D1*
X38946D2*
X42883D1*
X50846D2*
X56322D1*
X62912D2*
X68570D1*
X89143D2*
X93080D1*
X113027D2*
X117510D1*
X123768D2*
X128289D1*
X136649D2*
X141365D1*
X147214D2*
X151678D1*
X165179D2*
X169082D1*
X183455D2*
X188376D1*
X194439D2*
X198922D1*
X207378D2*
X212231D1*
X223001D2*
X226938D1*
X234901D2*
X240377D1*
X246967D2*
X252625D1*
X-253373Y-363511D2*
X-249734D1*
X-241566D2*
X-238613D1*
X-231720D2*
X-228081D1*
X-219912D2*
X-216959D1*
X-203424D2*
X-199617D1*
X-185986D2*
X-181791D1*
X-173615D2*
X-169904D1*
X-162123D2*
X-157759D1*
X-146093D2*
X-142156D1*
X-134718D2*
X-129880D1*
X-120943D2*
X-116033D1*
X-95896D2*
X-91959D1*
X-72163D2*
X-68602D1*
X-60198D2*
X-56474D1*
X-36841D2*
X-32904D1*
X-18385D2*
X-14577D1*
X-947D2*
X3248D1*
X11425D2*
X15135D1*
X22917D2*
X27280D1*
X38946D2*
X42883D1*
X50322D2*
X55159D1*
X64097D2*
X69006D1*
X89143D2*
X93080D1*
X112877D2*
X116437D1*
X124841D2*
X128565D1*
X136499D2*
X140473D1*
X148198D2*
X151946D1*
X165670D2*
X169478D1*
X183108D2*
X187303D1*
X195480D2*
X199190D1*
X206972D2*
X211336D1*
X223001D2*
X226938D1*
X234377D2*
X239214D1*
X248152D2*
X253061D1*
X-253046Y-364495D2*
X-249437D1*
X-241566D2*
X-238613D1*
X-231393D2*
X-227783D1*
X-219912D2*
X-216959D1*
X-202934D2*
X-199267D1*
X-186177D2*
X-182213D1*
X-172668D2*
X-169715D1*
X-162444D2*
X-158430D1*
X-146093D2*
X-142156D1*
X-135040D2*
X-130696D1*
X-120073D2*
X-115751D1*
X-95896D2*
X-91959D1*
X-72231D2*
X-68975D1*
X-59825D2*
X-56170D1*
X-36845D2*
X-32904D1*
X-17894D2*
X-14228D1*
X-1137D2*
X2826D1*
X12371D2*
X15324D1*
X22595D2*
X26610D1*
X38946D2*
X42883D1*
X50000D2*
X54344D1*
X64967D2*
X69289D1*
X89143D2*
X93080D1*
X112809D2*
X116064D1*
X125214D2*
X128869D1*
X136435D2*
X139814D1*
X149182D2*
X152135D1*
X166161D2*
X169827D1*
X182918D2*
X186881D1*
X196427D2*
X199379D1*
X206651D2*
X210665D1*
X223001D2*
X226938D1*
X234055D2*
X238399D1*
X249022D2*
X253344D1*
X-252748Y-365479D2*
X-249106D1*
X-241566D2*
X-238613D1*
X-231095D2*
X-227452D1*
X-219912D2*
X-216959D1*
X-202441D2*
X-198886D1*
X-185984D2*
X-182218D1*
X-162610D2*
X-158628D1*
X-146093D2*
X-142156D1*
X-135266D2*
X-131329D1*
X-119436D2*
X-115504D1*
X-95896D2*
X-91959D1*
X-72258D2*
X-69175D1*
X-59625D2*
X-55890D1*
X-36883D2*
X-32904D1*
X-17402D2*
X-13846D1*
X-945D2*
X2821D1*
X22430D2*
X26411D1*
X38946D2*
X42883D1*
X49773D2*
X53710D1*
X65604D2*
X69535D1*
X89143D2*
X93080D1*
X112781D2*
X115864D1*
X125414D2*
X129149D1*
X136442D2*
X139642D1*
X166653D2*
X170209D1*
X183110D2*
X186876D1*
X206485D2*
X210466D1*
X223001D2*
X226938D1*
X233828D2*
X237765D1*
X249659D2*
X253591D1*
X-252525Y-366464D2*
X-248777D1*
X-230871D2*
X-227123D1*
X-201950D2*
X-198455D1*
X-185731D2*
X-182021D1*
X-162586D2*
X-158702D1*
X-146093D2*
X-142156D1*
X-118995D2*
X-115215D1*
X-95896D2*
X-91959D1*
X-72269D2*
X-69265D1*
X-59536D2*
X-55708D1*
X-37035D2*
X-32904D1*
X-16910D2*
X-13415D1*
X-691D2*
X3018D1*
X22453D2*
X26337D1*
X38946D2*
X42883D1*
X66044D2*
X69824D1*
X89143D2*
X93080D1*
X112771D2*
X115775D1*
X125503D2*
X129331D1*
X136561D2*
X139900D1*
X167145D2*
X170640D1*
X183364D2*
X187074D1*
X206508D2*
X210392D1*
X223001D2*
X226938D1*
X250099D2*
X253879D1*
X-252302Y-367448D2*
X-248462D1*
X-230648D2*
X-226809D1*
X-201457D2*
X-197993D1*
X-185446D2*
X-181671D1*
X-162392D2*
X-158456D1*
X-146093D2*
X-142156D1*
X-118744D2*
X-114942D1*
X-95896D2*
X-91959D1*
X-72272D2*
X-69301D1*
X-59500D2*
X-55613D1*
X-43731D2*
X-38810D1*
X-37371D2*
X-32904D1*
X-16418D2*
X-12953D1*
X-406D2*
X3368D1*
X22647D2*
X26584D1*
X38946D2*
X42883D1*
X66296D2*
X70098D1*
X89143D2*
X93080D1*
X112767D2*
X115739D1*
X125539D2*
X129426D1*
X136835D2*
X140325D1*
X167638D2*
X171102D1*
X183649D2*
X187423D1*
X206702D2*
X210639D1*
X223001D2*
X226938D1*
X250351D2*
X254153D1*
X-252018Y-368432D2*
X-248129D1*
X-230364D2*
X-226475D1*
X-200966D2*
X-197512D1*
X-185087D2*
X-181238D1*
X-162120D2*
X-157796D1*
X-146093D2*
X-142156D1*
X-118621D2*
X-114762D1*
X-95896D2*
X-91959D1*
X-72274D2*
X-69314D1*
X-59486D2*
X-55570D1*
X-45132D2*
X-32904D1*
X-15926D2*
X-12473D1*
X-47D2*
X3801D1*
X22919D2*
X27243D1*
X38946D2*
X42883D1*
X66418D2*
X70277D1*
X89143D2*
X93080D1*
X112766D2*
X115725D1*
X125553D2*
X129469D1*
X137287D2*
X141431D1*
X168129D2*
X171582D1*
X184008D2*
X187857D1*
X206974D2*
X211298D1*
X223001D2*
X226938D1*
X250473D2*
X254332D1*
X-251713Y-369416D2*
X-247828D1*
X-230059D2*
X-226175D1*
X-209085D2*
X-206133D1*
X-200477D2*
X-197026D1*
X-184635D2*
X-180735D1*
X-161792D2*
X-155203D1*
X-146093D2*
X-142156D1*
X-118568D2*
X-114668D1*
X-95896D2*
X-91959D1*
X-72274D2*
X-69319D1*
X-59481D2*
X-55553D1*
X-46269D2*
X-32904D1*
X-24046D2*
X-21093D1*
X-15437D2*
X-11986D1*
X404D2*
X4304D1*
X23248D2*
X29836D1*
X38946D2*
X42883D1*
X66471D2*
X70371D1*
X89143D2*
X93080D1*
X112765D2*
X115720D1*
X125558D2*
X129487D1*
X138007D2*
X142753D1*
X160009D2*
X162962D1*
X168618D2*
X172069D1*
X184459D2*
X188359D1*
X207303D2*
X213891D1*
X223001D2*
X226938D1*
X250527D2*
X254427D1*
X-251409Y-370401D2*
X-247604D1*
X-229755D2*
X-225951D1*
X-209085D2*
X-206133D1*
X-200016D2*
X-196535D1*
X-184082D2*
X-180127D1*
X-161300D2*
X-150756D1*
X-146093D2*
X-142156D1*
X-118547D2*
X-114625D1*
X-95896D2*
X-91959D1*
X-72274D2*
X-69321D1*
X-59480D2*
X-55546D1*
X-47122D2*
X-32904D1*
X-24046D2*
X-21093D1*
X-14977D2*
X-11495D1*
X957D2*
X4912D1*
X23740D2*
X34283D1*
X38946D2*
X42883D1*
X66493D2*
X70414D1*
X89143D2*
X93080D1*
X112765D2*
X115719D1*
X125560D2*
X129494D1*
X139069D2*
X144047D1*
X160009D2*
X162962D1*
X169079D2*
X172560D1*
X185012D2*
X188967D1*
X207795D2*
X218338D1*
X223001D2*
X226938D1*
X250548D2*
X254469D1*
X-251075Y-371385D2*
X-247380D1*
X-229422D2*
X-225727D1*
X-209085D2*
X-206133D1*
X-199618D2*
X-196044D1*
X-183458D2*
X-179402D1*
X-160576D2*
X-142156D1*
X-118539D2*
X-114608D1*
X-95896D2*
X-91959D1*
X-72274D2*
X-69321D1*
X-59479D2*
X-55543D1*
X-47753D2*
X-42709D1*
X-38991D2*
X-32904D1*
X-24046D2*
X-21093D1*
X-14578D2*
X-11005D1*
X1581D2*
X5637D1*
X24463D2*
X42883D1*
X66501D2*
X70432D1*
X89143D2*
X93080D1*
X112765D2*
X115718D1*
X125560D2*
X129496D1*
X140324D2*
X144688D1*
X160009D2*
X162962D1*
X169477D2*
X173050D1*
X185636D2*
X189692D1*
X208518D2*
X226938D1*
X250556D2*
X254487D1*
X-250746Y-372369D2*
X-247097D1*
X-229092D2*
X-225443D1*
X-209085D2*
X-206133D1*
X-199267D2*
X-195551D1*
X-182826D2*
X-178656D1*
X-159652D2*
X-142156D1*
X-118536D2*
X-114601D1*
X-95896D2*
X-91959D1*
X-72274D2*
X-69321D1*
X-59479D2*
X-55542D1*
X-48192D2*
X-43563D1*
X-37368D2*
X-32904D1*
X-24046D2*
X-21093D1*
X-14228D2*
X-10512D1*
X2213D2*
X6384D1*
X25387D2*
X42883D1*
X66504D2*
X70439D1*
X89143D2*
X93080D1*
X112765D2*
X115718D1*
X125560D2*
X129497D1*
X139159D2*
X144892D1*
X160009D2*
X162962D1*
X169827D2*
X173543D1*
X186268D2*
X190439D1*
X209442D2*
X226938D1*
X250559D2*
X254494D1*
X-250431Y-373353D2*
X-246791D1*
X-228778D2*
X-225138D1*
X-209085D2*
X-206133D1*
X-198886D2*
X-195060D1*
X-182149D2*
X-177957D1*
X-158694D2*
X-142156D1*
X-118535D2*
X-114598D1*
X-95896D2*
X-91959D1*
X-72274D2*
X-69321D1*
X-59479D2*
X-55542D1*
X-48443D2*
X-44273D1*
X-35857D2*
X-32904D1*
X-24046D2*
X-21093D1*
X-13846D2*
X-10021D1*
X2890D2*
X7082D1*
X26346D2*
X42883D1*
X66505D2*
X70441D1*
X89143D2*
X93080D1*
X112765D2*
X115718D1*
X125560D2*
X129497D1*
X138161D2*
X143538D1*
X160009D2*
X162962D1*
X170209D2*
X174034D1*
X186945D2*
X191138D1*
X210401D2*
X226938D1*
X250560D2*
X254496D1*
X-250097Y-374338D2*
X-246487D1*
X-228444D2*
X-224834D1*
X-209085D2*
X-206133D1*
X-198455D2*
X-194567D1*
X-181392D2*
X-177245D1*
X-157851D2*
X-142156D1*
X-118534D2*
X-114601D1*
X-95896D2*
X-91959D1*
X-72274D2*
X-69322D1*
X-59479D2*
X-55542D1*
X-48565D2*
X-44841D1*
X-24046D2*
X-21093D1*
X-13415D2*
X-9528D1*
X3647D2*
X7794D1*
X27188D2*
X42883D1*
X66505D2*
X70438D1*
X89143D2*
X93080D1*
X112765D2*
X115718D1*
X125560D2*
X129497D1*
X137374D2*
X142096D1*
X160009D2*
X162962D1*
X170640D2*
X174527D1*
X187703D2*
X191849D1*
X211243D2*
X226938D1*
X250560D2*
X254493D1*
X-249797Y-375322D2*
X-246154D1*
X-228143D2*
X-224501D1*
X-209093D2*
X-206133D1*
X-197990D2*
X-194076D1*
X-180632D2*
X-176444D1*
X-157648D2*
X-152827D1*
X-146093D2*
X-142156D1*
X-118538D2*
X-114636D1*
X-95896D2*
X-91959D1*
X-72274D2*
X-69322D1*
X-59479D2*
X-55542D1*
X-48618D2*
X-45254D1*
X-24046D2*
X-21093D1*
X-12950D2*
X-9036D1*
X4407D2*
X8595D1*
X27391D2*
X32212D1*
X38946D2*
X42883D1*
X66501D2*
X70404D1*
X89143D2*
X93080D1*
X112765D2*
X115718D1*
X125560D2*
X129497D1*
X136740D2*
X140904D1*
X160001D2*
X162962D1*
X171105D2*
X175019D1*
X188462D2*
X192650D1*
X211447D2*
X216268D1*
X223001D2*
X226938D1*
X250556D2*
X254459D1*
X-249573Y-376306D2*
X-245825D1*
X-227919D2*
X-224171D1*
X-209162D2*
X-206133D1*
X-197484D2*
X-193587D1*
X-179928D2*
X-175588D1*
X-157919D2*
X-153533D1*
X-146093D2*
X-142156D1*
X-118573D2*
X-114761D1*
X-95896D2*
X-91959D1*
X-72274D2*
X-69322D1*
X-59479D2*
X-55546D1*
X-48640D2*
X-45491D1*
X-24046D2*
X-21093D1*
X-12444D2*
X-8547D1*
X5111D2*
X9451D1*
X27120D2*
X31507D1*
X38946D2*
X42883D1*
X66467D2*
X70278D1*
X89143D2*
X93080D1*
X112765D2*
X115718D1*
X125560D2*
X129494D1*
X136220D2*
X139975D1*
X159932D2*
X162962D1*
X171611D2*
X175508D1*
X189166D2*
X193506D1*
X211175D2*
X215562D1*
X223001D2*
X226938D1*
X250522D2*
X254333D1*
X-249349Y-377290D2*
X-245510D1*
X-227695D2*
X-223856D1*
X-209324D2*
X-206133D1*
X-196914D2*
X-193130D1*
X-179218D2*
X-174772D1*
X-158373D2*
X-154133D1*
X-146093D2*
X-142156D1*
X-118702D2*
X-114997D1*
X-95896D2*
X-91959D1*
X-72274D2*
X-69322D1*
X-59479D2*
X-55580D1*
X-48648D2*
X-45576D1*
X-24046D2*
X-21093D1*
X-11875D2*
X-8091D1*
X5821D2*
X10267D1*
X26667D2*
X30907D1*
X38946D2*
X42883D1*
X66338D2*
X70043D1*
X89143D2*
X93080D1*
X112765D2*
X115718D1*
X125560D2*
X129459D1*
X135831D2*
X139646D1*
X159771D2*
X162962D1*
X172180D2*
X175964D1*
X189876D2*
X194322D1*
X210722D2*
X214962D1*
X223001D2*
X226938D1*
X250393D2*
X254098D1*
X-249065Y-378275D2*
X-245176D1*
X-227412D2*
X-223523D1*
X-209862D2*
X-206133D1*
X-196290D2*
X-192766D1*
X-178447D2*
X-174041D1*
X-158949D2*
X-154674D1*
X-146093D2*
X-142156D1*
X-118976D2*
X-115253D1*
X-95896D2*
X-91959D1*
X-72274D2*
X-69318D1*
X-59483D2*
X-55706D1*
X-48651D2*
X-45499D1*
X-24046D2*
X-21093D1*
X-11251D2*
X-7727D1*
X6592D2*
X10998D1*
X26091D2*
X30365D1*
X38946D2*
X42883D1*
X66063D2*
X69786D1*
X89143D2*
X93080D1*
X112765D2*
X115722D1*
X125557D2*
X129333D1*
X135604D2*
X139473D1*
X159232D2*
X162962D1*
X172804D2*
X176328D1*
X190647D2*
X195053D1*
X210146D2*
X214420D1*
X223001D2*
X226938D1*
X250118D2*
X253842D1*
X-248760Y-379259D2*
X-244876D1*
X-227106D2*
X-223222D1*
X-210376D2*
X-192545D1*
X-177682D2*
X-173320D1*
X-159529D2*
X-155185D1*
X-146093D2*
X-142156D1*
X-135266D2*
X-131329D1*
X-119396D2*
X-115459D1*
X-95896D2*
X-91959D1*
X-72274D2*
X-69275D1*
X-59525D2*
X-55942D1*
X-48648D2*
X-45245D1*
X-26014D2*
X-7506D1*
X7357D2*
X11719D1*
X25511D2*
X29854D1*
X38946D2*
X42883D1*
X49773D2*
X53710D1*
X65643D2*
X69580D1*
X89143D2*
X93080D1*
X112765D2*
X115764D1*
X125514D2*
X129098D1*
X135524D2*
X139437D1*
X158719D2*
X176549D1*
X191412D2*
X195774D1*
X209566D2*
X213909D1*
X223001D2*
X226938D1*
X233828D2*
X237765D1*
X249698D2*
X253635D1*
X-248456Y-380243D2*
X-244651D1*
X-226802D2*
X-222998D1*
X-210762D2*
X-192434D1*
X-176977D2*
X-172545D1*
X-160073D2*
X-155686D1*
X-146093D2*
X-142156D1*
X-135077D2*
X-130747D1*
X-120017D2*
X-115680D1*
X-95896D2*
X-91959D1*
X-72270D2*
X-69172D1*
X-59629D2*
X-56198D1*
X-48614D2*
X-44825D1*
X-35857D2*
X-32904D1*
X-26014D2*
X-7395D1*
X8063D2*
X12495D1*
X24966D2*
X29353D1*
X38946D2*
X42883D1*
X49963D2*
X54293D1*
X65022D2*
X69360D1*
X89143D2*
X93080D1*
X112769D2*
X115868D1*
X125410D2*
X128842D1*
X135603D2*
X139500D1*
X149182D2*
X153119D1*
X158332D2*
X176661D1*
X192118D2*
X196550D1*
X209021D2*
X213409D1*
X223001D2*
X226938D1*
X234018D2*
X238348D1*
X249077D2*
X253415D1*
X-248123Y-381227D2*
X-244428D1*
X-226469D2*
X-222774D1*
X-210716D2*
X-192383D1*
X-176262D2*
X-171782D1*
X-160593D2*
X-156180D1*
X-146093D2*
X-142156D1*
X-134703D2*
X-129971D1*
X-120840D2*
X-115996D1*
X-95896D2*
X-91959D1*
X-72232D2*
X-68628D1*
X-60173D2*
X-56408D1*
X-48484D2*
X-44285D1*
X-36505D2*
X-33060D1*
X-26014D2*
X-7343D1*
X8777D2*
X13258D1*
X24447D2*
X28859D1*
X38946D2*
X42883D1*
X50337D2*
X55068D1*
X64199D2*
X69044D1*
X89143D2*
X93080D1*
X112807D2*
X116412D1*
X124866D2*
X128631D1*
X135853D2*
X140037D1*
X148535D2*
X152742D1*
X158378D2*
X176712D1*
X192832D2*
X197313D1*
X208502D2*
X212915D1*
X223001D2*
X226938D1*
X234392D2*
X239123D1*
X248255D2*
X253099D1*
X-247793Y-382212D2*
X-244144D1*
X-226139D2*
X-222490D1*
X-210232D2*
X-192353D1*
X-175457D2*
X-171114D1*
X-161096D2*
X-156674D1*
X-146093D2*
X-142156D1*
X-134170D2*
X-128125D1*
X-122705D2*
X-116429D1*
X-95896D2*
X-91959D1*
X-72068D2*
X-66943D1*
X-61858D2*
X-56663D1*
X-48210D2*
X-42982D1*
X-38216D2*
X-33343D1*
X-26014D2*
X-7314D1*
X9582D2*
X13926D1*
X23944D2*
X28366D1*
X38946D2*
X42883D1*
X50870D2*
X56914D1*
X62334D2*
X68610D1*
X89143D2*
X93080D1*
X112971D2*
X118096D1*
X123182D2*
X128376D1*
X136231D2*
X141720D1*
X146823D2*
X152284D1*
X158863D2*
X176741D1*
X193637D2*
X197981D1*
X207999D2*
X212421D1*
X223001D2*
X226938D1*
X234925D2*
X240969D1*
X246389D2*
X252665D1*
X-247478Y-383196D2*
X-243839D1*
X-225825D2*
X-222185D1*
X-209737D2*
X-206133D1*
X-174572D2*
X-170563D1*
X-161593D2*
X-157165D1*
X-146093D2*
X-142156D1*
X-133543D2*
X-125530D1*
X-125311D2*
X-117015D1*
X-95896D2*
X-91959D1*
X-71665D2*
X-64443D1*
X-64358D2*
X-57108D1*
X-47790D2*
X-41087D1*
X-40729D2*
X-33765D1*
X-24046D2*
X-21093D1*
X10468D2*
X14476D1*
X23446D2*
X27874D1*
X38946D2*
X42883D1*
X51497D2*
X59509D1*
X59728D2*
X68025D1*
X89143D2*
X93080D1*
X113375D2*
X120597D1*
X120682D2*
X127931D1*
X136712D2*
X144219D1*
X144310D2*
X151694D1*
X159357D2*
X162962D1*
X194523D2*
X198532D1*
X207502D2*
X211929D1*
X223001D2*
X226938D1*
X235552D2*
X243564D1*
X243783D2*
X252080D1*
X-247144Y-384180D2*
X-243534D1*
X-225491D2*
X-221880D1*
X-209401D2*
X-206133D1*
X-186448D2*
X-170157D1*
X-162089D2*
X-157655D1*
X-146093D2*
X-142156D1*
X-132716D2*
X-117835D1*
X-95896D2*
X-91959D1*
X-70975D2*
X-57815D1*
X-47182D2*
X-34375D1*
X-24046D2*
X-21093D1*
X-1408D2*
X14883D1*
X22950D2*
X27384D1*
X38946D2*
X42883D1*
X52323D2*
X67204D1*
X89143D2*
X93080D1*
X114064D2*
X127224D1*
X137382D2*
X150908D1*
X159693D2*
X162962D1*
X182647D2*
X198938D1*
X207005D2*
X211439D1*
X223001D2*
X226938D1*
X236378D2*
X251259D1*
X-246845Y-385164D2*
X-243196D1*
X-225192D2*
X-221542D1*
X-209222D2*
X-206133D1*
X-186448D2*
X-169917D1*
X-162608D2*
X-158121D1*
X-146093D2*
X-142156D1*
X-131536D2*
X-119006D1*
X-95896D2*
X-91959D1*
X-70000D2*
X-58797D1*
X-46287D2*
X-35269D1*
X-24046D2*
X-21093D1*
X-1408D2*
X15122D1*
X22431D2*
X26918D1*
X38946D2*
X42883D1*
X53504D2*
X66034D1*
X89143D2*
X93080D1*
X115040D2*
X126242D1*
X138388D2*
X149889D1*
X159873D2*
X162962D1*
X182647D2*
X199177D1*
X206486D2*
X210973D1*
X223001D2*
X226938D1*
X237559D2*
X250089D1*
X-246640Y-386149D2*
X-242859D1*
X-224987D2*
X-221205D1*
X-209136D2*
X-206133D1*
X-186448D2*
X-169793D1*
X-163183D2*
X-158531D1*
X-146093D2*
X-142156D1*
X-130029D2*
X-120609D1*
X-95896D2*
X-91959D1*
X-68751D2*
X-60048D1*
X-45091D2*
X-36465D1*
X-24046D2*
X-21093D1*
X-1408D2*
X15246D1*
X21857D2*
X26508D1*
X38946D2*
X42883D1*
X55010D2*
X64430D1*
X89143D2*
X93080D1*
X116289D2*
X124991D1*
X139761D2*
X148622D1*
X159959D2*
X162962D1*
X182647D2*
X199301D1*
X205912D2*
X210563D1*
X223001D2*
X226938D1*
X239065D2*
X248485D1*
X-246487Y-387133D2*
X-242550D1*
X-224833D2*
X-220896D1*
X-209085D2*
X-206133D1*
X-186448D2*
X-169715D1*
X-163810D2*
X-158888D1*
X-146093D2*
X-142156D1*
X-128377D2*
X-122471D1*
X-95896D2*
X-91959D1*
X-67353D2*
X-61448D1*
X-43731D2*
X-37825D1*
X-24046D2*
X-21093D1*
X-1408D2*
X15324D1*
X21230D2*
X26151D1*
X38946D2*
X42883D1*
X56663D2*
X62568D1*
X89143D2*
X93080D1*
X117686D2*
X123592D1*
X141308D2*
X147214D1*
X160009D2*
X162962D1*
X182647D2*
X199379D1*
X205285D2*
X210206D1*
X223001D2*
X226938D1*
X240718D2*
X246623D1*
X-95896Y-388117D2*
X-91959D1*
X89143D2*
X93080D1*
X-95896Y-389101D2*
X-91959D1*
X89143D2*
X93080D1*
X-95896Y-390086D2*
X-91959D1*
X89143D2*
X93080D1*
X-95896Y-391070D2*
X-91959D1*
X89143D2*
X93080D1*
X-271563Y390406D2*
X-265657D1*
X-248925D2*
X-247941D1*
X-227272D2*
X-221366D1*
X-202665D2*
X-195776D1*
X-166248D2*
X-160343D1*
X-142626D2*
X-141642D1*
X-70776D2*
X-64870D1*
X-33374D2*
X-32390D1*
X-18610D2*
X-14673D1*
X1075D2*
X5012D1*
X38476D2*
X49303D1*
X57177D2*
X60130D1*
X74894D2*
X77846D1*
X82768D2*
X106390D1*
X141823D2*
X142807D1*
X156587D2*
X180209D1*
X183161D2*
X187098D1*
X198909D2*
X202846D1*
X207768D2*
X225484D1*
X230406D2*
X249106D1*
X254028D2*
X271744D1*
X-272998Y389421D2*
X-264223D1*
X-248925D2*
X-246953D1*
X-228673D2*
X-219931D1*
X-204100D2*
X-194382D1*
X-167649D2*
X-158908D1*
X-142626D2*
X-140654D1*
X-105224D2*
X-103256D1*
X-72395D2*
X-63625D1*
X-33374D2*
X-31402D1*
X-18118D2*
X-14333D1*
X923D2*
X4671D1*
X36284D2*
X49303D1*
X57177D2*
X60130D1*
X74894D2*
X77846D1*
X82768D2*
X106390D1*
X141667D2*
X143181D1*
X156587D2*
X180209D1*
X183994D2*
X187931D1*
X198909D2*
X202846D1*
X207768D2*
X225484D1*
X230406D2*
X249106D1*
X254028D2*
X271744D1*
X-274226Y388437D2*
X-262990D1*
X-248925D2*
X-245930D1*
X-229810D2*
X-218699D1*
X-205329D2*
X-193166D1*
X-168786D2*
X-157675D1*
X-142626D2*
X-139631D1*
X-105224D2*
X-103256D1*
X-73672D2*
X-62622D1*
X-33374D2*
X-30379D1*
X-17710D2*
X-14005D1*
X675D2*
X4344D1*
X34572D2*
X49303D1*
X57177D2*
X60130D1*
X74894D2*
X77846D1*
X82768D2*
X106390D1*
X141388D2*
X143604D1*
X156587D2*
X180209D1*
X184730D2*
X188667D1*
X198909D2*
X202846D1*
X207768D2*
X225484D1*
X230406D2*
X249106D1*
X254028D2*
X271744D1*
X-275193Y387453D2*
X-261992D1*
X-248925D2*
X-244786D1*
X-230663D2*
X-217701D1*
X-206292D2*
X-192554D1*
X-169639D2*
X-156677D1*
X-142626D2*
X-138487D1*
X-105224D2*
X-103256D1*
X-74567D2*
X-62224D1*
X-33374D2*
X-29235D1*
X-17327D2*
X-13693D1*
X385D2*
X4032D1*
X33385D2*
X49303D1*
X57177D2*
X60130D1*
X74894D2*
X77846D1*
X82768D2*
X106390D1*
X141008D2*
X144061D1*
X156587D2*
X180209D1*
X185425D2*
X189362D1*
X198909D2*
X202846D1*
X207768D2*
X225484D1*
X230406D2*
X249106D1*
X254028D2*
X271744D1*
X-275876Y386469D2*
X-271526D1*
X-265695D2*
X-261219D1*
X-248925D2*
X-243444D1*
X-231298D2*
X-225938D1*
X-221716D2*
X-216924D1*
X-207048D2*
X-202509D1*
X-196760D2*
X-192527D1*
X-170274D2*
X-164914D1*
X-160692D2*
X-155900D1*
X-142626D2*
X-137145D1*
X-105224D2*
X-103256D1*
X-75238D2*
X-70734D1*
X-63886D2*
X-61917D1*
X-33374D2*
X-27893D1*
X-16976D2*
X-13357D1*
X84D2*
X3696D1*
X32560D2*
X38674D1*
X46350D2*
X49303D1*
X57177D2*
X60130D1*
X74894D2*
X77846D1*
X93594D2*
X96547D1*
X140596D2*
X144535D1*
X167413D2*
X170366D1*
X186111D2*
X190048D1*
X198909D2*
X202846D1*
X222531D2*
X225484D1*
X245169D2*
X249106D1*
X268791D2*
X271744D1*
X-276360Y385484D2*
X-272380D1*
X-264841D2*
X-260625D1*
X-248925D2*
X-242010D1*
X-231771D2*
X-227215D1*
X-220438D2*
X-216295D1*
X-207325D2*
X-203207D1*
X-194791D2*
X-192823D1*
X-170748D2*
X-166192D1*
X-159414D2*
X-155272D1*
X-142626D2*
X-135711D1*
X-105224D2*
X-103256D1*
X-75474D2*
X-71554D1*
X-33374D2*
X-26459D1*
X-16654D2*
X-13027D1*
X-278D2*
X3366D1*
X31926D2*
X37152D1*
X46350D2*
X49303D1*
X57177D2*
X60130D1*
X74894D2*
X77846D1*
X93594D2*
X96547D1*
X140218D2*
X144990D1*
X167413D2*
X170366D1*
X186764D2*
X190701D1*
X198909D2*
X202846D1*
X222531D2*
X225484D1*
X245169D2*
X249106D1*
X268791D2*
X271744D1*
X-276766Y384500D2*
X-273090D1*
X-264131D2*
X-260202D1*
X-248925D2*
X-240766D1*
X-232147D2*
X-228111D1*
X-219539D2*
X-215747D1*
X-207475D2*
X-203738D1*
X-171124D2*
X-167087D1*
X-158515D2*
X-154724D1*
X-142626D2*
X-134467D1*
X-105224D2*
X-103256D1*
X-75598D2*
X-72135D1*
X-33374D2*
X-25215D1*
X-16313D2*
X-12712D1*
X-698D2*
X3047D1*
X31412D2*
X36002D1*
X46350D2*
X49303D1*
X57177D2*
X60130D1*
X74894D2*
X77846D1*
X93594D2*
X96547D1*
X139879D2*
X145386D1*
X167413D2*
X170366D1*
X187420D2*
X191357D1*
X198909D2*
X202846D1*
X222531D2*
X225484D1*
X245169D2*
X249106D1*
X268791D2*
X271744D1*
X-277091Y383516D2*
X-273658D1*
X-263563D2*
X-259958D1*
X-248925D2*
X-239775D1*
X-232505D2*
X-228687D1*
X-218932D2*
X-215267D1*
X-207539D2*
X-204132D1*
X-171482D2*
X-167663D1*
X-157909D2*
X-154243D1*
X-142626D2*
X-133477D1*
X-105224D2*
X-103256D1*
X-75621D2*
X-72523D1*
X-33374D2*
X-24225D1*
X-15981D2*
X-12374D1*
X-1126D2*
X2678D1*
X31031D2*
X35128D1*
X46350D2*
X49303D1*
X57177D2*
X60130D1*
X74894D2*
X77846D1*
X93594D2*
X96547D1*
X139531D2*
X145736D1*
X167413D2*
X170366D1*
X188090D2*
X192027D1*
X198909D2*
X202846D1*
X222531D2*
X225484D1*
X245169D2*
X249106D1*
X268791D2*
X271744D1*
X-277291Y382531D2*
X-274067D1*
X-263154D2*
X-259838D1*
X-248925D2*
X-245972D1*
X-243020D2*
X-239384D1*
X-232811D2*
X-229031D1*
X-218497D2*
X-214895D1*
X-207532D2*
X-204053D1*
X-171787D2*
X-168007D1*
X-157473D2*
X-153871D1*
X-142626D2*
X-139673D1*
X-136720D2*
X-133117D1*
X-105224D2*
X-103256D1*
X-75515D2*
X-72518D1*
X-33374D2*
X-30421D1*
X-27469D2*
X-23865D1*
X-15661D2*
X-12043D1*
X-1511D2*
X2256D1*
X30837D2*
X34828D1*
X46350D2*
X49303D1*
X57177D2*
X60130D1*
X74894D2*
X77846D1*
X93594D2*
X96547D1*
X139195D2*
X146117D1*
X167413D2*
X170366D1*
X188737D2*
X192674D1*
X198909D2*
X202846D1*
X222531D2*
X225484D1*
X245169D2*
X249106D1*
X268791D2*
X271744D1*
X-277393Y381547D2*
X-274273D1*
X-262947D2*
X-259785D1*
X-248925D2*
X-245972D1*
X-241051D2*
X-239083D1*
X-233004D2*
X-229303D1*
X-218115D2*
X-214670D1*
X-207417D2*
X-203865D1*
X-171980D2*
X-168279D1*
X-157091D2*
X-153647D1*
X-142626D2*
X-139673D1*
X-134752D2*
X-132914D1*
X-105224D2*
X-103256D1*
X-75246D2*
X-72055D1*
X-33374D2*
X-30421D1*
X-25500D2*
X-23662D1*
X-15293D2*
X-11728D1*
X-1852D2*
X1827D1*
X30849D2*
X34702D1*
X46350D2*
X49303D1*
X57177D2*
X60130D1*
X74894D2*
X77846D1*
X93594D2*
X96547D1*
X138875D2*
X141671D1*
X143943D2*
X146544D1*
X167413D2*
X170366D1*
X189390D2*
X193327D1*
X198909D2*
X202846D1*
X222531D2*
X225484D1*
X245169D2*
X249106D1*
X268791D2*
X271744D1*
X-277439Y380563D2*
X-274263D1*
X-262958D2*
X-259768D1*
X-248925D2*
X-245972D1*
X-233103D2*
X-229601D1*
X-217800D2*
X-214558D1*
X-207181D2*
X-203611D1*
X-172080D2*
X-168577D1*
X-156777D2*
X-153534D1*
X-142626D2*
X-139673D1*
X-132783D2*
D3*
X-105224D2*
X-103256D1*
X-74796D2*
X-70835D1*
X-33374D2*
X-30421D1*
X-23531D2*
D3*
X-14871D2*
X-11390D1*
X-2201D2*
X1442D1*
X31038D2*
X34703D1*
X46350D2*
X49303D1*
X57177D2*
X60130D1*
X74894D2*
X77846D1*
X93594D2*
X96547D1*
X138505D2*
X141423D1*
X144191D2*
X146975D1*
X167413D2*
X170366D1*
X190058D2*
X193996D1*
X198909D2*
X202846D1*
X222531D2*
X225484D1*
X245169D2*
X249106D1*
X268791D2*
X271744D1*
X-277458Y379579D2*
X-274041D1*
X-263180D2*
X-259795D1*
X-248925D2*
X-245972D1*
X-233148D2*
X-229878D1*
X-217604D2*
X-214508D1*
X-206892D2*
X-203269D1*
X-172124D2*
X-168854D1*
X-156580D2*
X-153485D1*
X-142626D2*
X-139673D1*
X-105224D2*
X-103256D1*
X-74076D2*
X-69424D1*
X-33374D2*
X-30421D1*
X-14441D2*
X-11059D1*
X-2537D2*
X1100D1*
X31305D2*
X35078D1*
X46350D2*
X49303D1*
X57177D2*
X60130D1*
X74894D2*
X77846D1*
X93594D2*
X96547D1*
X138083D2*
X141133D1*
X144481D2*
X147361D1*
X167413D2*
X170366D1*
X190700D2*
X194642D1*
X198909D2*
X202846D1*
X222531D2*
X225484D1*
X245169D2*
X249106D1*
X268791D2*
X271744D1*
X-277465Y378594D2*
X-273626D1*
X-263594D2*
X-259921D1*
X-248925D2*
X-245972D1*
X-233166D2*
X-230059D1*
X-217503D2*
X-214488D1*
X-206560D2*
X-202853D1*
X-172143D2*
X-169035D1*
X-156480D2*
X-153465D1*
X-142626D2*
X-139673D1*
X-105224D2*
X-103256D1*
X-73014D2*
X-68069D1*
X-33374D2*
X-30421D1*
X-14056D2*
X-10744D1*
X-2854D2*
X751D1*
X31602D2*
X35975D1*
X46350D2*
X49303D1*
X57177D2*
X77846D1*
X93594D2*
X96547D1*
X137654D2*
X140836D1*
X144779D2*
X147706D1*
X167413D2*
X170366D1*
X191345D2*
X195295D1*
X198906D2*
X202846D1*
X212689D2*
X225484D1*
X234343D2*
X249106D1*
X258949D2*
X271744D1*
X-277467Y377610D2*
X-273069D1*
X-264151D2*
X-260191D1*
X-248925D2*
X-245972D1*
X-233173D2*
X-230153D1*
X-217458D2*
X-214481D1*
X-206104D2*
X-202393D1*
X-172150D2*
X-169130D1*
X-156435D2*
X-153457D1*
X-142626D2*
X-139673D1*
X-105224D2*
X-103256D1*
X-71760D2*
X-67392D1*
X-33374D2*
X-30421D1*
X-13715D2*
X-10406D1*
X-3192D2*
X416D1*
X31999D2*
X38498D1*
X46350D2*
X49303D1*
X57177D2*
X77846D1*
X93594D2*
X96547D1*
X137269D2*
X140505D1*
X145110D2*
X148086D1*
X167413D2*
X170366D1*
X192020D2*
X195963D1*
X198868D2*
X202846D1*
X212689D2*
X225484D1*
X234343D2*
X249106D1*
X258949D2*
X271744D1*
X-277464Y376626D2*
X-271424D1*
X-265797D2*
X-260576D1*
X-248925D2*
X-245972D1*
X-233176D2*
X-230196D1*
X-217440D2*
X-214478D1*
X-205536D2*
X-201884D1*
X-172152D2*
X-169173D1*
X-156416D2*
X-153454D1*
X-142626D2*
X-139673D1*
X-105224D2*
X-103256D1*
X-73195D2*
X-67132D1*
X-33374D2*
X-30421D1*
X-13366D2*
X-10075D1*
X-3524D2*
X95D1*
X32589D2*
X42454D1*
X46350D2*
X49303D1*
X57177D2*
X77846D1*
X93594D2*
X96547D1*
X136923D2*
X140176D1*
X145438D2*
X148517D1*
X167413D2*
X170366D1*
X191409D2*
X196605D1*
X198716D2*
X202846D1*
X212689D2*
X225484D1*
X234343D2*
X249106D1*
X258949D2*
X271744D1*
X-277430Y375642D2*
X-268847D1*
X-268374D2*
X-261060D1*
X-248925D2*
X-245972D1*
X-233177D2*
X-230210D1*
X-217433D2*
X-214477D1*
X-204935D2*
X-201303D1*
X-172153D2*
X-169186D1*
X-156409D2*
X-153453D1*
X-142626D2*
X-139673D1*
X-105224D2*
X-103256D1*
X-74423D2*
X-68337D1*
X-33374D2*
X-30421D1*
X-13030D2*
X-9756D1*
X-3843D2*
X-274D1*
X33509D2*
X49303D1*
X57177D2*
X77846D1*
X93594D2*
X96547D1*
X136544D2*
X139861D1*
X145757D2*
X148978D1*
X167413D2*
X170366D1*
X190844D2*
X197251D1*
X198380D2*
X202846D1*
X212689D2*
X225484D1*
X234343D2*
X249106D1*
X258949D2*
X271744D1*
X-277305Y374657D2*
X-261731D1*
X-248925D2*
X-245972D1*
X-233177D2*
X-230182D1*
X-217430D2*
X-214477D1*
X-204300D2*
X-200667D1*
X-172153D2*
X-169159D1*
X-156407D2*
X-153453D1*
X-142626D2*
X-139673D1*
X-105224D2*
X-103256D1*
X-75386D2*
X-69781D1*
X-33374D2*
X-30421D1*
X-12709D2*
X-9387D1*
X-4211D2*
X-696D1*
X35026D2*
X49303D1*
X57177D2*
X60130D1*
X74894D2*
X77846D1*
X93594D2*
X96547D1*
X136117D2*
X139524D1*
X146125D2*
X149455D1*
X167413D2*
X170366D1*
X190286D2*
X202846D1*
X222531D2*
X225484D1*
X245169D2*
X249106D1*
X268791D2*
X271744D1*
X-277065Y373673D2*
X-262737D1*
X-248925D2*
X-245972D1*
X-233177D2*
X-230059D1*
X-217433D2*
X-214476D1*
X-203638D2*
X-200035D1*
X-172153D2*
X-169036D1*
X-156410D2*
X-153453D1*
X-142626D2*
X-139673D1*
X-105224D2*
X-103256D1*
X-76143D2*
X-71175D1*
X-33374D2*
X-30421D1*
X-12340D2*
X-8965D1*
X-4633D2*
X-1126D1*
X37619D2*
X49303D1*
X57177D2*
X60130D1*
X74894D2*
X77846D1*
X93594D2*
X96547D1*
X135686D2*
X139190D1*
X146548D2*
X149911D1*
X167413D2*
X170366D1*
X189685D2*
X202846D1*
X222531D2*
X225484D1*
X245169D2*
X249106D1*
X268791D2*
X271744D1*
X-276774Y372689D2*
X-264110D1*
X-248925D2*
X-245972D1*
X-233173D2*
X-229824D1*
X-217468D2*
X-214476D1*
X-202994D2*
X-199387D1*
X-172150D2*
X-168801D1*
X-156444D2*
X-153453D1*
X-142626D2*
X-139673D1*
X-105224D2*
X-103256D1*
X-76457D2*
X-72282D1*
X-33374D2*
X-30421D1*
X-11918D2*
X-8536D1*
X-5063D2*
X-1511D1*
X41588D2*
X49303D1*
X57177D2*
X60130D1*
X74894D2*
X77846D1*
X93594D2*
X96547D1*
X135300D2*
X138847D1*
X146982D2*
X150307D1*
X167413D2*
X170366D1*
X189046D2*
X193160D1*
X195919D2*
X202846D1*
X222531D2*
X225484D1*
X245169D2*
X249106D1*
X268791D2*
X271744D1*
X-276443Y371705D2*
X-273569D1*
X-270579D2*
X-265657D1*
X-248925D2*
X-245972D1*
X-233139D2*
X-229572D1*
X-217593D2*
X-214476D1*
X-202342D2*
X-198720D1*
X-172115D2*
X-168549D1*
X-156569D2*
X-153453D1*
X-142626D2*
X-139673D1*
X-105224D2*
X-103256D1*
X-76729D2*
X-73139D1*
X-33374D2*
X-30421D1*
X-11488D2*
X-8148D1*
X-5451D2*
X-1852D1*
X46350D2*
X49303D1*
X57177D2*
X60130D1*
X74894D2*
X77846D1*
X93594D2*
X96547D1*
X134959D2*
X138407D1*
X147379D2*
X150657D1*
X167413D2*
X170366D1*
X188441D2*
X192454D1*
X196773D2*
X202846D1*
X222531D2*
X225484D1*
X245169D2*
X249106D1*
X268791D2*
X271744D1*
X-275986Y370720D2*
X-272711D1*
X-248925D2*
X-245972D1*
X-233013D2*
X-229397D1*
X-217833D2*
X-214480D1*
X-201677D2*
X-198074D1*
X-171990D2*
X-168373D1*
X-156809D2*
X-153457D1*
X-142626D2*
X-139673D1*
X-105224D2*
X-103256D1*
X-76999D2*
X-73440D1*
X-33374D2*
X-30421D1*
X-11103D2*
X-7779D1*
X-5820D2*
X-2201D1*
X46350D2*
X49303D1*
X57177D2*
X60130D1*
X74894D2*
X77846D1*
X93594D2*
X96547D1*
X134610D2*
X137886D1*
X147728D2*
X151038D1*
X167413D2*
X170366D1*
X187883D2*
X191850D1*
X197483D2*
X202846D1*
X222531D2*
X225484D1*
X245169D2*
X249106D1*
X268791D2*
X271744D1*
X-275418Y369736D2*
X-271963D1*
X-248925D2*
X-245972D1*
X-232774D2*
X-229267D1*
X-218120D2*
X-214515D1*
X-201062D2*
X-197421D1*
X-171750D2*
X-168244D1*
X-157096D2*
X-153491D1*
X-142626D2*
X-139673D1*
X-105224D2*
X-103256D1*
X-77153D2*
X-73569D1*
X-33374D2*
X-30421D1*
X-10762D2*
X-7327D1*
X-6271D2*
X-2537D1*
X46350D2*
X49303D1*
X57177D2*
X60130D1*
X74894D2*
X77846D1*
X93594D2*
X96547D1*
X134274D2*
X151465D1*
X167413D2*
X170366D1*
X187330D2*
X191278D1*
X198051D2*
X202846D1*
X222531D2*
X225484D1*
X245169D2*
X249106D1*
X268791D2*
X271744D1*
X-274817Y368752D2*
X-271231D1*
X-248925D2*
X-245972D1*
X-232487D2*
X-229062D1*
X-218424D2*
X-214640D1*
X-200500D2*
X-196752D1*
X-171463D2*
X-168038D1*
X-157401D2*
X-153617D1*
X-142626D2*
X-139673D1*
X-105224D2*
X-103256D1*
X-77096D2*
X-73510D1*
X-33374D2*
X-30421D1*
X-10413D2*
X-2858D1*
X46350D2*
X49303D1*
X57177D2*
X60130D1*
X74894D2*
X77846D1*
X93594D2*
X96547D1*
X133953D2*
X151896D1*
X167413D2*
X170366D1*
X186731D2*
X190672D1*
X198464D2*
X202846D1*
X222531D2*
X225484D1*
X245169D2*
X249106D1*
X268791D2*
X271744D1*
X-274182Y367768D2*
X-270418D1*
X-248925D2*
X-245972D1*
X-232186D2*
X-228733D1*
X-218844D2*
X-214880D1*
X-199941D2*
X-196106D1*
X-171162D2*
X-167709D1*
X-157820D2*
X-153856D1*
X-142626D2*
X-139673D1*
X-105224D2*
X-103256D1*
X-76904D2*
X-73309D1*
X-33374D2*
X-30421D1*
X-10077D2*
X-3227D1*
X46350D2*
X49303D1*
X57177D2*
X60130D1*
X74894D2*
X77846D1*
X93594D2*
X96547D1*
X133584D2*
X152282D1*
X167413D2*
X170366D1*
X186092D2*
X190031D1*
X198705D2*
X202846D1*
X222531D2*
X225484D1*
X245169D2*
X249106D1*
X268791D2*
X271744D1*
X-273520Y366783D2*
X-269525D1*
X-248925D2*
X-245972D1*
X-231820D2*
X-227847D1*
X-219404D2*
X-215171D1*
X-199307D2*
X-195453D1*
X-170797D2*
X-166823D1*
X-158380D2*
X-154147D1*
X-142626D2*
X-139673D1*
X-105224D2*
X-103256D1*
X-76646D2*
X-72687D1*
X-33374D2*
X-30421D1*
X-9760D2*
X-3649D1*
X46350D2*
X49303D1*
X57177D2*
X60130D1*
X74894D2*
X77846D1*
X93594D2*
X96547D1*
X133162D2*
X152628D1*
X167413D2*
X170366D1*
X185488D2*
X189425D1*
X198824D2*
X202846D1*
X222531D2*
X225484D1*
X245169D2*
X249106D1*
X268791D2*
X271744D1*
X-272868Y365799D2*
X-268583D1*
X-248925D2*
X-245972D1*
X-231362D2*
X-226393D1*
X-221152D2*
X-215506D1*
X-198540D2*
X-194784D1*
X-182980D2*
X-180028D1*
X-170339D2*
X-165369D1*
X-160129D2*
X-154483D1*
X-142626D2*
X-139673D1*
X-105224D2*
X-103256D1*
X-76298D2*
X-70606D1*
X-51091D2*
X-48138D1*
X-33374D2*
X-30421D1*
X-9422D2*
X-4078D1*
X46350D2*
X49303D1*
X57177D2*
X60130D1*
X74894D2*
X77846D1*
X93594D2*
X96547D1*
X132733D2*
X137091D1*
X149734D2*
X153008D1*
X167413D2*
X170366D1*
X184930D2*
X188867D1*
X198876D2*
X202846D1*
X222531D2*
X225484D1*
X245169D2*
X249106D1*
X268791D2*
X271744D1*
X-272143Y364815D2*
X-267616D1*
X-248925D2*
X-245972D1*
X-230770D2*
X-224129D1*
X-223900D2*
X-216001D1*
X-197671D2*
X-194137D1*
X-183431D2*
X-179577D1*
X-169746D2*
X-163105D1*
X-162876D2*
X-154977D1*
X-142626D2*
X-139673D1*
X-105224D2*
X-103256D1*
X-75839D2*
X-67182D1*
X-63886D2*
X-61917D1*
X-51541D2*
X-47687D1*
X-33374D2*
X-30421D1*
X-9091D2*
X-4464D1*
X46350D2*
X49303D1*
X57177D2*
X60130D1*
X74894D2*
X77846D1*
X93594D2*
X96547D1*
X132347D2*
X136481D1*
X149864D2*
X153434D1*
X167413D2*
X170366D1*
X184377D2*
X188314D1*
X198897D2*
X202846D1*
X222531D2*
X225484D1*
X245169D2*
X249106D1*
X268791D2*
X271744D1*
X-271186Y363831D2*
X-266638D1*
X-248925D2*
X-245972D1*
X-229983D2*
X-216732D1*
X-209555D2*
X-193487D1*
X-183676D2*
X-179332D1*
X-168959D2*
X-155708D1*
X-142626D2*
X-139673D1*
X-105224D2*
X-103256D1*
X-75178D2*
X-61441D1*
X-51786D2*
X-47442D1*
X-33374D2*
X-30421D1*
X-8775D2*
X-4806D1*
X46350D2*
X49303D1*
X57177D2*
X60130D1*
X74894D2*
X77846D1*
X93594D2*
X96547D1*
X132005D2*
X136025D1*
X150138D2*
X153861D1*
X167413D2*
X170366D1*
X183781D2*
X187718D1*
X198905D2*
X202846D1*
X207768D2*
X225484D1*
X245169D2*
X249106D1*
X254028D2*
X271744D1*
X-269904Y362846D2*
X-265656D1*
X-248925D2*
X-245972D1*
X-228963D2*
X-217725D1*
X-209555D2*
X-192846D1*
X-183762D2*
X-179246D1*
X-167939D2*
X-156701D1*
X-142626D2*
X-139673D1*
X-105224D2*
X-103256D1*
X-74126D2*
X-62093D1*
X-51872D2*
X-47356D1*
X-33374D2*
X-30421D1*
X-8432D2*
X-5159D1*
X46350D2*
X49303D1*
X57177D2*
X60130D1*
X74894D2*
X77846D1*
X93594D2*
X96547D1*
X131652D2*
X135621D1*
X150545D2*
X154215D1*
X167413D2*
X170366D1*
X183166D2*
X187103D1*
X198908D2*
X202846D1*
X207768D2*
X225484D1*
X245169D2*
X249106D1*
X254028D2*
X271744D1*
X-268336Y361862D2*
X-264673D1*
X-248925D2*
X-245972D1*
X-227695D2*
X-218981D1*
X-209555D2*
X-192301D1*
X-183420D2*
X-179588D1*
X-166672D2*
X-157957D1*
X-142626D2*
X-139673D1*
X-105224D2*
X-103256D1*
X-72591D2*
X-63412D1*
X-51530D2*
X-47698D1*
X-33374D2*
X-30421D1*
X-8093D2*
X-5503D1*
X46350D2*
X49303D1*
X57177D2*
X60130D1*
X74894D2*
X77846D1*
X93594D2*
X96547D1*
X131308D2*
X135256D1*
X151068D2*
X154448D1*
X167413D2*
X170366D1*
X182633D2*
X186570D1*
X198909D2*
X202846D1*
X207768D2*
X225484D1*
X245169D2*
X249106D1*
X254028D2*
X271744D1*
X-266642Y360878D2*
X-265657D1*
X-248925D2*
X-245972D1*
X-226287D2*
X-220382D1*
X-209555D2*
X-191839D1*
X-182980D2*
X-180028D1*
X-165264D2*
X-159358D1*
X-142626D2*
X-139673D1*
X-105224D2*
X-103256D1*
X-70776D2*
X-64870D1*
X-51091D2*
X-48138D1*
X-33374D2*
X-30421D1*
X-7783D2*
X-5815D1*
X46350D2*
X49303D1*
X57177D2*
X60130D1*
X74894D2*
X77846D1*
X93594D2*
X96547D1*
X130996D2*
X134933D1*
X151665D2*
X154618D1*
X167413D2*
X170366D1*
X182177D2*
X186114D1*
X198909D2*
X202846D1*
X207768D2*
X225484D1*
X245169D2*
X249106D1*
X254028D2*
X271744D1*
X-105224Y359894D2*
X-103256D1*
X-105224Y358909D2*
X-103256D1*
X-105224Y357925D2*
X-103256D1*
X-105224Y356941D2*
X-103256D1*
X6980D2*
X28634D1*
X108358D2*
X130012D1*
X-105224Y355957D2*
X-103256D1*
X6980D2*
X28634D1*
X108358D2*
X130012D1*
X-105224Y354972D2*
X-103256D1*
X6980D2*
X28634D1*
X108358D2*
X130012D1*
X-113846Y-557694D2*
D14*
X-104660D1*
X-63978D2*
X-54791D1*
X-8860D2*
X327D1*
X21324D2*
X30510D1*
X68568D2*
X72505D1*
X-113846Y-559007D2*
X-104660D1*
X-63978D2*
X-54791D1*
X-8860D2*
X327D1*
X21324D2*
X30510D1*
X68568D2*
X74576D1*
X-113846Y-560319D2*
X-104660D1*
X-63978D2*
X-54791D1*
X-8860D2*
X327D1*
X21324D2*
X30510D1*
X68568D2*
X76423D1*
X-113846Y-561631D2*
X-104660D1*
X-63978D2*
X-54791D1*
X-8860D2*
X327D1*
X21324D2*
X30510D1*
X68568D2*
X77946D1*
X-113846Y-562944D2*
X-104660D1*
X-63978D2*
X-54791D1*
X-8860D2*
X327D1*
X21324D2*
X30510D1*
X68578D2*
X79185D1*
X-113846Y-564256D2*
X-104660D1*
X-63978D2*
X-54791D1*
X-8860D2*
X327D1*
X21324D2*
X30510D1*
X68676D2*
X80206D1*
X-113846Y-565568D2*
X-104660D1*
X-63978D2*
X-54791D1*
X-8860D2*
X327D1*
X21324D2*
X30510D1*
X68907D2*
X80932D1*
X-113846Y-566881D2*
X-104660D1*
X-63978D2*
X-54791D1*
X-8860D2*
X327D1*
X21324D2*
X30510D1*
X69815D2*
X81348D1*
X-256891Y-568193D2*
X-250329D1*
X-239831D2*
X-233269D1*
X-210959D2*
X-201773D1*
X-176839D2*
X-168965D1*
X-123033D2*
X-116471D1*
X-113846D2*
X-104660D1*
X-88912D2*
X-79726D1*
X-63978D2*
X-54791D1*
X-37731D2*
X-28545D1*
X-14109D2*
X327D1*
X5576D2*
X16075D1*
X21324D2*
X30510D1*
X44946D2*
X54133D1*
X70830D2*
X81549D1*
X96127D2*
X105314D1*
X143371D2*
X152558D1*
X157807D2*
X166993D1*
X170930D2*
X180117D1*
X187991D2*
X197177D1*
X202427D2*
X211613D1*
X215550D2*
X224736D1*
X232610D2*
X241797D1*
X247046D2*
X256232D1*
X260169D2*
X269356D1*
X-258759Y-569505D2*
X-245859D1*
X-244301D2*
X-231356D1*
X-212877D2*
X-199411D1*
X-179362D2*
X-166603D1*
X-125350D2*
X-116471D1*
X-113846D2*
X-104660D1*
X-91229D2*
X-77364D1*
X-63978D2*
X-54791D1*
X-40048D2*
X-26183D1*
X-14109D2*
X327D1*
X6390D2*
X16573D1*
X21324D2*
X30510D1*
X43028D2*
X56494D1*
X71632D2*
X81637D1*
X94209D2*
X107675D1*
X143371D2*
X152558D1*
X157807D2*
X166993D1*
X170930D2*
X180117D1*
X187991D2*
X197177D1*
X202427D2*
X211613D1*
X215550D2*
X224736D1*
X232610D2*
X241797D1*
X247046D2*
X256232D1*
X260169D2*
X269356D1*
X-260275Y-570818D2*
X-229718D1*
X-214562D2*
X-197378D1*
X-181424D2*
X-164569D1*
X-127261D2*
X-116471D1*
X-113846D2*
X-104660D1*
X-93135D2*
X-75330D1*
X-63978D2*
X-54791D1*
X-41954D2*
X-24149D1*
X-14109D2*
X327D1*
X7138D2*
X17137D1*
X21319D2*
X30510D1*
X41344D2*
X58528D1*
X72106D2*
X81671D1*
X92525D2*
X109709D1*
X143371D2*
X152558D1*
X157807D2*
X166993D1*
X170930D2*
X180117D1*
X187991D2*
X197177D1*
X202427D2*
X211613D1*
X215550D2*
X224736D1*
X232610D2*
X241797D1*
X247046D2*
X256232D1*
X260169D2*
X269356D1*
X-261412Y-572130D2*
X-228433D1*
X-216018D2*
X-195798D1*
X-183066D2*
X-162990D1*
X-128693D2*
X-116471D1*
X-113846D2*
X-104660D1*
X-94527D2*
X-73751D1*
X-63978D2*
X-54791D1*
X-43345D2*
X-22570D1*
X-14109D2*
X327D1*
X7841D2*
X17751D1*
X21269D2*
X30510D1*
X39892D2*
X60107D1*
X72339D2*
X81685D1*
X91073D2*
X111288D1*
X143371D2*
X152558D1*
X157807D2*
X166993D1*
X170930D2*
X180117D1*
X187991D2*
X197177D1*
X202427D2*
X211613D1*
X215550D2*
X224736D1*
X232610D2*
X241797D1*
X247046D2*
X256232D1*
X260169D2*
X269356D1*
X-262254Y-573442D2*
X-227425D1*
X-217243D2*
X-194638D1*
X-184319D2*
X-161830D1*
X-129831D2*
X-116492D1*
X-113846D2*
X-104660D1*
X-95543D2*
X-72591D1*
X-63978D2*
X-54791D1*
X-44362D2*
X-21410D1*
X-14109D2*
X327D1*
X8520D2*
X18422D1*
X21066D2*
X30510D1*
X38709D2*
X61267D1*
X72445D2*
X81689D1*
X89890D2*
X112448D1*
X143371D2*
X152558D1*
X157807D2*
X166993D1*
X170930D2*
X180117D1*
X187991D2*
X197177D1*
X202427D2*
X211613D1*
X215550D2*
X224736D1*
X232610D2*
X241797D1*
X247046D2*
X256232D1*
X260169D2*
X269356D1*
X-262839Y-574755D2*
X-227056D1*
X-218224D2*
X-193784D1*
X-185277D2*
X-160980D1*
X-130788D2*
X-116553D1*
X-113846D2*
X-104660D1*
X-96353D2*
X-71741D1*
X-63978D2*
X-54791D1*
X-45172D2*
X-20560D1*
X-14109D2*
X327D1*
X9219D2*
X19180D1*
X20618D2*
X30510D1*
X37849D2*
X62122D1*
X68568D2*
X81691D1*
X89030D2*
X113303D1*
X143371D2*
X152558D1*
X157807D2*
X166993D1*
X170930D2*
X180117D1*
X187991D2*
X197177D1*
X202427D2*
X211613D1*
X215550D2*
X224736D1*
X232610D2*
X241797D1*
X247046D2*
X256232D1*
X260169D2*
X269356D1*
X-263173Y-576067D2*
X-226856D1*
X-218994D2*
X-193150D1*
X-185679D2*
X-160393D1*
X-131483D2*
X-117127D1*
X-113846D2*
X-104660D1*
X-97026D2*
X-71149D1*
X-63978D2*
X-54791D1*
X-45844D2*
X-19968D1*
X-14109D2*
X327D1*
X9988D2*
X30510D1*
X37225D2*
X46259D1*
X52562D2*
X62755D1*
X68568D2*
X81691D1*
X88407D2*
X97440D1*
X103743D2*
X113937D1*
X143371D2*
X152558D1*
X157807D2*
X166993D1*
X170930D2*
X180117D1*
X187991D2*
X197177D1*
X202427D2*
X211613D1*
X215550D2*
X224736D1*
X232610D2*
X241797D1*
X247046D2*
X256232D1*
X260169D2*
X269356D1*
X-263337Y-577379D2*
X-226766D1*
X-219550D2*
X-192648D1*
X-184641D2*
X-160058D1*
X-131884D2*
X-118754D1*
X-113852D2*
X-104660D1*
X-97534D2*
X-70764D1*
X-63978D2*
X-54791D1*
X-46353D2*
X-19583D1*
X-14109D2*
X327D1*
X10825D2*
X30510D1*
X36692D2*
X44946D1*
X53330D2*
X63258D1*
X68568D2*
X81692D1*
X87873D2*
X96127D1*
X104511D2*
X114439D1*
X143371D2*
X152558D1*
X157807D2*
X166993D1*
X170930D2*
X180117D1*
X187991D2*
X197177D1*
X202427D2*
X211613D1*
X215550D2*
X224736D1*
X232610D2*
X241797D1*
X247046D2*
X256232D1*
X260169D2*
X269356D1*
X-263408Y-578692D2*
X-254266D1*
X-250587D2*
X-239831D1*
X-235894D2*
X-226729D1*
X-219873D2*
X-209384D1*
X-203348D2*
X-192175D1*
X-183400D2*
X-176839D1*
X-170540D2*
X-159894D1*
X-132080D2*
X-120459D1*
X-113898D2*
X-104660D1*
X-97837D2*
X-87342D1*
X-81301D2*
X-70397D1*
X-63978D2*
X-54791D1*
X-46656D2*
X-36161D1*
X-30120D2*
X-19216D1*
X-8860D2*
X327D1*
X10170D2*
X30510D1*
X36262D2*
X51508D1*
X53769D2*
X63730D1*
X68568D2*
X81692D1*
X87443D2*
X102689D1*
X104950D2*
X114911D1*
X143371D2*
X152558D1*
X157802D2*
X166993D1*
X170930D2*
X180117D1*
X187991D2*
X197177D1*
X202421D2*
X211613D1*
X215550D2*
X224736D1*
X232610D2*
X241797D1*
X247041D2*
X256232D1*
X260169D2*
X269356D1*
X-263436Y-580004D2*
X-254266D1*
X-249820D2*
X-239831D1*
X-235894D2*
X-226715D1*
X-220032D2*
X-210256D1*
X-202477D2*
X-191814D1*
X-169668D2*
X-159823D1*
X-132165D2*
X-121736D1*
X-114085D2*
X-104665D1*
X-97989D2*
X-88109D1*
X-80429D2*
X-69875D1*
X-63978D2*
X-54791D1*
X-46808D2*
X-36928D1*
X-29248D2*
X-18694D1*
X-9167D2*
X327D1*
X9619D2*
X18649D1*
X21324D2*
X30510D1*
X35994D2*
X51508D1*
X53977D2*
X64092D1*
X68568D2*
X81692D1*
X87176D2*
X102689D1*
X105158D2*
X115273D1*
X143371D2*
X152568D1*
X157740D2*
X167004D1*
X170920D2*
X180117D1*
X187991D2*
X197187D1*
X202360D2*
X211623D1*
X215540D2*
X224736D1*
X232610D2*
X241807D1*
X246979D2*
X256243D1*
X260159D2*
X269356D1*
X-263447Y-581316D2*
X-254266D1*
X-249380D2*
X-239831D1*
X-235894D2*
X-226710D1*
X-220096D2*
X-210423D1*
X-202309D2*
X-191616D1*
X-169501D2*
X-159795D1*
X-132199D2*
X-122670D1*
X-114433D2*
X-104711D1*
X-98056D2*
X-88549D1*
X-80241D2*
X-69227D1*
X-63978D2*
X-54791D1*
X-46874D2*
X-37368D1*
X-29060D2*
X-18046D1*
X-9702D2*
X322D1*
X9068D2*
X18476D1*
X21324D2*
X30510D1*
X35852D2*
X51508D1*
X53998D2*
X64289D1*
X68568D2*
X81692D1*
X87033D2*
X102689D1*
X105179D2*
X115471D1*
X143371D2*
X152668D1*
X157587D2*
X167104D1*
X170820D2*
X180117D1*
X187991D2*
X197287D1*
X202206D2*
X211723D1*
X215440D2*
X224736D1*
X232610D2*
X241907D1*
X246826D2*
X256342D1*
X260059D2*
X269356D1*
X-263451Y-582629D2*
X-254266D1*
X-249167D2*
X-239831D1*
X-235894D2*
X-226708D1*
X-220078D2*
X-210042D1*
X-202691D2*
X-191884D1*
X-187337D2*
X-178151D1*
X-169882D2*
X-159789D1*
X-147967D2*
X-142718D1*
X-132207D2*
X-121577D1*
X-115447D2*
X-104879D1*
X-98083D2*
X-88762D1*
X-80967D2*
X-69838D1*
X-63978D2*
X-54791D1*
X-46901D2*
X-37581D1*
X-29786D2*
X-18657D1*
X-10968D2*
X276D1*
X8475D2*
X18115D1*
X21324D2*
X30510D1*
X35760D2*
X51508D1*
X53860D2*
X64022D1*
X68568D2*
X81692D1*
X86941D2*
X102689D1*
X105041D2*
X115203D1*
X126311D2*
X131560D1*
X143371D2*
X152906D1*
X156775D2*
X167342D1*
X170582D2*
X180117D1*
X187991D2*
X197526D1*
X201395D2*
X211961D1*
X215201D2*
X224736D1*
X232610D2*
X242145D1*
X246014D2*
X256581D1*
X259821D2*
X269356D1*
X-263452Y-583941D2*
X-254266D1*
X-249075D2*
X-239831D1*
X-235894D2*
X-226708D1*
X-219916D2*
X-206774D1*
X-205958D2*
X-192227D1*
X-186884D2*
X-174378D1*
X-173150D2*
X-159837D1*
X-149382D2*
X-141663D1*
X-132160D2*
X-118643D1*
X-117718D2*
X-105198D1*
X-98093D2*
X-88854D1*
X-82705D2*
X-70261D1*
X-63978D2*
X-54791D1*
X-46912D2*
X-37673D1*
X-31524D2*
X-19080D1*
X-12218D2*
X103D1*
X7851D2*
X17612D1*
X21324D2*
X30510D1*
X52809D2*
X63679D1*
X68568D2*
X81692D1*
X103990D2*
X114860D1*
X124897D2*
X132615D1*
X143377D2*
X153929D1*
X154824D2*
X168365D1*
X169559D2*
X180117D1*
X187996D2*
X198548D1*
X199443D2*
X212984D1*
X214179D2*
X224736D1*
X232615D2*
X243168D1*
X244063D2*
X257604D1*
X258798D2*
X269356D1*
X-263453Y-585253D2*
X-254266D1*
X-249038D2*
X-239831D1*
X-235894D2*
X-226707D1*
X-219554D2*
X-192609D1*
X-186442D2*
X-160049D1*
X-150461D2*
X-140896D1*
X-131949D2*
X-105586D1*
X-98097D2*
X-88891D1*
X-84303D2*
X-70624D1*
X-63978D2*
X-54791D1*
X-46915D2*
X-37710D1*
X-33121D2*
X-19443D1*
X-13286D2*
X-262D1*
X7213D2*
X17063D1*
X21324D2*
X30510D1*
X50413D2*
X63297D1*
X72505D2*
X81692D1*
X101594D2*
X114478D1*
X123817D2*
X133382D1*
X143423D2*
X180112D1*
X188042D2*
X224731D1*
X232661D2*
X269351D1*
X-263453Y-586566D2*
X-254266D1*
X-249025D2*
X-239831D1*
X-235894D2*
X-226707D1*
X-219001D2*
X-193088D1*
X-185974D2*
X-160535D1*
X-151177D2*
X-140456D1*
X-131457D2*
X-106033D1*
X-98098D2*
X-88905D1*
X-85530D2*
X-71074D1*
X-63978D2*
X-54791D1*
X-46917D2*
X-37724D1*
X-34349D2*
X-19893D1*
X-13708D2*
X-817D1*
X6604D2*
X16559D1*
X21324D2*
X30510D1*
X47907D2*
X62817D1*
X72505D2*
X81692D1*
X99088D2*
X113999D1*
X123101D2*
X133822D1*
X143595D2*
X180060D1*
X188214D2*
X224680D1*
X232834D2*
X269299D1*
X-263453Y-587878D2*
X-254266D1*
X-249020D2*
X-239831D1*
X-235894D2*
X-226707D1*
X-218240D2*
X-193701D1*
X-185313D2*
X-161242D1*
X-151643D2*
X-140248D1*
X-130709D2*
X-106688D1*
X-98098D2*
X-88910D1*
X-85929D2*
X-71669D1*
X-63978D2*
X-54791D1*
X-46917D2*
X-37728D1*
X-34748D2*
X-20488D1*
X-13938D2*
X-1579D1*
X6075D2*
X16107D1*
X21324D2*
X30510D1*
X45807D2*
X62205D1*
X72505D2*
X81692D1*
X96988D2*
X113386D1*
X122636D2*
X134030D1*
X143961D2*
X179842D1*
X188580D2*
X224461D1*
X233199D2*
X269081D1*
X-263453Y-589190D2*
X-254266D1*
X-249018D2*
X-239831D1*
X-235894D2*
X-226707D1*
X-217244D2*
X-194536D1*
X-184376D2*
X-162077D1*
X-151571D2*
X-140207D1*
X-129753D2*
X-107623D1*
X-98098D2*
X-88911D1*
X-86139D2*
X-72495D1*
X-63978D2*
X-54791D1*
X-46917D2*
X-37730D1*
X-34958D2*
X-21313D1*
X-14042D2*
X-2575D1*
X5609D2*
X15643D1*
X21324D2*
X30510D1*
X44269D2*
X61370D1*
X72505D2*
X81692D1*
X95450D2*
X112551D1*
X122707D2*
X134071D1*
X144521D2*
X179304D1*
X189140D2*
X223923D1*
X233760D2*
X268543D1*
X-263453Y-590503D2*
X-254266D1*
X-249017D2*
X-239831D1*
X-235894D2*
X-226707D1*
X-216040D2*
X-195753D1*
X-183154D2*
X-163178D1*
X-151217D2*
X-140389D1*
X-128505D2*
X-108844D1*
X-98098D2*
X-88912D1*
X-86231D2*
X-73708D1*
X-63978D2*
X-54791D1*
X-46917D2*
X-37731D1*
X-35049D2*
X-22527D1*
X-14084D2*
X-3779D1*
X5096D2*
X15192D1*
X21324D2*
X30510D1*
X43137D2*
X60152D1*
X72505D2*
X81692D1*
X94318D2*
X111333D1*
X123061D2*
X133889D1*
X145332D2*
X178385D1*
X189952D2*
X223004D1*
X234571D2*
X267624D1*
X-263453Y-591815D2*
X-254266D1*
X-249017D2*
X-239831D1*
X-235894D2*
X-226707D1*
X-214594D2*
X-197438D1*
X-181519D2*
X-164752D1*
X-150499D2*
X-140903D1*
X-126917D2*
X-110478D1*
X-98098D2*
X-88912D1*
X-86267D2*
X-75392D1*
X-63978D2*
X-54791D1*
X-46917D2*
X-37731D1*
X-35086D2*
X-24211D1*
X-14100D2*
X-5225D1*
X4488D2*
X14733D1*
X21324D2*
X30510D1*
X42679D2*
X58467D1*
X72505D2*
X81692D1*
X93860D2*
X109648D1*
X123780D2*
X133375D1*
X146525D2*
X177084D1*
X191144D2*
X221704D1*
X235764D2*
X266323D1*
X-263453Y-593127D2*
X-254266D1*
X-249017D2*
X-239831D1*
X-235894D2*
X-226707D1*
X-212862D2*
X-199519D1*
X-179344D2*
X-166761D1*
X-149364D2*
X-141738D1*
X-125050D2*
X-112653D1*
X-98098D2*
X-88912D1*
X-86281D2*
X-77472D1*
X-63978D2*
X-54791D1*
X-46917D2*
X-37731D1*
X-35099D2*
X-26291D1*
X-14106D2*
X-6957D1*
X3763D2*
X14146D1*
X21324D2*
X30510D1*
X43711D2*
X56387D1*
X72505D2*
X81692D1*
X94892D2*
X107568D1*
X124915D2*
X132541D1*
X148120D2*
X160432D1*
X164369D2*
X175419D1*
X192739D2*
X205051D1*
X208988D2*
X220038D1*
X237358D2*
X249671D1*
X253608D2*
X264658D1*
X-263453Y-594440D2*
X-254266D1*
X-249017D2*
X-239831D1*
X-235894D2*
X-226707D1*
X-210959D2*
X-201773D1*
X-176839D2*
X-168965D1*
X-147967D2*
X-142718D1*
X-123033D2*
X-115159D1*
X-98098D2*
X-88912D1*
X-86287D2*
X-79726D1*
X-63978D2*
X-54791D1*
X-46917D2*
X-37731D1*
X-35106D2*
X-28545D1*
X-14109D2*
X-8860D1*
X2951D2*
X13450D1*
X21324D2*
X30510D1*
X44946D2*
X54133D1*
X72505D2*
X81692D1*
X96127D2*
X105314D1*
X126311D2*
X131560D1*
X149933D2*
X157807D1*
X166993D2*
X173555D1*
X194552D2*
X202427D1*
X211613D2*
X218175D1*
X239172D2*
X247046D1*
X256232D2*
X262794D1*
X525728Y-227795D2*
D13*
Y-228780D1*
Y-229764D1*
Y-230748D1*
Y-231732D1*
X536555D1*
Y-232717D1*
Y-233701D1*
X536551Y-234685D1*
X536514Y-235669D1*
X536362Y-236654D1*
X536025Y-237638D1*
X535571Y-238622D1*
X540492Y-227795D2*
Y-228780D1*
Y-229764D1*
Y-230748D1*
Y-231732D1*
Y-232717D1*
Y-233701D1*
Y-234685D1*
Y-235669D1*
Y-236654D1*
Y-237638D1*
Y-238622D1*
Y-239606D1*
Y-240591D1*
Y-241575D1*
Y-242559D1*
Y-243543D1*
X554272Y-227795D2*
X552534Y-228780D1*
X551100Y-229764D1*
X550026Y-230748D1*
X549173Y-231732D1*
X548455Y-232717D1*
X547931Y-233701D1*
X547609Y-234685D1*
X547382Y-235669D1*
X560177Y-227795D2*
X562066Y-228780D1*
X563581Y-229764D1*
X564722Y-230748D1*
X565559Y-231732D1*
X566179Y-232717D1*
X566615Y-233701D1*
X566898Y-234685D1*
X567144Y-235669D1*
X567433Y-236654D1*
X567707Y-237638D1*
X567886Y-238622D1*
X567980Y-239606D1*
X568023Y-240591D1*
X568041Y-241575D1*
X568047Y-242559D1*
X568050Y-243543D1*
X568047Y-244528D1*
X568013Y-245512D1*
X567887Y-246496D1*
X567652Y-247480D1*
X567395Y-248465D1*
X567189Y-249449D1*
X566969Y-250433D1*
X566653Y-251417D1*
X566219Y-252402D1*
X565634Y-253386D1*
X564813Y-254370D1*
X563643Y-255354D1*
X562039Y-256339D1*
X560177Y-257323D1*
X557224Y-230748D2*
X555453Y-231732D1*
X553931Y-232717D1*
X552768Y-233701D1*
X551953Y-234685D1*
X551319Y-235669D1*
X557224Y-230748D2*
X558996Y-231732D1*
X560521Y-232717D1*
X561706Y-233701D1*
X562575Y-234685D1*
X563213Y-235669D1*
X563653Y-236654D1*
X563904Y-237638D1*
X564027Y-238622D1*
X564080Y-239606D1*
X564102Y-240591D1*
X564110Y-241575D1*
X564113Y-242559D1*
X564114Y-243543D1*
Y-244528D1*
X564110Y-245512D1*
X564076Y-246496D1*
X563946Y-247480D1*
X563672Y-248465D1*
X563252Y-249449D1*
X562631Y-250433D1*
X561808Y-251417D1*
X559943Y-252402D1*
X557337Y-253386D1*
X554272Y-254370D1*
X529665Y-237638D2*
X528264Y-238622D1*
X527127Y-239606D1*
X526274Y-240591D1*
X525643Y-241575D1*
X525204Y-242559D1*
X524954Y-243543D1*
X524831Y-244528D1*
X524778Y-245512D1*
X524757Y-246496D1*
X524748Y-247480D1*
X524746Y-248465D1*
X524748Y-249449D1*
X524783Y-250433D1*
X524912Y-251417D1*
X525186Y-252402D1*
X525606Y-253386D1*
X526215Y-254370D1*
X527109Y-255354D1*
X528305Y-256339D1*
X529665Y-257323D1*
X534587Y-237638D2*
X535571Y-238622D1*
X531634Y-240591D2*
X530687Y-241575D1*
X529833Y-242559D1*
X529123Y-243543D1*
X528555Y-244528D1*
X528142Y-245512D1*
X527905Y-246496D1*
X527821Y-247480D1*
X527898Y-248465D1*
X528151Y-249449D1*
X528571Y-250433D1*
X529111Y-251417D1*
X530414Y-252402D1*
X532309Y-253386D1*
X534587Y-254370D1*
X532618Y-240591D2*
X534406Y-241575D1*
X536029Y-242559D1*
X537539Y-243543D1*
X547382Y-249449D2*
X547571Y-250433D1*
X547946Y-251417D1*
X548479Y-252402D1*
X549106Y-253386D1*
X549932Y-254370D1*
X551112Y-255354D1*
X552619Y-256339D1*
X554272Y-257323D1*
X551319Y-249449D2*
X551902Y-250433D1*
X552677Y-251417D1*
X554523Y-252402D1*
X557118Y-253386D1*
X560177Y-254370D1*
X537539Y-250433D2*
X536892Y-251417D1*
X535180Y-252402D1*
X532667Y-253386D1*
X529665Y-254370D1*
X540492Y-250433D2*
X540336Y-251417D1*
X540054Y-252402D1*
X539631Y-253386D1*
X539022Y-254370D1*
X538127Y-255354D1*
X536931Y-256339D1*
X535571Y-257323D1*
X436946Y435522D2*
X435057Y434538D1*
X433542Y433554D1*
X432401Y432570D1*
X431564Y431585D1*
X430945Y430601D1*
X430512Y429617D1*
X430264Y428633D1*
X430143Y427648D1*
X430090Y426664D1*
X430069Y425680D1*
X430061Y424696D1*
X430058Y423711D1*
X430061Y422727D1*
X430095Y421743D1*
X430224Y420759D1*
X430498Y419774D1*
X430904Y418790D1*
X431428Y417806D1*
X432025Y416822D1*
X438915Y435522D2*
X440804Y434538D1*
X442315Y433554D1*
X443425Y432570D1*
X444171Y431585D1*
X444680Y430601D1*
X445096Y429617D1*
X445425Y428633D1*
X445631Y427648D1*
X445768Y426664D1*
X445939Y425680D1*
X446197Y424696D1*
X446491Y423711D1*
X446810Y422727D1*
X447195Y421743D1*
X448103Y420759D1*
X450200Y419774D1*
X452694Y418790D1*
X454663Y435522D2*
X454265Y434538D1*
X454335Y433554D1*
X454591Y432570D1*
X454941Y431585D1*
X455260Y430601D1*
X455464Y429617D1*
X455569Y428633D1*
X455616Y427648D1*
X455636Y426664D1*
X455643Y425680D1*
X455642Y424696D1*
X455604Y423711D1*
X455512Y422727D1*
X455057Y421743D1*
X453479Y420759D1*
X450939Y419774D1*
X447773Y418790D1*
X456631Y435522D2*
X457238Y434538D1*
X457764Y433554D1*
X458166Y432570D1*
X458437Y431585D1*
X458679Y430601D1*
X458966Y429617D1*
X459240Y428633D1*
X459419Y427648D1*
X459513Y426664D1*
X459552Y425680D1*
X459535Y424696D1*
X459416Y423711D1*
X459179Y422727D1*
X458893Y421743D1*
X458592Y420759D1*
X458227Y419774D1*
X457761Y418790D1*
X457098Y417806D1*
X456045Y416822D1*
X454510Y415837D1*
X452694Y414853D1*
X435962Y431585D2*
X435134Y430601D1*
X434432Y429617D1*
X433866Y428633D1*
X433454Y427648D1*
X433213Y426664D1*
X433094Y425680D1*
X433046Y424696D1*
X433060Y423711D1*
X433181Y422727D1*
X433453Y421743D1*
X433868Y420759D1*
X434436Y419774D1*
X435162Y418790D1*
X435962Y417806D1*
X433993Y416822D1*
X439899Y431585D2*
X440694Y430601D1*
X441304Y429617D1*
X441759Y428633D1*
X442154Y427648D1*
X442476Y426664D1*
X442679Y425680D1*
X442815Y424696D1*
X442986Y423711D1*
X443244Y422727D1*
X443538Y421743D1*
X443842Y420759D1*
X444208Y419774D1*
X444670Y418790D1*
X445296Y417806D1*
X446197Y416822D1*
X447396Y415837D1*
X448757Y414853D1*
X430056Y410916D2*
X430109Y409932D1*
X430237Y408948D1*
X430989Y407963D1*
X433213Y406979D1*
X436294Y405995D1*
X439985Y405010D1*
X444014Y404026D1*
X448290Y403042D1*
X452694Y402058D1*
X449670Y401073D1*
X446333Y400089D1*
X442815Y399105D1*
X439325Y398121D1*
X436096Y397136D1*
X433481Y396152D1*
X431459Y395168D1*
X430681Y394184D1*
X430340Y393199D1*
X432631Y392215D1*
X435395Y391231D1*
X438602Y390247D1*
X442121Y389262D1*
X445730Y388278D1*
X449254Y387294D1*
X452694Y386310D1*
X448720Y385325D1*
X444664Y384341D1*
X440576Y383357D1*
X436791Y382373D1*
X433809Y381388D1*
X431545Y380404D1*
X430637Y379420D1*
X430302Y378436D1*
X430056Y377451D1*
X432025Y410916D2*
X436298Y409932D1*
X440528Y408948D1*
X444648Y407963D1*
X448632Y406979D1*
X452333Y405995D1*
X455396Y405010D1*
X457836Y404026D1*
X458889Y403042D1*
X459204Y402058D1*
X459357Y401073D1*
X457844Y400089D1*
X455642Y399105D1*
X452782Y398121D1*
X449504Y397136D1*
X446053Y396152D1*
X442512Y395168D1*
X438915Y394184D1*
X441906Y393199D1*
X445151Y392215D1*
X448551Y391231D1*
X451955Y390247D1*
X455013Y389262D1*
X457586Y388278D1*
X458779Y387294D1*
X459175Y386310D1*
X459411Y385325D1*
X458054Y384341D1*
X455882Y383357D1*
X452908Y382373D1*
X449392Y381388D1*
X445521Y380404D1*
X441416Y379420D1*
X437215Y378436D1*
X433009Y377451D1*
X430056Y371546D2*
Y370562D1*
Y369577D1*
Y368593D1*
Y367609D1*
Y366625D1*
Y365640D1*
Y364656D1*
Y363672D1*
Y362688D1*
Y361703D1*
X430060Y360719D1*
X430095Y359735D1*
X430224Y358751D1*
X430494Y357766D1*
X430880Y356782D1*
X431360Y355798D1*
X432001Y354814D1*
X432925Y353829D1*
X434244Y352845D1*
X435969Y351861D1*
X437930Y350877D1*
X459584Y371546D2*
Y370562D1*
Y369577D1*
Y368593D1*
Y367609D1*
Y366625D1*
Y365640D1*
Y364656D1*
Y363672D1*
X459580Y362688D1*
X459546Y361703D1*
X459420Y360719D1*
X459181Y359735D1*
X458894Y358751D1*
X458593Y357766D1*
X458227Y356782D1*
X457765Y355798D1*
X457135Y354814D1*
X456184Y353829D1*
X454768Y352845D1*
X452871Y351861D1*
X450726Y350877D1*
X433009Y368593D2*
Y367609D1*
Y366625D1*
Y365640D1*
Y364656D1*
Y363672D1*
X433013Y362688D1*
X433048Y361703D1*
X433177Y360719D1*
X433451Y359735D1*
X433867Y358751D1*
X434439Y357766D1*
X435181Y356782D1*
X436040Y355798D1*
X436946Y354814D1*
X455647Y368593D2*
Y367609D1*
Y366625D1*
Y365640D1*
Y364656D1*
Y363672D1*
Y362688D1*
X455643Y361703D1*
X455605Y360719D1*
X455441Y359735D1*
X455041Y358751D1*
X454389Y357766D1*
X453566Y356782D1*
X452653Y355798D1*
X451710Y354814D1*
X-95896Y-353668D2*
Y-354653D1*
Y-355637D1*
Y-356621D1*
Y-357605D1*
Y-358590D1*
Y-359574D1*
Y-360558D1*
Y-361542D1*
Y-362527D1*
Y-363511D1*
Y-364495D1*
Y-365479D1*
Y-366464D1*
Y-367448D1*
Y-368432D1*
Y-369416D1*
Y-370401D1*
Y-371385D1*
Y-372369D1*
Y-373353D1*
Y-374338D1*
Y-375322D1*
Y-376306D1*
Y-377290D1*
Y-378275D1*
Y-379259D1*
Y-380243D1*
Y-381227D1*
Y-382212D1*
Y-383196D1*
Y-384180D1*
Y-385164D1*
Y-386149D1*
Y-387133D1*
Y-388117D1*
Y-389101D1*
Y-390086D1*
Y-391070D1*
X-91959Y-353668D2*
Y-354653D1*
Y-355637D1*
Y-356621D1*
Y-357605D1*
Y-358590D1*
Y-359574D1*
Y-360558D1*
Y-361542D1*
Y-362527D1*
Y-363511D1*
Y-364495D1*
Y-365479D1*
Y-366464D1*
Y-367448D1*
Y-368432D1*
Y-369416D1*
Y-370401D1*
Y-371385D1*
Y-372369D1*
Y-373353D1*
Y-374338D1*
Y-375322D1*
Y-376306D1*
Y-377290D1*
Y-378275D1*
Y-379259D1*
Y-380243D1*
Y-381227D1*
Y-382212D1*
Y-383196D1*
Y-384180D1*
Y-385164D1*
Y-386149D1*
Y-387133D1*
Y-388117D1*
Y-389101D1*
Y-390086D1*
Y-391070D1*
X89143Y-353668D2*
Y-354653D1*
Y-355637D1*
Y-356621D1*
Y-357605D1*
Y-358590D1*
Y-359574D1*
Y-360558D1*
Y-361542D1*
Y-362527D1*
Y-363511D1*
Y-364495D1*
Y-365479D1*
Y-366464D1*
Y-367448D1*
Y-368432D1*
Y-369416D1*
Y-370401D1*
Y-371385D1*
Y-372369D1*
Y-373353D1*
Y-374338D1*
Y-375322D1*
Y-376306D1*
Y-377290D1*
Y-378275D1*
Y-379259D1*
Y-380243D1*
Y-381227D1*
Y-382212D1*
Y-383196D1*
Y-384180D1*
Y-385164D1*
Y-386149D1*
Y-387133D1*
Y-388117D1*
Y-389101D1*
Y-390086D1*
Y-391070D1*
X93080Y-353668D2*
Y-354653D1*
Y-355637D1*
Y-356621D1*
Y-357605D1*
Y-358590D1*
Y-359574D1*
Y-360558D1*
Y-361542D1*
Y-362527D1*
Y-363511D1*
Y-364495D1*
Y-365479D1*
Y-366464D1*
Y-367448D1*
Y-368432D1*
Y-369416D1*
Y-370401D1*
Y-371385D1*
Y-372369D1*
Y-373353D1*
Y-374338D1*
Y-375322D1*
Y-376306D1*
Y-377290D1*
Y-378275D1*
Y-379259D1*
Y-380243D1*
Y-381227D1*
Y-382212D1*
Y-383196D1*
Y-384180D1*
Y-385164D1*
Y-386149D1*
Y-387133D1*
Y-388117D1*
Y-389101D1*
Y-390086D1*
Y-391070D1*
X-254361Y-357605D2*
X-254357Y-358590D1*
X-254322Y-359574D1*
X-254197Y-360558D1*
X-253957Y-361542D1*
X-253670Y-362527D1*
X-253373Y-363511D1*
X-253046Y-364495D1*
X-252748Y-365479D1*
X-252525Y-366464D1*
X-252302Y-367448D1*
X-252018Y-368432D1*
X-251713Y-369416D1*
X-251409Y-370401D1*
X-251075Y-371385D1*
X-250746Y-372369D1*
X-250431Y-373353D1*
X-250097Y-374338D1*
X-249797Y-375322D1*
X-249573Y-376306D1*
X-249349Y-377290D1*
X-249065Y-378275D1*
X-248760Y-379259D1*
X-248456Y-380243D1*
X-248123Y-381227D1*
X-247793Y-382212D1*
X-247478Y-383196D1*
X-247144Y-384180D1*
X-246845Y-385164D1*
X-246640Y-386149D1*
X-246487Y-387133D1*
X-238613Y-357605D2*
Y-358590D1*
Y-359574D1*
Y-360558D1*
Y-361542D1*
Y-362527D1*
Y-363511D1*
Y-364495D1*
Y-365479D1*
X-232707Y-357605D2*
X-232704Y-358590D1*
X-232669Y-359574D1*
X-232543Y-360558D1*
X-232304Y-361542D1*
X-232017Y-362527D1*
X-231720Y-363511D1*
X-231393Y-364495D1*
X-231095Y-365479D1*
X-230871Y-366464D1*
X-230648Y-367448D1*
X-230364Y-368432D1*
X-230059Y-369416D1*
X-229755Y-370401D1*
X-229422Y-371385D1*
X-229092Y-372369D1*
X-228778Y-373353D1*
X-228444Y-374338D1*
X-228143Y-375322D1*
X-227919Y-376306D1*
X-227695Y-377290D1*
X-227412Y-378275D1*
X-227106Y-379259D1*
X-226802Y-380243D1*
X-226469Y-381227D1*
X-226139Y-382212D1*
X-225825Y-383196D1*
X-225491Y-384180D1*
X-225192Y-385164D1*
X-224987Y-386149D1*
X-224833Y-387133D1*
X-216959Y-357605D2*
Y-358590D1*
Y-359574D1*
Y-360558D1*
Y-361542D1*
Y-362527D1*
Y-363511D1*
Y-364495D1*
Y-365479D1*
X-206133Y-357605D2*
X-205759Y-358590D1*
X-205336Y-359574D1*
X-204879Y-360558D1*
X-204400Y-361542D1*
X-203915Y-362527D1*
X-203424Y-363511D1*
X-202934Y-364495D1*
X-202441Y-365479D1*
X-201950Y-366464D1*
X-201457Y-367448D1*
X-200966Y-368432D1*
X-200477Y-369416D1*
X-200016Y-370401D1*
X-199618Y-371385D1*
X-199267Y-372369D1*
X-198886Y-373353D1*
X-198455Y-374338D1*
X-197990Y-375322D1*
X-197484Y-376306D1*
X-196914Y-377290D1*
X-196290Y-378275D1*
X-204164Y-379259D1*
X-202196Y-357605D2*
X-201822Y-358590D1*
X-201399Y-359574D1*
X-200942Y-360558D1*
X-200467Y-361542D1*
X-200013Y-362527D1*
X-199617Y-363511D1*
X-199267Y-364495D1*
X-198886Y-365479D1*
X-198455Y-366464D1*
X-197993Y-367448D1*
X-197512Y-368432D1*
X-197026Y-369416D1*
X-196535Y-370401D1*
X-196044Y-371385D1*
X-195551Y-372369D1*
X-195060Y-373353D1*
X-194567Y-374338D1*
X-194076Y-375322D1*
X-193587Y-376306D1*
X-193130Y-377290D1*
X-192766Y-378275D1*
X-192545Y-379259D1*
X-192434Y-380243D1*
X-192383Y-381227D1*
X-192353Y-382212D1*
X-181526Y-357605D2*
X-182809Y-358590D1*
X-183797Y-359574D1*
X-184540Y-360558D1*
X-185142Y-361542D1*
X-185640Y-362527D1*
X-185986Y-363511D1*
X-186177Y-364495D1*
X-185984Y-365479D1*
X-185731Y-366464D1*
X-185446Y-367448D1*
X-185087Y-368432D1*
X-184635Y-369416D1*
X-184082Y-370401D1*
X-183458Y-371385D1*
X-182826Y-372369D1*
X-182149Y-373353D1*
X-181392Y-374338D1*
X-180632Y-375322D1*
X-179928Y-376306D1*
X-179218Y-377290D1*
X-178447Y-378275D1*
X-177682Y-379259D1*
X-176977Y-380243D1*
X-176262Y-381227D1*
X-175457Y-382212D1*
X-174572Y-383196D1*
X-173652Y-384180D1*
X-174636Y-357605D2*
X-173235Y-358590D1*
X-172098Y-359574D1*
X-171246Y-360558D1*
X-170614Y-361542D1*
X-170172Y-362527D1*
X-169904Y-363511D1*
X-169715Y-364495D1*
X-156920Y-357605D2*
X-158355Y-358590D1*
X-159583Y-359574D1*
X-160550Y-360558D1*
X-161233Y-361542D1*
X-161717Y-362527D1*
X-162123Y-363511D1*
X-162444Y-364495D1*
X-162610Y-365479D1*
X-162586Y-366464D1*
X-162392Y-367448D1*
X-162120Y-368432D1*
X-161792Y-369416D1*
X-161300Y-370401D1*
X-160576Y-371385D1*
X-159652Y-372369D1*
X-158694Y-373353D1*
X-157851Y-374338D1*
X-157648Y-375322D1*
X-157919Y-376306D1*
X-158373Y-377290D1*
X-158949Y-378275D1*
X-159529Y-379259D1*
X-160073Y-380243D1*
X-160593Y-381227D1*
X-161096Y-382212D1*
X-161593Y-383196D1*
X-162089Y-384180D1*
X-162608Y-385164D1*
X-163183Y-386149D1*
X-163810Y-387133D1*
X-142156Y-357605D2*
Y-358590D1*
Y-359574D1*
Y-360558D1*
Y-361542D1*
Y-362527D1*
Y-363511D1*
Y-364495D1*
Y-365479D1*
Y-366464D1*
Y-367448D1*
Y-368432D1*
Y-369416D1*
Y-370401D1*
Y-371385D1*
Y-372369D1*
Y-373353D1*
Y-374338D1*
Y-375322D1*
Y-376306D1*
Y-377290D1*
Y-378275D1*
Y-379259D1*
Y-380243D1*
Y-381227D1*
Y-382212D1*
Y-383196D1*
Y-384180D1*
Y-385164D1*
Y-386149D1*
Y-387133D1*
X-128377Y-357605D2*
X-130114Y-358590D1*
X-131548Y-359574D1*
X-132622Y-360558D1*
X-133475Y-361542D1*
X-134193Y-362527D1*
X-134718Y-363511D1*
X-135040Y-364495D1*
X-135266Y-365479D1*
X-122471Y-357605D2*
X-120582Y-358590D1*
X-119067Y-359574D1*
X-117926Y-360558D1*
X-117089Y-361542D1*
X-116470Y-362527D1*
X-116033Y-363511D1*
X-115751Y-364495D1*
X-115504Y-365479D1*
X-115215Y-366464D1*
X-114942Y-367448D1*
X-114762Y-368432D1*
X-114668Y-369416D1*
X-114625Y-370401D1*
X-114608Y-371385D1*
X-114601Y-372369D1*
X-114598Y-373353D1*
X-114601Y-374338D1*
X-114636Y-375322D1*
X-114761Y-376306D1*
X-114997Y-377290D1*
X-115253Y-378275D1*
X-115459Y-379259D1*
X-115680Y-380243D1*
X-115996Y-381227D1*
X-116429Y-382212D1*
X-117015Y-383196D1*
X-117835Y-384180D1*
X-119006Y-385164D1*
X-120609Y-386149D1*
X-122471Y-387133D1*
X-67353Y-357605D2*
X-68788Y-358590D1*
X-70016Y-359574D1*
X-70980Y-360558D1*
X-71736Y-361542D1*
X-72013Y-362527D1*
X-72163Y-363511D1*
X-72231Y-364495D1*
X-72258Y-365479D1*
X-72269Y-366464D1*
X-72272Y-367448D1*
X-72274Y-368432D1*
Y-369416D1*
Y-370401D1*
Y-371385D1*
Y-372369D1*
Y-373353D1*
Y-374338D1*
Y-375322D1*
Y-376306D1*
Y-377290D1*
Y-378275D1*
Y-379259D1*
X-72270Y-380243D1*
X-72232Y-381227D1*
X-72068Y-382212D1*
X-71665Y-383196D1*
X-70975Y-384180D1*
X-70000Y-385164D1*
X-68751Y-386149D1*
X-67353Y-387133D1*
X-61448Y-357605D2*
X-60013Y-358590D1*
X-58784Y-359574D1*
X-57821Y-360558D1*
X-57065Y-361542D1*
X-56750Y-362527D1*
X-56474Y-363511D1*
X-56170Y-364495D1*
X-55890Y-365479D1*
X-55708Y-366464D1*
X-55613Y-367448D1*
X-55570Y-368432D1*
X-55553Y-369416D1*
X-55546Y-370401D1*
X-55543Y-371385D1*
X-55542Y-372369D1*
Y-373353D1*
Y-374338D1*
Y-375322D1*
X-55546Y-376306D1*
X-55580Y-377290D1*
X-55706Y-378275D1*
X-55942Y-379259D1*
X-56198Y-380243D1*
X-56408Y-381227D1*
X-56663Y-382212D1*
X-57108Y-383196D1*
X-57815Y-384180D1*
X-58797Y-385164D1*
X-60048Y-386149D1*
X-61448Y-387133D1*
X-47668Y-357605D2*
Y-358590D1*
Y-359574D1*
Y-360558D1*
Y-361542D1*
X-36841D1*
Y-362527D1*
Y-363511D1*
X-36845Y-364495D1*
X-36883Y-365479D1*
X-37035Y-366464D1*
X-37371Y-367448D1*
X-37825Y-368432D1*
X-32904Y-357605D2*
Y-358590D1*
Y-359574D1*
Y-360558D1*
Y-361542D1*
Y-362527D1*
Y-363511D1*
Y-364495D1*
Y-365479D1*
Y-366464D1*
Y-367448D1*
Y-368432D1*
Y-369416D1*
Y-370401D1*
Y-371385D1*
Y-372369D1*
Y-373353D1*
X-21093Y-357605D2*
X-20719Y-358590D1*
X-20296Y-359574D1*
X-19839Y-360558D1*
X-19361Y-361542D1*
X-18876Y-362527D1*
X-18385Y-363511D1*
X-17894Y-364495D1*
X-17402Y-365479D1*
X-16910Y-366464D1*
X-16418Y-367448D1*
X-15926Y-368432D1*
X-15437Y-369416D1*
X-14977Y-370401D1*
X-14578Y-371385D1*
X-14228Y-372369D1*
X-13846Y-373353D1*
X-13415Y-374338D1*
X-12950Y-375322D1*
X-12444Y-376306D1*
X-11875Y-377290D1*
X-11251Y-378275D1*
X-19125Y-379259D1*
X-17156Y-357605D2*
X-16782Y-358590D1*
X-16359Y-359574D1*
X-15902Y-360558D1*
X-15428Y-361542D1*
X-14973Y-362527D1*
X-14577Y-363511D1*
X-14228Y-364495D1*
X-13846Y-365479D1*
X-13415Y-366464D1*
X-12953Y-367448D1*
X-12473Y-368432D1*
X-11986Y-369416D1*
X-11495Y-370401D1*
X-11005Y-371385D1*
X-10512Y-372369D1*
X-10021Y-373353D1*
X-9528Y-374338D1*
X-9036Y-375322D1*
X-8547Y-376306D1*
X-8091Y-377290D1*
X-7727Y-378275D1*
X-7506Y-379259D1*
X-7395Y-380243D1*
X-7343Y-381227D1*
X-7314Y-382212D1*
X3513Y-357605D2*
X2230Y-358590D1*
X1242Y-359574D1*
X499Y-360558D1*
X-102Y-361542D1*
X-601Y-362527D1*
X-947Y-363511D1*
X-1137Y-364495D1*
X-945Y-365479D1*
X-691Y-366464D1*
X-406Y-367448D1*
X-47Y-368432D1*
X404Y-369416D1*
X957Y-370401D1*
X1581Y-371385D1*
X2213Y-372369D1*
X2890Y-373353D1*
X3647Y-374338D1*
X4407Y-375322D1*
X5111Y-376306D1*
X5821Y-377290D1*
X6592Y-378275D1*
X7357Y-379259D1*
X8063Y-380243D1*
X8777Y-381227D1*
X9582Y-382212D1*
X10468Y-383196D1*
X11387Y-384180D1*
X10403Y-357605D2*
X11804Y-358590D1*
X12941Y-359574D1*
X13794Y-360558D1*
X14425Y-361542D1*
X14867Y-362527D1*
X15135Y-363511D1*
X15324Y-364495D1*
X28119Y-357605D2*
X26685Y-358590D1*
X25456Y-359574D1*
X24489Y-360558D1*
X23806Y-361542D1*
X23323Y-362527D1*
X22917Y-363511D1*
X22595Y-364495D1*
X22430Y-365479D1*
X22453Y-366464D1*
X22647Y-367448D1*
X22919Y-368432D1*
X23248Y-369416D1*
X23740Y-370401D1*
X24463Y-371385D1*
X25387Y-372369D1*
X26346Y-373353D1*
X27188Y-374338D1*
X27391Y-375322D1*
X27120Y-376306D1*
X26667Y-377290D1*
X26091Y-378275D1*
X25511Y-379259D1*
X24966Y-380243D1*
X24447Y-381227D1*
X23944Y-382212D1*
X23446Y-383196D1*
X22950Y-384180D1*
X22431Y-385164D1*
X21857Y-386149D1*
X21230Y-387133D1*
X42883Y-357605D2*
Y-358590D1*
Y-359574D1*
Y-360558D1*
Y-361542D1*
Y-362527D1*
Y-363511D1*
Y-364495D1*
Y-365479D1*
Y-366464D1*
Y-367448D1*
Y-368432D1*
Y-369416D1*
Y-370401D1*
Y-371385D1*
Y-372369D1*
Y-373353D1*
Y-374338D1*
Y-375322D1*
Y-376306D1*
Y-377290D1*
Y-378275D1*
Y-379259D1*
Y-380243D1*
Y-381227D1*
Y-382212D1*
Y-383196D1*
Y-384180D1*
Y-385164D1*
Y-386149D1*
Y-387133D1*
X56663Y-357605D2*
X54925Y-358590D1*
X53491Y-359574D1*
X52417Y-360558D1*
X51564Y-361542D1*
X50846Y-362527D1*
X50322Y-363511D1*
X50000Y-364495D1*
X49773Y-365479D1*
X62568Y-357605D2*
X64457Y-358590D1*
X65972Y-359574D1*
X67113Y-360558D1*
X67950Y-361542D1*
X68570Y-362527D1*
X69006Y-363511D1*
X69289Y-364495D1*
X69535Y-365479D1*
X69824Y-366464D1*
X70098Y-367448D1*
X70277Y-368432D1*
X70371Y-369416D1*
X70414Y-370401D1*
X70432Y-371385D1*
X70439Y-372369D1*
X70441Y-373353D1*
X70438Y-374338D1*
X70404Y-375322D1*
X70278Y-376306D1*
X70043Y-377290D1*
X69786Y-378275D1*
X69580Y-379259D1*
X69360Y-380243D1*
X69044Y-381227D1*
X68610Y-382212D1*
X68025Y-383196D1*
X67204Y-384180D1*
X66034Y-385164D1*
X64430Y-386149D1*
X62568Y-387133D1*
X117686Y-357605D2*
X116252Y-358590D1*
X115023Y-359574D1*
X114060Y-360558D1*
X113304Y-361542D1*
X113027Y-362527D1*
X112877Y-363511D1*
X112809Y-364495D1*
X112781Y-365479D1*
X112771Y-366464D1*
X112767Y-367448D1*
X112766Y-368432D1*
X112765Y-369416D1*
Y-370401D1*
Y-371385D1*
Y-372369D1*
Y-373353D1*
Y-374338D1*
Y-375322D1*
Y-376306D1*
Y-377290D1*
Y-378275D1*
Y-379259D1*
X112769Y-380243D1*
X112807Y-381227D1*
X112971Y-382212D1*
X113375Y-383196D1*
X114064Y-384180D1*
X115040Y-385164D1*
X116289Y-386149D1*
X117686Y-387133D1*
X123592Y-357605D2*
X125027Y-358590D1*
X126255Y-359574D1*
X127219Y-360558D1*
X127975Y-361542D1*
X128289Y-362527D1*
X128565Y-363511D1*
X128869Y-364495D1*
X129149Y-365479D1*
X129331Y-366464D1*
X129426Y-367448D1*
X129469Y-368432D1*
X129487Y-369416D1*
X129494Y-370401D1*
X129496Y-371385D1*
X129497Y-372369D1*
Y-373353D1*
Y-374338D1*
Y-375322D1*
X129494Y-376306D1*
X129459Y-377290D1*
X129333Y-378275D1*
X129098Y-379259D1*
X128842Y-380243D1*
X128631Y-381227D1*
X128376Y-382212D1*
X127931Y-383196D1*
X127224Y-384180D1*
X126242Y-385164D1*
X124991Y-386149D1*
X123592Y-387133D1*
X141308Y-357605D2*
X139874Y-358590D1*
X138645Y-359574D1*
X137682Y-360558D1*
X136926Y-361542D1*
X136649Y-362527D1*
X136499Y-363511D1*
X136435Y-364495D1*
X136442Y-365479D1*
X136561Y-366464D1*
X136835Y-367448D1*
X137287Y-368432D1*
X138007Y-369416D1*
X139069Y-370401D1*
X140324Y-371385D1*
X139159Y-372369D1*
X138161Y-373353D1*
X137374Y-374338D1*
X136740Y-375322D1*
X136220Y-376306D1*
X135831Y-377290D1*
X135604Y-378275D1*
X135524Y-379259D1*
X135603Y-380243D1*
X135853Y-381227D1*
X136231Y-382212D1*
X136712Y-383196D1*
X137382Y-384180D1*
X138388Y-385164D1*
X139761Y-386149D1*
X141308Y-387133D1*
X147214Y-357605D2*
X148615Y-358590D1*
X149752Y-359574D1*
X150605Y-360558D1*
X151236Y-361542D1*
X151678Y-362527D1*
X151946Y-363511D1*
X152135Y-364495D1*
X162962Y-357605D2*
X163336Y-358590D1*
X163759Y-359574D1*
X164216Y-360558D1*
X164694Y-361542D1*
X165179Y-362527D1*
X165670Y-363511D1*
X166161Y-364495D1*
X166653Y-365479D1*
X167145Y-366464D1*
X167638Y-367448D1*
X168129Y-368432D1*
X168618Y-369416D1*
X169079Y-370401D1*
X169477Y-371385D1*
X169827Y-372369D1*
X170209Y-373353D1*
X170640Y-374338D1*
X171105Y-375322D1*
X171611Y-376306D1*
X172180Y-377290D1*
X172804Y-378275D1*
X164930Y-379259D1*
X166899Y-357605D2*
X167273Y-358590D1*
X167696Y-359574D1*
X168153Y-360558D1*
X168627Y-361542D1*
X169082Y-362527D1*
X169478Y-363511D1*
X169827Y-364495D1*
X170209Y-365479D1*
X170640Y-366464D1*
X171102Y-367448D1*
X171582Y-368432D1*
X172069Y-369416D1*
X172560Y-370401D1*
X173050Y-371385D1*
X173543Y-372369D1*
X174034Y-373353D1*
X174527Y-374338D1*
X175019Y-375322D1*
X175508Y-376306D1*
X175964Y-377290D1*
X176328Y-378275D1*
X176549Y-379259D1*
X176661Y-380243D1*
X176712Y-381227D1*
X176741Y-382212D1*
X187568Y-357605D2*
X186286Y-358590D1*
X185297Y-359574D1*
X184554Y-360558D1*
X183953Y-361542D1*
X183455Y-362527D1*
X183108Y-363511D1*
X182918Y-364495D1*
X183110Y-365479D1*
X183364Y-366464D1*
X183649Y-367448D1*
X184008Y-368432D1*
X184459Y-369416D1*
X185012Y-370401D1*
X185636Y-371385D1*
X186268Y-372369D1*
X186945Y-373353D1*
X187703Y-374338D1*
X188462Y-375322D1*
X189166Y-376306D1*
X189876Y-377290D1*
X190647Y-378275D1*
X191412Y-379259D1*
X192118Y-380243D1*
X192832Y-381227D1*
X193637Y-382212D1*
X194523Y-383196D1*
X195442Y-384180D1*
X194458Y-357605D2*
X195859Y-358590D1*
X196996Y-359574D1*
X197849Y-360558D1*
X198481Y-361542D1*
X198922Y-362527D1*
X199190Y-363511D1*
X199379Y-364495D1*
X212175Y-357605D2*
X210740Y-358590D1*
X209511Y-359574D1*
X208544Y-360558D1*
X207861Y-361542D1*
X207378Y-362527D1*
X206972Y-363511D1*
X206651Y-364495D1*
X206485Y-365479D1*
X206508Y-366464D1*
X206702Y-367448D1*
X206974Y-368432D1*
X207303Y-369416D1*
X207795Y-370401D1*
X208518Y-371385D1*
X209442Y-372369D1*
X210401Y-373353D1*
X211243Y-374338D1*
X211447Y-375322D1*
X211175Y-376306D1*
X210722Y-377290D1*
X210146Y-378275D1*
X209566Y-379259D1*
X209021Y-380243D1*
X208502Y-381227D1*
X207999Y-382212D1*
X207502Y-383196D1*
X207005Y-384180D1*
X206486Y-385164D1*
X205912Y-386149D1*
X205285Y-387133D1*
X226938Y-357605D2*
Y-358590D1*
Y-359574D1*
Y-360558D1*
Y-361542D1*
Y-362527D1*
Y-363511D1*
Y-364495D1*
Y-365479D1*
Y-366464D1*
Y-367448D1*
Y-368432D1*
Y-369416D1*
Y-370401D1*
Y-371385D1*
Y-372369D1*
Y-373353D1*
Y-374338D1*
Y-375322D1*
Y-376306D1*
Y-377290D1*
Y-378275D1*
Y-379259D1*
Y-380243D1*
Y-381227D1*
Y-382212D1*
Y-383196D1*
Y-384180D1*
Y-385164D1*
Y-386149D1*
Y-387133D1*
X240718Y-357605D2*
X238980Y-358590D1*
X237547Y-359574D1*
X236472Y-360558D1*
X235619Y-361542D1*
X234901Y-362527D1*
X234377Y-363511D1*
X234055Y-364495D1*
X233828Y-365479D1*
X246623Y-357605D2*
X248512Y-358590D1*
X250027Y-359574D1*
X251169Y-360558D1*
X252005Y-361542D1*
X252625Y-362527D1*
X253061Y-363511D1*
X253344Y-364495D1*
X253591Y-365479D1*
X253879Y-366464D1*
X254153Y-367448D1*
X254332Y-368432D1*
X254427Y-369416D1*
X254469Y-370401D1*
X254487Y-371385D1*
X254494Y-372369D1*
X254496Y-373353D1*
X254493Y-374338D1*
X254459Y-375322D1*
X254333Y-376306D1*
X254098Y-377290D1*
X253842Y-378275D1*
X253635Y-379259D1*
X253415Y-380243D1*
X253099Y-381227D1*
X252665Y-382212D1*
X252080Y-383196D1*
X251259Y-384180D1*
X250089Y-385164D1*
X248485Y-386149D1*
X246623Y-387133D1*
X-250424Y-360558D2*
X-250272Y-361542D1*
X-250024Y-362527D1*
X-249734Y-363511D1*
X-249437Y-364495D1*
X-249106Y-365479D1*
X-248777Y-366464D1*
X-248462Y-367448D1*
X-248129Y-368432D1*
X-247828Y-369416D1*
X-247604Y-370401D1*
X-247380Y-371385D1*
X-247097Y-372369D1*
X-246791Y-373353D1*
X-246487Y-374338D1*
X-246154Y-375322D1*
X-245825Y-376306D1*
X-245510Y-377290D1*
X-245176Y-378275D1*
X-244876Y-379259D1*
X-244651Y-380243D1*
X-244428Y-381227D1*
X-244144Y-382212D1*
X-243839Y-383196D1*
X-243534Y-384180D1*
X-243196Y-385164D1*
X-242859Y-386149D1*
X-242550Y-387133D1*
X-241566Y-360558D2*
Y-361542D1*
Y-362527D1*
Y-363511D1*
Y-364495D1*
Y-365479D1*
X-228770Y-360558D2*
X-228618Y-361542D1*
X-228370Y-362527D1*
X-228081Y-363511D1*
X-227783Y-364495D1*
X-227452Y-365479D1*
X-227123Y-366464D1*
X-226809Y-367448D1*
X-226475Y-368432D1*
X-226175Y-369416D1*
X-225951Y-370401D1*
X-225727Y-371385D1*
X-225443Y-372369D1*
X-225138Y-373353D1*
X-224834Y-374338D1*
X-224501Y-375322D1*
X-224171Y-376306D1*
X-223856Y-377290D1*
X-223523Y-378275D1*
X-223222Y-379259D1*
X-222998Y-380243D1*
X-222774Y-381227D1*
X-222490Y-382212D1*
X-222185Y-383196D1*
X-221880Y-384180D1*
X-221542Y-385164D1*
X-221205Y-386149D1*
X-220896Y-387133D1*
X-219912Y-360558D2*
Y-361542D1*
Y-362527D1*
Y-363511D1*
Y-364495D1*
Y-365479D1*
X-177589Y-360558D2*
X-179323Y-361542D1*
X-180718Y-362527D1*
X-181791Y-363511D1*
X-182213Y-364495D1*
X-182218Y-365479D1*
X-182021Y-366464D1*
X-181671Y-367448D1*
X-181238Y-368432D1*
X-180735Y-369416D1*
X-180127Y-370401D1*
X-179402Y-371385D1*
X-178656Y-372369D1*
X-177957Y-373353D1*
X-177245Y-374338D1*
X-176444Y-375322D1*
X-175588Y-376306D1*
X-174772Y-377290D1*
X-174041Y-378275D1*
X-173320Y-379259D1*
X-172545Y-380243D1*
X-171782Y-381227D1*
X-171114Y-382212D1*
X-170563Y-383196D1*
X-170157Y-384180D1*
X-169917Y-385164D1*
X-169793Y-386149D1*
X-169715Y-387133D1*
X-177589Y-360558D2*
X-175967Y-361542D1*
X-174656Y-362527D1*
X-173615Y-363511D1*
X-172668Y-364495D1*
X-153967Y-360558D2*
X-155586Y-361542D1*
X-156864Y-362527D1*
X-157759Y-363511D1*
X-158430Y-364495D1*
X-158628Y-365479D1*
X-158702Y-366464D1*
X-158456Y-367448D1*
X-157796Y-368432D1*
X-155203Y-369416D1*
X-150756Y-370401D1*
X-145109Y-371385D1*
X-146093Y-360558D2*
Y-361542D1*
Y-362527D1*
Y-363511D1*
Y-364495D1*
Y-365479D1*
Y-366464D1*
Y-367448D1*
Y-368432D1*
Y-369416D1*
Y-370401D1*
X-154951Y-371385D1*
X-125424Y-360558D2*
X-127195Y-361542D1*
X-128718Y-362527D1*
X-129880Y-363511D1*
X-130696Y-364495D1*
X-131329Y-365479D1*
X-125424Y-360558D2*
X-123653Y-361542D1*
X-122127Y-362527D1*
X-120943Y-363511D1*
X-120073Y-364495D1*
X-119436Y-365479D1*
X-118995Y-366464D1*
X-118744Y-367448D1*
X-118621Y-368432D1*
X-118568Y-369416D1*
X-118547Y-370401D1*
X-118539Y-371385D1*
X-118536Y-372369D1*
X-118535Y-373353D1*
X-118534Y-374338D1*
X-118538Y-375322D1*
X-118573Y-376306D1*
X-118702Y-377290D1*
X-118976Y-378275D1*
X-119396Y-379259D1*
X-120017Y-380243D1*
X-120840Y-381227D1*
X-122705Y-382212D1*
X-125311Y-383196D1*
X-128377Y-384180D1*
X-64400Y-360558D2*
X-66134Y-361542D1*
X-67529Y-362527D1*
X-68602Y-363511D1*
X-68975Y-364495D1*
X-69175Y-365479D1*
X-69265Y-366464D1*
X-69301Y-367448D1*
X-69314Y-368432D1*
X-69319Y-369416D1*
X-69321Y-370401D1*
Y-371385D1*
Y-372369D1*
Y-373353D1*
X-69322Y-374338D1*
Y-375322D1*
Y-376306D1*
Y-377290D1*
X-69318Y-378275D1*
X-69275Y-379259D1*
X-69172Y-380243D1*
X-68628Y-381227D1*
X-66943Y-382212D1*
X-64443Y-383196D1*
X-61448Y-384180D1*
X-64400Y-360558D2*
X-62667Y-361542D1*
X-61271Y-362527D1*
X-60198Y-363511D1*
X-59825Y-364495D1*
X-59625Y-365479D1*
X-59536Y-366464D1*
X-59500Y-367448D1*
X-59486Y-368432D1*
X-59481Y-369416D1*
X-59480Y-370401D1*
X-59479Y-371385D1*
Y-372369D1*
Y-373353D1*
Y-374338D1*
Y-375322D1*
Y-376306D1*
Y-377290D1*
X-59483Y-378275D1*
X-59525Y-379259D1*
X-59629Y-380243D1*
X-60173Y-381227D1*
X-61858Y-382212D1*
X-64358Y-383196D1*
X-67353Y-384180D1*
X7450Y-360558D2*
X5716Y-361542D1*
X4321Y-362527D1*
X3248Y-363511D1*
X2826Y-364495D1*
X2821Y-365479D1*
X3018Y-366464D1*
X3368Y-367448D1*
X3801Y-368432D1*
X4304Y-369416D1*
X4912Y-370401D1*
X5637Y-371385D1*
X6384Y-372369D1*
X7082Y-373353D1*
X7794Y-374338D1*
X8595Y-375322D1*
X9451Y-376306D1*
X10267Y-377290D1*
X10998Y-378275D1*
X11719Y-379259D1*
X12495Y-380243D1*
X13258Y-381227D1*
X13926Y-382212D1*
X14476Y-383196D1*
X14883Y-384180D1*
X15122Y-385164D1*
X15246Y-386149D1*
X15324Y-387133D1*
X7450Y-360558D2*
X9073Y-361542D1*
X10384Y-362527D1*
X11425Y-363511D1*
X12371Y-364495D1*
X31072Y-360558D2*
X29453Y-361542D1*
X28176Y-362527D1*
X27280Y-363511D1*
X26610Y-364495D1*
X26411Y-365479D1*
X26337Y-366464D1*
X26584Y-367448D1*
X27243Y-368432D1*
X29836Y-369416D1*
X34283Y-370401D1*
X39930Y-371385D1*
X38946Y-360558D2*
Y-361542D1*
Y-362527D1*
Y-363511D1*
Y-364495D1*
Y-365479D1*
Y-366464D1*
Y-367448D1*
Y-368432D1*
Y-369416D1*
Y-370401D1*
X30088Y-371385D1*
X59615Y-360558D2*
X57844Y-361542D1*
X56322Y-362527D1*
X55159Y-363511D1*
X54344Y-364495D1*
X53710Y-365479D1*
X59615Y-360558D2*
X61387Y-361542D1*
X62912Y-362527D1*
X64097Y-363511D1*
X64967Y-364495D1*
X65604Y-365479D1*
X66044Y-366464D1*
X66296Y-367448D1*
X66418Y-368432D1*
X66471Y-369416D1*
X66493Y-370401D1*
X66501Y-371385D1*
X66504Y-372369D1*
X66505Y-373353D1*
Y-374338D1*
X66501Y-375322D1*
X66467Y-376306D1*
X66338Y-377290D1*
X66063Y-378275D1*
X65643Y-379259D1*
X65022Y-380243D1*
X64199Y-381227D1*
X62334Y-382212D1*
X59728Y-383196D1*
X56663Y-384180D1*
X120639Y-360558D2*
X118905Y-361542D1*
X117510Y-362527D1*
X116437Y-363511D1*
X116064Y-364495D1*
X115864Y-365479D1*
X115775Y-366464D1*
X115739Y-367448D1*
X115725Y-368432D1*
X115720Y-369416D1*
X115719Y-370401D1*
X115718Y-371385D1*
Y-372369D1*
Y-373353D1*
Y-374338D1*
Y-375322D1*
Y-376306D1*
Y-377290D1*
X115722Y-378275D1*
X115764Y-379259D1*
X115868Y-380243D1*
X116412Y-381227D1*
X118096Y-382212D1*
X120597Y-383196D1*
X123592Y-384180D1*
X120639Y-360558D2*
X122373Y-361542D1*
X123768Y-362527D1*
X124841Y-363511D1*
X125214Y-364495D1*
X125414Y-365479D1*
X125503Y-366464D1*
X125539Y-367448D1*
X125553Y-368432D1*
X125558Y-369416D1*
X125560Y-370401D1*
Y-371385D1*
Y-372369D1*
Y-373353D1*
Y-374338D1*
Y-375322D1*
Y-376306D1*
Y-377290D1*
X125557Y-378275D1*
X125514Y-379259D1*
X125410Y-380243D1*
X124866Y-381227D1*
X123182Y-382212D1*
X120682Y-383196D1*
X117686Y-384180D1*
X144261Y-360558D2*
X142642Y-361542D1*
X141365Y-362527D1*
X140473Y-363511D1*
X139814Y-364495D1*
X139642Y-365479D1*
X139900Y-366464D1*
X140325Y-367448D1*
X141431Y-368432D1*
X142753Y-369416D1*
X144047Y-370401D1*
X144688Y-371385D1*
X144892Y-372369D1*
X143538Y-373353D1*
X142096Y-374338D1*
X140904Y-375322D1*
X139975Y-376306D1*
X139646Y-377290D1*
X139473Y-378275D1*
X139437Y-379259D1*
X139500Y-380243D1*
X140037Y-381227D1*
X141720Y-382212D1*
X144219Y-383196D1*
X147214Y-384180D1*
X145245Y-360558D2*
X146230Y-361542D1*
X147214Y-362527D1*
X148198Y-363511D1*
X149182Y-364495D1*
X191505Y-360558D2*
X189772Y-361542D1*
X188376Y-362527D1*
X187303Y-363511D1*
X186881Y-364495D1*
X186876Y-365479D1*
X187074Y-366464D1*
X187423Y-367448D1*
X187857Y-368432D1*
X188359Y-369416D1*
X188967Y-370401D1*
X189692Y-371385D1*
X190439Y-372369D1*
X191138Y-373353D1*
X191849Y-374338D1*
X192650Y-375322D1*
X193506Y-376306D1*
X194322Y-377290D1*
X195053Y-378275D1*
X195774Y-379259D1*
X196550Y-380243D1*
X197313Y-381227D1*
X197981Y-382212D1*
X198532Y-383196D1*
X198938Y-384180D1*
X199177Y-385164D1*
X199301Y-386149D1*
X199379Y-387133D1*
X191505Y-360558D2*
X193128Y-361542D1*
X194439Y-362527D1*
X195480Y-363511D1*
X196427Y-364495D1*
X215127Y-360558D2*
X213508Y-361542D1*
X212231Y-362527D1*
X211336Y-363511D1*
X210665Y-364495D1*
X210466Y-365479D1*
X210392Y-366464D1*
X210639Y-367448D1*
X211298Y-368432D1*
X213891Y-369416D1*
X218338Y-370401D1*
X223986Y-371385D1*
X223001Y-360558D2*
Y-361542D1*
Y-362527D1*
Y-363511D1*
Y-364495D1*
Y-365479D1*
Y-366464D1*
Y-367448D1*
Y-368432D1*
Y-369416D1*
Y-370401D1*
X214143Y-371385D1*
X243671Y-360558D2*
X241899Y-361542D1*
X240377Y-362527D1*
X239214Y-363511D1*
X238399Y-364495D1*
X237765Y-365479D1*
X243671Y-360558D2*
X245442Y-361542D1*
X246967Y-362527D1*
X248152Y-363511D1*
X249022Y-364495D1*
X249659Y-365479D1*
X250099Y-366464D1*
X250351Y-367448D1*
X250473Y-368432D1*
X250527Y-369416D1*
X250548Y-370401D1*
X250556Y-371385D1*
X250559Y-372369D1*
X250560Y-373353D1*
Y-374338D1*
X250556Y-375322D1*
X250522Y-376306D1*
X250393Y-377290D1*
X250118Y-378275D1*
X249698Y-379259D1*
X249077Y-380243D1*
X248255Y-381227D1*
X246389Y-382212D1*
X243783Y-383196D1*
X240718Y-384180D1*
X-43731Y-367448D2*
X-45132Y-368432D1*
X-46269Y-369416D1*
X-47122Y-370401D1*
X-47753Y-371385D1*
X-48192Y-372369D1*
X-48443Y-373353D1*
X-48565Y-374338D1*
X-48618Y-375322D1*
X-48640Y-376306D1*
X-48648Y-377290D1*
X-48651Y-378275D1*
X-48648Y-379259D1*
X-48614Y-380243D1*
X-48484Y-381227D1*
X-48210Y-382212D1*
X-47790Y-383196D1*
X-47182Y-384180D1*
X-46287Y-385164D1*
X-45091Y-386149D1*
X-43731Y-387133D1*
X-38810Y-367448D2*
X-37825Y-368432D1*
X-209085Y-369416D2*
Y-370401D1*
Y-371385D1*
Y-372369D1*
Y-373353D1*
Y-374338D1*
X-209093Y-375322D1*
X-209162Y-376306D1*
X-209324Y-377290D1*
X-209862Y-378275D1*
X-210376Y-379259D1*
X-210762Y-380243D1*
X-210716Y-381227D1*
X-210232Y-382212D1*
X-209737Y-383196D1*
X-209401Y-384180D1*
X-209222Y-385164D1*
X-209136Y-386149D1*
X-209085Y-387133D1*
X-206133Y-369416D2*
Y-370401D1*
Y-371385D1*
Y-372369D1*
Y-373353D1*
Y-374338D1*
Y-375322D1*
Y-376306D1*
Y-377290D1*
Y-378275D1*
X-197274Y-379259D1*
X-24046Y-369416D2*
Y-370401D1*
Y-371385D1*
Y-372369D1*
Y-373353D1*
Y-374338D1*
Y-375322D1*
Y-376306D1*
Y-377290D1*
Y-378275D1*
Y-379259D1*
X-26014D1*
Y-380243D1*
Y-381227D1*
Y-382212D1*
Y-383196D1*
X-24046D1*
Y-384180D1*
Y-385164D1*
Y-386149D1*
Y-387133D1*
X-21093Y-369416D2*
Y-370401D1*
Y-371385D1*
Y-372369D1*
Y-373353D1*
Y-374338D1*
Y-375322D1*
Y-376306D1*
Y-377290D1*
Y-378275D1*
X-12235Y-379259D1*
X160009Y-369416D2*
Y-370401D1*
Y-371385D1*
Y-372369D1*
Y-373353D1*
Y-374338D1*
X160001Y-375322D1*
X159932Y-376306D1*
X159771Y-377290D1*
X159232Y-378275D1*
X158719Y-379259D1*
X158332Y-380243D1*
X158378Y-381227D1*
X158863Y-382212D1*
X159357Y-383196D1*
X159693Y-384180D1*
X159873Y-385164D1*
X159959Y-386149D1*
X160009Y-387133D1*
X162962Y-369416D2*
Y-370401D1*
Y-371385D1*
Y-372369D1*
Y-373353D1*
Y-374338D1*
Y-375322D1*
Y-376306D1*
Y-377290D1*
Y-378275D1*
X171820Y-379259D1*
X-41762Y-370401D2*
X-42709Y-371385D1*
X-43563Y-372369D1*
X-44273Y-373353D1*
X-44841Y-374338D1*
X-45254Y-375322D1*
X-45491Y-376306D1*
X-45576Y-377290D1*
X-45499Y-378275D1*
X-45245Y-379259D1*
X-44825Y-380243D1*
X-44285Y-381227D1*
X-42982Y-382212D1*
X-41087Y-383196D1*
X-38810Y-384180D1*
X-40778Y-370401D2*
X-38991Y-371385D1*
X-37368Y-372369D1*
X-35857Y-373353D1*
X-151999Y-374338D2*
X-152827Y-375322D1*
X-153533Y-376306D1*
X-154133Y-377290D1*
X-154674Y-378275D1*
X-155185Y-379259D1*
X-155686Y-380243D1*
X-156180Y-381227D1*
X-156674Y-382212D1*
X-157165Y-383196D1*
X-157655Y-384180D1*
X-158121Y-385164D1*
X-158531Y-386149D1*
X-158888Y-387133D1*
X-146093Y-374338D2*
Y-375322D1*
Y-376306D1*
Y-377290D1*
Y-378275D1*
Y-379259D1*
Y-380243D1*
Y-381227D1*
Y-382212D1*
Y-383196D1*
Y-384180D1*
Y-385164D1*
Y-386149D1*
Y-387133D1*
X33041Y-374338D2*
X32212Y-375322D1*
X31507Y-376306D1*
X30907Y-377290D1*
X30365Y-378275D1*
X29854Y-379259D1*
X29353Y-380243D1*
X28859Y-381227D1*
X28366Y-382212D1*
X27874Y-383196D1*
X27384Y-384180D1*
X26918Y-385164D1*
X26508Y-386149D1*
X26151Y-387133D1*
X38946Y-374338D2*
Y-375322D1*
Y-376306D1*
Y-377290D1*
Y-378275D1*
Y-379259D1*
Y-380243D1*
Y-381227D1*
Y-382212D1*
Y-383196D1*
Y-384180D1*
Y-385164D1*
Y-386149D1*
Y-387133D1*
X217096Y-374338D2*
X216268Y-375322D1*
X215562Y-376306D1*
X214962Y-377290D1*
X214420Y-378275D1*
X213909Y-379259D1*
X213409Y-380243D1*
X212915Y-381227D1*
X212421Y-382212D1*
X211929Y-383196D1*
X211439Y-384180D1*
X210973Y-385164D1*
X210563Y-386149D1*
X210206Y-387133D1*
X223001Y-374338D2*
Y-375322D1*
Y-376306D1*
Y-377290D1*
Y-378275D1*
Y-379259D1*
Y-380243D1*
Y-381227D1*
Y-382212D1*
Y-383196D1*
Y-384180D1*
Y-385164D1*
Y-386149D1*
Y-387133D1*
X-135266Y-379259D2*
X-135077Y-380243D1*
X-134703Y-381227D1*
X-134170Y-382212D1*
X-133543Y-383196D1*
X-132716Y-384180D1*
X-131536Y-385164D1*
X-130029Y-386149D1*
X-128377Y-387133D1*
X-131329Y-379259D2*
X-130747Y-380243D1*
X-129971Y-381227D1*
X-128125Y-382212D1*
X-125530Y-383196D1*
X-122471Y-384180D1*
X49773Y-379259D2*
X49963Y-380243D1*
X50337Y-381227D1*
X50870Y-382212D1*
X51497Y-383196D1*
X52323Y-384180D1*
X53504Y-385164D1*
X55010Y-386149D1*
X56663Y-387133D1*
X53710Y-379259D2*
X54293Y-380243D1*
X55068Y-381227D1*
X56914Y-382212D1*
X59509Y-383196D1*
X62568Y-384180D1*
X233828Y-379259D2*
X234018Y-380243D1*
X234392Y-381227D1*
X234925Y-382212D1*
X235552Y-383196D1*
X236378Y-384180D1*
X237559Y-385164D1*
X239065Y-386149D1*
X240718Y-387133D1*
X237765Y-379259D2*
X238348Y-380243D1*
X239123Y-381227D1*
X240969Y-382212D1*
X243564Y-383196D1*
X246623Y-384180D1*
X-35857Y-380243D2*
X-36505Y-381227D1*
X-38216Y-382212D1*
X-40729Y-383196D1*
X-43731Y-384180D1*
X-32904Y-380243D2*
X-33060Y-381227D1*
X-33343Y-382212D1*
X-33765Y-383196D1*
X-34375Y-384180D1*
X-35269Y-385164D1*
X-36465Y-386149D1*
X-37825Y-387133D1*
X149182Y-380243D2*
X148535Y-381227D1*
X146823Y-382212D1*
X144310Y-383196D1*
X141308Y-384180D1*
X153119Y-380243D2*
X152742Y-381227D1*
X152284Y-382212D1*
X151694Y-383196D1*
X150908Y-384180D1*
X149889Y-385164D1*
X148622Y-386149D1*
X147214Y-387133D1*
X-206133Y-382212D2*
Y-383196D1*
Y-384180D1*
Y-385164D1*
Y-386149D1*
Y-387133D1*
X-21093Y-382212D2*
Y-383196D1*
Y-384180D1*
Y-385164D1*
Y-386149D1*
Y-387133D1*
X162962Y-382212D2*
Y-383196D1*
Y-384180D1*
Y-385164D1*
Y-386149D1*
Y-387133D1*
X-186448Y-384180D2*
Y-385164D1*
Y-386149D1*
Y-387133D1*
X-1408Y-384180D2*
Y-385164D1*
Y-386149D1*
Y-387133D1*
X182647Y-384180D2*
Y-385164D1*
Y-386149D1*
Y-387133D1*
X-271563Y390406D2*
X-272998Y389421D1*
X-274226Y388437D1*
X-275193Y387453D1*
X-275876Y386469D1*
X-276360Y385484D1*
X-276766Y384500D1*
X-277091Y383516D1*
X-277291Y382531D1*
X-277393Y381547D1*
X-277439Y380563D1*
X-277458Y379579D1*
X-277465Y378594D1*
X-277467Y377610D1*
X-277464Y376626D1*
X-277430Y375642D1*
X-277305Y374657D1*
X-277065Y373673D1*
X-276774Y372689D1*
X-276443Y371705D1*
X-275986Y370720D1*
X-275418Y369736D1*
X-274817Y368752D1*
X-274182Y367768D1*
X-273520Y366783D1*
X-272868Y365799D1*
X-272143Y364815D1*
X-271186Y363831D1*
X-269904Y362846D1*
X-268336Y361862D1*
X-266642Y360878D1*
X-265657Y390406D2*
X-264223Y389421D1*
X-262990Y388437D1*
X-261992Y387453D1*
X-261219Y386469D1*
X-260625Y385484D1*
X-260202Y384500D1*
X-259958Y383516D1*
X-259838Y382531D1*
X-259785Y381547D1*
X-259768Y380563D1*
X-259795Y379579D1*
X-259921Y378594D1*
X-260191Y377610D1*
X-260576Y376626D1*
X-261060Y375642D1*
X-261731Y374657D1*
X-262737Y373673D1*
X-264110Y372689D1*
X-265657Y371705D1*
X-248925Y390406D2*
Y389421D1*
Y388437D1*
Y387453D1*
Y386469D1*
Y385484D1*
Y384500D1*
Y383516D1*
Y382531D1*
Y381547D1*
Y380563D1*
Y379579D1*
Y378594D1*
Y377610D1*
Y376626D1*
Y375642D1*
Y374657D1*
Y373673D1*
Y372689D1*
Y371705D1*
Y370720D1*
Y369736D1*
Y368752D1*
Y367768D1*
Y366783D1*
Y365799D1*
Y364815D1*
Y363831D1*
Y362846D1*
Y361862D1*
Y360878D1*
X-247941Y390406D2*
X-246953Y389421D1*
X-245930Y388437D1*
X-244786Y387453D1*
X-243444Y386469D1*
X-242010Y385484D1*
X-240766Y384500D1*
X-239775Y383516D1*
X-239384Y382531D1*
X-239083Y381547D1*
X-227272Y390406D2*
X-228673Y389421D1*
X-229810Y388437D1*
X-230663Y387453D1*
X-231298Y386469D1*
X-231771Y385484D1*
X-232147Y384500D1*
X-232505Y383516D1*
X-232811Y382531D1*
X-233004Y381547D1*
X-233103Y380563D1*
X-233148Y379579D1*
X-233166Y378594D1*
X-233173Y377610D1*
X-233176Y376626D1*
X-233177Y375642D1*
Y374657D1*
Y373673D1*
X-233173Y372689D1*
X-233139Y371705D1*
X-233013Y370720D1*
X-232774Y369736D1*
X-232487Y368752D1*
X-232186Y367768D1*
X-231820Y366783D1*
X-231362Y365799D1*
X-230770Y364815D1*
X-229983Y363831D1*
X-228963Y362846D1*
X-227695Y361862D1*
X-226287Y360878D1*
X-221366Y390406D2*
X-219931Y389421D1*
X-218699Y388437D1*
X-217701Y387453D1*
X-216924Y386469D1*
X-216295Y385484D1*
X-215747Y384500D1*
X-215267Y383516D1*
X-214895Y382531D1*
X-214670Y381547D1*
X-214558Y380563D1*
X-214508Y379579D1*
X-214488Y378594D1*
X-214481Y377610D1*
X-214478Y376626D1*
X-214477Y375642D1*
Y374657D1*
X-214476Y373673D1*
Y372689D1*
Y371705D1*
X-214480Y370720D1*
X-214515Y369736D1*
X-214640Y368752D1*
X-214880Y367768D1*
X-215171Y366783D1*
X-215506Y365799D1*
X-216001Y364815D1*
X-216732Y363831D1*
X-217725Y362846D1*
X-218981Y361862D1*
X-220382Y360878D1*
X-202665Y390406D2*
X-204100Y389421D1*
X-205329Y388437D1*
X-206292Y387453D1*
X-207048Y386469D1*
X-207325Y385484D1*
X-207475Y384500D1*
X-207539Y383516D1*
X-207532Y382531D1*
X-207417Y381547D1*
X-207181Y380563D1*
X-206892Y379579D1*
X-206560Y378594D1*
X-206104Y377610D1*
X-205536Y376626D1*
X-204935Y375642D1*
X-204300Y374657D1*
X-203638Y373673D1*
X-202994Y372689D1*
X-202342Y371705D1*
X-201677Y370720D1*
X-201062Y369736D1*
X-200500Y368752D1*
X-199941Y367768D1*
X-199307Y366783D1*
X-198540Y365799D1*
X-197671Y364815D1*
X-196760Y363831D1*
X-195776Y390406D2*
X-194382Y389421D1*
X-193166Y388437D1*
X-192554Y387453D1*
X-192527Y386469D1*
X-192823Y385484D1*
X-166248Y390406D2*
X-167649Y389421D1*
X-168786Y388437D1*
X-169639Y387453D1*
X-170274Y386469D1*
X-170748Y385484D1*
X-171124Y384500D1*
X-171482Y383516D1*
X-171787Y382531D1*
X-171980Y381547D1*
X-172080Y380563D1*
X-172124Y379579D1*
X-172143Y378594D1*
X-172150Y377610D1*
X-172152Y376626D1*
X-172153Y375642D1*
Y374657D1*
Y373673D1*
X-172150Y372689D1*
X-172115Y371705D1*
X-171990Y370720D1*
X-171750Y369736D1*
X-171463Y368752D1*
X-171162Y367768D1*
X-170797Y366783D1*
X-170339Y365799D1*
X-169746Y364815D1*
X-168959Y363831D1*
X-167939Y362846D1*
X-166672Y361862D1*
X-165264Y360878D1*
X-160343Y390406D2*
X-158908Y389421D1*
X-157675Y388437D1*
X-156677Y387453D1*
X-155900Y386469D1*
X-155272Y385484D1*
X-154724Y384500D1*
X-154243Y383516D1*
X-153871Y382531D1*
X-153647Y381547D1*
X-153534Y380563D1*
X-153485Y379579D1*
X-153465Y378594D1*
X-153457Y377610D1*
X-153454Y376626D1*
X-153453Y375642D1*
Y374657D1*
Y373673D1*
Y372689D1*
Y371705D1*
X-153457Y370720D1*
X-153491Y369736D1*
X-153617Y368752D1*
X-153856Y367768D1*
X-154147Y366783D1*
X-154483Y365799D1*
X-154977Y364815D1*
X-155708Y363831D1*
X-156701Y362846D1*
X-157957Y361862D1*
X-159358Y360878D1*
X-142626Y390406D2*
Y389421D1*
Y388437D1*
Y387453D1*
Y386469D1*
Y385484D1*
Y384500D1*
Y383516D1*
Y382531D1*
Y381547D1*
Y380563D1*
Y379579D1*
Y378594D1*
Y377610D1*
Y376626D1*
Y375642D1*
Y374657D1*
Y373673D1*
Y372689D1*
Y371705D1*
Y370720D1*
Y369736D1*
Y368752D1*
Y367768D1*
Y366783D1*
Y365799D1*
Y364815D1*
Y363831D1*
Y362846D1*
Y361862D1*
Y360878D1*
X-141642Y390406D2*
X-140654Y389421D1*
X-139631Y388437D1*
X-138487Y387453D1*
X-137145Y386469D1*
X-135711Y385484D1*
X-134467Y384500D1*
X-133477Y383516D1*
X-133117Y382531D1*
X-132914Y381547D1*
X-132783Y380563D1*
X-70776Y390406D2*
X-72395Y389421D1*
X-73672Y388437D1*
X-74567Y387453D1*
X-75238Y386469D1*
X-75474Y385484D1*
X-75598Y384500D1*
X-75621Y383516D1*
X-75515Y382531D1*
X-75246Y381547D1*
X-74796Y380563D1*
X-74076Y379579D1*
X-73014Y378594D1*
X-71760Y377610D1*
X-73195Y376626D1*
X-74423Y375642D1*
X-75386Y374657D1*
X-76143Y373673D1*
X-76457Y372689D1*
X-76729Y371705D1*
X-76999Y370720D1*
X-77153Y369736D1*
X-77096Y368752D1*
X-76904Y367768D1*
X-76646Y366783D1*
X-76298Y365799D1*
X-75839Y364815D1*
X-75178Y363831D1*
X-74126Y362846D1*
X-72591Y361862D1*
X-70776Y360878D1*
X-64870Y390406D2*
X-63625Y389421D1*
X-62622Y388437D1*
X-62224Y387453D1*
X-61917Y386469D1*
X-33374Y390406D2*
Y389421D1*
Y388437D1*
Y387453D1*
Y386469D1*
Y385484D1*
Y384500D1*
Y383516D1*
Y382531D1*
Y381547D1*
Y380563D1*
Y379579D1*
Y378594D1*
Y377610D1*
Y376626D1*
Y375642D1*
Y374657D1*
Y373673D1*
Y372689D1*
Y371705D1*
Y370720D1*
Y369736D1*
Y368752D1*
Y367768D1*
Y366783D1*
Y365799D1*
Y364815D1*
Y363831D1*
Y362846D1*
Y361862D1*
Y360878D1*
X-32390Y390406D2*
X-31402Y389421D1*
X-30379Y388437D1*
X-29235Y387453D1*
X-27893Y386469D1*
X-26459Y385484D1*
X-25215Y384500D1*
X-24225Y383516D1*
X-23865Y382531D1*
X-23662Y381547D1*
X-23531Y380563D1*
X-18610Y390406D2*
X-18118Y389421D1*
X-17710Y388437D1*
X-17327Y387453D1*
X-16976Y386469D1*
X-16654Y385484D1*
X-16313Y384500D1*
X-15981Y383516D1*
X-15661Y382531D1*
X-15293Y381547D1*
X-14871Y380563D1*
X-14441Y379579D1*
X-14056Y378594D1*
X-13715Y377610D1*
X-13366Y376626D1*
X-13030Y375642D1*
X-12709Y374657D1*
X-12340Y373673D1*
X-11918Y372689D1*
X-11488Y371705D1*
X-11103Y370720D1*
X-10762Y369736D1*
X-10413Y368752D1*
X-10077Y367768D1*
X-9760Y366783D1*
X-9422Y365799D1*
X-9091Y364815D1*
X-8775Y363831D1*
X-8432Y362846D1*
X-8093Y361862D1*
X-7783Y360878D1*
X-14673Y390406D2*
X-14333Y389421D1*
X-14005Y388437D1*
X-13693Y387453D1*
X-13357Y386469D1*
X-13027Y385484D1*
X-12712Y384500D1*
X-12374Y383516D1*
X-12043Y382531D1*
X-11728Y381547D1*
X-11390Y380563D1*
X-11059Y379579D1*
X-10744Y378594D1*
X-10406Y377610D1*
X-10075Y376626D1*
X-9756Y375642D1*
X-9387Y374657D1*
X-8965Y373673D1*
X-8536Y372689D1*
X-8148Y371705D1*
X-7779Y370720D1*
X-7327Y369736D1*
X-6799Y368752D1*
X1075Y390406D2*
X923Y389421D1*
X675Y388437D1*
X385Y387453D1*
X84Y386469D1*
X-278Y385484D1*
X-698Y384500D1*
X-1126Y383516D1*
X-1511Y382531D1*
X-1852Y381547D1*
X-2201Y380563D1*
X-2537Y379579D1*
X-2854Y378594D1*
X-3192Y377610D1*
X-3524Y376626D1*
X-3843Y375642D1*
X-4211Y374657D1*
X-4633Y373673D1*
X-5063Y372689D1*
X-5451Y371705D1*
X-5820Y370720D1*
X-6271Y369736D1*
X-6799Y368752D1*
X5012Y390406D2*
X4671Y389421D1*
X4344Y388437D1*
X4032Y387453D1*
X3696Y386469D1*
X3366Y385484D1*
X3047Y384500D1*
X2678Y383516D1*
X2256Y382531D1*
X1827Y381547D1*
X1442Y380563D1*
X1100Y379579D1*
X751Y378594D1*
X416Y377610D1*
X95Y376626D1*
X-274Y375642D1*
X-696Y374657D1*
X-1126Y373673D1*
X-1511Y372689D1*
X-1852Y371705D1*
X-2201Y370720D1*
X-2537Y369736D1*
X-2858Y368752D1*
X-3227Y367768D1*
X-3649Y366783D1*
X-4078Y365799D1*
X-4464Y364815D1*
X-4806Y363831D1*
X-5159Y362846D1*
X-5503Y361862D1*
X-5815Y360878D1*
X38476Y390406D2*
X36284Y389421D1*
X34572Y388437D1*
X33385Y387453D1*
X32560Y386469D1*
X31926Y385484D1*
X31412Y384500D1*
X31031Y383516D1*
X30837Y382531D1*
X30849Y381547D1*
X31038Y380563D1*
X31305Y379579D1*
X31602Y378594D1*
X31999Y377610D1*
X32589Y376626D1*
X33509Y375642D1*
X35026Y374657D1*
X37619Y373673D1*
X41588Y372689D1*
X46350Y371705D1*
Y370720D1*
Y369736D1*
Y368752D1*
Y367768D1*
Y366783D1*
Y365799D1*
Y364815D1*
Y363831D1*
Y362846D1*
Y361862D1*
Y360878D1*
X49303Y390406D2*
Y389421D1*
Y388437D1*
Y387453D1*
Y386469D1*
Y385484D1*
Y384500D1*
Y383516D1*
Y382531D1*
Y381547D1*
Y380563D1*
Y379579D1*
Y378594D1*
Y377610D1*
Y376626D1*
Y375642D1*
Y374657D1*
Y373673D1*
Y372689D1*
Y371705D1*
Y370720D1*
Y369736D1*
Y368752D1*
Y367768D1*
Y366783D1*
Y365799D1*
Y364815D1*
Y363831D1*
Y362846D1*
Y361862D1*
Y360878D1*
X57177Y390406D2*
Y389421D1*
Y388437D1*
Y387453D1*
Y386469D1*
Y385484D1*
Y384500D1*
Y383516D1*
Y382531D1*
Y381547D1*
Y380563D1*
Y379579D1*
Y378594D1*
Y377610D1*
Y376626D1*
Y375642D1*
Y374657D1*
Y373673D1*
Y372689D1*
Y371705D1*
Y370720D1*
Y369736D1*
Y368752D1*
Y367768D1*
Y366783D1*
Y365799D1*
Y364815D1*
Y363831D1*
Y362846D1*
Y361862D1*
Y360878D1*
X60130Y390406D2*
Y389421D1*
Y388437D1*
Y387453D1*
Y386469D1*
Y385484D1*
Y384500D1*
Y383516D1*
Y382531D1*
Y381547D1*
Y380563D1*
Y379579D1*
Y378594D1*
X74894Y390406D2*
Y389421D1*
Y388437D1*
Y387453D1*
Y386469D1*
Y385484D1*
Y384500D1*
Y383516D1*
Y382531D1*
Y381547D1*
Y380563D1*
Y379579D1*
Y378594D1*
X77846Y390406D2*
Y389421D1*
Y388437D1*
Y387453D1*
Y386469D1*
Y385484D1*
Y384500D1*
Y383516D1*
Y382531D1*
Y381547D1*
Y380563D1*
Y379579D1*
Y378594D1*
Y377610D1*
Y376626D1*
Y375642D1*
Y374657D1*
Y373673D1*
Y372689D1*
Y371705D1*
Y370720D1*
Y369736D1*
Y368752D1*
Y367768D1*
Y366783D1*
Y365799D1*
Y364815D1*
Y363831D1*
Y362846D1*
Y361862D1*
Y360878D1*
X82768Y390406D2*
Y389421D1*
Y388437D1*
Y387453D1*
Y386469D1*
X93594D1*
Y385484D1*
Y384500D1*
Y383516D1*
Y382531D1*
Y381547D1*
Y380563D1*
Y379579D1*
Y378594D1*
Y377610D1*
Y376626D1*
Y375642D1*
Y374657D1*
Y373673D1*
Y372689D1*
Y371705D1*
Y370720D1*
Y369736D1*
Y368752D1*
Y367768D1*
Y366783D1*
Y365799D1*
Y364815D1*
Y363831D1*
Y362846D1*
Y361862D1*
Y360878D1*
X106390Y390406D2*
Y389421D1*
Y388437D1*
Y387453D1*
Y386469D1*
X96547D1*
Y385484D1*
Y384500D1*
Y383516D1*
Y382531D1*
Y381547D1*
Y380563D1*
Y379579D1*
Y378594D1*
Y377610D1*
Y376626D1*
Y375642D1*
Y374657D1*
Y373673D1*
Y372689D1*
Y371705D1*
Y370720D1*
Y369736D1*
Y368752D1*
Y367768D1*
Y366783D1*
Y365799D1*
Y364815D1*
Y363831D1*
Y362846D1*
Y361862D1*
Y360878D1*
X141823Y390406D2*
X141667Y389421D1*
X141388Y388437D1*
X141008Y387453D1*
X140596Y386469D1*
X140218Y385484D1*
X139879Y384500D1*
X139531Y383516D1*
X139195Y382531D1*
X138875Y381547D1*
X138505Y380563D1*
X138083Y379579D1*
X137654Y378594D1*
X137269Y377610D1*
X136923Y376626D1*
X136544Y375642D1*
X136117Y374657D1*
X135686Y373673D1*
X135300Y372689D1*
X134959Y371705D1*
X134610Y370720D1*
X134274Y369736D1*
X133953Y368752D1*
X133584Y367768D1*
X133162Y366783D1*
X132733Y365799D1*
X132347Y364815D1*
X132005Y363831D1*
X131652Y362846D1*
X131308Y361862D1*
X130996Y360878D1*
X142807Y390406D2*
X143181Y389421D1*
X143604Y388437D1*
X144061Y387453D1*
X144535Y386469D1*
X144990Y385484D1*
X145386Y384500D1*
X145736Y383516D1*
X146117Y382531D1*
X146544Y381547D1*
X146975Y380563D1*
X147361Y379579D1*
X147706Y378594D1*
X148086Y377610D1*
X148517Y376626D1*
X148978Y375642D1*
X149455Y374657D1*
X149911Y373673D1*
X150307Y372689D1*
X150657Y371705D1*
X151038Y370720D1*
X151465Y369736D1*
X151896Y368752D1*
X152282Y367768D1*
X152628Y366783D1*
X153008Y365799D1*
X153434Y364815D1*
X153861Y363831D1*
X154215Y362846D1*
X154448Y361862D1*
X154618Y360878D1*
X156587Y390406D2*
Y389421D1*
Y388437D1*
Y387453D1*
Y386469D1*
X167413D1*
Y385484D1*
Y384500D1*
Y383516D1*
Y382531D1*
Y381547D1*
Y380563D1*
Y379579D1*
Y378594D1*
Y377610D1*
Y376626D1*
Y375642D1*
Y374657D1*
Y373673D1*
Y372689D1*
Y371705D1*
Y370720D1*
Y369736D1*
Y368752D1*
Y367768D1*
Y366783D1*
Y365799D1*
Y364815D1*
Y363831D1*
Y362846D1*
Y361862D1*
Y360878D1*
X180209Y390406D2*
Y389421D1*
Y388437D1*
Y387453D1*
Y386469D1*
X170366D1*
Y385484D1*
Y384500D1*
Y383516D1*
Y382531D1*
Y381547D1*
Y380563D1*
Y379579D1*
Y378594D1*
Y377610D1*
Y376626D1*
Y375642D1*
Y374657D1*
Y373673D1*
Y372689D1*
Y371705D1*
Y370720D1*
Y369736D1*
Y368752D1*
Y367768D1*
Y366783D1*
Y365799D1*
Y364815D1*
Y363831D1*
Y362846D1*
Y361862D1*
Y360878D1*
X183161Y390406D2*
X183994Y389421D1*
X184730Y388437D1*
X185425Y387453D1*
X186111Y386469D1*
X186764Y385484D1*
X187420Y384500D1*
X188090Y383516D1*
X188737Y382531D1*
X189390Y381547D1*
X190058Y380563D1*
X190700Y379579D1*
X191345Y378594D1*
X192020Y377610D1*
X191409Y376626D1*
X190844Y375642D1*
X190286Y374657D1*
X189685Y373673D1*
X189046Y372689D1*
X188441Y371705D1*
X187883Y370720D1*
X187330Y369736D1*
X186731Y368752D1*
X186092Y367768D1*
X185488Y366783D1*
X184930Y365799D1*
X184377Y364815D1*
X183781Y363831D1*
X183166Y362846D1*
X182633Y361862D1*
X182177Y360878D1*
X187098Y390406D2*
X187931Y389421D1*
X188667Y388437D1*
X189362Y387453D1*
X190048Y386469D1*
X190701Y385484D1*
X191357Y384500D1*
X192027Y383516D1*
X192674Y382531D1*
X193327Y381547D1*
X193996Y380563D1*
X194642Y379579D1*
X195295Y378594D1*
X195963Y377610D1*
X196605Y376626D1*
X197251Y375642D1*
X197925Y374657D1*
X198909Y390406D2*
Y389421D1*
Y388437D1*
Y387453D1*
Y386469D1*
Y385484D1*
Y384500D1*
Y383516D1*
Y382531D1*
Y381547D1*
Y380563D1*
Y379579D1*
X198906Y378594D1*
X198868Y377610D1*
X198716Y376626D1*
X198380Y375642D1*
X197925Y374657D1*
X202846Y390406D2*
Y389421D1*
Y388437D1*
Y387453D1*
Y386469D1*
Y385484D1*
Y384500D1*
Y383516D1*
Y382531D1*
Y381547D1*
Y380563D1*
Y379579D1*
Y378594D1*
Y377610D1*
Y376626D1*
Y375642D1*
Y374657D1*
Y373673D1*
Y372689D1*
Y371705D1*
Y370720D1*
Y369736D1*
Y368752D1*
Y367768D1*
Y366783D1*
Y365799D1*
Y364815D1*
Y363831D1*
Y362846D1*
Y361862D1*
Y360878D1*
X207768Y390406D2*
Y389421D1*
Y388437D1*
Y387453D1*
X225484Y390406D2*
Y389421D1*
Y388437D1*
Y387453D1*
Y386469D1*
Y385484D1*
Y384500D1*
Y383516D1*
Y382531D1*
Y381547D1*
Y380563D1*
Y379579D1*
Y378594D1*
Y377610D1*
Y376626D1*
Y375642D1*
Y374657D1*
Y373673D1*
Y372689D1*
Y371705D1*
Y370720D1*
Y369736D1*
Y368752D1*
Y367768D1*
Y366783D1*
Y365799D1*
Y364815D1*
Y363831D1*
Y362846D1*
Y361862D1*
Y360878D1*
X230406Y390406D2*
Y389421D1*
Y388437D1*
Y387453D1*
X249106Y390406D2*
Y389421D1*
Y388437D1*
Y387453D1*
Y386469D1*
Y385484D1*
Y384500D1*
Y383516D1*
Y382531D1*
Y381547D1*
Y380563D1*
Y379579D1*
Y378594D1*
Y377610D1*
Y376626D1*
Y375642D1*
Y374657D1*
Y373673D1*
Y372689D1*
Y371705D1*
Y370720D1*
Y369736D1*
Y368752D1*
Y367768D1*
Y366783D1*
Y365799D1*
Y364815D1*
Y363831D1*
Y362846D1*
Y361862D1*
Y360878D1*
X254028Y390406D2*
Y389421D1*
Y388437D1*
Y387453D1*
X271744Y390406D2*
Y389421D1*
Y388437D1*
Y387453D1*
Y386469D1*
Y385484D1*
Y384500D1*
Y383516D1*
Y382531D1*
Y381547D1*
Y380563D1*
Y379579D1*
Y378594D1*
Y377610D1*
Y376626D1*
Y375642D1*
Y374657D1*
Y373673D1*
Y372689D1*
Y371705D1*
Y370720D1*
Y369736D1*
Y368752D1*
Y367768D1*
Y366783D1*
Y365799D1*
Y364815D1*
Y363831D1*
Y362846D1*
Y361862D1*
Y360878D1*
X-105224Y389421D2*
Y388437D1*
Y387453D1*
Y386469D1*
Y385484D1*
Y384500D1*
Y383516D1*
Y382531D1*
Y381547D1*
Y380563D1*
Y379579D1*
Y378594D1*
Y377610D1*
Y376626D1*
Y375642D1*
Y374657D1*
Y373673D1*
Y372689D1*
Y371705D1*
Y370720D1*
Y369736D1*
Y368752D1*
Y367768D1*
Y366783D1*
Y365799D1*
Y364815D1*
Y363831D1*
Y362846D1*
Y361862D1*
Y360878D1*
Y359894D1*
Y358909D1*
Y357925D1*
Y356941D1*
Y355957D1*
Y354972D1*
X-103256Y389421D2*
Y388437D1*
Y387453D1*
Y386469D1*
Y385484D1*
Y384500D1*
Y383516D1*
Y382531D1*
Y381547D1*
Y380563D1*
Y379579D1*
Y378594D1*
Y377610D1*
Y376626D1*
Y375642D1*
Y374657D1*
Y373673D1*
Y372689D1*
Y371705D1*
Y370720D1*
Y369736D1*
Y368752D1*
Y367768D1*
Y366783D1*
Y365799D1*
Y364815D1*
Y363831D1*
Y362846D1*
Y361862D1*
Y360878D1*
Y359894D1*
Y358909D1*
Y357925D1*
Y356941D1*
Y355957D1*
Y354972D1*
X-270579Y387453D2*
X-271526Y386469D1*
X-272380Y385484D1*
X-273090Y384500D1*
X-273658Y383516D1*
X-274067Y382531D1*
X-274273Y381547D1*
X-274263Y380563D1*
X-274041Y379579D1*
X-273626Y378594D1*
X-273069Y377610D1*
X-271424Y376626D1*
X-268847Y375642D1*
X-265657Y374657D1*
X-266642Y387453D2*
X-265695Y386469D1*
X-264841Y385484D1*
X-264131Y384500D1*
X-263563Y383516D1*
X-263154Y382531D1*
X-262947Y381547D1*
X-262958Y380563D1*
X-263180Y379579D1*
X-263594Y378594D1*
X-264151Y377610D1*
X-265797Y376626D1*
X-268374Y375642D1*
X-271563Y374657D1*
X-224319Y387453D2*
X-225938Y386469D1*
X-227215Y385484D1*
X-228111Y384500D1*
X-228687Y383516D1*
X-229031Y382531D1*
X-229303Y381547D1*
X-229601Y380563D1*
X-229878Y379579D1*
X-230059Y378594D1*
X-230153Y377610D1*
X-230196Y376626D1*
X-230210Y375642D1*
X-230182Y374657D1*
X-230059Y373673D1*
X-229824Y372689D1*
X-229572Y371705D1*
X-229397Y370720D1*
X-229267Y369736D1*
X-229062Y368752D1*
X-228733Y367768D1*
X-227847Y366783D1*
X-226393Y365799D1*
X-224129Y364815D1*
X-221366Y363831D1*
X-223335Y387453D2*
X-221716Y386469D1*
X-220438Y385484D1*
X-219539Y384500D1*
X-218932Y383516D1*
X-218497Y382531D1*
X-218115Y381547D1*
X-217800Y380563D1*
X-217604Y379579D1*
X-217503Y378594D1*
X-217458Y377610D1*
X-217440Y376626D1*
X-217433Y375642D1*
X-217430Y374657D1*
X-217433Y373673D1*
X-217468Y372689D1*
X-217593Y371705D1*
X-217833Y370720D1*
X-218120Y369736D1*
X-218424Y368752D1*
X-218844Y367768D1*
X-219404Y366783D1*
X-221152Y365799D1*
X-223900Y364815D1*
X-227272Y363831D1*
X-201681Y387453D2*
X-202509Y386469D1*
X-203207Y385484D1*
X-203738Y384500D1*
X-204132Y383516D1*
X-204053Y382531D1*
X-203865Y381547D1*
X-203611Y380563D1*
X-203269Y379579D1*
X-202853Y378594D1*
X-202393Y377610D1*
X-201884Y376626D1*
X-201303Y375642D1*
X-200667Y374657D1*
X-200035Y373673D1*
X-199387Y372689D1*
X-198720Y371705D1*
X-198074Y370720D1*
X-197421Y369736D1*
X-196752Y368752D1*
X-196106Y367768D1*
X-195453Y366783D1*
X-194784Y365799D1*
X-194137Y364815D1*
X-193487Y363831D1*
X-192846Y362846D1*
X-192301Y361862D1*
X-191839Y360878D1*
X-198728Y387453D2*
X-196760Y386469D1*
X-194791Y385484D1*
X-163295Y387453D2*
X-164914Y386469D1*
X-166192Y385484D1*
X-167087Y384500D1*
X-167663Y383516D1*
X-168007Y382531D1*
X-168279Y381547D1*
X-168577Y380563D1*
X-168854Y379579D1*
X-169035Y378594D1*
X-169130Y377610D1*
X-169173Y376626D1*
X-169186Y375642D1*
X-169159Y374657D1*
X-169036Y373673D1*
X-168801Y372689D1*
X-168549Y371705D1*
X-168373Y370720D1*
X-168244Y369736D1*
X-168038Y368752D1*
X-167709Y367768D1*
X-166823Y366783D1*
X-165369Y365799D1*
X-163105Y364815D1*
X-160343Y363831D1*
X-162311Y387453D2*
X-160692Y386469D1*
X-159414Y385484D1*
X-158515Y384500D1*
X-157909Y383516D1*
X-157473Y382531D1*
X-157091Y381547D1*
X-156777Y380563D1*
X-156580Y379579D1*
X-156480Y378594D1*
X-156435Y377610D1*
X-156416Y376626D1*
X-156409Y375642D1*
X-156407Y374657D1*
X-156410Y373673D1*
X-156444Y372689D1*
X-156569Y371705D1*
X-156809Y370720D1*
X-157096Y369736D1*
X-157401Y368752D1*
X-157820Y367768D1*
X-158380Y366783D1*
X-160129Y365799D1*
X-162876Y364815D1*
X-166248Y363831D1*
X-69791Y387453D2*
X-70734Y386469D1*
X-71554Y385484D1*
X-72135Y384500D1*
X-72523Y383516D1*
X-72518Y382531D1*
X-72055Y381547D1*
X-70835Y380563D1*
X-69424Y379579D1*
X-68069Y378594D1*
X-67392Y377610D1*
X-67132Y376626D1*
X-68337Y375642D1*
X-69781Y374657D1*
X-71175Y373673D1*
X-72282Y372689D1*
X-73139Y371705D1*
X-73440Y370720D1*
X-73569Y369736D1*
X-73510Y368752D1*
X-73309Y367768D1*
X-72687Y366783D1*
X-70606Y365799D1*
X-67182Y364815D1*
X-62902Y363831D1*
X-64870Y387453D2*
X-63886Y386469D1*
X40445Y387453D2*
X38674Y386469D1*
X37152Y385484D1*
X36002Y384500D1*
X35128Y383516D1*
X34828Y382531D1*
X34702Y381547D1*
X34703Y380563D1*
X35078Y379579D1*
X35975Y378594D1*
X38498Y377610D1*
X42454Y376626D1*
X47335Y375642D1*
X46350Y387453D2*
Y386469D1*
Y385484D1*
Y384500D1*
Y383516D1*
Y382531D1*
Y381547D1*
Y380563D1*
Y379579D1*
Y378594D1*
Y377610D1*
Y376626D1*
X39461Y375642D1*
X222531Y387453D2*
Y386469D1*
Y385484D1*
Y384500D1*
Y383516D1*
Y382531D1*
Y381547D1*
Y380563D1*
Y379579D1*
Y378594D1*
X212689D1*
Y377610D1*
Y376626D1*
Y375642D1*
Y374657D1*
X222531D1*
Y373673D1*
Y372689D1*
Y371705D1*
Y370720D1*
Y369736D1*
Y368752D1*
Y367768D1*
Y366783D1*
Y365799D1*
Y364815D1*
Y363831D1*
X245169Y387453D2*
Y386469D1*
Y385484D1*
Y384500D1*
Y383516D1*
Y382531D1*
Y381547D1*
Y380563D1*
Y379579D1*
Y378594D1*
X234343D1*
Y377610D1*
Y376626D1*
Y375642D1*
Y374657D1*
X245169D1*
Y373673D1*
Y372689D1*
Y371705D1*
Y370720D1*
Y369736D1*
Y368752D1*
Y367768D1*
Y366783D1*
Y365799D1*
Y364815D1*
Y363831D1*
Y362846D1*
Y361862D1*
Y360878D1*
X268791Y387453D2*
Y386469D1*
Y385484D1*
Y384500D1*
Y383516D1*
Y382531D1*
Y381547D1*
Y380563D1*
Y379579D1*
Y378594D1*
X258949D1*
Y377610D1*
Y376626D1*
Y375642D1*
Y374657D1*
X268791D1*
Y373673D1*
Y372689D1*
Y371705D1*
Y370720D1*
Y369736D1*
Y368752D1*
Y367768D1*
Y366783D1*
Y365799D1*
Y364815D1*
Y363831D1*
X-245972Y383516D2*
Y382531D1*
Y381547D1*
Y380563D1*
Y379579D1*
Y378594D1*
Y377610D1*
Y376626D1*
Y375642D1*
Y374657D1*
Y373673D1*
Y372689D1*
Y371705D1*
Y370720D1*
Y369736D1*
Y368752D1*
Y367768D1*
Y366783D1*
Y365799D1*
Y364815D1*
Y363831D1*
Y362846D1*
Y361862D1*
Y360878D1*
X-244988Y383516D2*
X-243020Y382531D1*
X-241051Y381547D1*
X-139673Y383516D2*
Y382531D1*
Y381547D1*
Y380563D1*
Y379579D1*
Y378594D1*
Y377610D1*
Y376626D1*
Y375642D1*
Y374657D1*
Y373673D1*
Y372689D1*
Y371705D1*
Y370720D1*
Y369736D1*
Y368752D1*
Y367768D1*
Y366783D1*
Y365799D1*
Y364815D1*
Y363831D1*
Y362846D1*
Y361862D1*
Y360878D1*
X-138689Y383516D2*
X-136720Y382531D1*
X-134752Y381547D1*
X-132783Y380563D1*
X-30421Y383516D2*
Y382531D1*
Y381547D1*
Y380563D1*
Y379579D1*
Y378594D1*
Y377610D1*
Y376626D1*
Y375642D1*
Y374657D1*
Y373673D1*
Y372689D1*
Y371705D1*
Y370720D1*
Y369736D1*
Y368752D1*
Y367768D1*
Y366783D1*
Y365799D1*
Y364815D1*
Y363831D1*
Y362846D1*
Y361862D1*
Y360878D1*
X-29437Y383516D2*
X-27469Y382531D1*
X-25500Y381547D1*
X-23531Y380563D1*
X141823Y382531D2*
X141671Y381547D1*
X141423Y380563D1*
X141133Y379579D1*
X140836Y378594D1*
X140505Y377610D1*
X140176Y376626D1*
X139861Y375642D1*
X139524Y374657D1*
X139190Y373673D1*
X138847Y372689D1*
X138407Y371705D1*
X137886Y370720D1*
X145760Y369736D1*
X143791Y382531D2*
X143943Y381547D1*
X144191Y380563D1*
X144481Y379579D1*
X144779Y378594D1*
X145110Y377610D1*
X145438Y376626D1*
X145757Y375642D1*
X146125Y374657D1*
X146548Y373673D1*
X146982Y372689D1*
X147379Y371705D1*
X147728Y370720D1*
X138870Y369736D1*
X60130Y375642D2*
Y374657D1*
Y373673D1*
Y372689D1*
Y371705D1*
Y370720D1*
Y369736D1*
Y368752D1*
Y367768D1*
Y366783D1*
Y365799D1*
Y364815D1*
Y363831D1*
Y362846D1*
Y361862D1*
Y360878D1*
X74894Y375642D2*
Y374657D1*
Y373673D1*
Y372689D1*
Y371705D1*
Y370720D1*
Y369736D1*
Y368752D1*
Y367768D1*
Y366783D1*
Y365799D1*
Y364815D1*
Y363831D1*
Y362846D1*
Y361862D1*
Y360878D1*
X193988Y373673D2*
X193160Y372689D1*
X192454Y371705D1*
X191850Y370720D1*
X191278Y369736D1*
X190672Y368752D1*
X190031Y367768D1*
X189425Y366783D1*
X188867Y365799D1*
X188314Y364815D1*
X187718Y363831D1*
X187103Y362846D1*
X186570Y361862D1*
X186114Y360878D1*
X194972Y373673D2*
X195919Y372689D1*
X196773Y371705D1*
X197483Y370720D1*
X198051Y369736D1*
X198464Y368752D1*
X198705Y367768D1*
X198824Y366783D1*
X198876Y365799D1*
X198897Y364815D1*
X198905Y363831D1*
X198908Y362846D1*
X198909Y361862D1*
Y360878D1*
X-274516Y372689D2*
X-273569Y371705D1*
X-272711Y370720D1*
X-271963Y369736D1*
X-271231Y368752D1*
X-270418Y367768D1*
X-269525Y366783D1*
X-268583Y365799D1*
X-267616Y364815D1*
X-266638Y363831D1*
X-265656Y362846D1*
X-264673Y361862D1*
X-265657Y360878D1*
X-271563Y372689D2*
X-270579Y371705D1*
X-182980Y365799D2*
X-183431Y364815D1*
X-183676Y363831D1*
X-183762Y362846D1*
X-183420Y361862D1*
X-182980Y360878D1*
X-180028Y365799D2*
X-179577Y364815D1*
X-179332Y363831D1*
X-179246Y362846D1*
X-179588Y361862D1*
X-180028Y360878D1*
X-51091Y365799D2*
X-51541Y364815D1*
X-51786Y363831D1*
X-51872Y362846D1*
X-51530Y361862D1*
X-51091Y360878D1*
X-48138Y365799D2*
X-47687Y364815D1*
X-47442Y363831D1*
X-47356Y362846D1*
X-47698Y361862D1*
X-48138Y360878D1*
X137886Y366783D2*
X137091Y365799D1*
X136481Y364815D1*
X136025Y363831D1*
X135621Y362846D1*
X135256Y361862D1*
X134933Y360878D1*
X149697Y366783D2*
X149734Y365799D1*
X149864Y364815D1*
X150138Y363831D1*
X150545Y362846D1*
X151068Y361862D1*
X151665Y360878D1*
X-63886Y364815D2*
X-64870Y363831D1*
X-61917Y364815D2*
X-61441Y363831D1*
X-62093Y362846D1*
X-63412Y361862D1*
X-64870Y360878D1*
X-209555Y363831D2*
Y362846D1*
Y361862D1*
Y360878D1*
X207768Y363831D2*
Y362846D1*
Y361862D1*
Y360878D1*
X254028Y363831D2*
Y362846D1*
Y361862D1*
Y360878D1*
X6980Y356941D2*
Y355957D1*
Y354972D1*
X28634Y356941D2*
Y355957D1*
Y354972D1*
X108358Y356941D2*
Y355957D1*
Y354972D1*
X130012Y356941D2*
Y355957D1*
Y354972D1*
X-113846Y-557694D2*
D14*
Y-559007D1*
Y-560319D1*
Y-561631D1*
Y-562944D1*
Y-564256D1*
Y-565568D1*
Y-566881D1*
Y-568193D1*
Y-569505D1*
Y-570818D1*
Y-572130D1*
Y-573442D1*
Y-574755D1*
Y-576067D1*
X-113852Y-577379D1*
X-113898Y-578692D1*
X-114085Y-580004D1*
X-114433Y-581316D1*
X-115447Y-582629D1*
X-117718Y-583941D1*
X-120408Y-585253D1*
X-104660Y-557694D2*
Y-559007D1*
Y-560319D1*
Y-561631D1*
Y-562944D1*
Y-564256D1*
Y-565568D1*
Y-566881D1*
Y-568193D1*
Y-569505D1*
Y-570818D1*
Y-572130D1*
Y-573442D1*
Y-574755D1*
Y-576067D1*
Y-577379D1*
Y-578692D1*
X-104665Y-580004D1*
X-104711Y-581316D1*
X-104879Y-582629D1*
X-105198Y-583941D1*
X-105586Y-585253D1*
X-106033Y-586566D1*
X-106688Y-587878D1*
X-107623Y-589190D1*
X-108844Y-590503D1*
X-110478Y-591815D1*
X-112653Y-593127D1*
X-115159Y-594440D1*
X-63978Y-557694D2*
Y-559007D1*
Y-560319D1*
Y-561631D1*
Y-562944D1*
Y-564256D1*
Y-565568D1*
Y-566881D1*
Y-568193D1*
Y-569505D1*
Y-570818D1*
Y-572130D1*
Y-573442D1*
Y-574755D1*
Y-576067D1*
Y-577379D1*
Y-578692D1*
Y-580004D1*
Y-581316D1*
Y-582629D1*
Y-583941D1*
Y-585253D1*
Y-586566D1*
Y-587878D1*
Y-589190D1*
Y-590503D1*
Y-591815D1*
Y-593127D1*
Y-594440D1*
X-54791Y-557694D2*
Y-559007D1*
Y-560319D1*
Y-561631D1*
Y-562944D1*
Y-564256D1*
Y-565568D1*
Y-566881D1*
Y-568193D1*
Y-569505D1*
Y-570818D1*
Y-572130D1*
Y-573442D1*
Y-574755D1*
Y-576067D1*
Y-577379D1*
Y-578692D1*
Y-580004D1*
Y-581316D1*
Y-582629D1*
Y-583941D1*
Y-585253D1*
Y-586566D1*
Y-587878D1*
Y-589190D1*
Y-590503D1*
Y-591815D1*
Y-593127D1*
Y-594440D1*
X-8860Y-557694D2*
Y-559007D1*
Y-560319D1*
Y-561631D1*
Y-562944D1*
Y-564256D1*
Y-565568D1*
Y-566881D1*
Y-568193D1*
X-14109D1*
Y-569505D1*
Y-570818D1*
Y-572130D1*
Y-573442D1*
Y-574755D1*
Y-576067D1*
Y-577379D1*
Y-578692D1*
X-8860D1*
X-9167Y-580004D1*
X-9702Y-581316D1*
X-10968Y-582629D1*
X-12218Y-583941D1*
X-13286Y-585253D1*
X-13708Y-586566D1*
X-13938Y-587878D1*
X-14042Y-589190D1*
X-14084Y-590503D1*
X-14100Y-591815D1*
X-14106Y-593127D1*
X-14109Y-594440D1*
X327Y-557694D2*
Y-559007D1*
Y-560319D1*
Y-561631D1*
Y-562944D1*
Y-564256D1*
Y-565568D1*
Y-566881D1*
Y-568193D1*
Y-569505D1*
Y-570818D1*
Y-572130D1*
Y-573442D1*
Y-574755D1*
Y-576067D1*
Y-577379D1*
Y-578692D1*
Y-580004D1*
X322Y-581316D1*
X276Y-582629D1*
X103Y-583941D1*
X-262Y-585253D1*
X-817Y-586566D1*
X-1579Y-587878D1*
X-2575Y-589190D1*
X-3779Y-590503D1*
X-5225Y-591815D1*
X-6957Y-593127D1*
X-8860Y-594440D1*
X21324Y-557694D2*
Y-559007D1*
Y-560319D1*
Y-561631D1*
Y-562944D1*
Y-564256D1*
Y-565568D1*
Y-566881D1*
Y-568193D1*
Y-569505D1*
X21319Y-570818D1*
X21269Y-572130D1*
X21066Y-573442D1*
X20618Y-574755D1*
X20012Y-576067D1*
X30510Y-557694D2*
Y-559007D1*
Y-560319D1*
Y-561631D1*
Y-562944D1*
Y-564256D1*
Y-565568D1*
Y-566881D1*
Y-568193D1*
Y-569505D1*
Y-570818D1*
Y-572130D1*
Y-573442D1*
Y-574755D1*
Y-576067D1*
Y-577379D1*
Y-578692D1*
Y-580004D1*
Y-581316D1*
Y-582629D1*
Y-583941D1*
Y-585253D1*
Y-586566D1*
Y-587878D1*
Y-589190D1*
Y-590503D1*
Y-591815D1*
Y-593127D1*
Y-594440D1*
X68568Y-557694D2*
Y-559007D1*
Y-560319D1*
Y-561631D1*
X68578Y-562944D1*
X68676Y-564256D1*
X68907Y-565568D1*
X69815Y-566881D1*
X70830Y-568193D1*
X71632Y-569505D1*
X72106Y-570818D1*
X72339Y-572130D1*
X72445Y-573442D1*
X72505Y-574755D1*
X68568D1*
Y-576067D1*
Y-577379D1*
Y-578692D1*
Y-580004D1*
Y-581316D1*
Y-582629D1*
Y-583941D1*
Y-585253D1*
X72505D1*
Y-586566D1*
Y-587878D1*
Y-589190D1*
Y-590503D1*
Y-591815D1*
Y-593127D1*
Y-594440D1*
Y-557694D2*
X74576Y-559007D1*
X76423Y-560319D1*
X77946Y-561631D1*
X79185Y-562944D1*
X80206Y-564256D1*
X80932Y-565568D1*
X81348Y-566881D1*
X81549Y-568193D1*
X81637Y-569505D1*
X81671Y-570818D1*
X81685Y-572130D1*
X81689Y-573442D1*
X81691Y-574755D1*
Y-576067D1*
X81692Y-577379D1*
Y-578692D1*
Y-580004D1*
Y-581316D1*
Y-582629D1*
Y-583941D1*
Y-585253D1*
Y-586566D1*
Y-587878D1*
Y-589190D1*
Y-590503D1*
Y-591815D1*
Y-593127D1*
Y-594440D1*
X-256891Y-568193D2*
X-258759Y-569505D1*
X-260275Y-570818D1*
X-261412Y-572130D1*
X-262254Y-573442D1*
X-262839Y-574755D1*
X-263173Y-576067D1*
X-263337Y-577379D1*
X-263408Y-578692D1*
X-263436Y-580004D1*
X-263447Y-581316D1*
X-263451Y-582629D1*
X-263452Y-583941D1*
X-263453Y-585253D1*
Y-586566D1*
Y-587878D1*
Y-589190D1*
Y-590503D1*
Y-591815D1*
Y-593127D1*
Y-594440D1*
X-250329Y-568193D2*
X-245859Y-569505D1*
X-241143Y-570818D1*
X-239831Y-568193D2*
X-244301Y-569505D1*
X-249017Y-570818D1*
X-233269Y-568193D2*
X-231356Y-569505D1*
X-229718Y-570818D1*
X-228433Y-572130D1*
X-227425Y-573442D1*
X-227056Y-574755D1*
X-226856Y-576067D1*
X-226766Y-577379D1*
X-226729Y-578692D1*
X-226715Y-580004D1*
X-226710Y-581316D1*
X-226708Y-582629D1*
Y-583941D1*
X-226707Y-585253D1*
Y-586566D1*
Y-587878D1*
Y-589190D1*
Y-590503D1*
Y-591815D1*
Y-593127D1*
Y-594440D1*
X-210959Y-568193D2*
X-212877Y-569505D1*
X-214562Y-570818D1*
X-216018Y-572130D1*
X-217243Y-573442D1*
X-218224Y-574755D1*
X-218994Y-576067D1*
X-219550Y-577379D1*
X-219873Y-578692D1*
X-220032Y-580004D1*
X-220096Y-581316D1*
X-220078Y-582629D1*
X-219916Y-583941D1*
X-219554Y-585253D1*
X-219001Y-586566D1*
X-218240Y-587878D1*
X-217244Y-589190D1*
X-216040Y-590503D1*
X-214594Y-591815D1*
X-212862Y-593127D1*
X-210959Y-594440D1*
X-201773Y-568193D2*
X-199411Y-569505D1*
X-197378Y-570818D1*
X-195798Y-572130D1*
X-194638Y-573442D1*
X-193784Y-574755D1*
X-193150Y-576067D1*
X-192648Y-577379D1*
X-192175Y-578692D1*
X-191814Y-580004D1*
X-191616Y-581316D1*
X-191884Y-582629D1*
X-192227Y-583941D1*
X-192609Y-585253D1*
X-193088Y-586566D1*
X-193701Y-587878D1*
X-194536Y-589190D1*
X-195753Y-590503D1*
X-197438Y-591815D1*
X-199519Y-593127D1*
X-201773Y-594440D1*
X-176839Y-568193D2*
X-179362Y-569505D1*
X-181424Y-570818D1*
X-183066Y-572130D1*
X-184319Y-573442D1*
X-185277Y-574755D1*
X-185679Y-576067D1*
X-184641Y-577379D1*
X-183400Y-578692D1*
X-168965Y-568193D2*
X-166603Y-569505D1*
X-164569Y-570818D1*
X-162990Y-572130D1*
X-161830Y-573442D1*
X-160980Y-574755D1*
X-160393Y-576067D1*
X-160058Y-577379D1*
X-159894Y-578692D1*
X-159823Y-580004D1*
X-159795Y-581316D1*
X-159789Y-582629D1*
X-159837Y-583941D1*
X-160049Y-585253D1*
X-160535Y-586566D1*
X-161242Y-587878D1*
X-162077Y-589190D1*
X-163178Y-590503D1*
X-164752Y-591815D1*
X-166761Y-593127D1*
X-168965Y-594440D1*
X-123033Y-568193D2*
X-125350Y-569505D1*
X-127261Y-570818D1*
X-128693Y-572130D1*
X-129831Y-573442D1*
X-130788Y-574755D1*
X-131483Y-576067D1*
X-131884Y-577379D1*
X-132080Y-578692D1*
X-132165Y-580004D1*
X-132199Y-581316D1*
X-132207Y-582629D1*
X-132160Y-583941D1*
X-131949Y-585253D1*
X-131457Y-586566D1*
X-130709Y-587878D1*
X-129753Y-589190D1*
X-128505Y-590503D1*
X-126917Y-591815D1*
X-125050Y-593127D1*
X-123033Y-594440D1*
X-116471Y-568193D2*
Y-569505D1*
Y-570818D1*
Y-572130D1*
X-116492Y-573442D1*
X-116553Y-574755D1*
X-117127Y-576067D1*
X-118754Y-577379D1*
X-120459Y-578692D1*
X-121736Y-580004D1*
X-122670Y-581316D1*
X-121577Y-582629D1*
X-118643Y-583941D1*
X-115159Y-585253D1*
X-88912Y-568193D2*
X-91229Y-569505D1*
X-93135Y-570818D1*
X-94527Y-572130D1*
X-95543Y-573442D1*
X-96353Y-574755D1*
X-97026Y-576067D1*
X-97534Y-577379D1*
X-97837Y-578692D1*
X-97989Y-580004D1*
X-98056Y-581316D1*
X-98083Y-582629D1*
X-98093Y-583941D1*
X-98097Y-585253D1*
X-98098Y-586566D1*
Y-587878D1*
Y-589190D1*
Y-590503D1*
Y-591815D1*
Y-593127D1*
Y-594440D1*
X-79726Y-568193D2*
X-77364Y-569505D1*
X-75330Y-570818D1*
X-73751Y-572130D1*
X-72591Y-573442D1*
X-71741Y-574755D1*
X-71149Y-576067D1*
X-70764Y-577379D1*
X-70397Y-578692D1*
X-69875Y-580004D1*
X-69227Y-581316D1*
X-69838Y-582629D1*
X-70261Y-583941D1*
X-70624Y-585253D1*
X-71074Y-586566D1*
X-71669Y-587878D1*
X-72495Y-589190D1*
X-73708Y-590503D1*
X-75392Y-591815D1*
X-77472Y-593127D1*
X-79726Y-594440D1*
X-37731Y-568193D2*
X-40048Y-569505D1*
X-41954Y-570818D1*
X-43345Y-572130D1*
X-44362Y-573442D1*
X-45172Y-574755D1*
X-45844Y-576067D1*
X-46353Y-577379D1*
X-46656Y-578692D1*
X-46808Y-580004D1*
X-46874Y-581316D1*
X-46901Y-582629D1*
X-46912Y-583941D1*
X-46915Y-585253D1*
X-46917Y-586566D1*
Y-587878D1*
Y-589190D1*
Y-590503D1*
Y-591815D1*
Y-593127D1*
Y-594440D1*
X-28545Y-568193D2*
X-26183Y-569505D1*
X-24149Y-570818D1*
X-22570Y-572130D1*
X-21410Y-573442D1*
X-20560Y-574755D1*
X-19968Y-576067D1*
X-19583Y-577379D1*
X-19216Y-578692D1*
X-18694Y-580004D1*
X-18046Y-581316D1*
X-18657Y-582629D1*
X-19080Y-583941D1*
X-19443Y-585253D1*
X-19893Y-586566D1*
X-20488Y-587878D1*
X-21313Y-589190D1*
X-22527Y-590503D1*
X-24211Y-591815D1*
X-26291Y-593127D1*
X-28545Y-594440D1*
X5576Y-568193D2*
X6390Y-569505D1*
X7138Y-570818D1*
X7841Y-572130D1*
X8520Y-573442D1*
X9219Y-574755D1*
X9988Y-576067D1*
X10825Y-577379D1*
X10170Y-578692D1*
X9619Y-580004D1*
X9068Y-581316D1*
X8475Y-582629D1*
X7851Y-583941D1*
X7213Y-585253D1*
X6604Y-586566D1*
X6075Y-587878D1*
X5609Y-589190D1*
X5096Y-590503D1*
X4488Y-591815D1*
X3763Y-593127D1*
X2951Y-594440D1*
X16075Y-568193D2*
X16573Y-569505D1*
X17137Y-570818D1*
X17751Y-572130D1*
X18422Y-573442D1*
X19180Y-574755D1*
X20012Y-576067D1*
X44946Y-568193D2*
X43028Y-569505D1*
X41344Y-570818D1*
X39892Y-572130D1*
X38709Y-573442D1*
X37849Y-574755D1*
X37225Y-576067D1*
X36692Y-577379D1*
X36262Y-578692D1*
X35994Y-580004D1*
X35852Y-581316D1*
X35760Y-582629D1*
X54133Y-568193D2*
X56494Y-569505D1*
X58528Y-570818D1*
X60107Y-572130D1*
X61267Y-573442D1*
X62122Y-574755D1*
X62755Y-576067D1*
X63258Y-577379D1*
X63730Y-578692D1*
X64092Y-580004D1*
X64289Y-581316D1*
X64022Y-582629D1*
X63679Y-583941D1*
X63297Y-585253D1*
X62817Y-586566D1*
X62205Y-587878D1*
X61370Y-589190D1*
X60152Y-590503D1*
X58467Y-591815D1*
X56387Y-593127D1*
X54133Y-594440D1*
X96127Y-568193D2*
X94209Y-569505D1*
X92525Y-570818D1*
X91073Y-572130D1*
X89890Y-573442D1*
X89030Y-574755D1*
X88407Y-576067D1*
X87873Y-577379D1*
X87443Y-578692D1*
X87176Y-580004D1*
X87033Y-581316D1*
X86941Y-582629D1*
X105314Y-568193D2*
X107675Y-569505D1*
X109709Y-570818D1*
X111288Y-572130D1*
X112448Y-573442D1*
X113303Y-574755D1*
X113937Y-576067D1*
X114439Y-577379D1*
X114911Y-578692D1*
X115273Y-580004D1*
X115471Y-581316D1*
X115203Y-582629D1*
X114860Y-583941D1*
X114478Y-585253D1*
X113999Y-586566D1*
X113386Y-587878D1*
X112551Y-589190D1*
X111333Y-590503D1*
X109648Y-591815D1*
X107568Y-593127D1*
X105314Y-594440D1*
X143371Y-568193D2*
Y-569505D1*
Y-570818D1*
Y-572130D1*
Y-573442D1*
Y-574755D1*
Y-576067D1*
Y-577379D1*
Y-578692D1*
Y-580004D1*
Y-581316D1*
Y-582629D1*
X143377Y-583941D1*
X143423Y-585253D1*
X143595Y-586566D1*
X143961Y-587878D1*
X144521Y-589190D1*
X145332Y-590503D1*
X146525Y-591815D1*
X148120Y-593127D1*
X149933Y-594440D1*
X152558Y-568193D2*
Y-569505D1*
Y-570818D1*
Y-572130D1*
Y-573442D1*
Y-574755D1*
Y-576067D1*
Y-577379D1*
Y-578692D1*
X152568Y-580004D1*
X152668Y-581316D1*
X152906Y-582629D1*
X153929Y-583941D1*
X155182Y-585253D1*
X157807Y-568193D2*
Y-569505D1*
Y-570818D1*
Y-572130D1*
Y-573442D1*
Y-574755D1*
Y-576067D1*
Y-577379D1*
X157802Y-578692D1*
X157740Y-580004D1*
X157587Y-581316D1*
X156775Y-582629D1*
X154824Y-583941D1*
X152558Y-585253D1*
X166993Y-568193D2*
Y-569505D1*
Y-570818D1*
Y-572130D1*
Y-573442D1*
Y-574755D1*
Y-576067D1*
Y-577379D1*
Y-578692D1*
X167004Y-580004D1*
X167104Y-581316D1*
X167342Y-582629D1*
X168365Y-583941D1*
X169618Y-585253D1*
X170930Y-568193D2*
Y-569505D1*
Y-570818D1*
Y-572130D1*
Y-573442D1*
Y-574755D1*
Y-576067D1*
Y-577379D1*
Y-578692D1*
X170920Y-580004D1*
X170820Y-581316D1*
X170582Y-582629D1*
X169559Y-583941D1*
X168306Y-585253D1*
X180117Y-568193D2*
Y-569505D1*
Y-570818D1*
Y-572130D1*
Y-573442D1*
Y-574755D1*
Y-576067D1*
Y-577379D1*
Y-578692D1*
Y-580004D1*
Y-581316D1*
Y-582629D1*
Y-583941D1*
X180112Y-585253D1*
X180060Y-586566D1*
X179842Y-587878D1*
X179304Y-589190D1*
X178385Y-590503D1*
X177084Y-591815D1*
X175419Y-593127D1*
X173555Y-594440D1*
X187991Y-568193D2*
Y-569505D1*
Y-570818D1*
Y-572130D1*
Y-573442D1*
Y-574755D1*
Y-576067D1*
Y-577379D1*
Y-578692D1*
Y-580004D1*
Y-581316D1*
Y-582629D1*
X187996Y-583941D1*
X188042Y-585253D1*
X188214Y-586566D1*
X188580Y-587878D1*
X189140Y-589190D1*
X189952Y-590503D1*
X191144Y-591815D1*
X192739Y-593127D1*
X194552Y-594440D1*
X197177Y-568193D2*
Y-569505D1*
Y-570818D1*
Y-572130D1*
Y-573442D1*
Y-574755D1*
Y-576067D1*
Y-577379D1*
Y-578692D1*
X197187Y-580004D1*
X197287Y-581316D1*
X197526Y-582629D1*
X198548Y-583941D1*
X199802Y-585253D1*
X202427Y-568193D2*
Y-569505D1*
Y-570818D1*
Y-572130D1*
Y-573442D1*
Y-574755D1*
Y-576067D1*
Y-577379D1*
X202421Y-578692D1*
X202360Y-580004D1*
X202206Y-581316D1*
X201395Y-582629D1*
X199443Y-583941D1*
X197177Y-585253D1*
X211613Y-568193D2*
Y-569505D1*
Y-570818D1*
Y-572130D1*
Y-573442D1*
Y-574755D1*
Y-576067D1*
Y-577379D1*
Y-578692D1*
X211623Y-580004D1*
X211723Y-581316D1*
X211961Y-582629D1*
X212984Y-583941D1*
X214238Y-585253D1*
X215550Y-568193D2*
Y-569505D1*
Y-570818D1*
Y-572130D1*
Y-573442D1*
Y-574755D1*
Y-576067D1*
Y-577379D1*
Y-578692D1*
X215540Y-580004D1*
X215440Y-581316D1*
X215201Y-582629D1*
X214179Y-583941D1*
X212925Y-585253D1*
X224736Y-568193D2*
Y-569505D1*
Y-570818D1*
Y-572130D1*
Y-573442D1*
Y-574755D1*
Y-576067D1*
Y-577379D1*
Y-578692D1*
Y-580004D1*
Y-581316D1*
Y-582629D1*
Y-583941D1*
X224731Y-585253D1*
X224680Y-586566D1*
X224461Y-587878D1*
X223923Y-589190D1*
X223004Y-590503D1*
X221704Y-591815D1*
X220038Y-593127D1*
X218175Y-594440D1*
X232610Y-568193D2*
Y-569505D1*
Y-570818D1*
Y-572130D1*
Y-573442D1*
Y-574755D1*
Y-576067D1*
Y-577379D1*
Y-578692D1*
Y-580004D1*
Y-581316D1*
Y-582629D1*
X232615Y-583941D1*
X232661Y-585253D1*
X232834Y-586566D1*
X233199Y-587878D1*
X233760Y-589190D1*
X234571Y-590503D1*
X235764Y-591815D1*
X237358Y-593127D1*
X239172Y-594440D1*
X241797Y-568193D2*
Y-569505D1*
Y-570818D1*
Y-572130D1*
Y-573442D1*
Y-574755D1*
Y-576067D1*
Y-577379D1*
Y-578692D1*
X241807Y-580004D1*
X241907Y-581316D1*
X242145Y-582629D1*
X243168Y-583941D1*
X244421Y-585253D1*
X247046Y-568193D2*
Y-569505D1*
Y-570818D1*
Y-572130D1*
Y-573442D1*
Y-574755D1*
Y-576067D1*
Y-577379D1*
X247041Y-578692D1*
X246979Y-580004D1*
X246826Y-581316D1*
X246014Y-582629D1*
X244063Y-583941D1*
X241797Y-585253D1*
X256232Y-568193D2*
Y-569505D1*
Y-570818D1*
Y-572130D1*
Y-573442D1*
Y-574755D1*
Y-576067D1*
Y-577379D1*
Y-578692D1*
X256243Y-580004D1*
X256342Y-581316D1*
X256581Y-582629D1*
X257604Y-583941D1*
X258857Y-585253D1*
X260169Y-568193D2*
Y-569505D1*
Y-570818D1*
Y-572130D1*
Y-573442D1*
Y-574755D1*
Y-576067D1*
Y-577379D1*
Y-578692D1*
X260159Y-580004D1*
X260059Y-581316D1*
X259821Y-582629D1*
X258798Y-583941D1*
X257545Y-585253D1*
X269356Y-568193D2*
Y-569505D1*
Y-570818D1*
Y-572130D1*
Y-573442D1*
Y-574755D1*
Y-576067D1*
Y-577379D1*
Y-578692D1*
Y-580004D1*
Y-581316D1*
Y-582629D1*
Y-583941D1*
X269351Y-585253D1*
X269299Y-586566D1*
X269081Y-587878D1*
X268543Y-589190D1*
X267624Y-590503D1*
X266323Y-591815D1*
X264658Y-593127D1*
X262794Y-594440D1*
X47571Y-574755D2*
X46259Y-576067D1*
X44946Y-577379D1*
X51508Y-578692D1*
Y-580004D1*
Y-581316D1*
Y-582629D1*
Y-574755D2*
X52562Y-576067D1*
X53330Y-577379D1*
X53769Y-578692D1*
X53977Y-580004D1*
X53998Y-581316D1*
X53860Y-582629D1*
X52809Y-583941D1*
X50413Y-585253D1*
X47907Y-586566D1*
X45807Y-587878D1*
X44269Y-589190D1*
X43137Y-590503D1*
X42679Y-591815D1*
X43711Y-593127D1*
X44946Y-594440D1*
X98752Y-574755D2*
X97440Y-576067D1*
X96127Y-577379D1*
X102689Y-578692D1*
Y-580004D1*
Y-581316D1*
Y-582629D1*
Y-574755D2*
X103743Y-576067D1*
X104511Y-577379D1*
X104950Y-578692D1*
X105158Y-580004D1*
X105179Y-581316D1*
X105041Y-582629D1*
X103990Y-583941D1*
X101594Y-585253D1*
X99088Y-586566D1*
X96988Y-587878D1*
X95450Y-589190D1*
X94318Y-590503D1*
X93860Y-591815D1*
X94892Y-593127D1*
X96127Y-594440D1*
X-254266Y-577379D2*
Y-578692D1*
Y-580004D1*
Y-581316D1*
Y-582629D1*
Y-583941D1*
Y-585253D1*
Y-586566D1*
Y-587878D1*
Y-589190D1*
Y-590503D1*
Y-591815D1*
Y-593127D1*
Y-594440D1*
X-251642Y-577379D2*
X-250587Y-578692D1*
X-249820Y-580004D1*
X-249380Y-581316D1*
X-249167Y-582629D1*
X-249075Y-583941D1*
X-249038Y-585253D1*
X-249025Y-586566D1*
X-249020Y-587878D1*
X-249018Y-589190D1*
X-249017Y-590503D1*
Y-591815D1*
Y-593127D1*
Y-594440D1*
X-239831Y-577379D2*
Y-578692D1*
Y-580004D1*
Y-581316D1*
Y-582629D1*
Y-583941D1*
Y-585253D1*
Y-586566D1*
Y-587878D1*
Y-589190D1*
Y-590503D1*
Y-591815D1*
Y-593127D1*
Y-594440D1*
X-235894Y-577379D2*
Y-578692D1*
Y-580004D1*
Y-581316D1*
Y-582629D1*
Y-583941D1*
Y-585253D1*
Y-586566D1*
Y-587878D1*
Y-589190D1*
Y-590503D1*
Y-591815D1*
Y-593127D1*
Y-594440D1*
X-208335Y-577379D2*
X-209384Y-578692D1*
X-210256Y-580004D1*
X-210423Y-581316D1*
X-210042Y-582629D1*
X-206774Y-583941D1*
X-203085Y-585253D1*
X-204398Y-577379D2*
X-203348Y-578692D1*
X-202477Y-580004D1*
X-202309Y-581316D1*
X-202691Y-582629D1*
X-205958Y-583941D1*
X-209647Y-585253D1*
X-175526Y-577379D2*
X-176839Y-578692D1*
X-171589Y-577379D2*
X-170540Y-578692D1*
X-169668Y-580004D1*
X-169501Y-581316D1*
X-169882Y-582629D1*
X-173150Y-583941D1*
X-176839Y-585253D1*
X-86287Y-577379D2*
X-87342Y-578692D1*
X-88109Y-580004D1*
X-88549Y-581316D1*
X-88762Y-582629D1*
X-88854Y-583941D1*
X-88891Y-585253D1*
X-88905Y-586566D1*
X-88910Y-587878D1*
X-88911Y-589190D1*
X-88912Y-590503D1*
Y-591815D1*
Y-593127D1*
Y-594440D1*
X-82350Y-577379D2*
X-81301Y-578692D1*
X-80429Y-580004D1*
X-80241Y-581316D1*
X-80967Y-582629D1*
X-82705Y-583941D1*
X-84303Y-585253D1*
X-85530Y-586566D1*
X-85929Y-587878D1*
X-86139Y-589190D1*
X-86231Y-590503D1*
X-86267Y-591815D1*
X-86281Y-593127D1*
X-86287Y-594440D1*
X-35106Y-577379D2*
X-36161Y-578692D1*
X-36928Y-580004D1*
X-37368Y-581316D1*
X-37581Y-582629D1*
X-37673Y-583941D1*
X-37710Y-585253D1*
X-37724Y-586566D1*
X-37728Y-587878D1*
X-37730Y-589190D1*
X-37731Y-590503D1*
Y-591815D1*
Y-593127D1*
Y-594440D1*
X-31169Y-577379D2*
X-30120Y-578692D1*
X-29248Y-580004D1*
X-29060Y-581316D1*
X-29786Y-582629D1*
X-31524Y-583941D1*
X-33121Y-585253D1*
X-34349Y-586566D1*
X-34748Y-587878D1*
X-34958Y-589190D1*
X-35049Y-590503D1*
X-35086Y-591815D1*
X-35099Y-593127D1*
X-35106Y-594440D1*
X18699Y-578692D2*
X18649Y-580004D1*
X18476Y-581316D1*
X18115Y-582629D1*
X17612Y-583941D1*
X17063Y-585253D1*
X16559Y-586566D1*
X16107Y-587878D1*
X15643Y-589190D1*
X15192Y-590503D1*
X14733Y-591815D1*
X14146Y-593127D1*
X13450Y-594440D1*
X21324Y-578692D2*
Y-580004D1*
Y-581316D1*
Y-582629D1*
Y-583941D1*
Y-585253D1*
Y-586566D1*
Y-587878D1*
Y-589190D1*
Y-590503D1*
Y-591815D1*
Y-593127D1*
Y-594440D1*
X-187337Y-582629D2*
X-186884Y-583941D1*
X-186442Y-585253D1*
X-185974Y-586566D1*
X-185313Y-587878D1*
X-184376Y-589190D1*
X-183154Y-590503D1*
X-181519Y-591815D1*
X-179344Y-593127D1*
X-176839Y-594440D1*
X-178151Y-582629D2*
X-174378Y-583941D1*
X-170277Y-585253D1*
X-147967Y-582629D2*
X-149382Y-583941D1*
X-150461Y-585253D1*
X-151177Y-586566D1*
X-151643Y-587878D1*
X-151571Y-589190D1*
X-151217Y-590503D1*
X-150499Y-591815D1*
X-149364Y-593127D1*
X-147967Y-594440D1*
X-142718Y-582629D2*
X-141663Y-583941D1*
X-140896Y-585253D1*
X-140456Y-586566D1*
X-140248Y-587878D1*
X-140207Y-589190D1*
X-140389Y-590503D1*
X-140903Y-591815D1*
X-141738Y-593127D1*
X-142718Y-594440D1*
X126311Y-582629D2*
X124897Y-583941D1*
X123817Y-585253D1*
X123101Y-586566D1*
X122636Y-587878D1*
X122707Y-589190D1*
X123061Y-590503D1*
X123780Y-591815D1*
X124915Y-593127D1*
X126311Y-594440D1*
X131560Y-582629D2*
X132615Y-583941D1*
X133382Y-585253D1*
X133822Y-586566D1*
X134030Y-587878D1*
X134071Y-589190D1*
X133889Y-590503D1*
X133375Y-591815D1*
X132541Y-593127D1*
X131560Y-594440D1*
X163056Y-591815D2*
X160432Y-593127D1*
X157807Y-594440D1*
X161744Y-591815D2*
X164369Y-593127D1*
X166993Y-594440D1*
X207676Y-591815D2*
X205051Y-593127D1*
X202427Y-594440D1*
X206364Y-591815D2*
X208988Y-593127D1*
X211613Y-594440D1*
X252295Y-591815D2*
X249671Y-593127D1*
X247046Y-594440D1*
X250983Y-591815D2*
X253608Y-593127D1*
X256232Y-594440D1*
M02*
