G04 DipTrace 3.2.0.1*
G04 TopSilk.gbr*
%MOIN*%
G04 #@! TF.FileFunction,Legend,Top*
G04 #@! TF.Part,Single*
%ADD10C,0.009843*%
%ADD12C,0.003*%
%ADD13C,0.001969*%
%ADD14C,0.002625*%
%ADD19C,0.007874*%
%ADD26C,0.005906*%
%FSLAX26Y26*%
G04*
G70*
G90*
G75*
G01*
G04 TopSilk*
%LPD*%
X-26303Y-210226D2*
D10*
X24839D1*
X-265754Y629921D2*
X265689D1*
Y-78805D1*
X-265754D1*
Y629921D1*
G36*
X-294856Y513391D2*
X-213785D1*
Y309886D1*
X-294856D1*
Y513391D1*
G37*
G36*
X216124Y208211D2*
X296870D1*
Y55120D1*
X216124D1*
Y208211D1*
G37*
G36*
X213006Y385392D2*
X298039D1*
Y309117D1*
X213006D1*
Y385392D1*
G37*
G36*
X118293Y-35394D2*
X219307D1*
Y-110285D1*
X118293D1*
Y-35394D1*
G37*
G36*
X-144667Y-30545D2*
X-114591D1*
Y-108669D1*
X-144667D1*
Y-30545D1*
G37*
G36*
X-219697Y513391D2*
X218917D1*
Y-35394D1*
X-219697D1*
Y513391D1*
G37*
X-59055Y-498413D2*
D26*
X59055D1*
Y-616524D1*
X-59055D1*
Y-498413D1*
X470535Y-127773D2*
D19*
X604636D1*
Y-187862D1*
X470535D1*
Y-127773D1*
X-68331Y-370274D2*
X65770D1*
Y-430364D1*
X-68331D1*
Y-370274D1*
X472307Y-235361D2*
X606408D1*
Y-295450D1*
X472307D1*
Y-235361D1*
X184619Y-264722D2*
X244709D1*
Y-398823D1*
X184619D1*
Y-264722D1*
X-250757Y-260311D2*
X-190668D1*
Y-394412D1*
X-250757D1*
Y-260311D1*
X-463487Y-353741D2*
X-329386D1*
Y-413831D1*
X-463487D1*
Y-353741D1*
X-606472Y-234215D2*
X-472371D1*
Y-294304D1*
X-606472D1*
Y-234215D1*
X-606445Y-127298D2*
X-472344D1*
Y-187387D1*
X-606445D1*
Y-127298D1*
X-450479Y-249211D2*
D13*
X-444573D1*
X-428825D2*
X-424888D1*
X-452368Y-250196D2*
X-442836D1*
X-430223D2*
X-424888D1*
X-453883Y-251180D2*
X-441402D1*
X-431325D2*
X-424888D1*
X-455024Y-252164D2*
X-440328D1*
X-432177D2*
X-424888D1*
X-455861Y-253148D2*
X-449297D1*
X-445755D2*
X-439475D1*
X-432480D2*
X-424888D1*
X-456481Y-254133D2*
X-450823D1*
X-444233D2*
X-438757D1*
X-432652D2*
X-429810D1*
X-427841D2*
X-424888D1*
X-456917Y-255117D2*
X-452007D1*
X-443070D2*
X-438233D1*
X-432762D2*
X-431778D1*
X-427841D2*
X-424888D1*
X-457199Y-256101D2*
X-452877D1*
X-442255D2*
X-437911D1*
X-427841D2*
X-424888D1*
X-457446Y-257085D2*
X-453514D1*
X-441621D2*
X-437684D1*
X-427841D2*
X-424888D1*
X-457735Y-258070D2*
X-453955D1*
X-427841D2*
X-424888D1*
X-458008Y-259054D2*
X-454206D1*
X-427841D2*
X-424888D1*
X-458188Y-260038D2*
X-454329D1*
X-427841D2*
X-424888D1*
X-458282Y-261022D2*
X-454382D1*
X-427841D2*
X-424888D1*
X-458325Y-262007D2*
X-454404D1*
X-427841D2*
X-424888D1*
X-458343Y-262991D2*
X-454412D1*
X-427841D2*
X-424888D1*
X-458349Y-263975D2*
X-454415D1*
X-427841D2*
X-424888D1*
X-458352Y-264959D2*
X-454416D1*
X-427841D2*
X-424888D1*
X-458349Y-265944D2*
X-454416D1*
X-427841D2*
X-424888D1*
X-458314Y-266928D2*
X-454412D1*
X-427841D2*
X-424888D1*
X-458189Y-267912D2*
X-454378D1*
X-427841D2*
X-424888D1*
X-457953Y-268896D2*
X-454248D1*
X-427841D2*
X-424888D1*
X-457697Y-269881D2*
X-453974D1*
X-427841D2*
X-424888D1*
X-457491Y-270865D2*
X-453554D1*
X-441621D2*
X-437684D1*
X-427841D2*
X-424888D1*
X-457270Y-271849D2*
X-452933D1*
X-442204D2*
X-437873D1*
X-427841D2*
X-424888D1*
X-456954Y-272833D2*
X-452110D1*
X-442979D2*
X-438247D1*
X-427841D2*
X-424888D1*
X-456521Y-273818D2*
X-450245D1*
X-444825D2*
X-438780D1*
X-427841D2*
X-424888D1*
X-455935Y-274802D2*
X-447639D1*
X-447420D2*
X-439407D1*
X-427841D2*
X-424888D1*
X-455115Y-275786D2*
X-440234D1*
X-427841D2*
X-424888D1*
X-453945Y-276770D2*
X-441414D1*
X-427841D2*
X-424888D1*
X-452341Y-277755D2*
X-442921D1*
X-427841D2*
X-424888D1*
X-450479Y-278739D2*
X-444573D1*
X-427841D2*
X-424888D1*
X-232510Y-216386D2*
X-226605D1*
X-208888D2*
X-201999D1*
X-234400Y-217370D2*
X-224867D1*
X-210290D2*
X-200716D1*
X-235915Y-218354D2*
X-223434D1*
X-211426D2*
X-199728D1*
X-237056Y-219339D2*
X-222360D1*
X-212279D2*
X-198985D1*
X-237893Y-220323D2*
X-231329D1*
X-227787D2*
X-221506D1*
X-212911D2*
X-207558D1*
X-204202D2*
X-198383D1*
X-238512Y-221307D2*
X-232854D1*
X-226264D2*
X-220788D1*
X-213352D2*
X-208869D1*
X-202807D2*
X-197885D1*
X-238948Y-222291D2*
X-234039D1*
X-225101D2*
X-220264D1*
X-213621D2*
X-209910D1*
X-201734D2*
X-197539D1*
X-239231Y-223276D2*
X-234909D1*
X-224286D2*
X-219942D1*
X-213810D2*
X-210857D1*
X-201312D2*
X-197348D1*
X-239478Y-224260D2*
X-235546D1*
X-223652D2*
X-219715D1*
X-201307D2*
X-197541D1*
X-239766Y-225244D2*
X-235986D1*
X-201504D2*
X-197794D1*
X-240040Y-226228D2*
X-236238D1*
X-201854D2*
X-198079D1*
X-240220Y-227213D2*
X-236360D1*
X-202287D2*
X-198438D1*
X-240314Y-228197D2*
X-236414D1*
X-202790D2*
X-198890D1*
X-240356Y-229181D2*
X-236435D1*
X-203397D2*
X-199443D1*
X-240374Y-230165D2*
X-236443D1*
X-204123D2*
X-200067D1*
X-240381Y-231150D2*
X-236446D1*
X-204869D2*
X-200699D1*
X-240383Y-232134D2*
X-236447D1*
X-205568D2*
X-201376D1*
X-240380Y-233118D2*
X-236447D1*
X-206280D2*
X-202133D1*
X-240346Y-234102D2*
X-236444D1*
X-207081D2*
X-202893D1*
X-240221Y-235087D2*
X-236409D1*
X-207937D2*
X-203597D1*
X-239985Y-236071D2*
X-236280D1*
X-208753D2*
X-204306D1*
X-239729Y-237055D2*
X-236006D1*
X-209484D2*
X-205077D1*
X-239522Y-238039D2*
X-235586D1*
X-223652D2*
X-219715D1*
X-210205D2*
X-205842D1*
X-239302Y-239024D2*
X-234964D1*
X-224235D2*
X-219905D1*
X-210980D2*
X-206548D1*
X-238986Y-240008D2*
X-234142D1*
X-225011D2*
X-220279D1*
X-211743D2*
X-207263D1*
X-238552Y-240992D2*
X-232277D1*
X-226856D2*
X-220812D1*
X-212411D2*
X-208068D1*
X-237967Y-241976D2*
X-229671D1*
X-229452D2*
X-221439D1*
X-212962D2*
X-208953D1*
X-237146Y-242961D2*
X-222265D1*
X-213368D2*
X-197077D1*
X-235976Y-243945D2*
X-223446D1*
X-213608D2*
X-197077D1*
X-234373Y-244929D2*
X-224952D1*
X-213732D2*
X-197077D1*
X-232510Y-245913D2*
X-226605D1*
X-213810D2*
X-197077D1*
X-411530Y-423050D2*
X-405625D1*
X-387908D2*
X-382003D1*
X-413419Y-424034D2*
X-403887D1*
X-389309D2*
X-380568D1*
X-414934Y-425018D2*
X-402453D1*
X-390446D2*
X-379339D1*
X-416075Y-426003D2*
X-401379D1*
X-391299D2*
X-378376D1*
X-416912Y-426987D2*
X-410349D1*
X-406806D2*
X-400526D1*
X-391931D2*
X-386924D1*
X-383336D2*
X-377620D1*
X-417532Y-427971D2*
X-411874D1*
X-405284D2*
X-399808D1*
X-392372D2*
X-387908D1*
X-382059D2*
X-377343D1*
X-417968Y-428955D2*
X-413059D1*
X-404121D2*
X-399284D1*
X-392641D2*
X-388892D1*
X-381168D2*
X-377193D1*
X-418251Y-429940D2*
X-413928D1*
X-403306D2*
X-398962D1*
X-392829D2*
X-389877D1*
X-380508D2*
X-377129D1*
X-418497Y-430924D2*
X-414566D1*
X-402672D2*
X-398735D1*
X-380336D2*
X-377136D1*
X-418786Y-431908D2*
X-415006D1*
X-380594D2*
X-377255D1*
X-419060Y-432892D2*
X-415257D1*
X-381019D2*
X-377529D1*
X-419239Y-433877D2*
X-415380D1*
X-382125D2*
X-377981D1*
X-419333Y-434861D2*
X-415433D1*
X-383447D2*
X-378701D1*
X-419376Y-435845D2*
X-415455D1*
X-384741D2*
X-379764D1*
X-419394Y-436829D2*
X-415463D1*
X-385382D2*
X-381018D1*
X-419400Y-437814D2*
X-415466D1*
X-385586D2*
X-379854D1*
X-419403Y-438798D2*
X-415467D1*
X-384233D2*
X-378855D1*
X-419400Y-439782D2*
X-415467D1*
X-382790D2*
X-378068D1*
X-419366Y-440766D2*
X-415463D1*
X-381598D2*
X-377434D1*
X-419240Y-441751D2*
X-415429D1*
X-380669D2*
X-376914D1*
X-419005Y-442735D2*
X-415299D1*
X-380340D2*
X-376525D1*
X-418748Y-443719D2*
X-415025D1*
X-380168D2*
X-376299D1*
X-418542Y-444703D2*
X-414605D1*
X-402672D2*
X-398735D1*
X-380131D2*
X-376218D1*
X-418322Y-445688D2*
X-413984D1*
X-403255D2*
X-398925D1*
X-393814D2*
X-389877D1*
X-380194D2*
X-376297D1*
X-418006Y-446672D2*
X-413161D1*
X-404030D2*
X-399299D1*
X-393436D2*
X-389229D1*
X-380731D2*
X-376547D1*
X-417572Y-447656D2*
X-411296D1*
X-405876D2*
X-399832D1*
X-392978D2*
X-387517D1*
X-382414D2*
X-376925D1*
X-416987Y-448640D2*
X-408690D1*
X-408471D2*
X-400459D1*
X-392388D2*
X-385005D1*
X-384913D2*
X-377406D1*
X-416166Y-449625D2*
X-401285D1*
X-391602D2*
X-378076D1*
X-414996Y-450609D2*
X-402465D1*
X-390583D2*
X-379082D1*
X-413392Y-451593D2*
X-403972D1*
X-389316D2*
X-380455D1*
X-411530Y-452577D2*
X-405625D1*
X-387908D2*
X-382003D1*
X-122176Y-383314D2*
X-116270D1*
X-93633D2*
X-89696D1*
X-124065Y-384298D2*
X-114533D1*
X-94007D2*
X-90069D1*
X-125580Y-385282D2*
X-113099D1*
X-94429D2*
X-90492D1*
X-126721Y-386266D2*
X-112025D1*
X-94887D2*
X-90950D1*
X-127558Y-387251D2*
X-120994D1*
X-117452D2*
X-111172D1*
X-95361D2*
X-91428D1*
X-128177Y-388235D2*
X-122520D1*
X-115929D2*
X-110454D1*
X-95815D2*
X-91913D1*
X-128614Y-389219D2*
X-123704D1*
X-114767D2*
X-109929D1*
X-96212D2*
X-92404D1*
X-128896Y-390203D2*
X-124574D1*
X-113951D2*
X-109607D1*
X-96561D2*
X-92894D1*
X-129143Y-391188D2*
X-125211D1*
X-113318D2*
X-109381D1*
X-96942D2*
X-93387D1*
X-129432Y-392172D2*
X-125652D1*
X-97373D2*
X-93878D1*
X-129705Y-393156D2*
X-125903D1*
X-97835D2*
X-94371D1*
X-129885Y-394140D2*
X-126026D1*
X-98316D2*
X-94862D1*
X-129979Y-395125D2*
X-126079D1*
X-98802D2*
X-95352D1*
X-89696D2*
X-86743D1*
X-130022Y-396109D2*
X-126100D1*
X-99293D2*
X-95812D1*
X-89696D2*
X-86743D1*
X-130039Y-397093D2*
X-126108D1*
X-99784D2*
X-96210D1*
X-89696D2*
X-86743D1*
X-130046Y-398077D2*
X-126111D1*
X-100277D2*
X-96561D1*
X-89696D2*
X-86743D1*
X-130049Y-399062D2*
X-126112D1*
X-100768D2*
X-96942D1*
X-89696D2*
X-86743D1*
X-130046Y-400046D2*
X-126113D1*
X-101261D2*
X-97373D1*
X-89696D2*
X-86743D1*
X-130011Y-401030D2*
X-126109D1*
X-101752D2*
X-97838D1*
X-89696D2*
X-86743D1*
X-129886Y-402014D2*
X-126074D1*
X-102241D2*
X-98344D1*
X-89696D2*
X-86743D1*
X-129650Y-402999D2*
X-125945D1*
X-102698D2*
X-98914D1*
X-89696D2*
X-86743D1*
X-129394Y-403983D2*
X-125671D1*
X-103062D2*
X-99538D1*
X-89696D2*
X-86743D1*
X-129188Y-404967D2*
X-125251D1*
X-113318D2*
X-109381D1*
X-103283D2*
X-84774D1*
X-128967Y-405951D2*
X-124630D1*
X-113900D2*
X-109570D1*
X-103394D2*
X-84774D1*
X-128651Y-406936D2*
X-123807D1*
X-114676D2*
X-109944D1*
X-103445D2*
X-84774D1*
X-128218Y-407920D2*
X-121942D1*
X-116522D2*
X-110477D1*
X-103475D2*
X-84774D1*
X-127632Y-408904D2*
X-119336D1*
X-119117D2*
X-111104D1*
X-89696D2*
X-86743D1*
X-126812Y-409888D2*
X-111931D1*
X-89696D2*
X-86743D1*
X-125641Y-410873D2*
X-113111D1*
X-89696D2*
X-86743D1*
X-124038Y-411857D2*
X-114618D1*
X-89696D2*
X-86743D1*
X-122176Y-412841D2*
X-116270D1*
X-89696D2*
X-86743D1*
X-30941Y-163809D2*
X-27004D1*
X-6335D2*
X12366D1*
X19256D2*
X33035D1*
X-30941Y-164794D2*
X-27004D1*
X-6335D2*
X12366D1*
X19256D2*
X34773D1*
X-30941Y-165778D2*
X-27004D1*
X-6335D2*
X12366D1*
X19256D2*
X36203D1*
X-30941Y-166762D2*
X-27004D1*
X-6335D2*
X12366D1*
X19256D2*
X37246D1*
X-30941Y-167746D2*
X-27004D1*
X-6335D2*
X-2398D1*
X19256D2*
X23193D1*
X31854D2*
X38009D1*
X-30941Y-168731D2*
X-27004D1*
X-6335D2*
X-2398D1*
X19256D2*
X23193D1*
X33375D2*
X38616D1*
X-30941Y-169715D2*
X-27004D1*
X-6335D2*
X-2398D1*
X19256D2*
X23193D1*
X34525D2*
X39121D1*
X-30941Y-170699D2*
X-27004D1*
X-6335D2*
X-2398D1*
X19256D2*
X23193D1*
X35399D2*
X39502D1*
X-30941Y-171683D2*
X-27004D1*
X-6335D2*
X-2398D1*
X19256D2*
X23193D1*
X35704D2*
X39729D1*
X-30941Y-172668D2*
X-27004D1*
X-6335D2*
X-2398D1*
X19256D2*
X23193D1*
X35867D2*
X39843D1*
X-30941Y-173652D2*
X-27004D1*
X-6335D2*
X-2398D1*
X19256D2*
X23193D1*
X35941D2*
X39893D1*
X-30941Y-174636D2*
X-27004D1*
X-6335D2*
X-2398D1*
X19256D2*
X23193D1*
X35971D2*
X39913D1*
X-30941Y-175620D2*
X-27004D1*
X-6335D2*
X-2398D1*
X19256D2*
X23193D1*
X35982D2*
X39921D1*
X-30941Y-176605D2*
X-27004D1*
X-6335D2*
X-2398D1*
X19256D2*
X23193D1*
X35986D2*
X39924D1*
X-30941Y-177589D2*
X-27004D1*
X-6335D2*
X10398D1*
X19256D2*
X23193D1*
X35988D2*
X39925D1*
X-30941Y-178573D2*
X-27004D1*
X-6335D2*
X10398D1*
X19256D2*
X23193D1*
X35988D2*
X39925D1*
X-30941Y-179557D2*
X-27004D1*
X-6335D2*
X10398D1*
X19256D2*
X23193D1*
X35988D2*
X39925D1*
X-30941Y-180542D2*
X-27004D1*
X-6335D2*
X10398D1*
X19256D2*
X23193D1*
X35988D2*
X39925D1*
X-30941Y-181526D2*
X-27004D1*
X-6335D2*
X-2398D1*
X19256D2*
X23193D1*
X35988D2*
X39925D1*
X-30941Y-182510D2*
X-27004D1*
X-6335D2*
X-2398D1*
X19256D2*
X23193D1*
X35988D2*
X39925D1*
X-30941Y-183494D2*
X-27004D1*
X-6335D2*
X-2398D1*
X19256D2*
X23193D1*
X35984D2*
X39921D1*
X-30941Y-184479D2*
X-27004D1*
X-6335D2*
X-2398D1*
X19256D2*
X23193D1*
X35946D2*
X39887D1*
X-30941Y-185463D2*
X-27004D1*
X-6335D2*
X-2398D1*
X19256D2*
X23193D1*
X35778D2*
X39757D1*
X-30941Y-186447D2*
X-27004D1*
X-6335D2*
X-2398D1*
X19256D2*
X23193D1*
X35460D2*
X39487D1*
X-30941Y-187431D2*
X-27004D1*
X-6335D2*
X-2398D1*
X19256D2*
X23193D1*
X34540D2*
X39106D1*
X-30941Y-188416D2*
X-27004D1*
X-6335D2*
X-2398D1*
X19256D2*
X23193D1*
X31844D2*
X38656D1*
X-30941Y-189400D2*
X-27004D1*
X-6335D2*
X-2398D1*
X19256D2*
X23193D1*
X27546D2*
X38110D1*
X-30941Y-190384D2*
X-12240D1*
X-6335D2*
X12366D1*
X19256D2*
X37333D1*
X-30941Y-191368D2*
X-12240D1*
X-6335D2*
X12366D1*
X19256D2*
X36177D1*
X-30941Y-192353D2*
X-12240D1*
X-6335D2*
X12366D1*
X19256D2*
X34682D1*
X-30941Y-193337D2*
X-12240D1*
X-6335D2*
X12366D1*
X19256D2*
X33035D1*
X-458627Y-141324D2*
X-443864D1*
X-428115D2*
X-424178D1*
X-458627Y-142308D2*
X-442429D1*
X-429513D2*
X-424178D1*
X-458627Y-143293D2*
X-441200D1*
X-430615D2*
X-424178D1*
X-458627Y-144277D2*
X-440233D1*
X-431467D2*
X-424178D1*
X-458627Y-145261D2*
X-454690D1*
X-445197D2*
X-439550D1*
X-431771D2*
X-424178D1*
X-458627Y-146245D2*
X-454690D1*
X-443920D2*
X-439067D1*
X-431942D2*
X-429100D1*
X-427131D2*
X-424178D1*
X-458627Y-147230D2*
X-454690D1*
X-443025D2*
X-438661D1*
X-432052D2*
X-431068D1*
X-427131D2*
X-424178D1*
X-458627Y-148214D2*
X-454690D1*
X-442354D2*
X-438339D1*
X-427131D2*
X-424178D1*
X-458627Y-149198D2*
X-454690D1*
X-442155D2*
X-438174D1*
X-427131D2*
X-424178D1*
X-458627Y-150182D2*
X-454690D1*
X-442081D2*
X-438197D1*
X-427131D2*
X-424178D1*
X-458627Y-151167D2*
X-454690D1*
X-442328D2*
X-438391D1*
X-427131D2*
X-424178D1*
X-458627Y-152151D2*
X-454690D1*
X-442987D2*
X-438663D1*
X-427131D2*
X-424178D1*
X-458627Y-153135D2*
X-454690D1*
X-445580D2*
X-438992D1*
X-427131D2*
X-424178D1*
X-458627Y-154119D2*
X-454690D1*
X-450027D2*
X-439484D1*
X-427131D2*
X-424178D1*
X-458627Y-155104D2*
X-440207D1*
X-427131D2*
X-424178D1*
X-458627Y-156088D2*
X-441131D1*
X-427131D2*
X-424178D1*
X-458627Y-157072D2*
X-442090D1*
X-427131D2*
X-424178D1*
X-458627Y-158056D2*
X-442932D1*
X-427131D2*
X-424178D1*
X-458627Y-159041D2*
X-454690D1*
X-447956D2*
X-443136D1*
X-427131D2*
X-424178D1*
X-458627Y-160025D2*
X-454690D1*
X-447251D2*
X-442864D1*
X-427131D2*
X-424178D1*
X-458627Y-161009D2*
X-454690D1*
X-446651D2*
X-442411D1*
X-427131D2*
X-424178D1*
X-458627Y-161993D2*
X-454690D1*
X-446109D2*
X-441835D1*
X-427131D2*
X-424178D1*
X-458627Y-162978D2*
X-454690D1*
X-445598D2*
X-441255D1*
X-427131D2*
X-424178D1*
X-458627Y-163962D2*
X-454690D1*
X-445098D2*
X-440710D1*
X-427131D2*
X-424178D1*
X-458627Y-164946D2*
X-454690D1*
X-444604D2*
X-440191D1*
X-427131D2*
X-424178D1*
X-458627Y-165930D2*
X-454690D1*
X-444110D2*
X-439688D1*
X-427131D2*
X-424178D1*
X-458627Y-166915D2*
X-454690D1*
X-443618D2*
X-439191D1*
X-427131D2*
X-424178D1*
X-458627Y-167899D2*
X-454690D1*
X-443128D2*
X-438694D1*
X-427131D2*
X-424178D1*
X-458627Y-168883D2*
X-454690D1*
X-442662D2*
X-438175D1*
X-427131D2*
X-424178D1*
X-458627Y-169867D2*
X-454690D1*
X-442252D2*
X-437601D1*
X-427131D2*
X-424178D1*
X-458627Y-170852D2*
X-454690D1*
X-441895D2*
X-436974D1*
X-427131D2*
X-424178D1*
X408165Y-144070D2*
X422929D1*
X440646D2*
X447535D1*
X408165Y-145054D2*
X424364D1*
X439245D2*
X448818D1*
X408165Y-146038D2*
X425592D1*
X438108D2*
X449806D1*
X408165Y-147022D2*
X426560D1*
X437255D2*
X450550D1*
X408165Y-148007D2*
X412102D1*
X421595D2*
X427242D1*
X436623D2*
X441976D1*
X445332D2*
X451151D1*
X408165Y-148991D2*
X412102D1*
X422873D2*
X427726D1*
X436182D2*
X440665D1*
X446727D2*
X451649D1*
X408165Y-149975D2*
X412102D1*
X423768D2*
X428132D1*
X435913D2*
X439624D1*
X447800D2*
X451995D1*
X408165Y-150959D2*
X412102D1*
X424439D2*
X428453D1*
X435724D2*
X438677D1*
X448222D2*
X452186D1*
X408165Y-151944D2*
X412102D1*
X424637D2*
X428619D1*
X448227D2*
X451993D1*
X408165Y-152928D2*
X412102D1*
X424711D2*
X428596D1*
X448030D2*
X451740D1*
X408165Y-153912D2*
X412102D1*
X424465D2*
X428402D1*
X447680D2*
X451455D1*
X408165Y-154896D2*
X412102D1*
X423805D2*
X428129D1*
X447247D2*
X451096D1*
X408165Y-155881D2*
X412102D1*
X421213D2*
X427801D1*
X446744D2*
X450644D1*
X408165Y-156865D2*
X412102D1*
X416765D2*
X427309D1*
X446137D2*
X450091D1*
X408165Y-157849D2*
X426585D1*
X445411D2*
X449467D1*
X408165Y-158833D2*
X425661D1*
X444665D2*
X448835D1*
X408165Y-159818D2*
X424703D1*
X443966D2*
X448158D1*
X408165Y-160802D2*
X423861D1*
X443254D2*
X447401D1*
X408165Y-161786D2*
X412102D1*
X418836D2*
X423657D1*
X442453D2*
X446641D1*
X408165Y-162770D2*
X412102D1*
X419542D2*
X423928D1*
X441598D2*
X445937D1*
X408165Y-163755D2*
X412102D1*
X420142D2*
X424382D1*
X440781D2*
X445228D1*
X408165Y-164739D2*
X412102D1*
X420683D2*
X424958D1*
X440051D2*
X444457D1*
X408165Y-165723D2*
X412102D1*
X421195D2*
X425538D1*
X439329D2*
X443692D1*
X408165Y-166707D2*
X412102D1*
X421695D2*
X426083D1*
X438554D2*
X442986D1*
X408165Y-167692D2*
X412102D1*
X422189D2*
X426602D1*
X437791D2*
X442271D1*
X408165Y-168676D2*
X412102D1*
X422683D2*
X427105D1*
X437123D2*
X441466D1*
X408165Y-169660D2*
X412102D1*
X423175D2*
X427602D1*
X436572D2*
X440581D1*
X408165Y-170644D2*
X412102D1*
X423665D2*
X428098D1*
X436166D2*
X452457D1*
X408165Y-171629D2*
X412102D1*
X424130D2*
X428617D1*
X435926D2*
X452457D1*
X408165Y-172613D2*
X412102D1*
X424540D2*
X429192D1*
X435802D2*
X452457D1*
X408165Y-173597D2*
X412102D1*
X424898D2*
X429819D1*
X435724D2*
X452457D1*
X195718Y-222953D2*
X210482D1*
X228199D2*
X234104D1*
X195718Y-223937D2*
X211917D1*
X226798D2*
X235539D1*
X195718Y-224921D2*
X213145D1*
X225661D2*
X236767D1*
X195718Y-225906D2*
X214113D1*
X224808D2*
X237731D1*
X195718Y-226890D2*
X199655D1*
X209148D2*
X214795D1*
X224176D2*
X229183D1*
X232770D2*
X238487D1*
X195718Y-227874D2*
X199655D1*
X210426D2*
X215279D1*
X223735D2*
X228199D1*
X234048D2*
X238764D1*
X195718Y-228858D2*
X199655D1*
X211321D2*
X215685D1*
X223466D2*
X227214D1*
X234939D2*
X238914D1*
X195718Y-229843D2*
X199655D1*
X211992D2*
X216006D1*
X223277D2*
X226230D1*
X235599D2*
X238978D1*
X195718Y-230827D2*
X199655D1*
X212190D2*
X216172D1*
X235771D2*
X238971D1*
X195718Y-231811D2*
X199655D1*
X212264D2*
X216149D1*
X235513D2*
X238852D1*
X195718Y-232795D2*
X199655D1*
X212018D2*
X215955D1*
X235088D2*
X238578D1*
X195718Y-233780D2*
X199655D1*
X211358D2*
X215682D1*
X233981D2*
X238125D1*
X195718Y-234764D2*
X199655D1*
X208766D2*
X215354D1*
X232659D2*
X237405D1*
X195718Y-235748D2*
X199655D1*
X204318D2*
X214862D1*
X231366D2*
X236343D1*
X195718Y-236732D2*
X214138D1*
X230724D2*
X235088D1*
X195718Y-237717D2*
X213214D1*
X230521D2*
X236253D1*
X195718Y-238701D2*
X212256D1*
X231874D2*
X237252D1*
X195718Y-239685D2*
X211414D1*
X233316D2*
X238038D1*
X195718Y-240669D2*
X199655D1*
X206389D2*
X211210D1*
X234509D2*
X238673D1*
X195718Y-241654D2*
X199655D1*
X207095D2*
X211481D1*
X235438D2*
X239193D1*
X195718Y-242638D2*
X199655D1*
X207695D2*
X211935D1*
X235766D2*
X239582D1*
X195718Y-243622D2*
X199655D1*
X208236D2*
X212511D1*
X235939D2*
X239808D1*
X195718Y-244606D2*
X199655D1*
X208748D2*
X213091D1*
X235976D2*
X239888D1*
X195718Y-245591D2*
X199655D1*
X209248D2*
X213636D1*
X222293D2*
X226230D1*
X235912D2*
X239810D1*
X195718Y-246575D2*
X199655D1*
X209742D2*
X214155D1*
X222671D2*
X226878D1*
X235375D2*
X239560D1*
X195718Y-247559D2*
X199655D1*
X210236D2*
X214658D1*
X223128D2*
X228589D1*
X233693D2*
X239182D1*
X195718Y-248543D2*
X199655D1*
X210728D2*
X215155D1*
X223719D2*
X231102D1*
X231193D2*
X238700D1*
X195718Y-249528D2*
X199655D1*
X211218D2*
X215651D1*
X224505D2*
X238030D1*
X195718Y-250512D2*
X199655D1*
X211683D2*
X216170D1*
X225524D2*
X237024D1*
X195718Y-251496D2*
X199655D1*
X212093D2*
X216745D1*
X226791D2*
X235651D1*
X195718Y-252480D2*
X199655D1*
X212451D2*
X217372D1*
X228199D2*
X234104D1*
X411354Y-252521D2*
X426118D1*
X448756D2*
X452693D1*
X411354Y-253505D2*
X427553D1*
X448382D2*
X452319D1*
X411354Y-254490D2*
X428781D1*
X447959D2*
X451896D1*
X411354Y-255474D2*
X429749D1*
X447502D2*
X451439D1*
X411354Y-256458D2*
X415291D1*
X424784D2*
X430431D1*
X447028D2*
X450961D1*
X411354Y-257442D2*
X415291D1*
X426062D2*
X430915D1*
X446573D2*
X450475D1*
X411354Y-258427D2*
X415291D1*
X426957D2*
X431321D1*
X446177D2*
X449985D1*
X411354Y-259411D2*
X415291D1*
X427628D2*
X431642D1*
X445827D2*
X449494D1*
X411354Y-260395D2*
X415291D1*
X427826D2*
X431808D1*
X445446D2*
X449001D1*
X411354Y-261379D2*
X415291D1*
X427900D2*
X431785D1*
X445015D2*
X448510D1*
X411354Y-262364D2*
X415291D1*
X427654D2*
X431591D1*
X444553D2*
X448017D1*
X411354Y-263348D2*
X415291D1*
X426994D2*
X431318D1*
X444073D2*
X447526D1*
X411354Y-264332D2*
X415291D1*
X424402D2*
X430990D1*
X443586D2*
X447037D1*
X452693D2*
X455646D1*
X411354Y-265316D2*
X415291D1*
X419954D2*
X430498D1*
X443095D2*
X446576D1*
X452693D2*
X455646D1*
X411354Y-266301D2*
X429774D1*
X442604D2*
X446178D1*
X452693D2*
X455646D1*
X411354Y-267285D2*
X428850D1*
X442112D2*
X445828D1*
X452693D2*
X455646D1*
X411354Y-268269D2*
X427892D1*
X441620D2*
X445446D1*
X452693D2*
X455646D1*
X411354Y-269253D2*
X427050D1*
X441128D2*
X445015D1*
X452693D2*
X455646D1*
X411354Y-270238D2*
X415291D1*
X422025D2*
X426846D1*
X440636D2*
X444550D1*
X452693D2*
X455653D1*
X411354Y-271222D2*
X415291D1*
X422731D2*
X427117D1*
X440147D2*
X444044D1*
X452693D2*
X455723D1*
X411354Y-272206D2*
X415291D1*
X423331D2*
X427571D1*
X439690D2*
X443475D1*
X452693D2*
X455884D1*
X411354Y-273190D2*
X415291D1*
X423872D2*
X428147D1*
X439327D2*
X442850D1*
X452693D2*
X456423D1*
X411354Y-274175D2*
X415291D1*
X424384D2*
X428727D1*
X439106D2*
X456936D1*
X411354Y-275159D2*
X415291D1*
X424884D2*
X429272D1*
X438994D2*
X457323D1*
X411354Y-276143D2*
X415291D1*
X425378D2*
X429791D1*
X438943D2*
X457277D1*
X411354Y-277127D2*
X415291D1*
X425872D2*
X430294D1*
X438913D2*
X456792D1*
X411354Y-278112D2*
X415291D1*
X426364D2*
X430791D1*
X452693D2*
X456298D1*
X411354Y-279096D2*
X415291D1*
X426854D2*
X431287D1*
X452693D2*
X455962D1*
X411354Y-280080D2*
X415291D1*
X427319D2*
X431806D1*
X452693D2*
X455782D1*
X411354Y-281064D2*
X415291D1*
X427729D2*
X432381D1*
X452693D2*
X455696D1*
X411354Y-282049D2*
X415291D1*
X428087D2*
X433008D1*
X452693D2*
X455646D1*
X-17717Y669291D2*
X-14764D1*
X-984D2*
X2953D1*
X12795D2*
X16732D1*
X-17717Y668307D2*
X-14764D1*
X-984D2*
X2953D1*
X11398D2*
X16732D1*
X-17717Y667323D2*
X-14764D1*
X-984D2*
X2953D1*
X10296D2*
X16732D1*
X-17717Y666339D2*
X-14764D1*
X-984D2*
X2953D1*
X9444D2*
X16732D1*
X-17717Y665354D2*
X-14764D1*
X-984D2*
X2953D1*
X9140D2*
X16732D1*
X-17717Y664370D2*
X-14764D1*
X-984D2*
X2953D1*
X8969D2*
X11811D1*
X13780D2*
X16732D1*
X-17717Y663386D2*
X-14764D1*
X-984D2*
X2953D1*
X8858D2*
X9843D1*
X13780D2*
X16732D1*
X-17717Y662402D2*
X-14764D1*
X-984D2*
X2953D1*
X13780D2*
X16732D1*
X-17717Y661417D2*
X-14764D1*
X-984D2*
X2953D1*
X13780D2*
X16732D1*
X-17717Y660433D2*
X-14764D1*
X-984D2*
X2953D1*
X13780D2*
X16732D1*
X-17717Y659449D2*
X-14764D1*
X-984D2*
X2953D1*
X13780D2*
X16732D1*
X-17717Y658465D2*
X-14764D1*
X-984D2*
X2953D1*
X13780D2*
X16732D1*
X-17717Y657480D2*
X-14764D1*
X-984D2*
X2953D1*
X13780D2*
X16732D1*
X-17717Y656496D2*
X-14764D1*
X-984D2*
X2953D1*
X13780D2*
X16732D1*
X-17717Y655512D2*
X-14764D1*
X-984D2*
X2953D1*
X13780D2*
X16732D1*
X-17717Y654528D2*
X-14764D1*
X-984D2*
X2953D1*
X13780D2*
X16732D1*
X-17717Y653543D2*
X-14764D1*
X-984D2*
X2953D1*
X13780D2*
X16732D1*
X-17717Y652559D2*
X-14764D1*
X-984D2*
X2953D1*
X13780D2*
X16732D1*
X-17717Y651575D2*
X-14760D1*
X-984D2*
X2953D1*
X13780D2*
X16732D1*
X-17717Y650591D2*
X-14725D1*
X-988D2*
X2949D1*
X13780D2*
X16732D1*
X-17717Y649606D2*
X-14596D1*
X-1023D2*
X2914D1*
X13780D2*
X16732D1*
X-17713Y648622D2*
X-14322D1*
X-1152D2*
X2789D1*
X13780D2*
X16732D1*
X-17678Y647638D2*
X-13898D1*
X-1434D2*
X2549D1*
X13780D2*
X16732D1*
X-17549Y646654D2*
X-13242D1*
X-1827D2*
X2258D1*
X13780D2*
X16732D1*
X-17275Y645669D2*
X-12339D1*
X-2651D2*
X1923D1*
X13780D2*
X16732D1*
X-16858Y644685D2*
X-10196D1*
X-4683D2*
X1432D1*
X13780D2*
X16732D1*
X-16279Y643701D2*
X-7288D1*
X-7522D2*
X735D1*
X13780D2*
X16732D1*
X-15461Y642717D2*
X-144D1*
X13780D2*
X16732D1*
X-14292Y641732D2*
X-1217D1*
X13780D2*
X16732D1*
X-12689Y640748D2*
X-2512D1*
X13780D2*
X16732D1*
X-10827Y639764D2*
X-3937D1*
X13780D2*
X16732D1*
X-250373Y-538707D2*
X-235609D1*
X-222814D2*
X-218877D1*
X-201160D2*
X-197223D1*
X-189349D2*
X-170648D1*
X-159822D2*
X-152932D1*
X-136199D2*
X-130294D1*
X-111593D2*
X-105688D1*
X-250373Y-539692D2*
X-233872D1*
X-222814D2*
X-218536D1*
X-201500D2*
X-197223D1*
X-189349D2*
X-170648D1*
X-161223D2*
X-151649D1*
X-137634D2*
X-128675D1*
X-113028D2*
X-104253D1*
X-250373Y-540676D2*
X-232601D1*
X-222814D2*
X-218209D1*
X-201828D2*
X-197223D1*
X-189349D2*
X-170648D1*
X-162360D2*
X-150661D1*
X-138863D2*
X-127394D1*
X-114256D2*
X-103024D1*
X-250373Y-541660D2*
X-231715D1*
X-222814D2*
X-217893D1*
X-202144D2*
X-197223D1*
X-189349D2*
X-170648D1*
X-163213D2*
X-149918D1*
X-139826D2*
X-126464D1*
X-115220D2*
X-102061D1*
X-250373Y-542644D2*
X-246436D1*
X-235650D2*
X-231050D1*
X-222814D2*
X-217526D1*
X-202511D2*
X-197223D1*
X-189349D2*
X-185412D1*
X-163844D2*
X-158491D1*
X-155135D2*
X-149316D1*
X-140582D2*
X-134866D1*
X-131513D2*
X-125766D1*
X-115976D2*
X-110374D1*
X-106907D2*
X-101305D1*
X-250373Y-543629D2*
X-246436D1*
X-234831D2*
X-230522D1*
X-222814D2*
X-217101D1*
X-202936D2*
X-197223D1*
X-189349D2*
X-185412D1*
X-164286D2*
X-159802D1*
X-153740D2*
X-148818D1*
X-140859D2*
X-136143D1*
X-130118D2*
X-125221D1*
X-116290D2*
X-111769D1*
X-105511D2*
X-101028D1*
X-250373Y-544613D2*
X-246436D1*
X-234246D2*
X-230135D1*
X-222814D2*
X-216641D1*
X-203395D2*
X-197223D1*
X-189349D2*
X-185412D1*
X-164554D2*
X-160843D1*
X-152667D2*
X-148472D1*
X-141009D2*
X-137035D1*
X-129045D2*
X-124826D1*
X-116567D2*
X-112842D1*
X-104438D2*
X-100878D1*
X-250373Y-545597D2*
X-246436D1*
X-233918D2*
X-229939D1*
X-222814D2*
X-216162D1*
X-203875D2*
X-197223D1*
X-189349D2*
X-185412D1*
X-164743D2*
X-161790D1*
X-152245D2*
X-148281D1*
X-141073D2*
X-137694D1*
X-128676D2*
X-124626D1*
X-116870D2*
X-113215D1*
X-104065D2*
X-100810D1*
X-250373Y-546581D2*
X-246436D1*
X-233796D2*
X-229954D1*
X-222814D2*
X-215675D1*
X-204361D2*
X-197223D1*
X-189349D2*
X-185412D1*
X-152240D2*
X-148474D1*
X-141066D2*
X-137866D1*
X-128518D2*
X-124640D1*
X-117150D2*
X-113415D1*
X-103866D2*
X-100783D1*
X-250373Y-547566D2*
X-246436D1*
X-233801D2*
X-230178D1*
X-222814D2*
X-215188D1*
X-204849D2*
X-197223D1*
X-189349D2*
X-185412D1*
X-152437D2*
X-148727D1*
X-140947D2*
X-137692D1*
X-128510D2*
X-124863D1*
X-117332D2*
X-113505D1*
X-103776D2*
X-100772D1*
X-250373Y-548550D2*
X-246436D1*
X-234316D2*
X-230573D1*
X-222814D2*
X-214728D1*
X-205309D2*
X-197223D1*
X-189349D2*
X-185412D1*
X-152787D2*
X-149012D1*
X-140677D2*
X-137152D1*
X-129031D2*
X-125259D1*
X-117427D2*
X-113541D1*
X-103740D2*
X-100768D1*
X-250373Y-549534D2*
X-246436D1*
X-236747D2*
X-231133D1*
X-222814D2*
X-214330D1*
X-205707D2*
X-197223D1*
X-189349D2*
X-185412D1*
X-153220D2*
X-149371D1*
X-140262D2*
X-135598D1*
X-130709D2*
X-125822D1*
X-117470D2*
X-113554D1*
X-103726D2*
X-100767D1*
X-250373Y-550518D2*
X-246436D1*
X-240992D2*
X-231831D1*
X-222814D2*
X-213980D1*
X-206057D2*
X-203281D1*
X-201160D2*
X-197223D1*
X-189349D2*
X-185412D1*
X-153723D2*
X-149823D1*
X-139694D2*
X-133203D1*
X-133206D2*
X-126562D1*
X-117488D2*
X-113559D1*
X-103722D2*
X-100767D1*
X-250373Y-551503D2*
X-232493D1*
X-222814D2*
X-218877D1*
X-216752D2*
X-213598D1*
X-206438D2*
X-203529D1*
X-201160D2*
X-197223D1*
X-189349D2*
X-185412D1*
X-154331D2*
X-150376D1*
X-138968D2*
X-127420D1*
X-117495D2*
X-113561D1*
X-103720D2*
X-100766D1*
X-250373Y-552487D2*
X-233013D1*
X-222814D2*
X-218877D1*
X-216474D2*
X-213167D1*
X-206869D2*
X-203818D1*
X-201160D2*
X-197223D1*
X-189349D2*
X-172617D1*
X-155056D2*
X-151000D1*
X-138168D2*
X-128325D1*
X-117497D2*
X-113561D1*
X-103719D2*
X-100766D1*
X-250373Y-553471D2*
X-232928D1*
X-222814D2*
X-218877D1*
X-216089D2*
X-212705D1*
X-207331D2*
X-204120D1*
X-201160D2*
X-197223D1*
X-189349D2*
X-172617D1*
X-155802D2*
X-151632D1*
X-139115D2*
X-127345D1*
X-117498D2*
X-113562D1*
X-103719D2*
X-100766D1*
X-250373Y-554455D2*
X-232317D1*
X-222814D2*
X-218877D1*
X-215647D2*
X-212225D1*
X-207812D2*
X-204481D1*
X-201160D2*
X-197223D1*
X-189349D2*
X-172617D1*
X-156501D2*
X-152309D1*
X-139969D2*
X-126399D1*
X-117499D2*
X-113562D1*
X-103719D2*
X-100766D1*
X-250373Y-555440D2*
X-246436D1*
X-235646D2*
X-231569D1*
X-222814D2*
X-218877D1*
X-215174D2*
X-211735D1*
X-208301D2*
X-204905D1*
X-201160D2*
X-197223D1*
X-189349D2*
X-172617D1*
X-157213D2*
X-153066D1*
X-140679D2*
X-136158D1*
X-130643D2*
X-125579D1*
X-117499D2*
X-113562D1*
X-103719D2*
X-100766D1*
X-250373Y-556424D2*
X-246436D1*
X-234792D2*
X-230837D1*
X-222814D2*
X-218877D1*
X-214690D2*
X-211219D1*
X-208818D2*
X-205364D1*
X-201160D2*
X-197223D1*
X-189349D2*
X-185412D1*
X-158014D2*
X-153826D1*
X-141247D2*
X-136978D1*
X-129366D2*
X-124994D1*
X-117499D2*
X-113562D1*
X-103719D2*
X-100766D1*
X-250373Y-557408D2*
X-246436D1*
X-234086D2*
X-230288D1*
X-222814D2*
X-218877D1*
X-214203D2*
X-210645D1*
X-209392D2*
X-205844D1*
X-201160D2*
X-197223D1*
X-189349D2*
X-185412D1*
X-158870D2*
X-154530D1*
X-141660D2*
X-137562D1*
X-128471D2*
X-124662D1*
X-117495D2*
X-113562D1*
X-103719D2*
X-100766D1*
X-250373Y-558392D2*
X-246436D1*
X-233553D2*
X-229970D1*
X-222814D2*
X-218877D1*
X-213744D2*
X-206330D1*
X-201160D2*
X-197223D1*
X-189349D2*
X-185412D1*
X-159686D2*
X-155240D1*
X-141901D2*
X-137894D1*
X-127800D2*
X-124501D1*
X-117460D2*
X-113562D1*
X-103719D2*
X-100766D1*
X-250373Y-559377D2*
X-246436D1*
X-233158D2*
X-229814D1*
X-222814D2*
X-218877D1*
X-213346D2*
X-206817D1*
X-201160D2*
X-197223D1*
X-189349D2*
X-185412D1*
X-160417D2*
X-156011D1*
X-142016D2*
X-138051D1*
X-127605D2*
X-124432D1*
X-117335D2*
X-113558D1*
X-103723D2*
X-100766D1*
X-250373Y-560361D2*
X-246436D1*
X-233278D2*
X-229750D1*
X-222814D2*
X-218877D1*
X-212996D2*
X-207277D1*
X-201160D2*
X-197223D1*
X-189349D2*
X-185412D1*
X-161138D2*
X-156776D1*
X-142033D2*
X-138078D1*
X-127543D2*
X-124408D1*
X-117099D2*
X-113516D1*
X-103765D2*
X-100766D1*
X-250373Y-561345D2*
X-246436D1*
X-233542D2*
X-229758D1*
X-222814D2*
X-218877D1*
X-212611D2*
X-207678D1*
X-201160D2*
X-197223D1*
X-189349D2*
X-185412D1*
X-161913D2*
X-157481D1*
X-141925D2*
X-138009D1*
X-127893D2*
X-124432D1*
X-116843D2*
X-113412D1*
X-103869D2*
X-100770D1*
X-250373Y-562329D2*
X-246436D1*
X-234317D2*
X-229877D1*
X-222814D2*
X-218877D1*
X-212155D2*
X-208052D1*
X-201160D2*
X-197223D1*
X-189349D2*
X-185412D1*
X-162676D2*
X-158196D1*
X-141659D2*
X-137471D1*
X-128906D2*
X-124558D1*
X-116633D2*
X-112868D1*
X-104413D2*
X-100809D1*
X-250373Y-563314D2*
X-246436D1*
X-237088D2*
X-230147D1*
X-222814D2*
X-218877D1*
X-211611D2*
X-208505D1*
X-201160D2*
X-197223D1*
X-189349D2*
X-185412D1*
X-163344D2*
X-159001D1*
X-141245D2*
X-135788D1*
X-130600D2*
X-124831D1*
X-116378D2*
X-111183D1*
X-106098D2*
X-100973D1*
X-250373Y-564298D2*
X-246436D1*
X-241668D2*
X-230566D1*
X-222814D2*
X-218877D1*
X-211003D2*
X-209034D1*
X-201160D2*
X-197223D1*
X-189349D2*
X-185412D1*
X-163895D2*
X-159886D1*
X-140671D2*
X-133289D1*
X-133155D2*
X-125254D1*
X-115932D2*
X-108683D1*
X-108598D2*
X-101376D1*
X-250373Y-565282D2*
X-231174D1*
X-222814D2*
X-218877D1*
X-201160D2*
X-197223D1*
X-189349D2*
X-170648D1*
X-164301D2*
X-148010D1*
X-139891D2*
X-125901D1*
X-115226D2*
X-102065D1*
X-250373Y-566266D2*
X-232069D1*
X-222814D2*
X-218877D1*
X-201160D2*
X-197223D1*
X-189349D2*
X-170648D1*
X-164541D2*
X-148010D1*
X-138874D2*
X-126947D1*
X-114244D2*
X-103041D1*
X-250373Y-567251D2*
X-233265D1*
X-222814D2*
X-218877D1*
X-201160D2*
X-197223D1*
X-189349D2*
X-170648D1*
X-164665D2*
X-148010D1*
X-137607D2*
X-128480D1*
X-112992D2*
X-104290D1*
X-250373Y-568235D2*
X-234625D1*
X-222814D2*
X-218877D1*
X-201160D2*
X-197223D1*
X-189349D2*
X-170648D1*
X-164743D2*
X-148010D1*
X-136199D2*
X-130294D1*
X-111593D2*
X-105688D1*
X493697Y537402D2*
D12*
X499697D1*
X489888Y535902D2*
X503500D1*
X486724Y534402D2*
X506612D1*
X484187Y532902D2*
X508957D1*
X482187Y531402D2*
X510598D1*
X480627Y529902D2*
X511773D1*
X479437Y528402D2*
X512702D1*
X478523Y526902D2*
X513471D1*
X477825Y525402D2*
X514052D1*
X477261Y523902D2*
X514399D1*
X476719Y522402D2*
X514572D1*
X476254Y520902D2*
X514648D1*
X475960Y519402D2*
X493697D1*
X499402D2*
X514679D1*
X475815Y517902D2*
X492197D1*
X500285D2*
X514690D1*
X475800Y516402D2*
X490697D1*
X500822D2*
X514695D1*
X475963Y514902D2*
X491395D1*
X501197D2*
X514697D1*
X476318Y513402D2*
X491858D1*
X476751Y511902D2*
X534197D1*
X477208Y510402D2*
X534197D1*
X477759Y508902D2*
X534197D1*
X478404Y507402D2*
X534197D1*
X479110Y505902D2*
X534197D1*
X479899Y504402D2*
X534197D1*
X480890Y502902D2*
X534197D1*
X482253Y501402D2*
X534197D1*
X484056Y499902D2*
X534197D1*
X486333Y498402D2*
X534197D1*
X489111Y496902D2*
X534197D1*
X492197Y495402D2*
X534197D1*
X477197Y483402D2*
X534197D1*
X477197Y481902D2*
X534197D1*
X477197Y480402D2*
X534197D1*
X477197Y478902D2*
X534197D1*
X477197Y477402D2*
X534197D1*
X477197Y475902D2*
X534197D1*
X477197Y474402D2*
X534197D1*
X477197Y472902D2*
X534197D1*
X477197Y471402D2*
X534197D1*
X477197Y469902D2*
X534197D1*
X477197Y468402D2*
X534197D1*
X498197Y463902D2*
X513197D1*
X498197Y462402D2*
X513491D1*
X498197Y460902D2*
X514109D1*
X498197Y459402D2*
X515072D1*
X477197Y457902D2*
X534197D1*
X477197Y456402D2*
X534197D1*
X477197Y454902D2*
X534197D1*
X477197Y453402D2*
X534197D1*
X477197Y451902D2*
X534197D1*
X477197Y450402D2*
X534197D1*
X477197Y448902D2*
X534197D1*
X477197Y447402D2*
X534197D1*
X477197Y445902D2*
X534197D1*
X477197Y444402D2*
X534197D1*
X477197Y442902D2*
X534197D1*
X477197Y435402D2*
X492197D1*
X477197Y433902D2*
X492197D1*
X477197Y432402D2*
X492197D1*
X477197Y430902D2*
X492197D1*
X477197Y429402D2*
X492197D1*
X477197Y427902D2*
X492197D1*
X477197Y426402D2*
X492197D1*
X477197Y424902D2*
X492197D1*
X477197Y423402D2*
X492197D1*
X477197Y421902D2*
X534197D1*
X477197Y420402D2*
X534197D1*
X477197Y418902D2*
X534197D1*
X477197Y417402D2*
X534197D1*
X477197Y415902D2*
X534197D1*
X477197Y414402D2*
X534197D1*
X477197Y412902D2*
X534197D1*
X477197Y411402D2*
X534197D1*
X477197Y409902D2*
X534197D1*
X477197Y408402D2*
X534197D1*
X477197Y406902D2*
X534197D1*
X477197Y405402D2*
X534197D1*
X477197Y403902D2*
X492197D1*
X477197Y402402D2*
X492197D1*
X477197Y400902D2*
X492197D1*
X477197Y399402D2*
X492197D1*
X477197Y397902D2*
X492197D1*
X477197Y396402D2*
X492197D1*
X477197Y394902D2*
X492197D1*
X477197Y393402D2*
X492197D1*
X477197Y391902D2*
X492197D1*
X489197Y363402D2*
X534197D1*
X486137Y361902D2*
X534197D1*
X483596Y360402D2*
X534197D1*
X481637Y358902D2*
X534197D1*
X480124Y357402D2*
X534197D1*
X478918Y355902D2*
X534197D1*
X478067Y354402D2*
X534197D1*
X477534Y352902D2*
X534197D1*
X477111Y351402D2*
X534197D1*
X476651Y349902D2*
X534197D1*
X476226Y348402D2*
X534197D1*
X475950Y346902D2*
X493697D1*
X475811Y345402D2*
X492197D1*
X475798Y343902D2*
X490697D1*
X505697D2*
X520697D1*
X475963Y342402D2*
X493601D1*
X505697D2*
X520697D1*
X476312Y340902D2*
X498275D1*
X505697D2*
X520697D1*
X476698Y339402D2*
X534197D1*
X477011Y337902D2*
X534197D1*
X477347Y336402D2*
X534197D1*
X477828Y334902D2*
X534197D1*
X478489Y333402D2*
X534197D1*
X479370Y331902D2*
X534197D1*
X480512Y330402D2*
X534197D1*
X481896Y328902D2*
X534197D1*
X483624Y327402D2*
X534197D1*
X485928Y325902D2*
X534197D1*
X488887Y324402D2*
X534197D1*
X492197Y322902D2*
X534197D1*
X477197Y316902D2*
X492197D1*
X477197Y315402D2*
X492197D1*
X477197Y313902D2*
X492197D1*
X477197Y312402D2*
X492197D1*
X477197Y310902D2*
X492197D1*
X477197Y309402D2*
X492197D1*
X477197Y307902D2*
X492197D1*
X477197Y306402D2*
X492197D1*
X477197Y304902D2*
X492197D1*
X477197Y303402D2*
X534197D1*
X477197Y301902D2*
X534197D1*
X477197Y300402D2*
X534197D1*
X477197Y298902D2*
X534197D1*
X477197Y297402D2*
X534197D1*
X477197Y295902D2*
X534197D1*
X477197Y294402D2*
X534197D1*
X477197Y292902D2*
X534197D1*
X477197Y291402D2*
X534197D1*
X477197Y289902D2*
X534197D1*
X477197Y288402D2*
X534197D1*
X477197Y286902D2*
X534197D1*
X477197Y285402D2*
X492197D1*
X477197Y283902D2*
X492197D1*
X477197Y282402D2*
X492197D1*
X477197Y280902D2*
X492197D1*
X477197Y279402D2*
X492197D1*
X477197Y277902D2*
X492197D1*
X477197Y276402D2*
X492197D1*
X477197Y274902D2*
X492197D1*
X477197Y273402D2*
X492197D1*
X477197Y271902D2*
X478697D1*
X532697D2*
X534197D1*
X477197Y270402D2*
X481465D1*
X529697D2*
X534197D1*
X477197Y268902D2*
X484093D1*
X526697D2*
X534197D1*
X477197Y267402D2*
X486699D1*
X523697D2*
X534197D1*
X477197Y265902D2*
X489383D1*
X520697D2*
X534197D1*
X477197Y264402D2*
X492053D1*
X517697D2*
X534197D1*
X477197Y262902D2*
X494636D1*
X514691D2*
X534197D1*
X477203Y261402D2*
X497282D1*
X511634D2*
X534197D1*
X477261Y259902D2*
X500241D1*
X508402D2*
X534197D1*
X477517Y258402D2*
X503603D1*
X504889D2*
X534185D1*
X478003Y256902D2*
X534068D1*
X479382Y255402D2*
X533787D1*
X481275Y253902D2*
X532348D1*
X483619Y252402D2*
X530122D1*
X486143Y250902D2*
X527189D1*
X488663Y249402D2*
X523822D1*
X491230Y247902D2*
X520278D1*
X493969Y246402D2*
X516710D1*
X496995Y244902D2*
X512975D1*
X500624Y243402D2*
X508514D1*
X505135Y241902D2*
X502941D1*
X477197Y238902D2*
X534197D1*
X477197Y237402D2*
X534197D1*
X477197Y235902D2*
X534197D1*
X477197Y234402D2*
X534197D1*
X477197Y232902D2*
X534197D1*
X477197Y231402D2*
X534197D1*
X477197Y229902D2*
X534197D1*
X477197Y228402D2*
X534197D1*
X477197Y226902D2*
X534197D1*
X477197Y225402D2*
X534197D1*
X477197Y223902D2*
X534197D1*
X477197Y211902D2*
X492197D1*
X499697D2*
X511697D1*
X519197D2*
X534197D1*
X477197Y210402D2*
X492197D1*
X499697D2*
X511697D1*
X519197D2*
X534197D1*
X477197Y208902D2*
X492197D1*
X499697D2*
X511697D1*
X519197D2*
X534197D1*
X477197Y207402D2*
X492197D1*
X499697D2*
X511697D1*
X519197D2*
X534197D1*
X477197Y205902D2*
X492203D1*
X499697D2*
X511697D1*
X519197D2*
X534197D1*
X477197Y204402D2*
X492255D1*
X499697D2*
X511703D1*
X519197D2*
X534197D1*
X477197Y202902D2*
X492464D1*
X499679D2*
X511755D1*
X519191D2*
X534197D1*
X477197Y201402D2*
X492844D1*
X499508D2*
X511958D1*
X519121D2*
X534197D1*
X477197Y199902D2*
X494041D1*
X499099D2*
X512432D1*
X518945D2*
X534197D1*
X477203Y198402D2*
X495892D1*
X497346D2*
X513284D1*
X518018D2*
X534197D1*
X477255Y196902D2*
X514594D1*
X515787D2*
X534197D1*
X477447Y195402D2*
X534191D1*
X477812Y193902D2*
X534138D1*
X478249Y192402D2*
X533941D1*
X478708Y190902D2*
X533523D1*
X479265Y189402D2*
X532889D1*
X479968Y187902D2*
X532018D1*
X480924Y186402D2*
X530874D1*
X482316Y184902D2*
X529441D1*
X484242Y183402D2*
X527557D1*
X486620Y181902D2*
X525064D1*
X489197Y180402D2*
X522197D1*
X483197Y175902D2*
X484697D1*
X481929Y174402D2*
X486140D1*
X480806Y172902D2*
X487447D1*
X479753Y171402D2*
X488588D1*
X478766Y169902D2*
X489697D1*
X478008Y168402D2*
X490877D1*
X477513Y166902D2*
X491982D1*
X477103Y165402D2*
X492918D1*
X476649Y163902D2*
X493187D1*
X476226Y162402D2*
X492665D1*
X475955Y160902D2*
X491773D1*
X475864Y159402D2*
X490697D1*
X504197D2*
X519197D1*
X475990Y157902D2*
X493325D1*
X504197D2*
X519197D1*
X476328Y156402D2*
X497473D1*
X504197D2*
X519197D1*
X476755Y154902D2*
X534197D1*
X477210Y153402D2*
X534197D1*
X477765Y151902D2*
X534197D1*
X478463Y150402D2*
X534197D1*
X479360Y148902D2*
X534197D1*
X480502Y147402D2*
X534197D1*
X481831Y145902D2*
X534197D1*
X483317Y144402D2*
X534197D1*
X485092Y142902D2*
X534197D1*
X487416Y141402D2*
X534197D1*
X490383Y139902D2*
X534197D1*
X493697Y138402D2*
X534197D1*
X477197Y127902D2*
X492197D1*
X499697D2*
X511697D1*
X519197D2*
X534197D1*
X477197Y126402D2*
X492197D1*
X499697D2*
X511697D1*
X519197D2*
X534197D1*
X477197Y124902D2*
X492197D1*
X499697D2*
X511697D1*
X519197D2*
X534197D1*
X477197Y123402D2*
X492197D1*
X499697D2*
X511697D1*
X519197D2*
X534197D1*
X477197Y121902D2*
X492203D1*
X499697D2*
X511697D1*
X519197D2*
X534197D1*
X477197Y120402D2*
X492255D1*
X499697D2*
X511703D1*
X519197D2*
X534197D1*
X477197Y118902D2*
X492464D1*
X499679D2*
X511755D1*
X519191D2*
X534197D1*
X477197Y117402D2*
X492844D1*
X499508D2*
X511958D1*
X519121D2*
X534197D1*
X477197Y115902D2*
X494041D1*
X499099D2*
X512432D1*
X518945D2*
X534197D1*
X477203Y114402D2*
X495892D1*
X497346D2*
X513284D1*
X518018D2*
X534197D1*
X477255Y112902D2*
X514594D1*
X515787D2*
X534197D1*
X477447Y111402D2*
X534191D1*
X477812Y109902D2*
X534138D1*
X478249Y108402D2*
X533941D1*
X478708Y106902D2*
X533523D1*
X479265Y105402D2*
X532889D1*
X479968Y103902D2*
X532018D1*
X480924Y102402D2*
X530874D1*
X482316Y100902D2*
X529441D1*
X484242Y99402D2*
X527557D1*
X486620Y97902D2*
X525064D1*
X489197Y96402D2*
X522197D1*
X-470568Y443906D2*
D14*
X-462694D1*
X-439072D2*
X-431198D1*
X-395765D2*
X-394453D1*
X-376080D2*
X-369518D1*
X-571618Y442593D2*
X-554558D1*
X-536185D2*
X-516500D1*
X-503377D2*
X-487629D1*
X-472486D2*
X-460530D1*
X-440985D2*
X-429330D1*
X-396422D2*
X-394453D1*
X-377993D2*
X-367600D1*
X-571618Y441281D2*
X-552039D1*
X-536185D2*
X-516500D1*
X-503579D2*
X-487629D1*
X-474170D2*
X-458781D1*
X-442628D2*
X-427814D1*
X-397189D2*
X-394453D1*
X-379636D2*
X-365916D1*
X-571618Y439969D2*
X-550024D1*
X-536185D2*
X-516500D1*
X-503905D2*
X-487629D1*
X-475622D2*
X-470260D1*
X-462957D2*
X-457420D1*
X-443959D2*
X-438764D1*
X-431664D2*
X-426677D1*
X-397991D2*
X-394453D1*
X-380967D2*
X-375772D1*
X-369781D2*
X-364459D1*
X-571618Y438656D2*
X-567681D1*
X-554821D2*
X-548549D1*
X-536185D2*
X-533560D1*
X-504245D2*
X-500752D1*
X-476806D2*
X-472167D1*
X-460929D2*
X-456343D1*
X-444990D2*
X-440671D1*
X-429961D2*
X-425835D1*
X-398836D2*
X-394453D1*
X-382003D2*
X-377679D1*
X-367748D2*
X-363235D1*
X-571618Y437344D2*
X-567681D1*
X-552792D2*
X-547435D1*
X-536185D2*
X-533560D1*
X-504474D2*
X-501201D1*
X-477666D2*
X-473553D1*
X-459395D2*
X-455588D1*
X-445782D2*
X-442057D1*
X-428767D2*
X-425250D1*
X-399718D2*
X-394453D1*
X-382841D2*
X-379065D1*
X-366168D2*
X-362254D1*
X-571618Y436031D2*
X-567681D1*
X-551259D2*
X-547047D1*
X-536185D2*
X-533560D1*
X-504602D2*
X-501591D1*
X-478290D2*
X-474524D1*
X-458230D2*
X-455114D1*
X-446346D2*
X-443022D1*
X-427873D2*
X-424916D1*
X-400576D2*
X-394453D1*
X-383572D2*
X-380040D1*
X-365008D2*
X-361483D1*
X-571618Y434719D2*
X-567681D1*
X-550094D2*
X-546838D1*
X-536185D2*
X-533560D1*
X-504703D2*
X-501845D1*
X-478835D2*
X-475170D1*
X-457824D2*
X-454706D1*
X-446666D2*
X-443755D1*
X-427563D2*
X-424753D1*
X-401445D2*
X-394453D1*
X-384212D2*
X-380729D1*
X-364159D2*
X-360923D1*
X-571618Y433407D2*
X-567681D1*
X-549693D2*
X-546744D1*
X-536185D2*
X-533560D1*
X-504894D2*
X-502024D1*
X-479323D2*
X-475552D1*
X-457606D2*
X-454166D1*
X-446780D2*
X-443839D1*
X-427444D2*
X-424687D1*
X-402337D2*
X-394453D1*
X-384709D2*
X-381255D1*
X-363571D2*
X-360554D1*
X-571618Y432094D2*
X-567681D1*
X-549526D2*
X-546706D1*
X-536185D2*
X-533560D1*
X-505217D2*
X-502284D1*
X-479755D2*
X-475818D1*
X-457513D2*
X-453508D1*
X-446678D2*
X-443615D1*
X-427471D2*
X-424709D1*
X-403199D2*
X-394453D1*
X-385008D2*
X-381741D1*
X-363231D2*
X-360227D1*
X-607051Y430782D2*
X-604427D1*
X-596552D2*
X-588678D1*
X-571618D2*
X-567681D1*
X-549527D2*
X-546697D1*
X-536185D2*
X-533560D1*
X-505557D2*
X-502758D1*
X-457519D2*
X-454119D1*
X-446341D2*
X-443190D1*
X-428084D2*
X-424917D1*
X-404069D2*
X-401267D1*
X-398390D2*
X-394453D1*
X-385158D2*
X-382152D1*
X-363022D2*
X-359844D1*
X-607051Y429470D2*
X-604185D1*
X-599418D2*
X-586810D1*
X-571618D2*
X-567681D1*
X-550026D2*
X-546743D1*
X-536185D2*
X-533560D1*
X-505792D2*
X-503377D1*
X-457677D2*
X-454542D1*
X-445796D2*
X-442207D1*
X-428954D2*
X-425446D1*
X-404961D2*
X-401766D1*
X-398390D2*
X-394453D1*
X-385224D2*
X-382410D1*
X-362783D2*
X-359479D1*
X-607051Y428157D2*
X-603725D1*
X-602504D2*
X-585294D1*
X-571618D2*
X-567681D1*
X-551264D2*
X-546960D1*
X-536185D2*
X-533560D1*
X-505964D2*
X-497981D1*
X-458037D2*
X-454905D1*
X-445038D2*
X-439417D1*
X-431261D2*
X-426314D1*
X-405823D2*
X-402472D1*
X-398390D2*
X-394453D1*
X-385251D2*
X-382543D1*
X-362440D2*
X-359240D1*
X-607051Y426845D2*
X-597602D1*
X-588728D2*
X-584157D1*
X-571618D2*
X-567681D1*
X-555085D2*
X-547368D1*
X-536185D2*
X-533560D1*
X-506222D2*
X-494022D1*
X-458590D2*
X-455355D1*
X-444050D2*
X-435126D1*
X-434769D2*
X-427411D1*
X-406694D2*
X-403251D1*
X-398390D2*
X-394453D1*
X-385261D2*
X-382603D1*
X-362093D2*
X-359114D1*
X-607051Y425533D2*
X-599635D1*
X-587589D2*
X-583315D1*
X-571618D2*
X-567681D1*
X-561270D2*
X-548445D1*
X-536185D2*
X-516500D1*
X-506695D2*
X-491362D1*
X-459346D2*
X-455939D1*
X-442904D2*
X-428628D1*
X-407586D2*
X-404089D1*
X-398390D2*
X-394453D1*
X-385264D2*
X-382627D1*
X-361861D2*
X-359057D1*
X-607051Y424220D2*
X-601215D1*
X-586643D2*
X-582730D1*
X-571618D2*
X-550036D1*
X-536185D2*
X-516500D1*
X-507314D2*
X-503377D1*
X-494498D2*
X-489586D1*
X-460291D2*
X-456668D1*
X-441697D2*
X-429886D1*
X-408448D2*
X-404968D1*
X-398390D2*
X-394453D1*
X-385266D2*
X-382637D1*
X-361737D2*
X-359034D1*
X-607051Y422908D2*
X-602375D1*
X-585886D2*
X-582396D1*
X-571618D2*
X-552346D1*
X-536185D2*
X-516500D1*
X-492592D2*
X-488376D1*
X-461277D2*
X-457496D1*
X-443408D2*
X-427973D1*
X-409319D2*
X-405826D1*
X-398390D2*
X-394453D1*
X-385266D2*
X-382640D1*
X-361681D2*
X-359025D1*
X-607051Y421596D2*
X-603224D1*
X-585335D2*
X-582233D1*
X-571618D2*
X-555076D1*
X-536185D2*
X-533560D1*
X-491206D2*
X-487517D1*
X-462206D2*
X-458337D1*
X-444937D2*
X-438814D1*
X-431461D2*
X-426330D1*
X-410211D2*
X-406695D1*
X-398390D2*
X-394453D1*
X-385266D2*
X-382641D1*
X-361663D2*
X-359021D1*
X-607051Y420283D2*
X-603812D1*
X-585014D2*
X-582162D1*
X-571618D2*
X-567681D1*
X-563486D2*
X-557595D1*
X-536185D2*
X-533560D1*
X-490235D2*
X-486924D1*
X-463154D2*
X-459244D1*
X-446133D2*
X-440889D1*
X-429428D2*
X-424999D1*
X-411073D2*
X-407586D1*
X-398390D2*
X-394453D1*
X-385266D2*
X-382642D1*
X-361701D2*
X-359020D1*
X-607051Y418971D2*
X-604147D1*
X-584855D2*
X-582133D1*
X-571618D2*
X-567681D1*
X-562946D2*
X-559807D1*
X-536185D2*
X-533560D1*
X-489592D2*
X-486540D1*
X-464226D2*
X-460300D1*
X-447019D2*
X-442590D1*
X-427848D2*
X-423968D1*
X-411943D2*
X-408453D1*
X-398390D2*
X-394453D1*
X-385266D2*
X-382642D1*
X-361865D2*
X-359025D1*
X-607051Y417659D2*
X-604310D1*
X-584786D2*
X-582123D1*
X-571618D2*
X-567681D1*
X-562120D2*
X-558500D1*
X-536185D2*
X-533560D1*
X-489234D2*
X-486174D1*
X-465413D2*
X-461480D1*
X-447627D2*
X-443897D1*
X-426688D2*
X-423176D1*
X-412835D2*
X-409366D1*
X-398390D2*
X-394453D1*
X-385266D2*
X-382637D1*
X-362178D2*
X-359071D1*
X-607051Y416346D2*
X-604381D1*
X-584758D2*
X-582119D1*
X-571618D2*
X-567681D1*
X-561188D2*
X-557234D1*
X-536185D2*
X-533560D1*
X-489062D2*
X-485652D1*
X-466669D2*
X-462733D1*
X-447972D2*
X-444914D1*
X-425839D2*
X-422612D1*
X-413697D2*
X-410405D1*
X-398390D2*
X-394453D1*
X-385266D2*
X-382590D1*
X-362514D2*
X-359238D1*
X-607051Y415034D2*
X-604410D1*
X-584747D2*
X-582117D1*
X-571618D2*
X-567681D1*
X-560282D2*
X-556089D1*
X-536185D2*
X-533560D1*
X-488993D2*
X-485004D1*
X-467958D2*
X-464021D1*
X-448140D2*
X-445285D1*
X-425256D2*
X-422286D1*
X-414564D2*
X-411513D1*
X-398390D2*
X-394453D1*
X-385261D2*
X-382423D1*
X-362748D2*
X-359553D1*
X-607051Y413722D2*
X-604421D1*
X-584743D2*
X-582117D1*
X-571618D2*
X-567681D1*
X-559343D2*
X-555091D1*
X-536185D2*
X-533560D1*
X-489009D2*
X-485610D1*
X-469256D2*
X-465324D1*
X-448213D2*
X-445480D1*
X-424967D2*
X-422131D1*
X-415420D2*
X-390516D1*
X-385215D2*
X-382104D1*
X-362916D2*
X-359894D1*
X-607051Y412409D2*
X-604425D1*
X-584742D2*
X-582117D1*
X-571618D2*
X-567681D1*
X-558278D2*
X-554120D1*
X-536185D2*
X-533560D1*
X-489171D2*
X-485992D1*
X-470519D2*
X-466628D1*
X-448237D2*
X-445524D1*
X-424976D2*
X-422108D1*
X-416145D2*
X-390516D1*
X-385043D2*
X-381721D1*
X-363144D2*
X-360169D1*
X-607051Y411097D2*
X-604426D1*
X-584742D2*
X-582117D1*
X-571618D2*
X-567681D1*
X-557139D2*
X-553083D1*
X-536185D2*
X-533560D1*
X-511251D2*
X-508626D1*
X-489532D2*
X-486229D1*
X-471663D2*
X-467893D1*
X-448201D2*
X-445389D1*
X-425271D2*
X-422252D1*
X-416762D2*
X-390516D1*
X-384682D2*
X-381320D1*
X-363532D2*
X-360463D1*
X-607051Y409785D2*
X-604426D1*
X-584742D2*
X-582117D1*
X-571618D2*
X-567681D1*
X-556051D2*
X-552059D1*
X-536185D2*
X-533560D1*
X-510752D2*
X-507762D1*
X-490091D2*
X-486486D1*
X-472660D2*
X-469038D1*
X-448033D2*
X-445032D1*
X-425802D2*
X-422602D1*
X-398390D2*
X-394453D1*
X-384173D2*
X-380828D1*
X-364101D2*
X-360884D1*
X-607051Y408472D2*
X-604426D1*
X-584741D2*
X-582117D1*
X-571618D2*
X-567681D1*
X-555077D2*
X-551117D1*
X-536185D2*
X-533560D1*
X-510188D2*
X-506815D1*
X-490929D2*
X-486885D1*
X-473636D2*
X-470035D1*
X-447669D2*
X-444400D1*
X-426635D2*
X-423107D1*
X-398390D2*
X-394453D1*
X-383579D2*
X-380145D1*
X-364938D2*
X-361462D1*
X-607051Y407160D2*
X-604426D1*
X-584741D2*
X-582117D1*
X-571618D2*
X-567681D1*
X-554115D2*
X-550169D1*
X-536185D2*
X-533560D1*
X-509574D2*
X-505501D1*
X-492056D2*
X-487458D1*
X-474719D2*
X-471008D1*
X-447114D2*
X-443508D1*
X-427773D2*
X-423705D1*
X-398390D2*
X-394453D1*
X-382902D2*
X-379253D1*
X-366051D2*
X-362233D1*
X-607051Y405848D2*
X-604427D1*
X-584741D2*
X-582117D1*
X-571618D2*
X-567681D1*
X-553085D2*
X-549144D1*
X-536185D2*
X-533560D1*
X-508885D2*
X-503304D1*
X-495001D2*
X-488276D1*
X-475910D2*
X-472071D1*
X-446347D2*
X-440484D1*
X-430946D2*
X-424432D1*
X-398390D2*
X-394453D1*
X-382080D2*
X-376682D1*
X-368767D2*
X-363232D1*
X-607051Y404535D2*
X-604427D1*
X-584741D2*
X-582117D1*
X-571618D2*
X-567681D1*
X-552098D2*
X-548160D1*
X-536185D2*
X-533560D1*
X-508015D2*
X-499809D1*
X-499386D2*
X-489487D1*
X-477167D2*
X-453508D1*
X-445307D2*
X-435735D1*
X-435786D2*
X-425468D1*
X-398390D2*
X-394453D1*
X-381016D2*
X-372841D1*
X-372697D2*
X-364437D1*
X-607051Y403223D2*
X-604427D1*
X-584741D2*
X-582117D1*
X-571618D2*
X-567681D1*
X-551293D2*
X-547355D1*
X-536185D2*
X-533560D1*
X-506799D2*
X-491169D1*
X-478455D2*
X-453508D1*
X-443950D2*
X-427009D1*
X-398390D2*
X-394453D1*
X-379651D2*
X-365883D1*
X-607051Y401911D2*
X-604427D1*
X-584741D2*
X-582117D1*
X-571618D2*
X-567681D1*
X-550621D2*
X-546684D1*
X-536185D2*
X-533560D1*
X-505195D2*
X-493249D1*
X-479755D2*
X-453508D1*
X-442261D2*
X-429003D1*
X-398390D2*
X-394453D1*
X-377958D2*
X-367616D1*
X-503377Y400598D2*
X-495503D1*
X-440385D2*
X-431198D1*
X-376080D2*
X-369518D1*
X-477853Y360367D2*
X-469979D1*
X-446357D2*
X-438483D1*
X-414861D2*
X-408299D1*
X-605150Y359055D2*
X-592026D1*
X-568404D2*
X-567092D1*
X-515911D2*
X-492289D1*
X-479771D2*
X-467815D1*
X-448270D2*
X-436615D1*
X-416774D2*
X-406381D1*
X-605150Y357743D2*
X-590113D1*
X-568404D2*
X-566593D1*
X-532971D2*
X-530346D1*
X-515911D2*
X-492289D1*
X-481455D2*
X-466066D1*
X-449913D2*
X-435099D1*
X-418417D2*
X-404697D1*
X-605150Y356430D2*
X-588475D1*
X-568409D2*
X-566029D1*
X-533470D2*
X-530346D1*
X-515911D2*
X-492289D1*
X-482907D2*
X-477545D1*
X-470242D2*
X-464705D1*
X-451244D2*
X-446049D1*
X-438949D2*
X-433962D1*
X-419748D2*
X-414553D1*
X-408562D2*
X-403240D1*
X-605150Y355118D2*
X-602525D1*
X-592339D2*
X-587191D1*
X-568455D2*
X-565420D1*
X-534034D2*
X-530346D1*
X-515911D2*
X-511974D1*
X-484091D2*
X-479452D1*
X-468213D2*
X-463628D1*
X-452275D2*
X-447956D1*
X-437246D2*
X-433120D1*
X-420784D2*
X-416460D1*
X-406529D2*
X-402015D1*
X-605150Y353806D2*
X-602525D1*
X-590479D2*
X-586183D1*
X-568623D2*
X-564782D1*
X-534643D2*
X-530341D1*
X-515911D2*
X-511974D1*
X-484951D2*
X-480838D1*
X-466680D2*
X-462873D1*
X-453067D2*
X-449342D1*
X-436052D2*
X-432535D1*
X-421622D2*
X-417846D1*
X-404949D2*
X-401034D1*
X-605150Y352493D2*
X-602525D1*
X-589048D2*
X-585813D1*
X-568937D2*
X-564135D1*
X-535281D2*
X-530295D1*
X-515911D2*
X-511974D1*
X-485575D2*
X-481808D1*
X-465515D2*
X-462399D1*
X-453630D2*
X-450307D1*
X-435158D2*
X-432201D1*
X-422353D2*
X-418821D1*
X-403789D2*
X-400264D1*
X-605150Y351181D2*
X-602525D1*
X-588556D2*
X-585613D1*
X-569273D2*
X-563481D1*
X-535928D2*
X-530128D1*
X-515911D2*
X-511974D1*
X-486119D2*
X-482455D1*
X-465109D2*
X-461991D1*
X-453951D2*
X-451040D1*
X-434848D2*
X-432037D1*
X-422993D2*
X-419510D1*
X-402940D2*
X-399704D1*
X-605150Y349869D2*
X-602525D1*
X-588341D2*
X-585528D1*
X-569502D2*
X-562827D1*
X-536582D2*
X-529814D1*
X-515911D2*
X-511974D1*
X-486607D2*
X-482837D1*
X-464891D2*
X-461451D1*
X-454065D2*
X-451123D1*
X-434729D2*
X-431971D1*
X-423490D2*
X-420035D1*
X-402352D2*
X-399335D1*
X-605150Y348556D2*
X-602525D1*
X-588315D2*
X-585537D1*
X-569624D2*
X-562170D1*
X-537236D2*
X-529477D1*
X-515911D2*
X-511974D1*
X-487039D2*
X-483102D1*
X-464798D2*
X-460793D1*
X-453963D2*
X-450899D1*
X-434756D2*
X-431994D1*
X-423789D2*
X-420522D1*
X-402012D2*
X-399008D1*
X-605150Y347244D2*
X-602525D1*
X-588809D2*
X-585701D1*
X-569680D2*
X-561515D1*
X-537893D2*
X-529248D1*
X-515911D2*
X-511974D1*
X-464804D2*
X-461404D1*
X-453625D2*
X-450475D1*
X-435369D2*
X-432202D1*
X-423938D2*
X-420933D1*
X-401802D2*
X-398624D1*
X-605150Y345932D2*
X-602525D1*
X-589984D2*
X-586102D1*
X-569708D2*
X-565522D1*
X-562947D2*
X-560858D1*
X-538548D2*
X-535804D1*
X-533229D2*
X-529127D1*
X-515911D2*
X-511974D1*
X-464961D2*
X-461827D1*
X-453081D2*
X-449492D1*
X-436239D2*
X-432731D1*
X-424005D2*
X-421191D1*
X-401564D2*
X-398260D1*
X-605150Y344619D2*
X-602525D1*
X-593118D2*
X-586774D1*
X-569763D2*
X-566289D1*
X-562575D2*
X-560203D1*
X-539205D2*
X-536175D1*
X-532462D2*
X-529071D1*
X-515911D2*
X-511974D1*
X-465322D2*
X-462190D1*
X-452323D2*
X-446702D1*
X-438546D2*
X-433599D1*
X-424031D2*
X-421324D1*
X-401221D2*
X-398020D1*
X-605150Y343307D2*
X-602525D1*
X-597938D2*
X-587654D1*
X-569933D2*
X-566729D1*
X-562063D2*
X-559545D1*
X-539865D2*
X-536687D1*
X-532022D2*
X-529043D1*
X-515911D2*
X-511974D1*
X-465875D2*
X-462640D1*
X-451335D2*
X-442410D1*
X-442054D2*
X-434696D1*
X-424042D2*
X-421384D1*
X-400874D2*
X-397895D1*
X-605150Y341995D2*
X-588563D1*
X-570249D2*
X-566947D1*
X-561473D2*
X-558890D1*
X-540564D2*
X-537278D1*
X-531809D2*
X-528988D1*
X-515911D2*
X-492289D1*
X-466631D2*
X-463224D1*
X-450189D2*
X-435913D1*
X-424045D2*
X-421408D1*
X-400641D2*
X-397838D1*
X-605150Y340682D2*
X-589402D1*
X-570586D2*
X-567085D1*
X-560842D2*
X-558233D1*
X-541345D2*
X-537908D1*
X-531717D2*
X-528817D1*
X-515911D2*
X-492289D1*
X-467575D2*
X-463953D1*
X-448982D2*
X-437171D1*
X-424047D2*
X-421417D1*
X-400518D2*
X-397815D1*
X-605150Y339370D2*
X-587243D1*
X-570815D2*
X-567289D1*
X-560197D2*
X-557578D1*
X-542190D2*
X-538554D1*
X-531675D2*
X-528502D1*
X-515911D2*
X-492289D1*
X-468562D2*
X-464781D1*
X-450693D2*
X-435258D1*
X-424047D2*
X-421421D1*
X-400462D2*
X-397806D1*
X-605150Y338058D2*
X-602525D1*
X-590977D2*
X-585534D1*
X-570936D2*
X-567617D1*
X-559544D2*
X-556921D1*
X-542994D2*
X-539207D1*
X-531615D2*
X-528165D1*
X-515911D2*
X-511974D1*
X-469490D2*
X-465622D1*
X-452222D2*
X-446099D1*
X-438746D2*
X-433615D1*
X-424047D2*
X-421422D1*
X-400444D2*
X-397802D1*
X-605150Y336745D2*
X-602525D1*
X-588948D2*
X-584295D1*
X-570997D2*
X-567959D1*
X-558890D2*
X-556266D1*
X-543732D2*
X-539861D1*
X-531443D2*
X-527936D1*
X-515911D2*
X-511974D1*
X-470438D2*
X-466529D1*
X-453418D2*
X-448174D1*
X-436712D2*
X-432284D1*
X-424047D2*
X-421422D1*
X-400481D2*
X-397801D1*
X-605150Y335433D2*
X-602525D1*
X-587410D2*
X-583365D1*
X-571066D2*
X-568189D1*
X-558233D2*
X-555608D1*
X-544428D2*
X-540518D1*
X-531127D2*
X-527814D1*
X-515911D2*
X-511974D1*
X-471511D2*
X-467585D1*
X-454303D2*
X-449874D1*
X-435133D2*
X-431252D1*
X-424047D2*
X-421423D1*
X-400645D2*
X-397806D1*
X-605150Y334121D2*
X-602525D1*
X-586367D2*
X-582637D1*
X-571242D2*
X-568311D1*
X-557578D2*
X-554953D1*
X-545100D2*
X-541173D1*
X-530790D2*
X-527753D1*
X-515911D2*
X-511974D1*
X-472698D2*
X-468765D1*
X-454912D2*
X-451181D1*
X-433973D2*
X-430461D1*
X-424047D2*
X-421417D1*
X-400959D2*
X-397852D1*
X-605150Y332808D2*
X-602525D1*
X-585628D2*
X-582105D1*
X-571560D2*
X-568372D1*
X-556921D2*
X-554296D1*
X-545763D2*
X-541830D1*
X-530561D2*
X-527684D1*
X-515911D2*
X-511974D1*
X-473953D2*
X-470018D1*
X-455257D2*
X-452199D1*
X-433123D2*
X-429897D1*
X-424047D2*
X-421371D1*
X-401295D2*
X-398019D1*
X-605150Y331496D2*
X-602525D1*
X-584917D2*
X-581793D1*
X-571898D2*
X-568442D1*
X-556266D2*
X-553641D1*
X-546421D2*
X-542485D1*
X-530439D2*
X-527508D1*
X-515911D2*
X-511974D1*
X-475242D2*
X-471306D1*
X-455425D2*
X-452569D1*
X-432541D2*
X-429571D1*
X-424042D2*
X-421204D1*
X-401529D2*
X-398333D1*
X-605150Y330184D2*
X-602525D1*
X-584152D2*
X-581644D1*
X-572127D2*
X-568618D1*
X-555608D2*
X-552984D1*
X-547079D2*
X-543142D1*
X-530378D2*
X-527191D1*
X-515911D2*
X-511974D1*
X-476541D2*
X-472609D1*
X-455497D2*
X-452765D1*
X-432252D2*
X-429416D1*
X-423996D2*
X-420885D1*
X-401696D2*
X-398675D1*
X-605150Y328871D2*
X-602525D1*
X-584813D2*
X-581622D1*
X-572249D2*
X-568935D1*
X-554953D2*
X-552325D1*
X-547738D2*
X-543797D1*
X-530309D2*
X-526853D1*
X-515911D2*
X-511974D1*
X-477803D2*
X-473913D1*
X-455521D2*
X-452809D1*
X-432261D2*
X-429392D1*
X-423824D2*
X-420502D1*
X-401924D2*
X-398950D1*
X-605150Y327559D2*
X-602525D1*
X-585415D2*
X-581767D1*
X-572310D2*
X-569273D1*
X-554296D2*
X-551633D1*
X-548430D2*
X-544455D1*
X-530133D2*
X-526624D1*
X-515911D2*
X-511974D1*
X-478947D2*
X-475178D1*
X-455486D2*
X-452674D1*
X-432556D2*
X-429537D1*
X-423463D2*
X-420101D1*
X-402313D2*
X-399244D1*
X-605150Y326247D2*
X-602525D1*
X-586231D2*
X-582122D1*
X-572379D2*
X-569502D1*
X-553641D2*
X-550868D1*
X-549195D2*
X-545110D1*
X-529815D2*
X-526502D1*
X-515911D2*
X-511974D1*
X-479945D2*
X-476322D1*
X-455318D2*
X-452317D1*
X-433087D2*
X-429886D1*
X-422954D2*
X-419608D1*
X-402882D2*
X-399665D1*
X-605150Y324934D2*
X-602525D1*
X-587362D2*
X-582674D1*
X-572555D2*
X-569629D1*
X-552989D2*
X-545767D1*
X-529478D2*
X-526441D1*
X-515911D2*
X-511974D1*
X-480921D2*
X-477320D1*
X-454953D2*
X-451685D1*
X-433920D2*
X-430391D1*
X-422360D2*
X-418926D1*
X-403719D2*
X-400243D1*
X-605150Y323622D2*
X-602525D1*
X-590975D2*
X-583439D1*
X-572872D2*
X-569731D1*
X-552375D2*
X-546422D1*
X-529248D2*
X-526372D1*
X-515911D2*
X-511974D1*
X-482004D2*
X-478293D1*
X-454399D2*
X-450793D1*
X-435058D2*
X-430990D1*
X-421683D2*
X-418034D1*
X-404832D2*
X-401014D1*
X-605150Y322310D2*
X-602525D1*
X-596716D2*
X-584480D1*
X-573210D2*
X-569922D1*
X-551840D2*
X-547075D1*
X-529127D2*
X-526195D1*
X-515911D2*
X-511974D1*
X-483195D2*
X-479356D1*
X-453632D2*
X-447769D1*
X-438231D2*
X-431717D1*
X-420861D2*
X-415463D1*
X-407548D2*
X-402013D1*
X-605150Y320997D2*
X-585836D1*
X-573440D2*
X-570256D1*
X-551341D2*
X-547696D1*
X-529071D2*
X-525866D1*
X-515911D2*
X-492289D1*
X-484451D2*
X-460793D1*
X-452591D2*
X-443020D1*
X-443070D2*
X-432753D1*
X-419797D2*
X-411621D1*
X-411478D2*
X-403218D1*
X-605150Y319685D2*
X-587525D1*
X-573569D2*
X-570650D1*
X-550737D2*
X-548243D1*
X-529047D2*
X-525475D1*
X-515911D2*
X-492289D1*
X-485740D2*
X-460793D1*
X-451235D2*
X-434294D1*
X-418432D2*
X-404664D1*
X-605150Y318373D2*
X-589402D1*
X-573654D2*
X-571029D1*
X-550031D2*
X-548719D1*
X-529034D2*
X-525097D1*
X-515911D2*
X-492289D1*
X-487039D2*
X-460793D1*
X-449546D2*
X-436288D1*
X-416739D2*
X-406396D1*
X-447669Y317060D2*
X-438483D1*
X-414861D2*
X-408299D1*
X-450479Y-249211D2*
D13*
X-452368Y-250196D1*
X-453883Y-251180D1*
X-455024Y-252164D1*
X-455861Y-253148D1*
X-456481Y-254133D1*
X-456917Y-255117D1*
X-457199Y-256101D1*
X-457446Y-257085D1*
X-457735Y-258070D1*
X-458008Y-259054D1*
X-458188Y-260038D1*
X-458282Y-261022D1*
X-458325Y-262007D1*
X-458343Y-262991D1*
X-458349Y-263975D1*
X-458352Y-264959D1*
X-458349Y-265944D1*
X-458314Y-266928D1*
X-458189Y-267912D1*
X-457953Y-268896D1*
X-457697Y-269881D1*
X-457491Y-270865D1*
X-457270Y-271849D1*
X-456954Y-272833D1*
X-456521Y-273818D1*
X-455935Y-274802D1*
X-455115Y-275786D1*
X-453945Y-276770D1*
X-452341Y-277755D1*
X-450479Y-278739D1*
X-444573Y-249211D2*
X-442836Y-250196D1*
X-441402Y-251180D1*
X-440328Y-252164D1*
X-439475Y-253148D1*
X-438757Y-254133D1*
X-438233Y-255117D1*
X-437911Y-256101D1*
X-437684Y-257085D1*
X-428825Y-249211D2*
X-430223Y-250196D1*
X-431325Y-251180D1*
X-432177Y-252164D1*
X-432480Y-253148D1*
X-432652Y-254133D1*
X-432762Y-255117D1*
X-424888Y-249211D2*
Y-250196D1*
Y-251180D1*
Y-252164D1*
Y-253148D1*
Y-254133D1*
Y-255117D1*
Y-256101D1*
Y-257085D1*
Y-258070D1*
Y-259054D1*
Y-260038D1*
Y-261022D1*
Y-262007D1*
Y-262991D1*
Y-263975D1*
Y-264959D1*
Y-265944D1*
Y-266928D1*
Y-267912D1*
Y-268896D1*
Y-269881D1*
Y-270865D1*
Y-271849D1*
Y-272833D1*
Y-273818D1*
Y-274802D1*
Y-275786D1*
Y-276770D1*
Y-277755D1*
Y-278739D1*
X-447526Y-252164D2*
X-449297Y-253148D1*
X-450823Y-254133D1*
X-452007Y-255117D1*
X-452877Y-256101D1*
X-453514Y-257085D1*
X-453955Y-258070D1*
X-454206Y-259054D1*
X-454329Y-260038D1*
X-454382Y-261022D1*
X-454404Y-262007D1*
X-454412Y-262991D1*
X-454415Y-263975D1*
X-454416Y-264959D1*
Y-265944D1*
X-454412Y-266928D1*
X-454378Y-267912D1*
X-454248Y-268896D1*
X-453974Y-269881D1*
X-453554Y-270865D1*
X-452933Y-271849D1*
X-452110Y-272833D1*
X-450245Y-273818D1*
X-447639Y-274802D1*
X-444573Y-275786D1*
X-447526Y-252164D2*
X-445755Y-253148D1*
X-444233Y-254133D1*
X-443070Y-255117D1*
X-442255Y-256101D1*
X-441621Y-257085D1*
X-427841Y-253148D2*
X-429810Y-254133D1*
X-431778Y-255117D1*
X-427841Y-253148D2*
Y-254133D1*
Y-255117D1*
Y-256101D1*
Y-257085D1*
Y-258070D1*
Y-259054D1*
Y-260038D1*
Y-261022D1*
Y-262007D1*
Y-262991D1*
Y-263975D1*
Y-264959D1*
Y-265944D1*
Y-266928D1*
Y-267912D1*
Y-268896D1*
Y-269881D1*
Y-270865D1*
Y-271849D1*
Y-272833D1*
Y-273818D1*
Y-274802D1*
Y-275786D1*
Y-276770D1*
Y-277755D1*
Y-278739D1*
X-441621Y-270865D2*
X-442204Y-271849D1*
X-442979Y-272833D1*
X-444825Y-273818D1*
X-447420Y-274802D1*
X-450479Y-275786D1*
X-437684Y-270865D2*
X-437873Y-271849D1*
X-438247Y-272833D1*
X-438780Y-273818D1*
X-439407Y-274802D1*
X-440234Y-275786D1*
X-441414Y-276770D1*
X-442921Y-277755D1*
X-444573Y-278739D1*
X-232510Y-216386D2*
X-234400Y-217370D1*
X-235915Y-218354D1*
X-237056Y-219339D1*
X-237893Y-220323D1*
X-238512Y-221307D1*
X-238948Y-222291D1*
X-239231Y-223276D1*
X-239478Y-224260D1*
X-239766Y-225244D1*
X-240040Y-226228D1*
X-240220Y-227213D1*
X-240314Y-228197D1*
X-240356Y-229181D1*
X-240374Y-230165D1*
X-240381Y-231150D1*
X-240383Y-232134D1*
X-240380Y-233118D1*
X-240346Y-234102D1*
X-240221Y-235087D1*
X-239985Y-236071D1*
X-239729Y-237055D1*
X-239522Y-238039D1*
X-239302Y-239024D1*
X-238986Y-240008D1*
X-238552Y-240992D1*
X-237967Y-241976D1*
X-237146Y-242961D1*
X-235976Y-243945D1*
X-234373Y-244929D1*
X-232510Y-245913D1*
X-226605Y-216386D2*
X-224867Y-217370D1*
X-223434Y-218354D1*
X-222360Y-219339D1*
X-221506Y-220323D1*
X-220788Y-221307D1*
X-220264Y-222291D1*
X-219942Y-223276D1*
X-219715Y-224260D1*
X-208888Y-216386D2*
X-210290Y-217370D1*
X-211426Y-218354D1*
X-212279Y-219339D1*
X-212911Y-220323D1*
X-213352Y-221307D1*
X-213621Y-222291D1*
X-213810Y-223276D1*
X-201999Y-216386D2*
X-200716Y-217370D1*
X-199728Y-218354D1*
X-198985Y-219339D1*
X-198383Y-220323D1*
X-197885Y-221307D1*
X-197539Y-222291D1*
X-197348Y-223276D1*
X-197541Y-224260D1*
X-197794Y-225244D1*
X-198079Y-226228D1*
X-198438Y-227213D1*
X-198890Y-228197D1*
X-199443Y-229181D1*
X-200067Y-230165D1*
X-200699Y-231150D1*
X-201376Y-232134D1*
X-202133Y-233118D1*
X-202893Y-234102D1*
X-203597Y-235087D1*
X-204306Y-236071D1*
X-205077Y-237055D1*
X-205842Y-238039D1*
X-206548Y-239024D1*
X-207263Y-240008D1*
X-208068Y-240992D1*
X-208953Y-241976D1*
X-209873Y-242961D1*
X-229558Y-219339D2*
X-231329Y-220323D1*
X-232854Y-221307D1*
X-234039Y-222291D1*
X-234909Y-223276D1*
X-235546Y-224260D1*
X-235986Y-225244D1*
X-236238Y-226228D1*
X-236360Y-227213D1*
X-236414Y-228197D1*
X-236435Y-229181D1*
X-236443Y-230165D1*
X-236446Y-231150D1*
X-236447Y-232134D1*
Y-233118D1*
X-236444Y-234102D1*
X-236409Y-235087D1*
X-236280Y-236071D1*
X-236006Y-237055D1*
X-235586Y-238039D1*
X-234964Y-239024D1*
X-234142Y-240008D1*
X-232277Y-240992D1*
X-229671Y-241976D1*
X-226605Y-242961D1*
X-229558Y-219339D2*
X-227787Y-220323D1*
X-226264Y-221307D1*
X-225101Y-222291D1*
X-224286Y-223276D1*
X-223652Y-224260D1*
X-205936Y-219339D2*
X-207558Y-220323D1*
X-208869Y-221307D1*
X-209910Y-222291D1*
X-210857Y-223276D1*
X-205936Y-219339D2*
X-204202Y-220323D1*
X-202807Y-221307D1*
X-201734Y-222291D1*
X-201312Y-223276D1*
X-201307Y-224260D1*
X-201504Y-225244D1*
X-201854Y-226228D1*
X-202287Y-227213D1*
X-202790Y-228197D1*
X-203397Y-229181D1*
X-204123Y-230165D1*
X-204869Y-231150D1*
X-205568Y-232134D1*
X-206280Y-233118D1*
X-207081Y-234102D1*
X-207937Y-235087D1*
X-208753Y-236071D1*
X-209484Y-237055D1*
X-210205Y-238039D1*
X-210980Y-239024D1*
X-211743Y-240008D1*
X-212411Y-240992D1*
X-212962Y-241976D1*
X-213368Y-242961D1*
X-213608Y-243945D1*
X-213732Y-244929D1*
X-213810Y-245913D1*
X-223652Y-238039D2*
X-224235Y-239024D1*
X-225011Y-240008D1*
X-226856Y-240992D1*
X-229452Y-241976D1*
X-232510Y-242961D1*
X-219715Y-238039D2*
X-219905Y-239024D1*
X-220279Y-240008D1*
X-220812Y-240992D1*
X-221439Y-241976D1*
X-222265Y-242961D1*
X-223446Y-243945D1*
X-224952Y-244929D1*
X-226605Y-245913D1*
X-197077Y-242961D2*
Y-243945D1*
Y-244929D1*
Y-245913D1*
X-411530Y-423050D2*
X-413419Y-424034D1*
X-414934Y-425018D1*
X-416075Y-426003D1*
X-416912Y-426987D1*
X-417532Y-427971D1*
X-417968Y-428955D1*
X-418251Y-429940D1*
X-418497Y-430924D1*
X-418786Y-431908D1*
X-419060Y-432892D1*
X-419239Y-433877D1*
X-419333Y-434861D1*
X-419376Y-435845D1*
X-419394Y-436829D1*
X-419400Y-437814D1*
X-419403Y-438798D1*
X-419400Y-439782D1*
X-419366Y-440766D1*
X-419240Y-441751D1*
X-419005Y-442735D1*
X-418748Y-443719D1*
X-418542Y-444703D1*
X-418322Y-445688D1*
X-418006Y-446672D1*
X-417572Y-447656D1*
X-416987Y-448640D1*
X-416166Y-449625D1*
X-414996Y-450609D1*
X-413392Y-451593D1*
X-411530Y-452577D1*
X-405625Y-423050D2*
X-403887Y-424034D1*
X-402453Y-425018D1*
X-401379Y-426003D1*
X-400526Y-426987D1*
X-399808Y-427971D1*
X-399284Y-428955D1*
X-398962Y-429940D1*
X-398735Y-430924D1*
X-387908Y-423050D2*
X-389309Y-424034D1*
X-390446Y-425018D1*
X-391299Y-426003D1*
X-391931Y-426987D1*
X-392372Y-427971D1*
X-392641Y-428955D1*
X-392829Y-429940D1*
X-382003Y-423050D2*
X-380568Y-424034D1*
X-379339Y-425018D1*
X-378376Y-426003D1*
X-377620Y-426987D1*
X-377343Y-427971D1*
X-377193Y-428955D1*
X-377129Y-429940D1*
X-377136Y-430924D1*
X-377255Y-431908D1*
X-377529Y-432892D1*
X-377981Y-433877D1*
X-378701Y-434861D1*
X-379764Y-435845D1*
X-381018Y-436829D1*
X-379854Y-437814D1*
X-378855Y-438798D1*
X-378068Y-439782D1*
X-377434Y-440766D1*
X-376914Y-441751D1*
X-376525Y-442735D1*
X-376299Y-443719D1*
X-376218Y-444703D1*
X-376297Y-445688D1*
X-376547Y-446672D1*
X-376925Y-447656D1*
X-377406Y-448640D1*
X-378076Y-449625D1*
X-379082Y-450609D1*
X-380455Y-451593D1*
X-382003Y-452577D1*
X-408577Y-426003D2*
X-410349Y-426987D1*
X-411874Y-427971D1*
X-413059Y-428955D1*
X-413928Y-429940D1*
X-414566Y-430924D1*
X-415006Y-431908D1*
X-415257Y-432892D1*
X-415380Y-433877D1*
X-415433Y-434861D1*
X-415455Y-435845D1*
X-415463Y-436829D1*
X-415466Y-437814D1*
X-415467Y-438798D1*
Y-439782D1*
X-415463Y-440766D1*
X-415429Y-441751D1*
X-415299Y-442735D1*
X-415025Y-443719D1*
X-414605Y-444703D1*
X-413984Y-445688D1*
X-413161Y-446672D1*
X-411296Y-447656D1*
X-408690Y-448640D1*
X-405625Y-449625D1*
X-408577Y-426003D2*
X-406806Y-426987D1*
X-405284Y-427971D1*
X-404121Y-428955D1*
X-403306Y-429940D1*
X-402672Y-430924D1*
X-385940Y-426003D2*
X-386924Y-426987D1*
X-387908Y-427971D1*
X-388892Y-428955D1*
X-389877Y-429940D1*
X-384955Y-426003D2*
X-383336Y-426987D1*
X-382059Y-427971D1*
X-381168Y-428955D1*
X-380508Y-429940D1*
X-380336Y-430924D1*
X-380594Y-431908D1*
X-381019Y-432892D1*
X-382125Y-433877D1*
X-383447Y-434861D1*
X-384741Y-435845D1*
X-385382Y-436829D1*
X-385586Y-437814D1*
X-384233Y-438798D1*
X-382790Y-439782D1*
X-381598Y-440766D1*
X-380669Y-441751D1*
X-380340Y-442735D1*
X-380168Y-443719D1*
X-380131Y-444703D1*
X-380194Y-445688D1*
X-380731Y-446672D1*
X-382414Y-447656D1*
X-384913Y-448640D1*
X-387908Y-449625D1*
X-402672Y-444703D2*
X-403255Y-445688D1*
X-404030Y-446672D1*
X-405876Y-447656D1*
X-408471Y-448640D1*
X-411530Y-449625D1*
X-398735Y-444703D2*
X-398925Y-445688D1*
X-399299Y-446672D1*
X-399832Y-447656D1*
X-400459Y-448640D1*
X-401285Y-449625D1*
X-402465Y-450609D1*
X-403972Y-451593D1*
X-405625Y-452577D1*
X-393814Y-445688D2*
X-393436Y-446672D1*
X-392978Y-447656D1*
X-392388Y-448640D1*
X-391602Y-449625D1*
X-390583Y-450609D1*
X-389316Y-451593D1*
X-387908Y-452577D1*
X-389877Y-445688D2*
X-389229Y-446672D1*
X-387517Y-447656D1*
X-385005Y-448640D1*
X-382003Y-449625D1*
X-122176Y-383314D2*
X-124065Y-384298D1*
X-125580Y-385282D1*
X-126721Y-386266D1*
X-127558Y-387251D1*
X-128177Y-388235D1*
X-128614Y-389219D1*
X-128896Y-390203D1*
X-129143Y-391188D1*
X-129432Y-392172D1*
X-129705Y-393156D1*
X-129885Y-394140D1*
X-129979Y-395125D1*
X-130022Y-396109D1*
X-130039Y-397093D1*
X-130046Y-398077D1*
X-130049Y-399062D1*
X-130046Y-400046D1*
X-130011Y-401030D1*
X-129886Y-402014D1*
X-129650Y-402999D1*
X-129394Y-403983D1*
X-129188Y-404967D1*
X-128967Y-405951D1*
X-128651Y-406936D1*
X-128218Y-407920D1*
X-127632Y-408904D1*
X-126812Y-409888D1*
X-125641Y-410873D1*
X-124038Y-411857D1*
X-122176Y-412841D1*
X-116270Y-383314D2*
X-114533Y-384298D1*
X-113099Y-385282D1*
X-112025Y-386266D1*
X-111172Y-387251D1*
X-110454Y-388235D1*
X-109929Y-389219D1*
X-109607Y-390203D1*
X-109381Y-391188D1*
X-93633Y-383314D2*
X-94007Y-384298D1*
X-94429Y-385282D1*
X-94887Y-386266D1*
X-95361Y-387251D1*
X-95815Y-388235D1*
X-96212Y-389219D1*
X-96561Y-390203D1*
X-96942Y-391188D1*
X-97373Y-392172D1*
X-97835Y-393156D1*
X-98316Y-394140D1*
X-98802Y-395125D1*
X-99293Y-396109D1*
X-99784Y-397093D1*
X-100277Y-398077D1*
X-100768Y-399062D1*
X-101261Y-400046D1*
X-101752Y-401030D1*
X-102241Y-402014D1*
X-102698Y-402999D1*
X-103062Y-403983D1*
X-103283Y-404967D1*
X-103394Y-405951D1*
X-103445Y-406936D1*
X-103475Y-407920D1*
X-89696Y-383314D2*
X-90069Y-384298D1*
X-90492Y-385282D1*
X-90950Y-386266D1*
X-91428Y-387251D1*
X-91913Y-388235D1*
X-92404Y-389219D1*
X-92894Y-390203D1*
X-93387Y-391188D1*
X-93878Y-392172D1*
X-94371Y-393156D1*
X-94862Y-394140D1*
X-95352Y-395125D1*
X-95812Y-396109D1*
X-96210Y-397093D1*
X-96561Y-398077D1*
X-96942Y-399062D1*
X-97373Y-400046D1*
X-97838Y-401030D1*
X-98344Y-402014D1*
X-98914Y-402999D1*
X-99538Y-403983D1*
X-91664Y-404967D1*
X-119223Y-386266D2*
X-120994Y-387251D1*
X-122520Y-388235D1*
X-123704Y-389219D1*
X-124574Y-390203D1*
X-125211Y-391188D1*
X-125652Y-392172D1*
X-125903Y-393156D1*
X-126026Y-394140D1*
X-126079Y-395125D1*
X-126100Y-396109D1*
X-126108Y-397093D1*
X-126111Y-398077D1*
X-126112Y-399062D1*
X-126113Y-400046D1*
X-126109Y-401030D1*
X-126074Y-402014D1*
X-125945Y-402999D1*
X-125671Y-403983D1*
X-125251Y-404967D1*
X-124630Y-405951D1*
X-123807Y-406936D1*
X-121942Y-407920D1*
X-119336Y-408904D1*
X-116270Y-409888D1*
X-119223Y-386266D2*
X-117452Y-387251D1*
X-115929Y-388235D1*
X-114767Y-389219D1*
X-113951Y-390203D1*
X-113318Y-391188D1*
X-89696Y-395125D2*
Y-396109D1*
Y-397093D1*
Y-398077D1*
Y-399062D1*
Y-400046D1*
Y-401030D1*
Y-402014D1*
Y-402999D1*
Y-403983D1*
X-98554Y-404967D1*
X-86743Y-395125D2*
Y-396109D1*
Y-397093D1*
Y-398077D1*
Y-399062D1*
Y-400046D1*
Y-401030D1*
Y-402014D1*
Y-402999D1*
Y-403983D1*
Y-404967D1*
X-84774D1*
Y-405951D1*
Y-406936D1*
Y-407920D1*
Y-408904D1*
X-86743D1*
Y-409888D1*
Y-410873D1*
Y-411857D1*
Y-412841D1*
X-113318Y-404967D2*
X-113900Y-405951D1*
X-114676Y-406936D1*
X-116522Y-407920D1*
X-119117Y-408904D1*
X-122176Y-409888D1*
X-109381Y-404967D2*
X-109570Y-405951D1*
X-109944Y-406936D1*
X-110477Y-407920D1*
X-111104Y-408904D1*
X-111931Y-409888D1*
X-113111Y-410873D1*
X-114618Y-411857D1*
X-116270Y-412841D1*
X-89696Y-407920D2*
Y-408904D1*
Y-409888D1*
Y-410873D1*
Y-411857D1*
Y-412841D1*
X-30941Y-163809D2*
Y-164794D1*
Y-165778D1*
Y-166762D1*
Y-167746D1*
Y-168731D1*
Y-169715D1*
Y-170699D1*
Y-171683D1*
Y-172668D1*
Y-173652D1*
Y-174636D1*
Y-175620D1*
Y-176605D1*
Y-177589D1*
Y-178573D1*
Y-179557D1*
Y-180542D1*
Y-181526D1*
Y-182510D1*
Y-183494D1*
Y-184479D1*
Y-185463D1*
Y-186447D1*
Y-187431D1*
Y-188416D1*
Y-189400D1*
Y-190384D1*
Y-191368D1*
Y-192353D1*
Y-193337D1*
X-27004Y-163809D2*
Y-164794D1*
Y-165778D1*
Y-166762D1*
Y-167746D1*
Y-168731D1*
Y-169715D1*
Y-170699D1*
Y-171683D1*
Y-172668D1*
Y-173652D1*
Y-174636D1*
Y-175620D1*
Y-176605D1*
Y-177589D1*
Y-178573D1*
Y-179557D1*
Y-180542D1*
Y-181526D1*
Y-182510D1*
Y-183494D1*
Y-184479D1*
Y-185463D1*
Y-186447D1*
Y-187431D1*
Y-188416D1*
Y-189400D1*
Y-190384D1*
X-6335Y-163809D2*
Y-164794D1*
Y-165778D1*
Y-166762D1*
Y-167746D1*
Y-168731D1*
Y-169715D1*
Y-170699D1*
Y-171683D1*
Y-172668D1*
Y-173652D1*
Y-174636D1*
Y-175620D1*
Y-176605D1*
Y-177589D1*
Y-178573D1*
Y-179557D1*
Y-180542D1*
Y-181526D1*
Y-182510D1*
Y-183494D1*
Y-184479D1*
Y-185463D1*
Y-186447D1*
Y-187431D1*
Y-188416D1*
Y-189400D1*
Y-190384D1*
Y-191368D1*
Y-192353D1*
Y-193337D1*
X12366Y-163809D2*
Y-164794D1*
Y-165778D1*
Y-166762D1*
X19256Y-163809D2*
Y-164794D1*
Y-165778D1*
Y-166762D1*
Y-167746D1*
Y-168731D1*
Y-169715D1*
Y-170699D1*
Y-171683D1*
Y-172668D1*
Y-173652D1*
Y-174636D1*
Y-175620D1*
Y-176605D1*
Y-177589D1*
Y-178573D1*
Y-179557D1*
Y-180542D1*
Y-181526D1*
Y-182510D1*
Y-183494D1*
Y-184479D1*
Y-185463D1*
Y-186447D1*
Y-187431D1*
Y-188416D1*
Y-189400D1*
Y-190384D1*
Y-191368D1*
Y-192353D1*
Y-193337D1*
X33035Y-163809D2*
X34773Y-164794D1*
X36203Y-165778D1*
X37246Y-166762D1*
X38009Y-167746D1*
X38616Y-168731D1*
X39121Y-169715D1*
X39502Y-170699D1*
X39729Y-171683D1*
X39843Y-172668D1*
X39893Y-173652D1*
X39913Y-174636D1*
X39921Y-175620D1*
X39924Y-176605D1*
X39925Y-177589D1*
Y-178573D1*
Y-179557D1*
Y-180542D1*
Y-181526D1*
Y-182510D1*
X39921Y-183494D1*
X39887Y-184479D1*
X39757Y-185463D1*
X39487Y-186447D1*
X39106Y-187431D1*
X38656Y-188416D1*
X38110Y-189400D1*
X37333Y-190384D1*
X36177Y-191368D1*
X34682Y-192353D1*
X33035Y-193337D1*
X-2398Y-166762D2*
Y-167746D1*
Y-168731D1*
Y-169715D1*
Y-170699D1*
Y-171683D1*
Y-172668D1*
Y-173652D1*
Y-174636D1*
Y-175620D1*
Y-176605D1*
Y-177589D1*
X23193Y-166762D2*
Y-167746D1*
Y-168731D1*
Y-169715D1*
Y-170699D1*
Y-171683D1*
Y-172668D1*
Y-173652D1*
Y-174636D1*
Y-175620D1*
Y-176605D1*
Y-177589D1*
Y-178573D1*
Y-179557D1*
Y-180542D1*
Y-181526D1*
Y-182510D1*
Y-183494D1*
Y-184479D1*
Y-185463D1*
Y-186447D1*
Y-187431D1*
Y-188416D1*
Y-189400D1*
X31067Y-190384D1*
X30083Y-166762D2*
X31854Y-167746D1*
X33375Y-168731D1*
X34525Y-169715D1*
X35399Y-170699D1*
X35704Y-171683D1*
X35867Y-172668D1*
X35941Y-173652D1*
X35971Y-174636D1*
X35982Y-175620D1*
X35986Y-176605D1*
X35988Y-177589D1*
Y-178573D1*
Y-179557D1*
Y-180542D1*
Y-181526D1*
Y-182510D1*
X35984Y-183494D1*
X35946Y-184479D1*
X35778Y-185463D1*
X35460Y-186447D1*
X34540Y-187431D1*
X31844Y-188416D1*
X27546Y-189400D1*
X22209Y-190384D1*
X10398Y-177589D2*
Y-178573D1*
Y-179557D1*
Y-180542D1*
X-2398D2*
Y-181526D1*
Y-182510D1*
Y-183494D1*
Y-184479D1*
Y-185463D1*
Y-186447D1*
Y-187431D1*
Y-188416D1*
Y-189400D1*
Y-190384D1*
X-12240D2*
Y-191368D1*
Y-192353D1*
Y-193337D1*
X12366Y-190384D2*
Y-191368D1*
Y-192353D1*
Y-193337D1*
X-458627Y-141324D2*
Y-142308D1*
Y-143293D1*
Y-144277D1*
Y-145261D1*
Y-146245D1*
Y-147230D1*
Y-148214D1*
Y-149198D1*
Y-150182D1*
Y-151167D1*
Y-152151D1*
Y-153135D1*
Y-154119D1*
Y-155104D1*
Y-156088D1*
Y-157072D1*
Y-158056D1*
Y-159041D1*
Y-160025D1*
Y-161009D1*
Y-161993D1*
Y-162978D1*
Y-163962D1*
Y-164946D1*
Y-165930D1*
Y-166915D1*
Y-167899D1*
Y-168883D1*
Y-169867D1*
Y-170852D1*
X-443864Y-141324D2*
X-442429Y-142308D1*
X-441200Y-143293D1*
X-440233Y-144277D1*
X-439550Y-145261D1*
X-439067Y-146245D1*
X-438661Y-147230D1*
X-438339Y-148214D1*
X-438174Y-149198D1*
X-438197Y-150182D1*
X-438391Y-151167D1*
X-438663Y-152151D1*
X-438992Y-153135D1*
X-439484Y-154119D1*
X-440207Y-155104D1*
X-441131Y-156088D1*
X-442090Y-157072D1*
X-442932Y-158056D1*
X-443136Y-159041D1*
X-442864Y-160025D1*
X-442411Y-161009D1*
X-441835Y-161993D1*
X-441255Y-162978D1*
X-440710Y-163962D1*
X-440191Y-164946D1*
X-439688Y-165930D1*
X-439191Y-166915D1*
X-438694Y-167899D1*
X-438175Y-168883D1*
X-437601Y-169867D1*
X-436974Y-170852D1*
X-428115Y-141324D2*
X-429513Y-142308D1*
X-430615Y-143293D1*
X-431467Y-144277D1*
X-431771Y-145261D1*
X-431942Y-146245D1*
X-432052Y-147230D1*
X-424178Y-141324D2*
Y-142308D1*
Y-143293D1*
Y-144277D1*
Y-145261D1*
Y-146245D1*
Y-147230D1*
Y-148214D1*
Y-149198D1*
Y-150182D1*
Y-151167D1*
Y-152151D1*
Y-153135D1*
Y-154119D1*
Y-155104D1*
Y-156088D1*
Y-157072D1*
Y-158056D1*
Y-159041D1*
Y-160025D1*
Y-161009D1*
Y-161993D1*
Y-162978D1*
Y-163962D1*
Y-164946D1*
Y-165930D1*
Y-166915D1*
Y-167899D1*
Y-168883D1*
Y-169867D1*
Y-170852D1*
X-454690Y-144277D2*
Y-145261D1*
Y-146245D1*
Y-147230D1*
Y-148214D1*
Y-149198D1*
Y-150182D1*
Y-151167D1*
Y-152151D1*
Y-153135D1*
Y-154119D1*
X-445832Y-155104D1*
X-446816Y-144277D2*
X-445197Y-145261D1*
X-443920Y-146245D1*
X-443025Y-147230D1*
X-442354Y-148214D1*
X-442155Y-149198D1*
X-442081Y-150182D1*
X-442328Y-151167D1*
X-442987Y-152151D1*
X-445580Y-153135D1*
X-450027Y-154119D1*
X-455675Y-155104D1*
X-427131Y-145261D2*
X-429100Y-146245D1*
X-431068Y-147230D1*
X-427131Y-145261D2*
Y-146245D1*
Y-147230D1*
Y-148214D1*
Y-149198D1*
Y-150182D1*
Y-151167D1*
Y-152151D1*
Y-153135D1*
Y-154119D1*
Y-155104D1*
Y-156088D1*
Y-157072D1*
Y-158056D1*
Y-159041D1*
Y-160025D1*
Y-161009D1*
Y-161993D1*
Y-162978D1*
Y-163962D1*
Y-164946D1*
Y-165930D1*
Y-166915D1*
Y-167899D1*
Y-168883D1*
Y-169867D1*
Y-170852D1*
X-454690Y-158056D2*
Y-159041D1*
Y-160025D1*
Y-161009D1*
Y-161993D1*
Y-162978D1*
Y-163962D1*
Y-164946D1*
Y-165930D1*
Y-166915D1*
Y-167899D1*
Y-168883D1*
Y-169867D1*
Y-170852D1*
X-448785Y-158056D2*
X-447956Y-159041D1*
X-447251Y-160025D1*
X-446651Y-161009D1*
X-446109Y-161993D1*
X-445598Y-162978D1*
X-445098Y-163962D1*
X-444604Y-164946D1*
X-444110Y-165930D1*
X-443618Y-166915D1*
X-443128Y-167899D1*
X-442662Y-168883D1*
X-442252Y-169867D1*
X-441895Y-170852D1*
X408165Y-144070D2*
Y-145054D1*
Y-146038D1*
Y-147022D1*
Y-148007D1*
Y-148991D1*
Y-149975D1*
Y-150959D1*
Y-151944D1*
Y-152928D1*
Y-153912D1*
Y-154896D1*
Y-155881D1*
Y-156865D1*
Y-157849D1*
Y-158833D1*
Y-159818D1*
Y-160802D1*
Y-161786D1*
Y-162770D1*
Y-163755D1*
Y-164739D1*
Y-165723D1*
Y-166707D1*
Y-167692D1*
Y-168676D1*
Y-169660D1*
Y-170644D1*
Y-171629D1*
Y-172613D1*
Y-173597D1*
X422929Y-144070D2*
X424364Y-145054D1*
X425592Y-146038D1*
X426560Y-147022D1*
X427242Y-148007D1*
X427726Y-148991D1*
X428132Y-149975D1*
X428453Y-150959D1*
X428619Y-151944D1*
X428596Y-152928D1*
X428402Y-153912D1*
X428129Y-154896D1*
X427801Y-155881D1*
X427309Y-156865D1*
X426585Y-157849D1*
X425661Y-158833D1*
X424703Y-159818D1*
X423861Y-160802D1*
X423657Y-161786D1*
X423928Y-162770D1*
X424382Y-163755D1*
X424958Y-164739D1*
X425538Y-165723D1*
X426083Y-166707D1*
X426602Y-167692D1*
X427105Y-168676D1*
X427602Y-169660D1*
X428098Y-170644D1*
X428617Y-171629D1*
X429192Y-172613D1*
X429819Y-173597D1*
X440646Y-144070D2*
X439245Y-145054D1*
X438108Y-146038D1*
X437255Y-147022D1*
X436623Y-148007D1*
X436182Y-148991D1*
X435913Y-149975D1*
X435724Y-150959D1*
X447535Y-144070D2*
X448818Y-145054D1*
X449806Y-146038D1*
X450550Y-147022D1*
X451151Y-148007D1*
X451649Y-148991D1*
X451995Y-149975D1*
X452186Y-150959D1*
X451993Y-151944D1*
X451740Y-152928D1*
X451455Y-153912D1*
X451096Y-154896D1*
X450644Y-155881D1*
X450091Y-156865D1*
X449467Y-157849D1*
X448835Y-158833D1*
X448158Y-159818D1*
X447401Y-160802D1*
X446641Y-161786D1*
X445937Y-162770D1*
X445228Y-163755D1*
X444457Y-164739D1*
X443692Y-165723D1*
X442986Y-166707D1*
X442271Y-167692D1*
X441466Y-168676D1*
X440581Y-169660D1*
X439661Y-170644D1*
X412102Y-147022D2*
Y-148007D1*
Y-148991D1*
Y-149975D1*
Y-150959D1*
Y-151944D1*
Y-152928D1*
Y-153912D1*
Y-154896D1*
Y-155881D1*
Y-156865D1*
X420961Y-157849D1*
X419976Y-147022D2*
X421595Y-148007D1*
X422873Y-148991D1*
X423768Y-149975D1*
X424439Y-150959D1*
X424637Y-151944D1*
X424711Y-152928D1*
X424465Y-153912D1*
X423805Y-154896D1*
X421213Y-155881D1*
X416765Y-156865D1*
X411118Y-157849D1*
X443598Y-147022D2*
X441976Y-148007D1*
X440665Y-148991D1*
X439624Y-149975D1*
X438677Y-150959D1*
X443598Y-147022D2*
X445332Y-148007D1*
X446727Y-148991D1*
X447800Y-149975D1*
X448222Y-150959D1*
X448227Y-151944D1*
X448030Y-152928D1*
X447680Y-153912D1*
X447247Y-154896D1*
X446744Y-155881D1*
X446137Y-156865D1*
X445411Y-157849D1*
X444665Y-158833D1*
X443966Y-159818D1*
X443254Y-160802D1*
X442453Y-161786D1*
X441598Y-162770D1*
X440781Y-163755D1*
X440051Y-164739D1*
X439329Y-165723D1*
X438554Y-166707D1*
X437791Y-167692D1*
X437123Y-168676D1*
X436572Y-169660D1*
X436166Y-170644D1*
X435926Y-171629D1*
X435802Y-172613D1*
X435724Y-173597D1*
X412102Y-160802D2*
Y-161786D1*
Y-162770D1*
Y-163755D1*
Y-164739D1*
Y-165723D1*
Y-166707D1*
Y-167692D1*
Y-168676D1*
Y-169660D1*
Y-170644D1*
Y-171629D1*
Y-172613D1*
Y-173597D1*
X418008Y-160802D2*
X418836Y-161786D1*
X419542Y-162770D1*
X420142Y-163755D1*
X420683Y-164739D1*
X421195Y-165723D1*
X421695Y-166707D1*
X422189Y-167692D1*
X422683Y-168676D1*
X423175Y-169660D1*
X423665Y-170644D1*
X424130Y-171629D1*
X424540Y-172613D1*
X424898Y-173597D1*
X452457Y-170644D2*
Y-171629D1*
Y-172613D1*
Y-173597D1*
X195718Y-222953D2*
Y-223937D1*
Y-224921D1*
Y-225906D1*
Y-226890D1*
Y-227874D1*
Y-228858D1*
Y-229843D1*
Y-230827D1*
Y-231811D1*
Y-232795D1*
Y-233780D1*
Y-234764D1*
Y-235748D1*
Y-236732D1*
Y-237717D1*
Y-238701D1*
Y-239685D1*
Y-240669D1*
Y-241654D1*
Y-242638D1*
Y-243622D1*
Y-244606D1*
Y-245591D1*
Y-246575D1*
Y-247559D1*
Y-248543D1*
Y-249528D1*
Y-250512D1*
Y-251496D1*
Y-252480D1*
X210482Y-222953D2*
X211917Y-223937D1*
X213145Y-224921D1*
X214113Y-225906D1*
X214795Y-226890D1*
X215279Y-227874D1*
X215685Y-228858D1*
X216006Y-229843D1*
X216172Y-230827D1*
X216149Y-231811D1*
X215955Y-232795D1*
X215682Y-233780D1*
X215354Y-234764D1*
X214862Y-235748D1*
X214138Y-236732D1*
X213214Y-237717D1*
X212256Y-238701D1*
X211414Y-239685D1*
X211210Y-240669D1*
X211481Y-241654D1*
X211935Y-242638D1*
X212511Y-243622D1*
X213091Y-244606D1*
X213636Y-245591D1*
X214155Y-246575D1*
X214658Y-247559D1*
X215155Y-248543D1*
X215651Y-249528D1*
X216170Y-250512D1*
X216745Y-251496D1*
X217372Y-252480D1*
X228199Y-222953D2*
X226798Y-223937D1*
X225661Y-224921D1*
X224808Y-225906D1*
X224176Y-226890D1*
X223735Y-227874D1*
X223466Y-228858D1*
X223277Y-229843D1*
X234104Y-222953D2*
X235539Y-223937D1*
X236767Y-224921D1*
X237731Y-225906D1*
X238487Y-226890D1*
X238764Y-227874D1*
X238914Y-228858D1*
X238978Y-229843D1*
X238971Y-230827D1*
X238852Y-231811D1*
X238578Y-232795D1*
X238125Y-233780D1*
X237405Y-234764D1*
X236343Y-235748D1*
X235088Y-236732D1*
X236253Y-237717D1*
X237252Y-238701D1*
X238038Y-239685D1*
X238673Y-240669D1*
X239193Y-241654D1*
X239582Y-242638D1*
X239808Y-243622D1*
X239888Y-244606D1*
X239810Y-245591D1*
X239560Y-246575D1*
X239182Y-247559D1*
X238700Y-248543D1*
X238030Y-249528D1*
X237024Y-250512D1*
X235651Y-251496D1*
X234104Y-252480D1*
X199655Y-225906D2*
Y-226890D1*
Y-227874D1*
Y-228858D1*
Y-229843D1*
Y-230827D1*
Y-231811D1*
Y-232795D1*
Y-233780D1*
Y-234764D1*
Y-235748D1*
X208514Y-236732D1*
X207529Y-225906D2*
X209148Y-226890D1*
X210426Y-227874D1*
X211321Y-228858D1*
X211992Y-229843D1*
X212190Y-230827D1*
X212264Y-231811D1*
X212018Y-232795D1*
X211358Y-233780D1*
X208766Y-234764D1*
X204318Y-235748D1*
X198671Y-236732D1*
X230167Y-225906D2*
X229183Y-226890D1*
X228199Y-227874D1*
X227214Y-228858D1*
X226230Y-229843D1*
X231151Y-225906D2*
X232770Y-226890D1*
X234048Y-227874D1*
X234939Y-228858D1*
X235599Y-229843D1*
X235771Y-230827D1*
X235513Y-231811D1*
X235088Y-232795D1*
X233981Y-233780D1*
X232659Y-234764D1*
X231366Y-235748D1*
X230724Y-236732D1*
X230521Y-237717D1*
X231874Y-238701D1*
X233316Y-239685D1*
X234509Y-240669D1*
X235438Y-241654D1*
X235766Y-242638D1*
X235939Y-243622D1*
X235976Y-244606D1*
X235912Y-245591D1*
X235375Y-246575D1*
X233693Y-247559D1*
X231193Y-248543D1*
X228199Y-249528D1*
X199655Y-239685D2*
Y-240669D1*
Y-241654D1*
Y-242638D1*
Y-243622D1*
Y-244606D1*
Y-245591D1*
Y-246575D1*
Y-247559D1*
Y-248543D1*
Y-249528D1*
Y-250512D1*
Y-251496D1*
Y-252480D1*
X205561Y-239685D2*
X206389Y-240669D1*
X207095Y-241654D1*
X207695Y-242638D1*
X208236Y-243622D1*
X208748Y-244606D1*
X209248Y-245591D1*
X209742Y-246575D1*
X210236Y-247559D1*
X210728Y-248543D1*
X211218Y-249528D1*
X211683Y-250512D1*
X212093Y-251496D1*
X212451Y-252480D1*
X222293Y-245591D2*
X222671Y-246575D1*
X223128Y-247559D1*
X223719Y-248543D1*
X224505Y-249528D1*
X225524Y-250512D1*
X226791Y-251496D1*
X228199Y-252480D1*
X226230Y-245591D2*
X226878Y-246575D1*
X228589Y-247559D1*
X231102Y-248543D1*
X234104Y-249528D1*
X411354Y-252521D2*
Y-253505D1*
Y-254490D1*
Y-255474D1*
Y-256458D1*
Y-257442D1*
Y-258427D1*
Y-259411D1*
Y-260395D1*
Y-261379D1*
Y-262364D1*
Y-263348D1*
Y-264332D1*
Y-265316D1*
Y-266301D1*
Y-267285D1*
Y-268269D1*
Y-269253D1*
Y-270238D1*
Y-271222D1*
Y-272206D1*
Y-273190D1*
Y-274175D1*
Y-275159D1*
Y-276143D1*
Y-277127D1*
Y-278112D1*
Y-279096D1*
Y-280080D1*
Y-281064D1*
Y-282049D1*
X426118Y-252521D2*
X427553Y-253505D1*
X428781Y-254490D1*
X429749Y-255474D1*
X430431Y-256458D1*
X430915Y-257442D1*
X431321Y-258427D1*
X431642Y-259411D1*
X431808Y-260395D1*
X431785Y-261379D1*
X431591Y-262364D1*
X431318Y-263348D1*
X430990Y-264332D1*
X430498Y-265316D1*
X429774Y-266301D1*
X428850Y-267285D1*
X427892Y-268269D1*
X427050Y-269253D1*
X426846Y-270238D1*
X427117Y-271222D1*
X427571Y-272206D1*
X428147Y-273190D1*
X428727Y-274175D1*
X429272Y-275159D1*
X429791Y-276143D1*
X430294Y-277127D1*
X430791Y-278112D1*
X431287Y-279096D1*
X431806Y-280080D1*
X432381Y-281064D1*
X433008Y-282049D1*
X448756Y-252521D2*
X448382Y-253505D1*
X447959Y-254490D1*
X447502Y-255474D1*
X447028Y-256458D1*
X446573Y-257442D1*
X446177Y-258427D1*
X445827Y-259411D1*
X445446Y-260395D1*
X445015Y-261379D1*
X444553Y-262364D1*
X444073Y-263348D1*
X443586Y-264332D1*
X443095Y-265316D1*
X442604Y-266301D1*
X442112Y-267285D1*
X441620Y-268269D1*
X441128Y-269253D1*
X440636Y-270238D1*
X440147Y-271222D1*
X439690Y-272206D1*
X439327Y-273190D1*
X439106Y-274175D1*
X438994Y-275159D1*
X438943Y-276143D1*
X438913Y-277127D1*
X452693Y-252521D2*
X452319Y-253505D1*
X451896Y-254490D1*
X451439Y-255474D1*
X450961Y-256458D1*
X450475Y-257442D1*
X449985Y-258427D1*
X449494Y-259411D1*
X449001Y-260395D1*
X448510Y-261379D1*
X448017Y-262364D1*
X447526Y-263348D1*
X447037Y-264332D1*
X446576Y-265316D1*
X446178Y-266301D1*
X445828Y-267285D1*
X445446Y-268269D1*
X445015Y-269253D1*
X444550Y-270238D1*
X444044Y-271222D1*
X443475Y-272206D1*
X442850Y-273190D1*
X450724Y-274175D1*
X415291Y-255474D2*
Y-256458D1*
Y-257442D1*
Y-258427D1*
Y-259411D1*
Y-260395D1*
Y-261379D1*
Y-262364D1*
Y-263348D1*
Y-264332D1*
Y-265316D1*
X424150Y-266301D1*
X423165Y-255474D2*
X424784Y-256458D1*
X426062Y-257442D1*
X426957Y-258427D1*
X427628Y-259411D1*
X427826Y-260395D1*
X427900Y-261379D1*
X427654Y-262364D1*
X426994Y-263348D1*
X424402Y-264332D1*
X419954Y-265316D1*
X414307Y-266301D1*
X452693Y-264332D2*
Y-265316D1*
Y-266301D1*
Y-267285D1*
Y-268269D1*
Y-269253D1*
Y-270238D1*
Y-271222D1*
Y-272206D1*
Y-273190D1*
X443835Y-274175D1*
X455646Y-264332D2*
Y-265316D1*
Y-266301D1*
Y-267285D1*
Y-268269D1*
Y-269253D1*
X455653Y-270238D1*
X455723Y-271222D1*
X455884Y-272206D1*
X456423Y-273190D1*
X456936Y-274175D1*
X457323Y-275159D1*
X457277Y-276143D1*
X456792Y-277127D1*
X456298Y-278112D1*
X455962Y-279096D1*
X455782Y-280080D1*
X455696Y-281064D1*
X455646Y-282049D1*
X415291Y-269253D2*
Y-270238D1*
Y-271222D1*
Y-272206D1*
Y-273190D1*
Y-274175D1*
Y-275159D1*
Y-276143D1*
Y-277127D1*
Y-278112D1*
Y-279096D1*
Y-280080D1*
Y-281064D1*
Y-282049D1*
X421197Y-269253D2*
X422025Y-270238D1*
X422731Y-271222D1*
X423331Y-272206D1*
X423872Y-273190D1*
X424384Y-274175D1*
X424884Y-275159D1*
X425378Y-276143D1*
X425872Y-277127D1*
X426364Y-278112D1*
X426854Y-279096D1*
X427319Y-280080D1*
X427729Y-281064D1*
X428087Y-282049D1*
X452693Y-277127D2*
Y-278112D1*
Y-279096D1*
Y-280080D1*
Y-281064D1*
Y-282049D1*
X-17717Y669291D2*
Y668307D1*
Y667323D1*
Y666339D1*
Y665354D1*
Y664370D1*
Y663386D1*
Y662402D1*
Y661417D1*
Y660433D1*
Y659449D1*
Y658465D1*
Y657480D1*
Y656496D1*
Y655512D1*
Y654528D1*
Y653543D1*
Y652559D1*
Y651575D1*
Y650591D1*
Y649606D1*
X-17713Y648622D1*
X-17678Y647638D1*
X-17549Y646654D1*
X-17275Y645669D1*
X-16858Y644685D1*
X-16279Y643701D1*
X-15461Y642717D1*
X-14292Y641732D1*
X-12689Y640748D1*
X-10827Y639764D1*
X-14764Y669291D2*
Y668307D1*
Y667323D1*
Y666339D1*
Y665354D1*
Y664370D1*
Y663386D1*
Y662402D1*
Y661417D1*
Y660433D1*
Y659449D1*
Y658465D1*
Y657480D1*
Y656496D1*
Y655512D1*
Y654528D1*
Y653543D1*
Y652559D1*
X-14760Y651575D1*
X-14725Y650591D1*
X-14596Y649606D1*
X-14322Y648622D1*
X-13898Y647638D1*
X-13242Y646654D1*
X-12339Y645669D1*
X-10196Y644685D1*
X-7288Y643701D1*
X-3937Y642717D1*
X-984Y669291D2*
Y668307D1*
Y667323D1*
Y666339D1*
Y665354D1*
Y664370D1*
Y663386D1*
Y662402D1*
Y661417D1*
Y660433D1*
Y659449D1*
Y658465D1*
Y657480D1*
Y656496D1*
Y655512D1*
Y654528D1*
Y653543D1*
Y652559D1*
Y651575D1*
X-988Y650591D1*
X-1023Y649606D1*
X-1152Y648622D1*
X-1434Y647638D1*
X-1827Y646654D1*
X-2651Y645669D1*
X-4683Y644685D1*
X-7522Y643701D1*
X-10827Y642717D1*
X2953Y669291D2*
Y668307D1*
Y667323D1*
Y666339D1*
Y665354D1*
Y664370D1*
Y663386D1*
Y662402D1*
Y661417D1*
Y660433D1*
Y659449D1*
Y658465D1*
Y657480D1*
Y656496D1*
Y655512D1*
Y654528D1*
Y653543D1*
Y652559D1*
Y651575D1*
X2949Y650591D1*
X2914Y649606D1*
X2789Y648622D1*
X2549Y647638D1*
X2258Y646654D1*
X1923Y645669D1*
X1432Y644685D1*
X735Y643701D1*
X-144Y642717D1*
X-1217Y641732D1*
X-2512Y640748D1*
X-3937Y639764D1*
X12795Y669291D2*
X11398Y668307D1*
X10296Y667323D1*
X9444Y666339D1*
X9140Y665354D1*
X8969Y664370D1*
X8858Y663386D1*
X16732Y669291D2*
Y668307D1*
Y667323D1*
Y666339D1*
Y665354D1*
Y664370D1*
Y663386D1*
Y662402D1*
Y661417D1*
Y660433D1*
Y659449D1*
Y658465D1*
Y657480D1*
Y656496D1*
Y655512D1*
Y654528D1*
Y653543D1*
Y652559D1*
Y651575D1*
Y650591D1*
Y649606D1*
Y648622D1*
Y647638D1*
Y646654D1*
Y645669D1*
Y644685D1*
Y643701D1*
Y642717D1*
Y641732D1*
Y640748D1*
Y639764D1*
X13780Y665354D2*
X11811Y664370D1*
X9843Y663386D1*
X13780Y665354D2*
Y664370D1*
Y663386D1*
Y662402D1*
Y661417D1*
Y660433D1*
Y659449D1*
Y658465D1*
Y657480D1*
Y656496D1*
Y655512D1*
Y654528D1*
Y653543D1*
Y652559D1*
Y651575D1*
Y650591D1*
Y649606D1*
Y648622D1*
Y647638D1*
Y646654D1*
Y645669D1*
Y644685D1*
Y643701D1*
Y642717D1*
Y641732D1*
Y640748D1*
Y639764D1*
X-250373Y-538707D2*
Y-539692D1*
Y-540676D1*
Y-541660D1*
Y-542644D1*
Y-543629D1*
Y-544613D1*
Y-545597D1*
Y-546581D1*
Y-547566D1*
Y-548550D1*
Y-549534D1*
Y-550518D1*
Y-551503D1*
Y-552487D1*
Y-553471D1*
Y-554455D1*
Y-555440D1*
Y-556424D1*
Y-557408D1*
Y-558392D1*
Y-559377D1*
Y-560361D1*
Y-561345D1*
Y-562329D1*
Y-563314D1*
Y-564298D1*
Y-565282D1*
Y-566266D1*
Y-567251D1*
Y-568235D1*
X-235609Y-538707D2*
X-233872Y-539692D1*
X-232601Y-540676D1*
X-231715Y-541660D1*
X-231050Y-542644D1*
X-230522Y-543629D1*
X-230135Y-544613D1*
X-229939Y-545597D1*
X-229954Y-546581D1*
X-230178Y-547566D1*
X-230573Y-548550D1*
X-231133Y-549534D1*
X-231831Y-550518D1*
X-232493Y-551503D1*
X-233013Y-552487D1*
X-232928Y-553471D1*
X-232317Y-554455D1*
X-231569Y-555440D1*
X-230837Y-556424D1*
X-230288Y-557408D1*
X-229970Y-558392D1*
X-229814Y-559377D1*
X-229750Y-560361D1*
X-229758Y-561345D1*
X-229877Y-562329D1*
X-230147Y-563314D1*
X-230566Y-564298D1*
X-231174Y-565282D1*
X-232069Y-566266D1*
X-233265Y-567251D1*
X-234625Y-568235D1*
X-222814Y-538707D2*
Y-539692D1*
Y-540676D1*
Y-541660D1*
Y-542644D1*
Y-543629D1*
Y-544613D1*
Y-545597D1*
Y-546581D1*
Y-547566D1*
Y-548550D1*
Y-549534D1*
Y-550518D1*
Y-551503D1*
Y-552487D1*
Y-553471D1*
Y-554455D1*
Y-555440D1*
Y-556424D1*
Y-557408D1*
Y-558392D1*
Y-559377D1*
Y-560361D1*
Y-561345D1*
Y-562329D1*
Y-563314D1*
Y-564298D1*
Y-565282D1*
Y-566266D1*
Y-567251D1*
Y-568235D1*
X-218877Y-538707D2*
X-218536Y-539692D1*
X-218209Y-540676D1*
X-217893Y-541660D1*
X-217526Y-542644D1*
X-217101Y-543629D1*
X-216641Y-544613D1*
X-216162Y-545597D1*
X-215675Y-546581D1*
X-215188Y-547566D1*
X-214728Y-548550D1*
X-214330Y-549534D1*
X-213980Y-550518D1*
X-213598Y-551503D1*
X-213167Y-552487D1*
X-212705Y-553471D1*
X-212225Y-554455D1*
X-211735Y-555440D1*
X-211219Y-556424D1*
X-210645Y-557408D1*
X-210018Y-558392D1*
X-201160Y-538707D2*
X-201500Y-539692D1*
X-201828Y-540676D1*
X-202144Y-541660D1*
X-202511Y-542644D1*
X-202936Y-543629D1*
X-203395Y-544613D1*
X-203875Y-545597D1*
X-204361Y-546581D1*
X-204849Y-547566D1*
X-205309Y-548550D1*
X-205707Y-549534D1*
X-206057Y-550518D1*
X-206438Y-551503D1*
X-206869Y-552487D1*
X-207331Y-553471D1*
X-207812Y-554455D1*
X-208301Y-555440D1*
X-208818Y-556424D1*
X-209392Y-557408D1*
X-210018Y-558392D1*
X-197223Y-538707D2*
Y-539692D1*
Y-540676D1*
Y-541660D1*
Y-542644D1*
Y-543629D1*
Y-544613D1*
Y-545597D1*
Y-546581D1*
Y-547566D1*
Y-548550D1*
Y-549534D1*
Y-550518D1*
Y-551503D1*
Y-552487D1*
Y-553471D1*
Y-554455D1*
Y-555440D1*
Y-556424D1*
Y-557408D1*
Y-558392D1*
Y-559377D1*
Y-560361D1*
Y-561345D1*
Y-562329D1*
Y-563314D1*
Y-564298D1*
Y-565282D1*
Y-566266D1*
Y-567251D1*
Y-568235D1*
X-189349Y-538707D2*
Y-539692D1*
Y-540676D1*
Y-541660D1*
Y-542644D1*
Y-543629D1*
Y-544613D1*
Y-545597D1*
Y-546581D1*
Y-547566D1*
Y-548550D1*
Y-549534D1*
Y-550518D1*
Y-551503D1*
Y-552487D1*
Y-553471D1*
Y-554455D1*
Y-555440D1*
Y-556424D1*
Y-557408D1*
Y-558392D1*
Y-559377D1*
Y-560361D1*
Y-561345D1*
Y-562329D1*
Y-563314D1*
Y-564298D1*
Y-565282D1*
Y-566266D1*
Y-567251D1*
Y-568235D1*
X-170648Y-538707D2*
Y-539692D1*
Y-540676D1*
Y-541660D1*
X-159822Y-538707D2*
X-161223Y-539692D1*
X-162360Y-540676D1*
X-163213Y-541660D1*
X-163844Y-542644D1*
X-164286Y-543629D1*
X-164554Y-544613D1*
X-164743Y-545597D1*
X-152932Y-538707D2*
X-151649Y-539692D1*
X-150661Y-540676D1*
X-149918Y-541660D1*
X-149316Y-542644D1*
X-148818Y-543629D1*
X-148472Y-544613D1*
X-148281Y-545597D1*
X-148474Y-546581D1*
X-148727Y-547566D1*
X-149012Y-548550D1*
X-149371Y-549534D1*
X-149823Y-550518D1*
X-150376Y-551503D1*
X-151000Y-552487D1*
X-151632Y-553471D1*
X-152309Y-554455D1*
X-153066Y-555440D1*
X-153826Y-556424D1*
X-154530Y-557408D1*
X-155240Y-558392D1*
X-156011Y-559377D1*
X-156776Y-560361D1*
X-157481Y-561345D1*
X-158196Y-562329D1*
X-159001Y-563314D1*
X-159886Y-564298D1*
X-160806Y-565282D1*
X-136199Y-538707D2*
X-137634Y-539692D1*
X-138863Y-540676D1*
X-139826Y-541660D1*
X-140582Y-542644D1*
X-140859Y-543629D1*
X-141009Y-544613D1*
X-141073Y-545597D1*
X-141066Y-546581D1*
X-140947Y-547566D1*
X-140677Y-548550D1*
X-140262Y-549534D1*
X-139694Y-550518D1*
X-138968Y-551503D1*
X-138168Y-552487D1*
X-139115Y-553471D1*
X-139969Y-554455D1*
X-140679Y-555440D1*
X-141247Y-556424D1*
X-141660Y-557408D1*
X-141901Y-558392D1*
X-142016Y-559377D1*
X-142033Y-560361D1*
X-141925Y-561345D1*
X-141659Y-562329D1*
X-141245Y-563314D1*
X-140671Y-564298D1*
X-139891Y-565282D1*
X-138874Y-566266D1*
X-137607Y-567251D1*
X-136199Y-568235D1*
X-130294Y-538707D2*
X-128675Y-539692D1*
X-127394Y-540676D1*
X-126464Y-541660D1*
X-125766Y-542644D1*
X-125221Y-543629D1*
X-124826Y-544613D1*
X-124626Y-545597D1*
X-124640Y-546581D1*
X-124863Y-547566D1*
X-125259Y-548550D1*
X-125822Y-549534D1*
X-126562Y-550518D1*
X-127420Y-551503D1*
X-128325Y-552487D1*
X-127345Y-553471D1*
X-126399Y-554455D1*
X-125579Y-555440D1*
X-124994Y-556424D1*
X-124662Y-557408D1*
X-124501Y-558392D1*
X-124432Y-559377D1*
X-124408Y-560361D1*
X-124432Y-561345D1*
X-124558Y-562329D1*
X-124831Y-563314D1*
X-125254Y-564298D1*
X-125901Y-565282D1*
X-126947Y-566266D1*
X-128480Y-567251D1*
X-130294Y-568235D1*
X-111593Y-538707D2*
X-113028Y-539692D1*
X-114256Y-540676D1*
X-115220Y-541660D1*
X-115976Y-542644D1*
X-116290Y-543629D1*
X-116567Y-544613D1*
X-116870Y-545597D1*
X-117150Y-546581D1*
X-117332Y-547566D1*
X-117427Y-548550D1*
X-117470Y-549534D1*
X-117488Y-550518D1*
X-117495Y-551503D1*
X-117497Y-552487D1*
X-117498Y-553471D1*
X-117499Y-554455D1*
Y-555440D1*
Y-556424D1*
X-117495Y-557408D1*
X-117460Y-558392D1*
X-117335Y-559377D1*
X-117099Y-560361D1*
X-116843Y-561345D1*
X-116633Y-562329D1*
X-116378Y-563314D1*
X-115932Y-564298D1*
X-115226Y-565282D1*
X-114244Y-566266D1*
X-112992Y-567251D1*
X-111593Y-568235D1*
X-105688Y-538707D2*
X-104253Y-539692D1*
X-103024Y-540676D1*
X-102061Y-541660D1*
X-101305Y-542644D1*
X-101028Y-543629D1*
X-100878Y-544613D1*
X-100810Y-545597D1*
X-100783Y-546581D1*
X-100772Y-547566D1*
X-100768Y-548550D1*
X-100767Y-549534D1*
Y-550518D1*
X-100766Y-551503D1*
Y-552487D1*
Y-553471D1*
Y-554455D1*
Y-555440D1*
Y-556424D1*
Y-557408D1*
Y-558392D1*
Y-559377D1*
Y-560361D1*
X-100770Y-561345D1*
X-100809Y-562329D1*
X-100973Y-563314D1*
X-101376Y-564298D1*
X-102065Y-565282D1*
X-103041Y-566266D1*
X-104290Y-567251D1*
X-105688Y-568235D1*
X-246436Y-541660D2*
Y-542644D1*
Y-543629D1*
Y-544613D1*
Y-545597D1*
Y-546581D1*
Y-547566D1*
Y-548550D1*
Y-549534D1*
Y-550518D1*
X-236593Y-551503D1*
Y-541660D2*
X-235650Y-542644D1*
X-234831Y-543629D1*
X-234246Y-544613D1*
X-233918Y-545597D1*
X-233796Y-546581D1*
X-233801Y-547566D1*
X-234316Y-548550D1*
X-236747Y-549534D1*
X-240992Y-550518D1*
X-246436Y-551503D1*
X-185412Y-541660D2*
Y-542644D1*
Y-543629D1*
Y-544613D1*
Y-545597D1*
Y-546581D1*
Y-547566D1*
Y-548550D1*
Y-549534D1*
Y-550518D1*
Y-551503D1*
Y-552487D1*
X-156869Y-541660D2*
X-158491Y-542644D1*
X-159802Y-543629D1*
X-160843Y-544613D1*
X-161790Y-545597D1*
X-156869Y-541660D2*
X-155135Y-542644D1*
X-153740Y-543629D1*
X-152667Y-544613D1*
X-152245Y-545597D1*
X-152240Y-546581D1*
X-152437Y-547566D1*
X-152787Y-548550D1*
X-153220Y-549534D1*
X-153723Y-550518D1*
X-154331Y-551503D1*
X-155056Y-552487D1*
X-155802Y-553471D1*
X-156501Y-554455D1*
X-157213Y-555440D1*
X-158014Y-556424D1*
X-158870Y-557408D1*
X-159686Y-558392D1*
X-160417Y-559377D1*
X-161138Y-560361D1*
X-161913Y-561345D1*
X-162676Y-562329D1*
X-163344Y-563314D1*
X-163895Y-564298D1*
X-164301Y-565282D1*
X-164541Y-566266D1*
X-164665Y-567251D1*
X-164743Y-568235D1*
X-133247Y-541660D2*
X-134866Y-542644D1*
X-136143Y-543629D1*
X-137035Y-544613D1*
X-137694Y-545597D1*
X-137866Y-546581D1*
X-137692Y-547566D1*
X-137152Y-548550D1*
X-135598Y-549534D1*
X-133203Y-550518D1*
X-130294Y-551503D1*
X-133247Y-541660D2*
X-131513Y-542644D1*
X-130118Y-543629D1*
X-129045Y-544613D1*
X-128676Y-545597D1*
X-128518Y-546581D1*
X-128510Y-547566D1*
X-129031Y-548550D1*
X-130709Y-549534D1*
X-133206Y-550518D1*
X-136199Y-551503D1*
X-108640Y-541660D2*
X-110374Y-542644D1*
X-111769Y-543629D1*
X-112842Y-544613D1*
X-113215Y-545597D1*
X-113415Y-546581D1*
X-113505Y-547566D1*
X-113541Y-548550D1*
X-113554Y-549534D1*
X-113559Y-550518D1*
X-113561Y-551503D1*
Y-552487D1*
X-113562Y-553471D1*
Y-554455D1*
Y-555440D1*
Y-556424D1*
Y-557408D1*
Y-558392D1*
X-113558Y-559377D1*
X-113516Y-560361D1*
X-113412Y-561345D1*
X-112868Y-562329D1*
X-111183Y-563314D1*
X-108683Y-564298D1*
X-105688Y-565282D1*
X-108640Y-541660D2*
X-106907Y-542644D1*
X-105511Y-543629D1*
X-104438Y-544613D1*
X-104065Y-545597D1*
X-103866Y-546581D1*
X-103776Y-547566D1*
X-103740Y-548550D1*
X-103726Y-549534D1*
X-103722Y-550518D1*
X-103720Y-551503D1*
X-103719Y-552487D1*
Y-553471D1*
Y-554455D1*
Y-555440D1*
Y-556424D1*
Y-557408D1*
Y-558392D1*
X-103723Y-559377D1*
X-103765Y-560361D1*
X-103869Y-561345D1*
X-104413Y-562329D1*
X-106098Y-563314D1*
X-108598Y-564298D1*
X-111593Y-565282D1*
X-203129Y-549534D2*
X-203281Y-550518D1*
X-203529Y-551503D1*
X-203818Y-552487D1*
X-204120Y-553471D1*
X-204481Y-554455D1*
X-204905Y-555440D1*
X-205364Y-556424D1*
X-205844Y-557408D1*
X-206330Y-558392D1*
X-206817Y-559377D1*
X-207277Y-560361D1*
X-207678Y-561345D1*
X-208052Y-562329D1*
X-208505Y-563314D1*
X-209034Y-564298D1*
X-201160Y-549534D2*
Y-550518D1*
Y-551503D1*
Y-552487D1*
Y-553471D1*
Y-554455D1*
Y-555440D1*
Y-556424D1*
Y-557408D1*
Y-558392D1*
Y-559377D1*
Y-560361D1*
Y-561345D1*
Y-562329D1*
Y-563314D1*
Y-564298D1*
Y-565282D1*
Y-566266D1*
Y-567251D1*
Y-568235D1*
X-218877Y-550518D2*
Y-551503D1*
Y-552487D1*
Y-553471D1*
Y-554455D1*
Y-555440D1*
Y-556424D1*
Y-557408D1*
Y-558392D1*
Y-559377D1*
Y-560361D1*
Y-561345D1*
Y-562329D1*
Y-563314D1*
Y-564298D1*
Y-565282D1*
Y-566266D1*
Y-567251D1*
Y-568235D1*
X-216908Y-550518D2*
X-216752Y-551503D1*
X-216474Y-552487D1*
X-216089Y-553471D1*
X-215647Y-554455D1*
X-215174Y-555440D1*
X-214690Y-556424D1*
X-214203Y-557408D1*
X-213744Y-558392D1*
X-213346Y-559377D1*
X-212996Y-560361D1*
X-212611Y-561345D1*
X-212155Y-562329D1*
X-211611Y-563314D1*
X-211003Y-564298D1*
X-172617Y-552487D2*
Y-553471D1*
Y-554455D1*
Y-555440D1*
X-246436Y-554455D2*
Y-555440D1*
Y-556424D1*
Y-557408D1*
Y-558392D1*
Y-559377D1*
Y-560361D1*
Y-561345D1*
Y-562329D1*
Y-563314D1*
Y-564298D1*
X-237577Y-565282D1*
X-236593Y-554455D2*
X-235646Y-555440D1*
X-234792Y-556424D1*
X-234086Y-557408D1*
X-233553Y-558392D1*
X-233158Y-559377D1*
X-233278Y-560361D1*
X-233542Y-561345D1*
X-234317Y-562329D1*
X-237088Y-563314D1*
X-241668Y-564298D1*
X-247420Y-565282D1*
X-135215Y-554455D2*
X-136158Y-555440D1*
X-136978Y-556424D1*
X-137562Y-557408D1*
X-137894Y-558392D1*
X-138051Y-559377D1*
X-138078Y-560361D1*
X-138009Y-561345D1*
X-137471Y-562329D1*
X-135788Y-563314D1*
X-133289Y-564298D1*
X-130294Y-565282D1*
X-132262Y-554455D2*
X-130643Y-555440D1*
X-129366Y-556424D1*
X-128471Y-557408D1*
X-127800Y-558392D1*
X-127605Y-559377D1*
X-127543Y-560361D1*
X-127893Y-561345D1*
X-128906Y-562329D1*
X-130600Y-563314D1*
X-133155Y-564298D1*
X-136199Y-565282D1*
X-185412Y-555440D2*
Y-556424D1*
Y-557408D1*
Y-558392D1*
Y-559377D1*
Y-560361D1*
Y-561345D1*
Y-562329D1*
Y-563314D1*
Y-564298D1*
Y-565282D1*
X-170648D2*
Y-566266D1*
Y-567251D1*
Y-568235D1*
X-148010Y-565282D2*
Y-566266D1*
Y-567251D1*
Y-568235D1*
X493697Y537402D2*
D12*
X489888Y535902D1*
X486724Y534402D1*
X484187Y532902D1*
X482187Y531402D1*
X480627Y529902D1*
X479437Y528402D1*
X478523Y526902D1*
X477825Y525402D1*
X477261Y523902D1*
X476719Y522402D1*
X476254Y520902D1*
X475960Y519402D1*
X475815Y517902D1*
X475800Y516402D1*
X475963Y514902D1*
X476318Y513402D1*
X476751Y511902D1*
X477208Y510402D1*
X477759Y508902D1*
X478404Y507402D1*
X479110Y505902D1*
X479899Y504402D1*
X480890Y502902D1*
X482253Y501402D1*
X484056Y499902D1*
X486333Y498402D1*
X489111Y496902D1*
X492197Y495402D1*
X499697Y537402D2*
X503500Y535902D1*
X506612Y534402D1*
X508957Y532902D1*
X510598Y531402D1*
X511773Y529902D1*
X512702Y528402D1*
X513471Y526902D1*
X514052Y525402D1*
X514399Y523902D1*
X514572Y522402D1*
X514648Y520902D1*
X514679Y519402D1*
X514690Y517902D1*
X514695Y516402D1*
X514697Y514902D1*
X499697Y513402D1*
X495197Y520902D2*
X493697Y519402D1*
X492197Y517902D1*
X490697Y516402D1*
X491395Y514902D1*
X491858Y513402D1*
X492197Y511902D1*
X498197Y520902D2*
X499402Y519402D1*
X500285Y517902D1*
X500822Y516402D1*
X501197Y514902D1*
X516197Y513402D1*
X534197Y511902D2*
Y510402D1*
Y508902D1*
Y507402D1*
Y505902D1*
Y504402D1*
Y502902D1*
Y501402D1*
Y499902D1*
Y498402D1*
Y496902D1*
Y495402D1*
X477197Y483402D2*
Y481902D1*
Y480402D1*
Y478902D1*
Y477402D1*
Y475902D1*
Y474402D1*
Y472902D1*
Y471402D1*
Y469902D1*
Y468402D1*
X534197Y483402D2*
Y481902D1*
Y480402D1*
Y478902D1*
Y477402D1*
Y475902D1*
Y474402D1*
Y472902D1*
Y471402D1*
Y469902D1*
Y468402D1*
X498197Y463902D2*
Y462402D1*
Y460902D1*
Y459402D1*
Y457902D1*
X513197Y463902D2*
X513491Y462402D1*
X514109Y460902D1*
X515072Y459402D1*
X516197Y457902D1*
X477197D2*
Y456402D1*
Y454902D1*
Y453402D1*
Y451902D1*
Y450402D1*
Y448902D1*
Y447402D1*
Y445902D1*
Y444402D1*
Y442902D1*
X534197Y457902D2*
Y456402D1*
Y454902D1*
Y453402D1*
Y451902D1*
Y450402D1*
Y448902D1*
Y447402D1*
Y445902D1*
Y444402D1*
Y442902D1*
X477197Y435402D2*
Y433902D1*
Y432402D1*
Y430902D1*
Y429402D1*
Y427902D1*
Y426402D1*
Y424902D1*
Y423402D1*
Y421902D1*
Y420402D1*
Y418902D1*
Y417402D1*
Y415902D1*
Y414402D1*
Y412902D1*
Y411402D1*
Y409902D1*
Y408402D1*
Y406902D1*
Y405402D1*
Y403902D1*
Y402402D1*
Y400902D1*
Y399402D1*
Y397902D1*
Y396402D1*
Y394902D1*
Y393402D1*
Y391902D1*
X492197Y435402D2*
Y433902D1*
Y432402D1*
Y430902D1*
Y429402D1*
Y427902D1*
Y426402D1*
Y424902D1*
Y423402D1*
Y421902D1*
X534197D2*
Y420402D1*
Y418902D1*
Y417402D1*
Y415902D1*
Y414402D1*
Y412902D1*
Y411402D1*
Y409902D1*
Y408402D1*
Y406902D1*
Y405402D1*
X492197D2*
Y403902D1*
Y402402D1*
Y400902D1*
Y399402D1*
Y397902D1*
Y396402D1*
Y394902D1*
Y393402D1*
Y391902D1*
X489197Y363402D2*
X486137Y361902D1*
X483596Y360402D1*
X481637Y358902D1*
X480124Y357402D1*
X478918Y355902D1*
X478067Y354402D1*
X477534Y352902D1*
X477111Y351402D1*
X476651Y349902D1*
X476226Y348402D1*
X475950Y346902D1*
X475811Y345402D1*
X475798Y343902D1*
X475963Y342402D1*
X476312Y340902D1*
X476698Y339402D1*
X477011Y337902D1*
X477347Y336402D1*
X477828Y334902D1*
X478489Y333402D1*
X479370Y331902D1*
X480512Y330402D1*
X481896Y328902D1*
X483624Y327402D1*
X485928Y325902D1*
X488887Y324402D1*
X492197Y322902D1*
X534197Y363402D2*
Y361902D1*
Y360402D1*
Y358902D1*
Y357402D1*
Y355902D1*
Y354402D1*
Y352902D1*
Y351402D1*
Y349902D1*
Y348402D1*
X495197D2*
X493697Y346902D1*
X492197Y345402D1*
X490697Y343902D1*
X493601Y342402D1*
X498275Y340902D1*
X504197Y339402D1*
X505697Y343902D2*
Y342402D1*
Y340902D1*
X493697Y339402D1*
X520697Y343902D2*
Y342402D1*
Y340902D1*
Y339402D1*
X534197D1*
Y337902D1*
Y336402D1*
Y334902D1*
Y333402D1*
Y331902D1*
Y330402D1*
Y328902D1*
Y327402D1*
Y325902D1*
Y324402D1*
Y322902D1*
X477197Y316902D2*
Y315402D1*
Y313902D1*
Y312402D1*
Y310902D1*
Y309402D1*
Y307902D1*
Y306402D1*
Y304902D1*
Y303402D1*
Y301902D1*
Y300402D1*
Y298902D1*
Y297402D1*
Y295902D1*
Y294402D1*
Y292902D1*
Y291402D1*
Y289902D1*
Y288402D1*
Y286902D1*
Y285402D1*
Y283902D1*
Y282402D1*
Y280902D1*
Y279402D1*
Y277902D1*
Y276402D1*
Y274902D1*
Y273402D1*
Y271902D1*
Y270402D1*
Y268902D1*
Y267402D1*
Y265902D1*
Y264402D1*
Y262902D1*
X477203Y261402D1*
X477261Y259902D1*
X477517Y258402D1*
X478003Y256902D1*
X479382Y255402D1*
X481275Y253902D1*
X483619Y252402D1*
X486143Y250902D1*
X488663Y249402D1*
X491230Y247902D1*
X493969Y246402D1*
X496995Y244902D1*
X500624Y243402D1*
X505135Y241902D1*
X510197Y240402D1*
X492197Y316902D2*
Y315402D1*
Y313902D1*
Y312402D1*
Y310902D1*
Y309402D1*
Y307902D1*
Y306402D1*
Y304902D1*
Y303402D1*
X534197D2*
Y301902D1*
Y300402D1*
Y298902D1*
Y297402D1*
Y295902D1*
Y294402D1*
Y292902D1*
Y291402D1*
Y289902D1*
Y288402D1*
Y286902D1*
X492197D2*
Y285402D1*
Y283902D1*
Y282402D1*
Y280902D1*
Y279402D1*
Y277902D1*
Y276402D1*
Y274902D1*
Y273402D1*
X478697Y271902D1*
X481465Y270402D1*
X484093Y268902D1*
X486699Y267402D1*
X489383Y265902D1*
X492053Y264402D1*
X494636Y262902D1*
X497282Y261402D1*
X500241Y259902D1*
X503603Y258402D1*
X507197Y256902D1*
X532697Y271902D2*
X529697Y270402D1*
X526697Y268902D1*
X523697Y267402D1*
X520697Y265902D1*
X517697Y264402D1*
X514691Y262902D1*
X511634Y261402D1*
X508402Y259902D1*
X504889Y258402D1*
X501197Y256902D1*
X534197Y271902D2*
Y270402D1*
Y268902D1*
Y267402D1*
Y265902D1*
Y264402D1*
Y262902D1*
Y261402D1*
Y259902D1*
X534185Y258402D1*
X534068Y256902D1*
X533787Y255402D1*
X532348Y253902D1*
X530122Y252402D1*
X527189Y250902D1*
X523822Y249402D1*
X520278Y247902D1*
X516710Y246402D1*
X512975Y244902D1*
X508514Y243402D1*
X502941Y241902D1*
X496697Y240402D1*
X477197Y238902D2*
Y237402D1*
Y235902D1*
Y234402D1*
Y232902D1*
Y231402D1*
Y229902D1*
Y228402D1*
Y226902D1*
Y225402D1*
Y223902D1*
X534197Y238902D2*
Y237402D1*
Y235902D1*
Y234402D1*
Y232902D1*
Y231402D1*
Y229902D1*
Y228402D1*
Y226902D1*
Y225402D1*
Y223902D1*
X477197Y211902D2*
Y210402D1*
Y208902D1*
Y207402D1*
Y205902D1*
Y204402D1*
Y202902D1*
Y201402D1*
Y199902D1*
X477203Y198402D1*
X477255Y196902D1*
X477447Y195402D1*
X477812Y193902D1*
X478249Y192402D1*
X478708Y190902D1*
X479265Y189402D1*
X479968Y187902D1*
X480924Y186402D1*
X482316Y184902D1*
X484242Y183402D1*
X486620Y181902D1*
X489197Y180402D1*
X492197Y211902D2*
Y210402D1*
Y208902D1*
Y207402D1*
X492203Y205902D1*
X492255Y204402D1*
X492464Y202902D1*
X492844Y201402D1*
X494041Y199902D1*
X495892Y198402D1*
X498197Y196902D1*
X499697Y211902D2*
Y210402D1*
Y208902D1*
Y207402D1*
Y205902D1*
Y204402D1*
X499679Y202902D1*
X499508Y201402D1*
X499099Y199902D1*
X497346Y198402D1*
X495197Y196902D1*
X511697Y211902D2*
Y210402D1*
Y208902D1*
Y207402D1*
Y205902D1*
X511703Y204402D1*
X511755Y202902D1*
X511958Y201402D1*
X512432Y199902D1*
X513284Y198402D1*
X514594Y196902D1*
X516197Y195402D1*
X519197Y211902D2*
Y210402D1*
Y208902D1*
Y207402D1*
Y205902D1*
Y204402D1*
X519191Y202902D1*
X519121Y201402D1*
X518945Y199902D1*
X518018Y198402D1*
X515787Y196902D1*
X513197Y195402D1*
X534197Y211902D2*
Y210402D1*
Y208902D1*
Y207402D1*
Y205902D1*
Y204402D1*
Y202902D1*
Y201402D1*
Y199902D1*
Y198402D1*
Y196902D1*
X534191Y195402D1*
X534138Y193902D1*
X533941Y192402D1*
X533523Y190902D1*
X532889Y189402D1*
X532018Y187902D1*
X530874Y186402D1*
X529441Y184902D1*
X527557Y183402D1*
X525064Y181902D1*
X522197Y180402D1*
X483197Y175902D2*
X481929Y174402D1*
X480806Y172902D1*
X479753Y171402D1*
X478766Y169902D1*
X478008Y168402D1*
X477513Y166902D1*
X477103Y165402D1*
X476649Y163902D1*
X476226Y162402D1*
X475955Y160902D1*
X475864Y159402D1*
X475990Y157902D1*
X476328Y156402D1*
X476755Y154902D1*
X477210Y153402D1*
X477765Y151902D1*
X478463Y150402D1*
X479360Y148902D1*
X480502Y147402D1*
X481831Y145902D1*
X483317Y144402D1*
X485092Y142902D1*
X487416Y141402D1*
X490383Y139902D1*
X493697Y138402D1*
X484697Y175902D2*
X486140Y174402D1*
X487447Y172902D1*
X488588Y171402D1*
X489697Y169902D1*
X490877Y168402D1*
X491982Y166902D1*
X492918Y165402D1*
X493187Y163902D1*
X492665Y162402D1*
X491773Y160902D1*
X490697Y159402D1*
X493325Y157902D1*
X497473Y156402D1*
X502697Y154902D1*
X504197Y159402D2*
Y157902D1*
Y156402D1*
X493697Y154902D1*
X519197Y159402D2*
Y157902D1*
Y156402D1*
Y154902D1*
X534197D1*
Y153402D1*
Y151902D1*
Y150402D1*
Y148902D1*
Y147402D1*
Y145902D1*
Y144402D1*
Y142902D1*
Y141402D1*
Y139902D1*
Y138402D1*
X477197Y127902D2*
Y126402D1*
Y124902D1*
Y123402D1*
Y121902D1*
Y120402D1*
Y118902D1*
Y117402D1*
Y115902D1*
X477203Y114402D1*
X477255Y112902D1*
X477447Y111402D1*
X477812Y109902D1*
X478249Y108402D1*
X478708Y106902D1*
X479265Y105402D1*
X479968Y103902D1*
X480924Y102402D1*
X482316Y100902D1*
X484242Y99402D1*
X486620Y97902D1*
X489197Y96402D1*
X492197Y127902D2*
Y126402D1*
Y124902D1*
Y123402D1*
X492203Y121902D1*
X492255Y120402D1*
X492464Y118902D1*
X492844Y117402D1*
X494041Y115902D1*
X495892Y114402D1*
X498197Y112902D1*
X499697Y127902D2*
Y126402D1*
Y124902D1*
Y123402D1*
Y121902D1*
Y120402D1*
X499679Y118902D1*
X499508Y117402D1*
X499099Y115902D1*
X497346Y114402D1*
X495197Y112902D1*
X511697Y127902D2*
Y126402D1*
Y124902D1*
Y123402D1*
Y121902D1*
X511703Y120402D1*
X511755Y118902D1*
X511958Y117402D1*
X512432Y115902D1*
X513284Y114402D1*
X514594Y112902D1*
X516197Y111402D1*
X519197Y127902D2*
Y126402D1*
Y124902D1*
Y123402D1*
Y121902D1*
Y120402D1*
X519191Y118902D1*
X519121Y117402D1*
X518945Y115902D1*
X518018Y114402D1*
X515787Y112902D1*
X513197Y111402D1*
X534197Y127902D2*
Y126402D1*
Y124902D1*
Y123402D1*
Y121902D1*
Y120402D1*
Y118902D1*
Y117402D1*
Y115902D1*
Y114402D1*
Y112902D1*
X534191Y111402D1*
X534138Y109902D1*
X533941Y108402D1*
X533523Y106902D1*
X532889Y105402D1*
X532018Y103902D1*
X530874Y102402D1*
X529441Y100902D1*
X527557Y99402D1*
X525064Y97902D1*
X522197Y96402D1*
X-470568Y443906D2*
D14*
X-472486Y442593D1*
X-474170Y441281D1*
X-475622Y439969D1*
X-476806Y438656D1*
X-477666Y437344D1*
X-478290Y436031D1*
X-478835Y434719D1*
X-479323Y433407D1*
X-479755Y432094D1*
X-462694Y443906D2*
X-460530Y442593D1*
X-458781Y441281D1*
X-457420Y439969D1*
X-456343Y438656D1*
X-455588Y437344D1*
X-455114Y436031D1*
X-454706Y434719D1*
X-454166Y433407D1*
X-453508Y432094D1*
X-454119Y430782D1*
X-454542Y429470D1*
X-454905Y428157D1*
X-455355Y426845D1*
X-455939Y425533D1*
X-456668Y424220D1*
X-457496Y422908D1*
X-458337Y421596D1*
X-459244Y420283D1*
X-460300Y418971D1*
X-461480Y417659D1*
X-462733Y416346D1*
X-464021Y415034D1*
X-465324Y413722D1*
X-466628Y412409D1*
X-467893Y411097D1*
X-469038Y409785D1*
X-470035Y408472D1*
X-471008Y407160D1*
X-472071Y405848D1*
X-473193Y404535D1*
X-439072Y443906D2*
X-440985Y442593D1*
X-442628Y441281D1*
X-443959Y439969D1*
X-444990Y438656D1*
X-445782Y437344D1*
X-446346Y436031D1*
X-446666Y434719D1*
X-446780Y433407D1*
X-446678Y432094D1*
X-446341Y430782D1*
X-445796Y429470D1*
X-445038Y428157D1*
X-444050Y426845D1*
X-442904Y425533D1*
X-441697Y424220D1*
X-443408Y422908D1*
X-444937Y421596D1*
X-446133Y420283D1*
X-447019Y418971D1*
X-447627Y417659D1*
X-447972Y416346D1*
X-448140Y415034D1*
X-448213Y413722D1*
X-448237Y412409D1*
X-448201Y411097D1*
X-448033Y409785D1*
X-447669Y408472D1*
X-447114Y407160D1*
X-446347Y405848D1*
X-445307Y404535D1*
X-443950Y403223D1*
X-442261Y401911D1*
X-440385Y400598D1*
X-431198Y443906D2*
X-429330Y442593D1*
X-427814Y441281D1*
X-426677Y439969D1*
X-425835Y438656D1*
X-425250Y437344D1*
X-424916Y436031D1*
X-424753Y434719D1*
X-424687Y433407D1*
X-424709Y432094D1*
X-424917Y430782D1*
X-425446Y429470D1*
X-426314Y428157D1*
X-427411Y426845D1*
X-428628Y425533D1*
X-429886Y424220D1*
X-427973Y422908D1*
X-426330Y421596D1*
X-424999Y420283D1*
X-423968Y418971D1*
X-423176Y417659D1*
X-422612Y416346D1*
X-422286Y415034D1*
X-422131Y413722D1*
X-422108Y412409D1*
X-422252Y411097D1*
X-422602Y409785D1*
X-423107Y408472D1*
X-423705Y407160D1*
X-424432Y405848D1*
X-425468Y404535D1*
X-427009Y403223D1*
X-429003Y401911D1*
X-431198Y400598D1*
X-395765Y443906D2*
X-396422Y442593D1*
X-397189Y441281D1*
X-397991Y439969D1*
X-398836Y438656D1*
X-399718Y437344D1*
X-400576Y436031D1*
X-401445Y434719D1*
X-402337Y433407D1*
X-403199Y432094D1*
X-404069Y430782D1*
X-404961Y429470D1*
X-405823Y428157D1*
X-406694Y426845D1*
X-407586Y425533D1*
X-408448Y424220D1*
X-409319Y422908D1*
X-410211Y421596D1*
X-411073Y420283D1*
X-411943Y418971D1*
X-412835Y417659D1*
X-413697Y416346D1*
X-414564Y415034D1*
X-415420Y413722D1*
X-416145Y412409D1*
X-416762Y411097D1*
X-394453Y443906D2*
Y442593D1*
Y441281D1*
Y439969D1*
Y438656D1*
Y437344D1*
Y436031D1*
Y434719D1*
Y433407D1*
Y432094D1*
Y430782D1*
Y429470D1*
Y428157D1*
Y426845D1*
Y425533D1*
Y424220D1*
Y422908D1*
Y421596D1*
Y420283D1*
Y418971D1*
Y417659D1*
Y416346D1*
Y415034D1*
Y413722D1*
X-390516D1*
Y412409D1*
Y411097D1*
Y409785D1*
X-394453D1*
Y408472D1*
Y407160D1*
Y405848D1*
Y404535D1*
Y403223D1*
Y401911D1*
X-376080Y443906D2*
X-377993Y442593D1*
X-379636Y441281D1*
X-380967Y439969D1*
X-382003Y438656D1*
X-382841Y437344D1*
X-383572Y436031D1*
X-384212Y434719D1*
X-384709Y433407D1*
X-385008Y432094D1*
X-385158Y430782D1*
X-385224Y429470D1*
X-385251Y428157D1*
X-385261Y426845D1*
X-385264Y425533D1*
X-385266Y424220D1*
Y422908D1*
Y421596D1*
Y420283D1*
Y418971D1*
Y417659D1*
Y416346D1*
X-385261Y415034D1*
X-385215Y413722D1*
X-385043Y412409D1*
X-384682Y411097D1*
X-384173Y409785D1*
X-383579Y408472D1*
X-382902Y407160D1*
X-382080Y405848D1*
X-381016Y404535D1*
X-379651Y403223D1*
X-377958Y401911D1*
X-376080Y400598D1*
X-369518Y443906D2*
X-367600Y442593D1*
X-365916Y441281D1*
X-364459Y439969D1*
X-363235Y438656D1*
X-362254Y437344D1*
X-361483Y436031D1*
X-360923Y434719D1*
X-360554Y433407D1*
X-360227Y432094D1*
X-359844Y430782D1*
X-359479Y429470D1*
X-359240Y428157D1*
X-359114Y426845D1*
X-359057Y425533D1*
X-359034Y424220D1*
X-359025Y422908D1*
X-359021Y421596D1*
X-359020Y420283D1*
X-359025Y418971D1*
X-359071Y417659D1*
X-359238Y416346D1*
X-359553Y415034D1*
X-359894Y413722D1*
X-360169Y412409D1*
X-360463Y411097D1*
X-360884Y409785D1*
X-361462Y408472D1*
X-362233Y407160D1*
X-363232Y405848D1*
X-364437Y404535D1*
X-365883Y403223D1*
X-367616Y401911D1*
X-369518Y400598D1*
X-571618Y442593D2*
Y441281D1*
Y439969D1*
Y438656D1*
Y437344D1*
Y436031D1*
Y434719D1*
Y433407D1*
Y432094D1*
Y430782D1*
Y429470D1*
Y428157D1*
Y426845D1*
Y425533D1*
Y424220D1*
Y422908D1*
Y421596D1*
Y420283D1*
Y418971D1*
Y417659D1*
Y416346D1*
Y415034D1*
Y413722D1*
Y412409D1*
Y411097D1*
Y409785D1*
Y408472D1*
Y407160D1*
Y405848D1*
Y404535D1*
Y403223D1*
Y401911D1*
X-554558Y442593D2*
X-552039Y441281D1*
X-550024Y439969D1*
X-548549Y438656D1*
X-547435Y437344D1*
X-547047Y436031D1*
X-546838Y434719D1*
X-546744Y433407D1*
X-546706Y432094D1*
X-546697Y430782D1*
X-546743Y429470D1*
X-546960Y428157D1*
X-547368Y426845D1*
X-548445Y425533D1*
X-550036Y424220D1*
X-552346Y422908D1*
X-555076Y421596D1*
X-557595Y420283D1*
X-559807Y418971D1*
X-558500Y417659D1*
X-557234Y416346D1*
X-556089Y415034D1*
X-555091Y413722D1*
X-554120Y412409D1*
X-553083Y411097D1*
X-552059Y409785D1*
X-551117Y408472D1*
X-550169Y407160D1*
X-549144Y405848D1*
X-548160Y404535D1*
X-547355Y403223D1*
X-546684Y401911D1*
X-536185Y442593D2*
Y441281D1*
Y439969D1*
Y438656D1*
Y437344D1*
Y436031D1*
Y434719D1*
Y433407D1*
Y432094D1*
Y430782D1*
Y429470D1*
Y428157D1*
Y426845D1*
Y425533D1*
Y424220D1*
Y422908D1*
Y421596D1*
Y420283D1*
Y418971D1*
Y417659D1*
Y416346D1*
Y415034D1*
Y413722D1*
Y412409D1*
Y411097D1*
Y409785D1*
Y408472D1*
Y407160D1*
Y405848D1*
Y404535D1*
Y403223D1*
Y401911D1*
X-516500Y442593D2*
Y441281D1*
Y439969D1*
X-503377Y442593D2*
X-503579Y441281D1*
X-503905Y439969D1*
X-504245Y438656D1*
X-504474Y437344D1*
X-504602Y436031D1*
X-504703Y434719D1*
X-504894Y433407D1*
X-505217Y432094D1*
X-505557Y430782D1*
X-505792Y429470D1*
X-505964Y428157D1*
X-506222Y426845D1*
X-506695Y425533D1*
X-507314Y424220D1*
X-487629Y442593D2*
Y441281D1*
Y439969D1*
Y438656D1*
X-500752D1*
X-501201Y437344D1*
X-501591Y436031D1*
X-501845Y434719D1*
X-502024Y433407D1*
X-502284Y432094D1*
X-502758Y430782D1*
X-503377Y429470D1*
X-497981Y428157D1*
X-494022Y426845D1*
X-491362Y425533D1*
X-489586Y424220D1*
X-488376Y422908D1*
X-487517Y421596D1*
X-486924Y420283D1*
X-486540Y418971D1*
X-486174Y417659D1*
X-485652Y416346D1*
X-485004Y415034D1*
X-485610Y413722D1*
X-485992Y412409D1*
X-486229Y411097D1*
X-486486Y409785D1*
X-486885Y408472D1*
X-487458Y407160D1*
X-488276Y405848D1*
X-489487Y404535D1*
X-491169Y403223D1*
X-493249Y401911D1*
X-495503Y400598D1*
X-467944Y441281D2*
X-470260Y439969D1*
X-472167Y438656D1*
X-473553Y437344D1*
X-474524Y436031D1*
X-475170Y434719D1*
X-475552Y433407D1*
X-475818Y432094D1*
X-465319Y441281D2*
X-462957Y439969D1*
X-460929Y438656D1*
X-459395Y437344D1*
X-458230Y436031D1*
X-457824Y434719D1*
X-457606Y433407D1*
X-457513Y432094D1*
X-457519Y430782D1*
X-457677Y429470D1*
X-458037Y428157D1*
X-458590Y426845D1*
X-459346Y425533D1*
X-460291Y424220D1*
X-461277Y422908D1*
X-462206Y421596D1*
X-463154Y420283D1*
X-464226Y418971D1*
X-465413Y417659D1*
X-466669Y416346D1*
X-467958Y415034D1*
X-469256Y413722D1*
X-470519Y412409D1*
X-471663Y411097D1*
X-472660Y409785D1*
X-473636Y408472D1*
X-474719Y407160D1*
X-475910Y405848D1*
X-477167Y404535D1*
X-478455Y403223D1*
X-479755Y401911D1*
X-436448Y441281D2*
X-438764Y439969D1*
X-440671Y438656D1*
X-442057Y437344D1*
X-443022Y436031D1*
X-443755Y434719D1*
X-443839Y433407D1*
X-443615Y432094D1*
X-443190Y430782D1*
X-442207Y429470D1*
X-439417Y428157D1*
X-435126Y426845D1*
X-429886Y425533D1*
X-433823Y441281D2*
X-431664Y439969D1*
X-429961Y438656D1*
X-428767Y437344D1*
X-427873Y436031D1*
X-427563Y434719D1*
X-427444Y433407D1*
X-427471Y432094D1*
X-428084Y430782D1*
X-428954Y429470D1*
X-431261Y428157D1*
X-434769Y426845D1*
X-439072Y425533D1*
X-373455Y441281D2*
X-375772Y439969D1*
X-377679Y438656D1*
X-379065Y437344D1*
X-380040Y436031D1*
X-380729Y434719D1*
X-381255Y433407D1*
X-381741Y432094D1*
X-382152Y430782D1*
X-382410Y429470D1*
X-382543Y428157D1*
X-382603Y426845D1*
X-382627Y425533D1*
X-382637Y424220D1*
X-382640Y422908D1*
X-382641Y421596D1*
X-382642Y420283D1*
Y418971D1*
X-382637Y417659D1*
X-382590Y416346D1*
X-382423Y415034D1*
X-382104Y413722D1*
X-381721Y412409D1*
X-381320Y411097D1*
X-380828Y409785D1*
X-380145Y408472D1*
X-379253Y407160D1*
X-376682Y405848D1*
X-372841Y404535D1*
X-368206Y403223D1*
X-372143Y441281D2*
X-369781Y439969D1*
X-367748Y438656D1*
X-366168Y437344D1*
X-365008Y436031D1*
X-364159Y434719D1*
X-363571Y433407D1*
X-363231Y432094D1*
X-363022Y430782D1*
X-362783Y429470D1*
X-362440Y428157D1*
X-362093Y426845D1*
X-361861Y425533D1*
X-361737Y424220D1*
X-361681Y422908D1*
X-361663Y421596D1*
X-361701Y420283D1*
X-361865Y418971D1*
X-362178Y417659D1*
X-362514Y416346D1*
X-362748Y415034D1*
X-362916Y413722D1*
X-363144Y412409D1*
X-363532Y411097D1*
X-364101Y409785D1*
X-364938Y408472D1*
X-366051Y407160D1*
X-368767Y405848D1*
X-372697Y404535D1*
X-377392Y403223D1*
X-567681Y439969D2*
Y438656D1*
Y437344D1*
Y436031D1*
Y434719D1*
Y433407D1*
Y432094D1*
Y430782D1*
Y429470D1*
Y428157D1*
Y426845D1*
Y425533D1*
X-555870Y424220D1*
X-557182Y439969D2*
X-554821Y438656D1*
X-552792Y437344D1*
X-551259Y436031D1*
X-550094Y434719D1*
X-549693Y433407D1*
X-549526Y432094D1*
X-549527Y430782D1*
X-550026Y429470D1*
X-551264Y428157D1*
X-555085Y426845D1*
X-561270Y425533D1*
X-568993Y424220D1*
X-533560Y439969D2*
Y438656D1*
Y437344D1*
Y436031D1*
Y434719D1*
Y433407D1*
Y432094D1*
Y430782D1*
Y429470D1*
Y428157D1*
Y426845D1*
Y425533D1*
X-607051Y430782D2*
Y429470D1*
Y428157D1*
Y426845D1*
Y425533D1*
Y424220D1*
Y422908D1*
Y421596D1*
Y420283D1*
Y418971D1*
Y417659D1*
Y416346D1*
Y415034D1*
Y413722D1*
Y412409D1*
Y411097D1*
Y409785D1*
Y408472D1*
Y407160D1*
Y405848D1*
Y404535D1*
Y403223D1*
Y401911D1*
X-604427Y430782D2*
X-604185Y429470D1*
X-603725Y428157D1*
X-603114Y426845D1*
X-596552Y430782D2*
X-599418Y429470D1*
X-602504Y428157D1*
X-605739Y426845D1*
X-588678Y430782D2*
X-586810Y429470D1*
X-585294Y428157D1*
X-584157Y426845D1*
X-583315Y425533D1*
X-582730Y424220D1*
X-582396Y422908D1*
X-582233Y421596D1*
X-582162Y420283D1*
X-582133Y418971D1*
X-582123Y417659D1*
X-582119Y416346D1*
X-582117Y415034D1*
Y413722D1*
Y412409D1*
Y411097D1*
Y409785D1*
Y408472D1*
Y407160D1*
Y405848D1*
Y404535D1*
Y403223D1*
Y401911D1*
X-401014Y432094D2*
X-401267Y430782D1*
X-401766Y429470D1*
X-402472Y428157D1*
X-403251Y426845D1*
X-404089Y425533D1*
X-404968Y424220D1*
X-405826Y422908D1*
X-406695Y421596D1*
X-407586Y420283D1*
X-408453Y418971D1*
X-409366Y417659D1*
X-410405Y416346D1*
X-411513Y415034D1*
X-401014Y413722D1*
X-398390Y432094D2*
Y430782D1*
Y429470D1*
Y428157D1*
Y426845D1*
Y425533D1*
Y424220D1*
Y422908D1*
Y421596D1*
Y420283D1*
Y418971D1*
Y417659D1*
Y416346D1*
Y415034D1*
X-410201Y413722D1*
X-595240Y428157D2*
X-597602Y426845D1*
X-599635Y425533D1*
X-601215Y424220D1*
X-602375Y422908D1*
X-603224Y421596D1*
X-603812Y420283D1*
X-604147Y418971D1*
X-604310Y417659D1*
X-604381Y416346D1*
X-604410Y415034D1*
X-604421Y413722D1*
X-604425Y412409D1*
X-604426Y411097D1*
Y409785D1*
Y408472D1*
Y407160D1*
X-604427Y405848D1*
Y404535D1*
Y403223D1*
Y401911D1*
X-589991Y428157D2*
X-588728Y426845D1*
X-587589Y425533D1*
X-586643Y424220D1*
X-585886Y422908D1*
X-585335Y421596D1*
X-585014Y420283D1*
X-584855Y418971D1*
X-584786Y417659D1*
X-584758Y416346D1*
X-584747Y415034D1*
X-584743Y413722D1*
X-584742Y412409D1*
Y411097D1*
Y409785D1*
X-584741Y408472D1*
Y407160D1*
Y405848D1*
Y404535D1*
Y403223D1*
Y401911D1*
X-516500Y425533D2*
Y424220D1*
Y422908D1*
X-502064Y425533D2*
X-503377Y424220D1*
X-496815Y425533D2*
X-494498Y424220D1*
X-492592Y422908D1*
X-491206Y421596D1*
X-490235Y420283D1*
X-489592Y418971D1*
X-489234Y417659D1*
X-489062Y416346D1*
X-488993Y415034D1*
X-489009Y413722D1*
X-489171Y412409D1*
X-489532Y411097D1*
X-490091Y409785D1*
X-490929Y408472D1*
X-492056Y407160D1*
X-495001Y405848D1*
X-499386Y404535D1*
X-504689Y403223D1*
X-533560Y422908D2*
Y421596D1*
Y420283D1*
Y418971D1*
Y417659D1*
Y416346D1*
Y415034D1*
Y413722D1*
Y412409D1*
Y411097D1*
Y409785D1*
Y408472D1*
Y407160D1*
Y405848D1*
Y404535D1*
Y403223D1*
Y401911D1*
X-436448Y422908D2*
X-438814Y421596D1*
X-440889Y420283D1*
X-442590Y418971D1*
X-443897Y417659D1*
X-444914Y416346D1*
X-445285Y415034D1*
X-445480Y413722D1*
X-445524Y412409D1*
X-445389Y411097D1*
X-445032Y409785D1*
X-444400Y408472D1*
X-443508Y407160D1*
X-440484Y405848D1*
X-435735Y404535D1*
X-429886Y403223D1*
X-433823Y422908D2*
X-431461Y421596D1*
X-429428Y420283D1*
X-427848Y418971D1*
X-426688Y417659D1*
X-425839Y416346D1*
X-425256Y415034D1*
X-424967Y413722D1*
X-424976Y412409D1*
X-425271Y411097D1*
X-425802Y409785D1*
X-426635Y408472D1*
X-427773Y407160D1*
X-430946Y405848D1*
X-435786Y404535D1*
X-441697Y403223D1*
X-567681Y421596D2*
Y420283D1*
Y418971D1*
Y417659D1*
Y416346D1*
Y415034D1*
Y413722D1*
Y412409D1*
Y411097D1*
Y409785D1*
Y408472D1*
Y407160D1*
Y405848D1*
Y404535D1*
Y403223D1*
Y401911D1*
X-563744Y421596D2*
X-563486Y420283D1*
X-562946Y418971D1*
X-562120Y417659D1*
X-561188Y416346D1*
X-560282Y415034D1*
X-559343Y413722D1*
X-558278Y412409D1*
X-557139Y411097D1*
X-556051Y409785D1*
X-555077Y408472D1*
X-554115Y407160D1*
X-553085Y405848D1*
X-552098Y404535D1*
X-551293Y403223D1*
X-550621Y401911D1*
X-511251Y411097D2*
X-510752Y409785D1*
X-510188Y408472D1*
X-509574Y407160D1*
X-508885Y405848D1*
X-508015Y404535D1*
X-506799Y403223D1*
X-505195Y401911D1*
X-503377Y400598D1*
X-508626Y411097D2*
X-507762Y409785D1*
X-506815Y408472D1*
X-505501Y407160D1*
X-503304Y405848D1*
X-499809Y404535D1*
X-495503Y403223D1*
X-398390Y411097D2*
Y409785D1*
Y408472D1*
Y407160D1*
Y405848D1*
Y404535D1*
Y403223D1*
Y401911D1*
X-453508Y404535D2*
Y403223D1*
Y401911D1*
X-477853Y360367D2*
X-479771Y359055D1*
X-481455Y357743D1*
X-482907Y356430D1*
X-484091Y355118D1*
X-484951Y353806D1*
X-485575Y352493D1*
X-486119Y351181D1*
X-486607Y349869D1*
X-487039Y348556D1*
X-469979Y360367D2*
X-467815Y359055D1*
X-466066Y357743D1*
X-464705Y356430D1*
X-463628Y355118D1*
X-462873Y353806D1*
X-462399Y352493D1*
X-461991Y351181D1*
X-461451Y349869D1*
X-460793Y348556D1*
X-461404Y347244D1*
X-461827Y345932D1*
X-462190Y344619D1*
X-462640Y343307D1*
X-463224Y341995D1*
X-463953Y340682D1*
X-464781Y339370D1*
X-465622Y338058D1*
X-466529Y336745D1*
X-467585Y335433D1*
X-468765Y334121D1*
X-470018Y332808D1*
X-471306Y331496D1*
X-472609Y330184D1*
X-473913Y328871D1*
X-475178Y327559D1*
X-476322Y326247D1*
X-477320Y324934D1*
X-478293Y323622D1*
X-479356Y322310D1*
X-480478Y320997D1*
X-446357Y360367D2*
X-448270Y359055D1*
X-449913Y357743D1*
X-451244Y356430D1*
X-452275Y355118D1*
X-453067Y353806D1*
X-453630Y352493D1*
X-453951Y351181D1*
X-454065Y349869D1*
X-453963Y348556D1*
X-453625Y347244D1*
X-453081Y345932D1*
X-452323Y344619D1*
X-451335Y343307D1*
X-450189Y341995D1*
X-448982Y340682D1*
X-450693Y339370D1*
X-452222Y338058D1*
X-453418Y336745D1*
X-454303Y335433D1*
X-454912Y334121D1*
X-455257Y332808D1*
X-455425Y331496D1*
X-455497Y330184D1*
X-455521Y328871D1*
X-455486Y327559D1*
X-455318Y326247D1*
X-454953Y324934D1*
X-454399Y323622D1*
X-453632Y322310D1*
X-452591Y320997D1*
X-451235Y319685D1*
X-449546Y318373D1*
X-447669Y317060D1*
X-438483Y360367D2*
X-436615Y359055D1*
X-435099Y357743D1*
X-433962Y356430D1*
X-433120Y355118D1*
X-432535Y353806D1*
X-432201Y352493D1*
X-432037Y351181D1*
X-431971Y349869D1*
X-431994Y348556D1*
X-432202Y347244D1*
X-432731Y345932D1*
X-433599Y344619D1*
X-434696Y343307D1*
X-435913Y341995D1*
X-437171Y340682D1*
X-435258Y339370D1*
X-433615Y338058D1*
X-432284Y336745D1*
X-431252Y335433D1*
X-430461Y334121D1*
X-429897Y332808D1*
X-429571Y331496D1*
X-429416Y330184D1*
X-429392Y328871D1*
X-429537Y327559D1*
X-429886Y326247D1*
X-430391Y324934D1*
X-430990Y323622D1*
X-431717Y322310D1*
X-432753Y320997D1*
X-434294Y319685D1*
X-436288Y318373D1*
X-438483Y317060D1*
X-414861Y360367D2*
X-416774Y359055D1*
X-418417Y357743D1*
X-419748Y356430D1*
X-420784Y355118D1*
X-421622Y353806D1*
X-422353Y352493D1*
X-422993Y351181D1*
X-423490Y349869D1*
X-423789Y348556D1*
X-423938Y347244D1*
X-424005Y345932D1*
X-424031Y344619D1*
X-424042Y343307D1*
X-424045Y341995D1*
X-424047Y340682D1*
Y339370D1*
Y338058D1*
Y336745D1*
Y335433D1*
Y334121D1*
Y332808D1*
X-424042Y331496D1*
X-423996Y330184D1*
X-423824Y328871D1*
X-423463Y327559D1*
X-422954Y326247D1*
X-422360Y324934D1*
X-421683Y323622D1*
X-420861Y322310D1*
X-419797Y320997D1*
X-418432Y319685D1*
X-416739Y318373D1*
X-414861Y317060D1*
X-408299Y360367D2*
X-406381Y359055D1*
X-404697Y357743D1*
X-403240Y356430D1*
X-402015Y355118D1*
X-401034Y353806D1*
X-400264Y352493D1*
X-399704Y351181D1*
X-399335Y349869D1*
X-399008Y348556D1*
X-398624Y347244D1*
X-398260Y345932D1*
X-398020Y344619D1*
X-397895Y343307D1*
X-397838Y341995D1*
X-397815Y340682D1*
X-397806Y339370D1*
X-397802Y338058D1*
X-397801Y336745D1*
X-397806Y335433D1*
X-397852Y334121D1*
X-398019Y332808D1*
X-398333Y331496D1*
X-398675Y330184D1*
X-398950Y328871D1*
X-399244Y327559D1*
X-399665Y326247D1*
X-400243Y324934D1*
X-401014Y323622D1*
X-402013Y322310D1*
X-403218Y320997D1*
X-404664Y319685D1*
X-406396Y318373D1*
X-408299Y317060D1*
X-605150Y359055D2*
Y357743D1*
Y356430D1*
Y355118D1*
Y353806D1*
Y352493D1*
Y351181D1*
Y349869D1*
Y348556D1*
Y347244D1*
Y345932D1*
Y344619D1*
Y343307D1*
Y341995D1*
Y340682D1*
Y339370D1*
Y338058D1*
Y336745D1*
Y335433D1*
Y334121D1*
Y332808D1*
Y331496D1*
Y330184D1*
Y328871D1*
Y327559D1*
Y326247D1*
Y324934D1*
Y323622D1*
Y322310D1*
Y320997D1*
Y319685D1*
Y318373D1*
X-592026Y359055D2*
X-590113Y357743D1*
X-588475Y356430D1*
X-587191Y355118D1*
X-586183Y353806D1*
X-585813Y352493D1*
X-585613Y351181D1*
X-585528Y349869D1*
X-585537Y348556D1*
X-585701Y347244D1*
X-586102Y345932D1*
X-586774Y344619D1*
X-587654Y343307D1*
X-588563Y341995D1*
X-589402Y340682D1*
X-587243Y339370D1*
X-585534Y338058D1*
X-584295Y336745D1*
X-583365Y335433D1*
X-582637Y334121D1*
X-582105Y332808D1*
X-581793Y331496D1*
X-581644Y330184D1*
X-581622Y328871D1*
X-581767Y327559D1*
X-582122Y326247D1*
X-582674Y324934D1*
X-583439Y323622D1*
X-584480Y322310D1*
X-585836Y320997D1*
X-587525Y319685D1*
X-589402Y318373D1*
X-568404Y359055D2*
Y357743D1*
X-568409Y356430D1*
X-568455Y355118D1*
X-568623Y353806D1*
X-568937Y352493D1*
X-569273Y351181D1*
X-569502Y349869D1*
X-569624Y348556D1*
X-569680Y347244D1*
X-569708Y345932D1*
X-569763Y344619D1*
X-569933Y343307D1*
X-570249Y341995D1*
X-570586Y340682D1*
X-570815Y339370D1*
X-570936Y338058D1*
X-570997Y336745D1*
X-571066Y335433D1*
X-571242Y334121D1*
X-571560Y332808D1*
X-571898Y331496D1*
X-572127Y330184D1*
X-572249Y328871D1*
X-572310Y327559D1*
X-572379Y326247D1*
X-572555Y324934D1*
X-572872Y323622D1*
X-573210Y322310D1*
X-573440Y320997D1*
X-573569Y319685D1*
X-573654Y318373D1*
X-567092Y359055D2*
X-566593Y357743D1*
X-566029Y356430D1*
X-565420Y355118D1*
X-564782Y353806D1*
X-564135Y352493D1*
X-563481Y351181D1*
X-562827Y349869D1*
X-562170Y348556D1*
X-561515Y347244D1*
X-560858Y345932D1*
X-560203Y344619D1*
X-559545Y343307D1*
X-558890Y341995D1*
X-558233Y340682D1*
X-557578Y339370D1*
X-556921Y338058D1*
X-556266Y336745D1*
X-555608Y335433D1*
X-554953Y334121D1*
X-554296Y332808D1*
X-553641Y331496D1*
X-552984Y330184D1*
X-552325Y328871D1*
X-551633Y327559D1*
X-550868Y326247D1*
X-550031Y324934D1*
X-515911Y359055D2*
Y357743D1*
Y356430D1*
Y355118D1*
Y353806D1*
Y352493D1*
Y351181D1*
Y349869D1*
Y348556D1*
Y347244D1*
Y345932D1*
Y344619D1*
Y343307D1*
Y341995D1*
Y340682D1*
Y339370D1*
Y338058D1*
Y336745D1*
Y335433D1*
Y334121D1*
Y332808D1*
Y331496D1*
Y330184D1*
Y328871D1*
Y327559D1*
Y326247D1*
Y324934D1*
Y323622D1*
Y322310D1*
Y320997D1*
Y319685D1*
Y318373D1*
X-492289Y359055D2*
Y357743D1*
Y356430D1*
X-532971Y357743D2*
X-533470Y356430D1*
X-534034Y355118D1*
X-534643Y353806D1*
X-535281Y352493D1*
X-535928Y351181D1*
X-536582Y349869D1*
X-537236Y348556D1*
X-537893Y347244D1*
X-538548Y345932D1*
X-539205Y344619D1*
X-539865Y343307D1*
X-540564Y341995D1*
X-541345Y340682D1*
X-542190Y339370D1*
X-542994Y338058D1*
X-543732Y336745D1*
X-544428Y335433D1*
X-545100Y334121D1*
X-545763Y332808D1*
X-546421Y331496D1*
X-547079Y330184D1*
X-547738Y328871D1*
X-548430Y327559D1*
X-549195Y326247D1*
X-550031Y324934D1*
X-530346Y357743D2*
Y356430D1*
Y355118D1*
X-530341Y353806D1*
X-530295Y352493D1*
X-530128Y351181D1*
X-529814Y349869D1*
X-529477Y348556D1*
X-529248Y347244D1*
X-529127Y345932D1*
X-529071Y344619D1*
X-529043Y343307D1*
X-528988Y341995D1*
X-528817Y340682D1*
X-528502Y339370D1*
X-528165Y338058D1*
X-527936Y336745D1*
X-527814Y335433D1*
X-527753Y334121D1*
X-527684Y332808D1*
X-527508Y331496D1*
X-527191Y330184D1*
X-526853Y328871D1*
X-526624Y327559D1*
X-526502Y326247D1*
X-526441Y324934D1*
X-526372Y323622D1*
X-526195Y322310D1*
X-525866Y320997D1*
X-525475Y319685D1*
X-525097Y318373D1*
X-475228Y357743D2*
X-477545Y356430D1*
X-479452Y355118D1*
X-480838Y353806D1*
X-481808Y352493D1*
X-482455Y351181D1*
X-482837Y349869D1*
X-483102Y348556D1*
X-472604Y357743D2*
X-470242Y356430D1*
X-468213Y355118D1*
X-466680Y353806D1*
X-465515Y352493D1*
X-465109Y351181D1*
X-464891Y349869D1*
X-464798Y348556D1*
X-464804Y347244D1*
X-464961Y345932D1*
X-465322Y344619D1*
X-465875Y343307D1*
X-466631Y341995D1*
X-467575Y340682D1*
X-468562Y339370D1*
X-469490Y338058D1*
X-470438Y336745D1*
X-471511Y335433D1*
X-472698Y334121D1*
X-473953Y332808D1*
X-475242Y331496D1*
X-476541Y330184D1*
X-477803Y328871D1*
X-478947Y327559D1*
X-479945Y326247D1*
X-480921Y324934D1*
X-482004Y323622D1*
X-483195Y322310D1*
X-484451Y320997D1*
X-485740Y319685D1*
X-487039Y318373D1*
X-443732Y357743D2*
X-446049Y356430D1*
X-447956Y355118D1*
X-449342Y353806D1*
X-450307Y352493D1*
X-451040Y351181D1*
X-451123Y349869D1*
X-450899Y348556D1*
X-450475Y347244D1*
X-449492Y345932D1*
X-446702Y344619D1*
X-442410Y343307D1*
X-437171Y341995D1*
X-441108Y357743D2*
X-438949Y356430D1*
X-437246Y355118D1*
X-436052Y353806D1*
X-435158Y352493D1*
X-434848Y351181D1*
X-434729Y349869D1*
X-434756Y348556D1*
X-435369Y347244D1*
X-436239Y345932D1*
X-438546Y344619D1*
X-442054Y343307D1*
X-446357Y341995D1*
X-412236Y357743D2*
X-414553Y356430D1*
X-416460Y355118D1*
X-417846Y353806D1*
X-418821Y352493D1*
X-419510Y351181D1*
X-420035Y349869D1*
X-420522Y348556D1*
X-420933Y347244D1*
X-421191Y345932D1*
X-421324Y344619D1*
X-421384Y343307D1*
X-421408Y341995D1*
X-421417Y340682D1*
X-421421Y339370D1*
X-421422Y338058D1*
Y336745D1*
X-421423Y335433D1*
X-421417Y334121D1*
X-421371Y332808D1*
X-421204Y331496D1*
X-420885Y330184D1*
X-420502Y328871D1*
X-420101Y327559D1*
X-419608Y326247D1*
X-418926Y324934D1*
X-418034Y323622D1*
X-415463Y322310D1*
X-411621Y320997D1*
X-406987Y319685D1*
X-410924Y357743D2*
X-408562Y356430D1*
X-406529Y355118D1*
X-404949Y353806D1*
X-403789Y352493D1*
X-402940Y351181D1*
X-402352Y349869D1*
X-402012Y348556D1*
X-401802Y347244D1*
X-401564Y345932D1*
X-401221Y344619D1*
X-400874Y343307D1*
X-400641Y341995D1*
X-400518Y340682D1*
X-400462Y339370D1*
X-400444Y338058D1*
X-400481Y336745D1*
X-400645Y335433D1*
X-400959Y334121D1*
X-401295Y332808D1*
X-401529Y331496D1*
X-401696Y330184D1*
X-401924Y328871D1*
X-402313Y327559D1*
X-402882Y326247D1*
X-403719Y324934D1*
X-404832Y323622D1*
X-407548Y322310D1*
X-411478Y320997D1*
X-416173Y319685D1*
X-602525Y356430D2*
Y355118D1*
Y353806D1*
Y352493D1*
Y351181D1*
Y349869D1*
Y348556D1*
Y347244D1*
Y345932D1*
Y344619D1*
Y343307D1*
X-594651Y341995D1*
Y356430D2*
X-592339Y355118D1*
X-590479Y353806D1*
X-589048Y352493D1*
X-588556Y351181D1*
X-588341Y349869D1*
X-588315Y348556D1*
X-588809Y347244D1*
X-589984Y345932D1*
X-593118Y344619D1*
X-597938Y343307D1*
X-603837Y341995D1*
X-511974Y356430D2*
Y355118D1*
Y353806D1*
Y352493D1*
Y351181D1*
Y349869D1*
Y348556D1*
Y347244D1*
Y345932D1*
Y344619D1*
Y343307D1*
Y341995D1*
X-564467Y347244D2*
X-565522Y345932D1*
X-566289Y344619D1*
X-566729Y343307D1*
X-566947Y341995D1*
X-567085Y340682D1*
X-567289Y339370D1*
X-567617Y338058D1*
X-567959Y336745D1*
X-568189Y335433D1*
X-568311Y334121D1*
X-568372Y332808D1*
X-568442Y331496D1*
X-568618Y330184D1*
X-568935Y328871D1*
X-569273Y327559D1*
X-569502Y326247D1*
X-569629Y324934D1*
X-569731Y323622D1*
X-569922Y322310D1*
X-570256Y320997D1*
X-570650Y319685D1*
X-571029Y318373D1*
X-563155Y347244D2*
X-562947Y345932D1*
X-562575Y344619D1*
X-562063Y343307D1*
X-561473Y341995D1*
X-560842Y340682D1*
X-560197Y339370D1*
X-559544Y338058D1*
X-558890Y336745D1*
X-558233Y335433D1*
X-557578Y334121D1*
X-556921Y332808D1*
X-556266Y331496D1*
X-555608Y330184D1*
X-554953Y328871D1*
X-554296Y327559D1*
X-553641Y326247D1*
X-552989Y324934D1*
X-552375Y323622D1*
X-551840Y322310D1*
X-551341Y320997D1*
X-550737Y319685D1*
X-550031Y318373D1*
X-535596Y347244D2*
X-535804Y345932D1*
X-536175Y344619D1*
X-536687Y343307D1*
X-537278Y341995D1*
X-537908Y340682D1*
X-538554Y339370D1*
X-539207Y338058D1*
X-539861Y336745D1*
X-540518Y335433D1*
X-541173Y334121D1*
X-541830Y332808D1*
X-542485Y331496D1*
X-543142Y330184D1*
X-543797Y328871D1*
X-544455Y327559D1*
X-545110Y326247D1*
X-545767Y324934D1*
X-546422Y323622D1*
X-547075Y322310D1*
X-547696Y320997D1*
X-548243Y319685D1*
X-548719Y318373D1*
X-534283Y347244D2*
X-533229Y345932D1*
X-532462Y344619D1*
X-532022Y343307D1*
X-531809Y341995D1*
X-531717Y340682D1*
X-531675Y339370D1*
X-531615Y338058D1*
X-531443Y336745D1*
X-531127Y335433D1*
X-530790Y334121D1*
X-530561Y332808D1*
X-530439Y331496D1*
X-530378Y330184D1*
X-530309Y328871D1*
X-530133Y327559D1*
X-529815Y326247D1*
X-529478Y324934D1*
X-529248Y323622D1*
X-529127Y322310D1*
X-529071Y320997D1*
X-529047Y319685D1*
X-529034Y318373D1*
X-492289Y341995D2*
Y340682D1*
Y339370D1*
X-602525D2*
Y338058D1*
Y336745D1*
Y335433D1*
Y334121D1*
Y332808D1*
Y331496D1*
Y330184D1*
Y328871D1*
Y327559D1*
Y326247D1*
Y324934D1*
Y323622D1*
Y322310D1*
X-592026Y320997D1*
X-593339Y339370D2*
X-590977Y338058D1*
X-588948Y336745D1*
X-587410Y335433D1*
X-586367Y334121D1*
X-585628Y332808D1*
X-584917Y331496D1*
X-584152Y330184D1*
X-584813Y328871D1*
X-585415Y327559D1*
X-586231Y326247D1*
X-587362Y324934D1*
X-590975Y323622D1*
X-596716Y322310D1*
X-603837Y320997D1*
X-511974Y339370D2*
Y338058D1*
Y336745D1*
Y335433D1*
Y334121D1*
Y332808D1*
Y331496D1*
Y330184D1*
Y328871D1*
Y327559D1*
Y326247D1*
Y324934D1*
Y323622D1*
Y322310D1*
Y320997D1*
X-443732Y339370D2*
X-446099Y338058D1*
X-448174Y336745D1*
X-449874Y335433D1*
X-451181Y334121D1*
X-452199Y332808D1*
X-452569Y331496D1*
X-452765Y330184D1*
X-452809Y328871D1*
X-452674Y327559D1*
X-452317Y326247D1*
X-451685Y324934D1*
X-450793Y323622D1*
X-447769Y322310D1*
X-443020Y320997D1*
X-437171Y319685D1*
X-441108Y339370D2*
X-438746Y338058D1*
X-436712Y336745D1*
X-435133Y335433D1*
X-433973Y334121D1*
X-433123Y332808D1*
X-432541Y331496D1*
X-432252Y330184D1*
X-432261Y328871D1*
X-432556Y327559D1*
X-433087Y326247D1*
X-433920Y324934D1*
X-435058Y323622D1*
X-438231Y322310D1*
X-443070Y320997D1*
X-448982Y319685D1*
X-492289Y320997D2*
Y319685D1*
Y318373D1*
X-460793Y320997D2*
Y319685D1*
Y318373D1*
M02*
