G04 DipTrace 3.2.0.1*
G04 Нижний.gbr*
%MOIN*%
G04 #@! TF.FileFunction,Copper,L2,Bot*
G04 #@! TF.Part,Single*
%AMOUTLINE0*
4,1,4,
0.014735,-0.029542,
-0.014794,-0.029513,
-0.014735,0.029542,
0.014794,0.029513,
0.014735,-0.029542,
0*%
%AMOUTLINE3*
4,1,16,
-0.041319,-0.011881,
-0.037196,-0.02981,
-0.025701,-0.044175,
-0.009112,-0.052129,
0.009286,-0.052097,
0.025848,-0.044088,
0.037294,-0.029685,
0.041358,-0.011741,
0.041319,0.011881,
0.037196,0.02981,
0.025701,0.044175,
0.009112,0.052129,
-0.009286,0.052097,
-0.025848,0.044088,
-0.037294,0.029685,
-0.041358,0.011741,
-0.041319,-0.011881,
0*%
%AMOUTLINE6*
4,1,4,
0.013953,0.021542,
0.013606,-0.021762,
-0.013953,-0.021542,
-0.013606,0.021762,
0.013953,0.021542,
0*%
%AMOUTLINE9*
4,1,4,
-0.013953,-0.021542,
-0.013606,0.021762,
0.013953,0.021542,
0.013606,-0.021762,
-0.013953,-0.021542,
0*%
%ADD16C,0.011811*%
%ADD30C,0.043307*%
G04 #@! TA.AperFunction,CopperBalancing*
%ADD10C,0.009843*%
G04 #@! TA.AperFunction,ViaPad*
%ADD15C,0.023622*%
G04 #@! TA.AperFunction,CopperBalancing*
%ADD18C,0.019685*%
%ADD22R,0.133858X0.074803*%
%ADD28C,0.669291*%
%ADD49OUTLINE0*%
G04 #@! TA.AperFunction,ComponentPad*
%ADD52OUTLINE3*%
%ADD55OUTLINE6*%
%ADD58OUTLINE9*%
%FSLAX26Y26*%
G04*
G70*
G90*
G75*
G01*
G04 Bottom*
%LPD*%
X545906Y-458110D2*
D15*
X440605D1*
X-17505Y0D1*
X3367D1*
X-594156Y292664D2*
D16*
Y339797D1*
X-561819Y372134D1*
X-368766D1*
X3367Y0D1*
X134858Y-445369D2*
Y-431940D1*
X103769Y-400850D1*
X33029D1*
X3367Y-371189D1*
Y0D1*
X-361773Y-434238D2*
X-201559Y-247231D1*
X-43260Y-59962D1*
X3367Y0D1*
X-361773Y-434238D2*
X-166155Y-206462D1*
X3367Y0D1*
X572268Y150862D2*
X572576D1*
X600933Y179219D1*
Y303864D1*
X593232Y311564D1*
X308764Y-95143D2*
X98510D1*
X3367Y0D1*
X-594156Y292664D2*
Y-218672D1*
Y-276142D1*
X-592849Y-277449D1*
Y-291987D1*
X-593178Y-218672D2*
X-594156D1*
X464702Y457178D2*
X490469D1*
X493378Y460088D1*
X543993Y416455D2*
Y446622D1*
X540545Y450071D1*
Y457205D1*
X543378Y460038D1*
X450117Y247958D2*
Y262001D1*
X387335Y324783D1*
Y340329D1*
X568100Y247785D2*
X552361Y263524D1*
Y286433D1*
X543234Y295560D1*
Y311614D1*
X-477537Y-457311D2*
X-508247D1*
X-509513Y-456045D1*
X412482Y398542D2*
X415878D1*
X484462Y329958D1*
Y311663D1*
X493232D1*
X545906Y-304567D2*
X579688D1*
D15*
Y-192593D1*
Y-81938D1*
X496898Y852D1*
X511240D1*
X598517Y414692D2*
D16*
Y454852D1*
X593379Y459990D1*
X580026Y-206403D2*
X579688Y-192593D1*
X-508206Y455367D2*
X-511322Y458483D1*
Y467280D1*
X-195457D1*
X-157808Y504928D1*
X906D1*
Y506182D1*
D15*
D3*
X464702Y457178D3*
X543993Y416455D3*
X598517Y414692D3*
X412482Y398542D3*
X387335Y340329D3*
X450117Y247958D3*
X568100Y247785D3*
X572268Y150862D3*
X308764Y-95143D3*
X-593178Y-218672D3*
X-477537Y-457311D3*
X-361773Y-434238D3*
X134858Y-445369D3*
X-408186Y364665D3*
X-347710Y-254899D3*
X-549874Y-372395D3*
X-406459Y132150D3*
X183711Y499672D3*
X580026Y-206403D3*
X-504457Y534999D2*
D18*
X-492175D1*
X491795D2*
X504421D1*
X-519493Y515445D2*
X-469639D1*
X-317932D2*
X-200472D1*
X43961D2*
X316942D1*
X43710Y495891D2*
X366427D1*
X416366D2*
X446125D1*
X32621Y476337D2*
X425205D1*
X-152756Y456783D2*
X420612D1*
X-173282Y437230D2*
X393841D1*
X-466850Y417676D2*
X372993D1*
X-611787Y398122D2*
X368400D1*
X469475D2*
X504114D1*
X-611787Y378568D2*
X367682D1*
X489033D2*
X523598D1*
X564388D2*
X574869D1*
X-611787Y359014D2*
X-64220D1*
X70946D2*
X347623D1*
X-561478Y339461D2*
X-541156D1*
X-477903D2*
X-132615D1*
X139377D2*
X343245D1*
X-463944Y319907D2*
X-174277D1*
X181003D2*
X348520D1*
X-463370Y300353D2*
X-205927D1*
X212652D2*
X358639D1*
X-441588Y280799D2*
X-231727D1*
X238453D2*
X378125D1*
X-436924Y261245D2*
X-253437D1*
X260198D2*
X397681D1*
X-436887Y241692D2*
X-272062D1*
X278787D2*
X406509D1*
X-611715Y222138D2*
X-571802D1*
X-436816D2*
X-288173D1*
X294899D2*
X414870D1*
X603503D2*
X610864D1*
X-611680Y202584D2*
X-571802D1*
X-436780D2*
X-302168D1*
X308894D2*
X445121D1*
X580214D2*
X610869D1*
X-611680Y183030D2*
X-571837D1*
X-436707D2*
X-314332D1*
X321094D2*
X445121D1*
X580286D2*
X610869D1*
X-611680Y163476D2*
X-571874D1*
X-436672D2*
X-324919D1*
X331644D2*
X445084D1*
X580322D2*
X610869D1*
X-611643Y143923D2*
X-571909D1*
X-436600D2*
X-333997D1*
X340723D2*
X445049D1*
X580394D2*
X610906D1*
X-611643Y124369D2*
X-571909D1*
X-436529D2*
X-341713D1*
X348438D2*
X445013D1*
X580429D2*
X610906D1*
X-611643Y104815D2*
X-571945D1*
X-436492D2*
X-348172D1*
X354933D2*
X445013D1*
X580501D2*
X610906D1*
X-611608Y85261D2*
X-571982D1*
X-436421D2*
X-353446D1*
X360209D2*
X444976D1*
X580537D2*
X610941D1*
X-611608Y65707D2*
X-572017D1*
X-436385D2*
X-357609D1*
X364335D2*
X444941D1*
X580609D2*
X610941D1*
X-611608Y46154D2*
X-572052D1*
X-436314D2*
X-360623D1*
X367349D2*
X444906D1*
X580644D2*
X610941D1*
X-611572Y26600D2*
X-575354D1*
X-433694D2*
X-362597D1*
X369323D2*
X439988D1*
X582438D2*
X610976D1*
X-611572Y7046D2*
X-578154D1*
X-430895D2*
X-363493D1*
X370219D2*
X437621D1*
X584843D2*
X610976D1*
X-611572Y-12508D2*
X-578117D1*
X-430858D2*
X-363350D1*
X370076D2*
X437656D1*
X584843D2*
X610976D1*
X-611572Y-32062D2*
X-574457D1*
X-434520D2*
X-362167D1*
X368892D2*
X441676D1*
X591339D2*
X611013D1*
X-611535Y-51615D2*
X-572197D1*
X-436062D2*
X-359906D1*
X366631D2*
X444761D1*
X-611535Y-71169D2*
X-572197D1*
X-435991D2*
X-356568D1*
X363294D2*
X444726D1*
X-611535Y-90723D2*
X-572232D1*
X-435954D2*
X-352118D1*
X358844D2*
X444726D1*
X-611500Y-110277D2*
X-572268D1*
X-435883D2*
X-346484D1*
X353247D2*
X444690D1*
X-611500Y-129831D2*
X-572304D1*
X-435811D2*
X-339703D1*
X346429D2*
X444654D1*
X-611500Y-149385D2*
X-572304D1*
X-435776D2*
X-331593D1*
X338319D2*
X444618D1*
X-611465Y-168938D2*
X-572340D1*
X-435703D2*
X-322119D1*
X328845D2*
X444581D1*
X-611465Y-188492D2*
X-572375D1*
X-435668D2*
X-311104D1*
X317865D2*
X444581D1*
X-611465Y-208046D2*
X-572412D1*
X-435596D2*
X-298472D1*
X305198D2*
X444546D1*
X-611428Y-227600D2*
X-572448D1*
X-435559D2*
X-283903D1*
X290629D2*
X444510D1*
X-435488Y-247154D2*
X-267144D1*
X273870D2*
X444474D1*
X-435451Y-266707D2*
X-247731D1*
X254457D2*
X445839D1*
X-441480Y-286261D2*
X-224982D1*
X231707D2*
X446699D1*
X-462257Y-305815D2*
X-197781D1*
X204507D2*
X446699D1*
X-464375Y-325369D2*
X-163906D1*
X170668D2*
X446699D1*
X-611357Y-344923D2*
X-117866D1*
X124592D2*
X446699D1*
X-611357Y-364476D2*
X-17391D1*
X24117D2*
X446699D1*
X-611357Y-384030D2*
X453374D1*
X-576118Y-403584D2*
X446699D1*
X-450919Y-423138D2*
X446699D1*
X-436062Y-442692D2*
X-117903D1*
X118672D2*
X446699D1*
X-433730Y-462245D2*
X-117974D1*
X118743D2*
X446699D1*
X-441301Y-481799D2*
X-138428D1*
X137403D2*
X446699D1*
X-474853Y-501353D2*
X-440214D1*
X-346136D2*
X-148154D1*
X147307D2*
X349022D1*
X437072D2*
X446710D1*
X-513967Y-520907D2*
X-476744D1*
X-312154D2*
X-157878D1*
X157211D2*
X311811D1*
X-289403Y-540461D2*
X-167567D1*
X167115D2*
X290567D1*
X496030D2*
X502039D1*
X-276593Y-560014D2*
X-177291D1*
X177055D2*
X276177D1*
X-266832Y-579568D2*
X-186980D1*
X186959D2*
X266560D1*
X-260230Y-599122D2*
X-196705D1*
X196864D2*
X260927D1*
X455295Y-372283D2*
X448661D1*
X448479Y-268608D1*
X447117Y-264049D1*
X446484Y-259325D1*
X446751Y-42148D1*
X444927Y-37390D1*
X439936Y-15484D1*
X439591Y-1894D1*
X439656Y14921D1*
X442345Y28249D1*
X444997Y39533D1*
X446765Y43959D1*
X446944Y91449D1*
X447109Y205955D1*
X440282Y206996D1*
X433996Y209038D1*
X428106Y212039D1*
X422759Y215925D1*
X418084Y220600D1*
X414198Y225948D1*
X411197Y231837D1*
X409155Y238123D1*
X408121Y244652D1*
Y251264D1*
X408280Y252610D1*
X359793Y301260D1*
X356451Y305858D1*
X353871Y310923D1*
X351416Y318319D1*
X348415Y324209D1*
X346373Y330495D1*
X345339Y337024D1*
Y343635D1*
X346373Y350164D1*
X348415Y356450D1*
X351416Y362340D1*
X355302Y367688D1*
X359976Y372362D1*
X365324Y376248D1*
X371214Y379249D1*
X374454Y380432D1*
X372417Y385525D1*
X370874Y391951D1*
X370356Y398542D1*
X370874Y405133D1*
X372417Y411559D1*
X374948Y417667D1*
X378402Y423303D1*
X382694Y428329D1*
X387720Y432622D1*
X393357Y436076D1*
X399465Y438606D1*
X405891Y440150D1*
X412482Y440668D1*
X419072Y440150D1*
X425499Y438606D1*
X427168Y438054D1*
X424638Y444161D1*
X423094Y450588D1*
X422576Y457178D1*
X423094Y463769D1*
X424638Y470196D1*
X427168Y476303D1*
X430622Y481940D1*
X434915Y486966D1*
X439941Y491259D1*
X445577Y494713D1*
X449054Y496272D1*
X450647Y501259D1*
X452811Y505495D1*
X455617Y509348D1*
X442743Y503816D1*
X431448Y499356D1*
X411764Y495449D1*
X390760Y494199D1*
X370756Y495360D1*
X349703Y500298D1*
X331075Y508526D1*
X311550Y519832D1*
X304042Y526202D1*
X37992Y526197D1*
X40970Y519199D1*
X42513Y512773D1*
X43031Y506182D1*
X42513Y499592D1*
X40970Y493165D1*
X38440Y487058D1*
X34986Y481421D1*
X30693Y476395D1*
X25667Y472102D1*
X20030Y468648D1*
X13923Y466118D1*
X7496Y464575D1*
X906Y464056D1*
X-5685Y464575D1*
X-12112Y466118D1*
X-18320Y468705D1*
X-142811Y468707D1*
X-171933Y439738D1*
X-176531Y436396D1*
X-181596Y433816D1*
X-187001Y432059D1*
X-192615Y431171D1*
X-241388Y431059D1*
X-464398Y430984D1*
X-465180Y426293D1*
X-466686Y421781D1*
X-468879Y417559D1*
X-471706Y413734D1*
X-475097Y410396D1*
X-478967Y407631D1*
X-483223Y405505D1*
X-487759Y404072D1*
X-492463Y403365D1*
X-522402Y403512D1*
X-527140Y403923D1*
X-531757Y405070D1*
X-536138Y406925D1*
X-540173Y409444D1*
X-543765Y412562D1*
X-546825Y416203D1*
X-549280Y420280D1*
X-550261Y422458D1*
X-551329D1*
X-553522Y418236D1*
X-556349Y414411D1*
X-559740Y411073D1*
X-563610Y408308D1*
X-567866Y406182D1*
X-572402Y404749D1*
X-577106Y404042D1*
X-607045Y404189D1*
X-611793Y404601D1*
X-613772Y400386D1*
X-613739Y344156D1*
X-607520Y344740D1*
X-576298Y344268D1*
X-570925Y343067D1*
X-565861Y340913D1*
X-561268Y337879D1*
X-557299Y334066D1*
X-554085Y329597D1*
X-551731Y324613D1*
X-548840Y329795D1*
X-546013Y333621D1*
X-542622Y336958D1*
X-538752Y339723D1*
X-534496Y341849D1*
X-529961Y343282D1*
X-525256Y343990D1*
X-495318Y343843D1*
X-490579Y343432D1*
X-485962Y342285D1*
X-481581Y340429D1*
X-477546Y337911D1*
X-473954Y334793D1*
X-470894Y331151D1*
X-468440Y327075D1*
X-466655Y322665D1*
X-465581Y318031D1*
X-465247Y313277D1*
X-465395Y294735D1*
X-459860Y293521D1*
X-455465Y291701D1*
X-451408Y289215D1*
X-447791Y286126D1*
X-444702Y282509D1*
X-442217Y278453D1*
X-440396Y274058D1*
X-439285Y269433D1*
X-438886Y255589D1*
X-438192Y37391D1*
X-433252Y15823D1*
X-432871Y11081D1*
X-432921Y-14920D1*
X-435610Y-28248D1*
X-437647Y-37241D1*
X-438003Y-56745D1*
X-437491Y-270371D1*
X-438222Y-275072D1*
X-439678Y-279601D1*
X-441827Y-283845D1*
X-444612Y-287701D1*
X-447966Y-291075D1*
X-451807Y-293882D1*
X-456039Y-296054D1*
X-460559Y-297535D1*
X-462902Y-298008D1*
X-464160Y-298923D1*
X-464398Y-317047D1*
X-465180Y-321739D1*
X-466686Y-326251D1*
X-468879Y-330472D1*
X-471706Y-334298D1*
X-475097Y-337635D1*
X-478967Y-340400D1*
X-483223Y-342526D1*
X-487759Y-343959D1*
X-492463Y-344667D1*
X-522402Y-344520D1*
X-527140Y-344109D1*
X-531757Y-342962D1*
X-536138Y-341106D1*
X-540173Y-338588D1*
X-543765Y-335470D1*
X-546825Y-331828D1*
X-549280Y-327752D1*
X-550261Y-325573D1*
X-551052Y-324898D1*
X-553533Y-329811D1*
X-556861Y-334196D1*
X-560927Y-337906D1*
X-565597Y-340819D1*
X-570717Y-342840D1*
X-576117Y-343903D1*
X-584997Y-344020D1*
X-610707Y-343591D1*
X-612529Y-343298D1*
X-613343Y-343709D1*
X-613308Y-403814D1*
X-607520Y-403291D1*
X-577583Y-403623D1*
X-572891Y-404406D1*
X-568379Y-405912D1*
X-564157Y-408105D1*
X-560332Y-410932D1*
X-556995Y-414323D1*
X-554230Y-418193D1*
X-552101Y-422458D1*
X-551033D1*
X-548840Y-418236D1*
X-546013Y-414411D1*
X-542622Y-411073D1*
X-538752Y-408308D1*
X-534496Y-406182D1*
X-529961Y-404749D1*
X-525256Y-404042D1*
X-495318Y-404189D1*
X-490579Y-404600D1*
X-485962Y-405747D1*
X-481581Y-407602D1*
X-477546Y-410121D1*
X-473954Y-413239D1*
X-472346Y-415007D1*
X-470946Y-415703D1*
X-464520Y-417247D1*
X-458412Y-419777D1*
X-452776Y-423231D1*
X-447749Y-427524D1*
X-443457Y-432550D1*
X-440003Y-438186D1*
X-437472Y-444294D1*
X-435929Y-450720D1*
X-435411Y-457311D1*
X-435929Y-463902D1*
X-437472Y-470328D1*
X-440003Y-476436D1*
X-443457Y-482072D1*
X-447749Y-487098D1*
X-452776Y-491391D1*
X-458412Y-494845D1*
X-464520Y-497375D1*
X-470946Y-498919D1*
X-474643Y-499413D1*
X-478285Y-502474D1*
X-482361Y-504928D1*
X-486770Y-506713D1*
X-491404Y-507786D1*
X-496150Y-508121D1*
X-526087Y-507789D1*
X-530778Y-507007D1*
X-535290Y-505500D1*
X-539512Y-503307D1*
X-543337Y-500480D1*
X-546675Y-497089D1*
X-549440Y-493219D1*
X-551568Y-488954D1*
X-552636D1*
X-554829Y-493176D1*
X-557656Y-497001D1*
X-559293Y-498743D1*
X-558039Y-500063D1*
X-548256Y-501613D1*
X-538836Y-504673D1*
X-530010Y-509171D1*
X-521997Y-514992D1*
X-514992Y-521997D1*
X-509171Y-530010D1*
X-504673Y-538836D1*
X-501786Y-547642D1*
X-486303Y-529583D1*
X-466993Y-515214D1*
X-446160Y-504521D1*
X-427218Y-497148D1*
X-395425Y-493903D1*
X-370294Y-496007D1*
X-347913Y-501492D1*
X-323378Y-514333D1*
X-305207Y-527340D1*
X-289215Y-542723D1*
X-278549Y-560014D1*
X-269921Y-576467D1*
X-262654Y-596677D1*
X-259592Y-612904D1*
X-198462Y-612941D1*
X-198144Y-609150D1*
X-197045Y-604521D1*
X-191256Y-592108D1*
X-134388Y-477874D1*
X-131592Y-474026D1*
X-128228Y-470663D1*
X-124381Y-467866D1*
X-120142Y-465706D1*
X-117899Y-464881D1*
X-116001Y-459119D1*
X-115881Y-442194D1*
X-114929Y-439265D1*
X-113118Y-436774D1*
X-110627Y-434963D1*
X-107698Y-434012D1*
X-78600Y-433891D1*
X108465Y-434012D1*
X111394Y-434963D1*
X113885Y-436774D1*
X115696Y-439265D1*
X116647Y-442194D1*
X116768Y-464869D1*
X121252Y-466703D1*
X125308Y-469189D1*
X128925Y-472278D1*
X132014Y-475895D1*
X134504Y-479959D1*
X195979Y-601475D1*
X197440Y-606003D1*
X198173Y-610702D1*
X198261Y-613091D1*
X260497Y-613206D1*
X262008Y-602570D1*
X267555Y-581676D1*
X276425Y-562551D1*
X288185Y-545265D1*
X301751Y-530528D1*
X316820Y-518584D1*
X333039Y-508888D1*
X352080Y-501016D1*
X370661Y-496400D1*
X392591Y-494509D1*
X411551Y-495650D1*
X431436Y-500045D1*
X448113Y-506025D1*
X448661Y-505617D1*
Y-390394D1*
X455386D1*
X455272Y-372270D1*
X511965Y-525827D2*
X478908D1*
X481424Y-527835D1*
X497175Y-543702D1*
X501403Y-549186D1*
X502958Y-543486D1*
X506749Y-534335D1*
X511984Y-525814D1*
X-501755Y547753D2*
X-504673Y538836D1*
X-509171Y530010D1*
X-514992Y521997D1*
X-521997Y514992D1*
X-530010Y509171D1*
X-538836Y504673D1*
X-548256Y501613D1*
X-558039Y500063D1*
X-558524Y500045D1*
X-554230Y495209D1*
X-551776Y491133D1*
X-550794Y488954D1*
X-549726D1*
X-547533Y493176D1*
X-544706Y497001D1*
X-541315Y500339D1*
X-537445Y503104D1*
X-533189Y505230D1*
X-528654Y506663D1*
X-523949Y507370D1*
X-494010Y507223D1*
X-489272Y506812D1*
X-484655Y505665D1*
X-480266Y503804D1*
X-465390Y503500D1*
X-441741D1*
X-464865Y513273D1*
X-485996Y530614D1*
X-500961Y546583D1*
X-501730Y547731D1*
X-593930Y508026D2*
X-600094Y511924D1*
X-607627Y518357D1*
X-613832Y525600D1*
Y507214D1*
X-608592Y508047D1*
X-594049Y508024D1*
X612657Y524110D2*
X608954Y519793D1*
X610591Y519720D1*
X518571Y518160D2*
X514992Y521997D1*
X509171Y530010D1*
X504673Y538836D1*
X501613Y548256D1*
X501442Y549110D1*
X499104Y545782D1*
X484257Y528841D1*
X471596Y519114D1*
X476295Y519854D1*
X508202Y519916D1*
X512944Y519538D1*
X517577Y518420D1*
X-613234Y-524840D2*
X-607627Y-518357D1*
X-600094Y-511924D1*
X-592714Y-507345D1*
X-610730Y-507112D1*
X-613100Y-506811D1*
X-613239Y-524815D1*
X505105Y400234D2*
X476176Y400356D1*
X471478Y401105D1*
X466955Y402579D1*
X462719Y404743D1*
X458873Y407543D1*
X455513Y410909D1*
X452720Y414761D1*
X451555Y416848D1*
X450016Y417667D1*
X451647Y413996D1*
X494140Y371503D1*
X510434Y371395D1*
X515133Y370646D1*
X517432Y369995D1*
X519159Y369996D1*
X523786Y371102D1*
X528529Y371471D1*
X560436Y371346D1*
X565134Y370597D1*
X567433Y369946D1*
X571541Y370613D1*
X576991Y371385D1*
X610042Y371325D1*
X611878Y371147D1*
X611534Y374627D1*
X605108Y373084D1*
X598517Y372566D1*
X591927Y373084D1*
X585500Y374627D1*
X579392Y377157D1*
X573756Y380612D1*
X570238Y383509D1*
X566004Y380537D1*
X560114Y377535D1*
X553828Y375493D1*
X547299Y374459D1*
X540688D1*
X534159Y375493D1*
X527873Y377535D1*
X521983Y380537D1*
X516635Y384423D1*
X511961Y389097D1*
X508075Y394445D1*
X505123Y400228D1*
X611461Y251909D2*
X610096Y251091D1*
Y244479D1*
X609062Y237950D1*
X607020Y231664D1*
X604018Y225774D1*
X600133Y220427D1*
X595458Y215752D1*
X590110Y211866D1*
X584220Y208865D1*
X578244Y206911D1*
X578726Y34214D1*
X582545Y17188D1*
X582890Y3597D1*
X582824Y-13218D1*
X582546Y-15592D1*
X585147Y-27823D1*
X611728Y-54589D1*
X612975Y-52547D1*
X612804Y252073D1*
X-571253Y-37420D2*
X-575810Y-17186D1*
X-576155Y-3596D1*
X-576089Y13219D1*
X-573400Y26547D1*
X-570745Y37840D1*
X-570070Y46026D1*
X-569786Y242564D1*
X-575604Y240993D1*
X-580793Y240588D1*
X-612171Y241080D1*
X-613676Y235031D1*
X-613205Y-240671D1*
X-607749Y-239937D1*
X-576668Y-240211D1*
X-571231Y-241115D1*
X-570482Y-238751D1*
X-570196Y-40992D1*
X-570819Y-39092D1*
X368323Y-1837D2*
X367769Y-20199D1*
X366290Y-38510D1*
X363892Y-56724D1*
X360581Y-74794D1*
X356366Y-92675D1*
X351255Y-110320D1*
X345262Y-127686D1*
X338404Y-144728D1*
X330697Y-161404D1*
X322160Y-177672D1*
X312816Y-193488D1*
X302688Y-208815D1*
X291801Y-223612D1*
X280184Y-237843D1*
X267865Y-251471D1*
X254875Y-264462D1*
X241248Y-276783D1*
X227020Y-288403D1*
X212223Y-299291D1*
X196899Y-309423D1*
X181083Y-318769D1*
X164818Y-327307D1*
X148143Y-335017D1*
X131101Y-341878D1*
X113736Y-347873D1*
X96091Y-352986D1*
X78211Y-357203D1*
X60142Y-360517D1*
X41929Y-362917D1*
X23618Y-364399D1*
X5255Y-364955D1*
X-13112Y-364588D1*
X-31437Y-363298D1*
X-49675Y-361085D1*
X-67777Y-357959D1*
X-85699Y-353925D1*
X-103396Y-348995D1*
X-120823Y-343181D1*
X-137934Y-336497D1*
X-154688Y-328961D1*
X-171041Y-320591D1*
X-186953Y-311407D1*
X-202382Y-301436D1*
X-217289Y-290701D1*
X-231638Y-279228D1*
X-245391Y-267050D1*
X-258514Y-254194D1*
X-270974Y-240694D1*
X-282738Y-226584D1*
X-293777Y-211900D1*
X-304063Y-196678D1*
X-313571Y-180959D1*
X-322276Y-164782D1*
X-330155Y-148188D1*
X-337189Y-131217D1*
X-343360Y-113913D1*
X-348654Y-96322D1*
X-353054Y-78486D1*
X-356552Y-60451D1*
X-359138Y-42264D1*
X-360806Y-23969D1*
X-361550Y-5613D1*
X-361370Y12757D1*
X-360266Y31094D1*
X-358240Y49354D1*
X-355299Y67487D1*
X-351449Y85450D1*
X-346699Y103197D1*
X-341063Y120681D1*
X-334554Y137860D1*
X-327189Y154690D1*
X-318986Y171127D1*
X-309966Y187131D1*
X-300152Y202661D1*
X-289571Y217678D1*
X-278245Y232143D1*
X-266207Y246020D1*
X-253486Y259273D1*
X-240114Y271870D1*
X-226125Y283777D1*
X-211554Y294966D1*
X-196440Y305407D1*
X-180818Y315075D1*
X-164730Y323944D1*
X-148217Y331992D1*
X-131318Y339199D1*
X-114079Y345547D1*
X-96542Y351020D1*
X-78752Y355602D1*
X-60753Y359283D1*
X-42593Y362055D1*
X-24316Y363909D1*
X-5970Y364841D1*
X12402Y364849D1*
X30749Y363932D1*
X49028Y362093D1*
X67190Y359337D1*
X85192Y355669D1*
X102986Y351102D1*
X120526Y345644D1*
X137772Y339311D1*
X154676Y332118D1*
X171196Y324083D1*
X187291Y315227D1*
X202921Y305573D1*
X218045Y295144D1*
X232625Y283967D1*
X246623Y272072D1*
X260005Y259487D1*
X272738Y246243D1*
X284787Y232377D1*
X296125Y217921D1*
X306719Y202913D1*
X316546Y187391D1*
X325579Y171395D1*
X333795Y154965D1*
X341175Y138140D1*
X347698Y120967D1*
X353349Y103487D1*
X358113Y85744D1*
X361978Y67785D1*
X364934Y49654D1*
X366975Y31396D1*
X368094Y13060D1*
X368323Y-1837D1*
X-343921Y503500D2*
X-210433D1*
X-187762Y526198D1*
X-305444Y526138D1*
X-317243Y517091D1*
X-334860Y506408D1*
X-343899Y503510D1*
X448697Y-458110D2*
D10*
X545906D1*
X593232Y371415D2*
Y311564D1*
X3367Y364925D2*
Y-364925D1*
X-361558Y0D2*
X368293D1*
X-594156Y344663D2*
Y240665D1*
X-592849Y-239988D2*
Y-343986D1*
D22*
X545906Y-304567D3*
Y-458110D3*
D49*
X593379Y459990D3*
X543378Y460038D3*
X493378Y460088D3*
X593232Y311564D3*
X543234Y311614D3*
X493232Y311663D3*
D52*
X511240Y852D3*
X-504505Y-850D3*
D28*
X3367Y0D3*
D55*
X-509513Y291987D3*
X-594156Y292664D3*
X-508206Y455367D3*
X-592849Y456045D3*
D58*
Y-291987D3*
X-508206Y-292664D3*
X-594156Y-455367D3*
X-509513Y-456045D3*
G04 Bottom Clear*
%LPC*%
D16*
X906Y506182D3*
X464702Y457178D3*
X543993Y416455D3*
X598517Y414692D3*
X412482Y398542D3*
X387335Y340329D3*
X450117Y247958D3*
X568100Y247785D3*
X572268Y150862D3*
X308764Y-95143D3*
X-593178Y-218672D3*
X-477537Y-457311D3*
X-361773Y-434238D3*
X134858Y-445369D3*
X-408186Y364665D3*
X-347710Y-254899D3*
X-549874Y-372395D3*
X-406459Y132150D3*
X183711Y499672D3*
X580026Y-206403D3*
X511220Y12663D2*
D30*
X511260Y-10959D1*
X-504525Y10961D2*
X-504485Y-12661D1*
M02*
