M48
INCH
T01C0.0118
T02C0.0433
T03C0.0591
%
T01
X+000009Y+005062
X+001837Y+004997
X+004125Y+003985
X+003873Y+003403
X+004501Y+002480
X+005681Y+002478
X+005723Y+001509
X+005985Y+004147
X+005440Y+004165
X+004647Y+004572
X+003088Y-000951
X+005800Y-002064
X+001349Y-004454
X-003618Y-004342
X-004775Y-004573
X-005499Y-003724
X-005932Y-002187
X-003477Y-002549
X-004065Y+001321
X-004082Y+003647
T02
X+005112Y+000127G85X+005113Y-000110
X-005045Y+000110G85X-005045Y-000127
T03
X-005630Y+005630
X+005630Y+005630
X+005630Y-005630
X-005630Y-005630
T00
M30
