G04 DipTrace 3.2.0.1*
G04 TopPaste.gbr*
%MOIN*%
G04 #@! TF.FileFunction,Paste,Top*
G04 #@! TF.Part,Single*
%ADD33R,0.015748X0.031496*%
%ADD37R,0.011811X0.005906*%
%ADD39R,0.082677X0.019685*%
%ADD41R,0.019685X0.082677*%
%ADD45R,0.031496X0.035433*%
%ADD47R,0.035433X0.031496*%
%FSLAX26Y26*%
G04*
G70*
G90*
G75*
G01*
G04 TopPaste*
%LPD*%
D47*
X-505906Y-265748D3*
X-572835D3*
D45*
X-220472Y-360236D3*
Y-293307D3*
D47*
X-429480Y-384189D3*
X-362551D3*
X32358Y-400140D3*
X-34571D3*
X-505906Y-157480D3*
X-572835D3*
X572835D3*
X505906D3*
D45*
X215245Y-297623D3*
Y-364552D3*
D47*
X505906Y-265748D3*
X572835D3*
D45*
X-99507Y-306308D3*
Y-239379D3*
D41*
X43307Y-94488D3*
X0D3*
X86614D3*
D39*
X279528Y-19685D3*
Y23622D3*
Y240157D3*
Y283465D3*
Y413386D3*
Y456693D3*
Y500000D3*
X-279528Y-19685D3*
Y23622D3*
Y66929D3*
Y110236D3*
Y153543D3*
Y196850D3*
Y240157D3*
Y283465D3*
D41*
X-43307Y-94488D3*
X-86614D3*
X-173228D3*
X-216535D3*
D37*
X-40354Y-544673D3*
Y-570264D3*
X40354D3*
Y-544673D3*
X-40354Y-519083D3*
Y-595854D3*
X40354D3*
Y-519083D3*
D33*
X-17827Y-319323D3*
Y-236646D3*
X17606Y-319323D3*
Y-236646D3*
D45*
X102825Y-306520D3*
Y-239591D3*
M02*
